<svg xmlns="http://www.w3.org/2000/svg" xmlns:xlink="http://www.w3.org/1999/xlink" width="108" height="108" viewBox="0 0 108 108">
  <defs>
    <filter id="Trazado_982547" x="0" y="0" width="108" height="108" filterUnits="userSpaceOnUse">
      <feOffset dy="3" input="SourceAlpha"/>
      <feGaussianBlur stdDeviation="3" result="blur"/>
      <feFlood flood-opacity="0.161"/>
      <feComposite operator="in" in2="blur"/>
      <feComposite in="SourceGraphic"/>
    </filter>
  </defs>
  <g id="Grupo_1160102" data-name="Grupo 1160102" transform="translate(-616 -423)">
    <g id="Grupo_1159938" data-name="Grupo 1159938" transform="translate(0 -3487)">
      <g id="Grupo_1153177" data-name="Grupo 1153177" transform="translate(362 3397)">
        <g id="Grupo_1149598" data-name="Grupo 1149598" transform="translate(80 315)">
          <g id="Grupo_1148770" data-name="Grupo 1148770" transform="translate(-27 -2583)">
            <g id="Grupo_1146954" data-name="Grupo 1146954" transform="translate(-415 -1202)">
              <g transform="matrix(1, 0, 0, 1, 616, 3983)" filter="url(#Trazado_982547)">
                <g id="Trazado_982547-2" data-name="Trazado 982547" transform="translate(9 6)" fill="#fef4f5">
                  <path d="M 45 88.5 C 39.12687683105469 88.5 33.43022537231445 87.35007476806641 28.06830024719238 85.08217620849609 C 22.88852500915527 82.89131164550781 18.23629951477051 79.75458526611328 14.2408504486084 75.75914764404297 C 10.24541282653809 71.76370239257812 7.108687400817871 67.11147308349609 4.917825222015381 61.93170166015625 C 2.649924993515015 56.56977462768555 1.5 50.87312316894531 1.5 45 C 1.5 39.12687683105469 2.649924993515015 33.43022537231445 4.917825222015381 28.06830024719238 C 7.108687400817871 22.88852500915527 10.24541282653809 18.23629951477051 14.2408504486084 14.2408504486084 C 18.23629951477051 10.24541282653809 22.88852500915527 7.108687400817871 28.06830024719238 4.917825222015381 C 33.43022537231445 2.649924993515015 39.12687683105469 1.5 45 1.5 C 50.87312316894531 1.5 56.56977462768555 2.649924993515015 61.93170166015625 4.917825222015381 C 67.11147308349609 7.108687400817871 71.76370239257812 10.24541282653809 75.75914764404297 14.2408504486084 C 79.75458526611328 18.23629951477051 82.89131164550781 22.88852500915527 85.08217620849609 28.06830024719238 C 87.35007476806641 33.43022537231445 88.5 39.12687683105469 88.5 45 C 88.5 50.87312316894531 87.35007476806641 56.56977462768555 85.08217620849609 61.93170166015625 C 82.89131164550781 67.11147308349609 79.75458526611328 71.76370239257812 75.75914764404297 75.75914764404297 C 71.76370239257812 79.75458526611328 67.11147308349609 82.89131164550781 61.93170166015625 85.08217620849609 C 56.56977462768555 87.35007476806641 50.87312316894531 88.5 45 88.5 Z" stroke="none"/>
                  <path d="M 45 3 C 39.32871246337891 3 33.82865524291992 4.110054016113281 28.65262985229492 6.299339294433594 C 23.65165710449219 8.414573669433594 19.15968322753906 11.44334411621094 15.301513671875 15.301513671875 C 11.44334411621094 19.15968322753906 8.414573669433594 23.65165710449219 6.299339294433594 28.65262985229492 C 4.110054016113281 33.82865524291992 3 39.32871246337891 3 45 C 3 50.67128753662109 4.110054016113281 56.17134475708008 6.299339294433594 61.34737396240234 C 8.414573669433594 66.34834289550781 11.44334411621094 70.84031677246094 15.301513671875 74.698486328125 C 19.15968322753906 78.55665588378906 23.65165710449219 81.58542633056641 28.65262985229492 83.70066070556641 C 33.82865524291992 85.88994598388672 39.32871246337891 87 45 87 C 50.67128753662109 87 56.17134475708008 85.88994598388672 61.34737396240234 83.70066070556641 C 66.34834289550781 81.58542633056641 70.84031677246094 78.55665588378906 74.698486328125 74.698486328125 C 78.55665588378906 70.84031677246094 81.58542633056641 66.34834289550781 83.70066070556641 61.34737396240234 C 85.88994598388672 56.17134475708008 87 50.67128753662109 87 45 C 87 39.32871246337891 85.88994598388672 33.82865524291992 83.70066070556641 28.65262985229492 C 81.58542633056641 23.65165710449219 78.55665588378906 19.15968322753906 74.698486328125 15.301513671875 C 70.84031677246094 11.44334411621094 66.34834289550781 8.414573669433594 61.34737396240234 6.299339294433594 C 56.17134475708008 4.110054016113281 50.67128753662109 3 45 3 M 45 0 C 69.85281372070312 0 90 20.14718627929688 90 45 C 90 69.85281372070312 69.85281372070312 90 45 90 C 20.14718627929688 90 0 69.85281372070312 0 45 C 0 20.14718627929688 20.14718627929688 0 45 0 Z" stroke="none" fill="#ff7f8f"/>
                </g>
              </g>
            </g>
          </g>
        </g>
      </g>
    </g>
    <g id="puzzle_921355" transform="translate(642.285 446.282)">
      <path id="Trazado_993169" data-name="Trazado 993169" d="M247.383,342.317H243a.816.816,0,0,0-.713,1.217,3.324,3.324,0,0,1,.443,1.663v.139a3.343,3.343,0,0,1-3.343,3.343h0a3.343,3.343,0,0,1-3.343-3.343V345.2a3.324,3.324,0,0,1,.443-1.663.816.816,0,0,0-.713-1.217h-4.381a2.356,2.356,0,0,1-2.355-2.294h-9.927v16.023h30.626V340.023h0A2.356,2.356,0,0,1,247.383,342.317Z" transform="translate(-195.391 -303.208)" fill="#ff8c8c"/>
      <path id="Trazado_993170" data-name="Trazado 993170" d="M278.065,177.009h.139a3.328,3.328,0,0,1,1.491.35.816.816,0,0,0,1.174-.736V172.36A2.356,2.356,0,0,0,278.513,170H262.525a2.356,2.356,0,0,0-2.356,2.356v3.7a.816.816,0,0,1-1.174.736,3.327,3.327,0,0,0-1.491-.35h-.139a3.343,3.343,0,0,0-3.343,3.343h0a3.343,3.343,0,0,0,3.343,3.343h.139a3.327,3.327,0,0,0,1.491-.35.816.816,0,0,1,1.174.736v4.833a2.356,2.356,0,0,0,2.356,2.356h4.381a.816.816,0,0,1,.713,1.217,3.324,3.324,0,0,0-.443,1.663v.139a3.343,3.343,0,0,0,3.343,3.343h0a3.343,3.343,0,0,0,3.343-3.343v-.139a3.324,3.324,0,0,0-.443-1.663.816.816,0,0,1,.713-1.217h4.381a2.356,2.356,0,0,0,2.356-2.356V184.08a.816.816,0,0,0-1.174-.736,3.328,3.328,0,0,1-1.491.35h-.139a3.343,3.343,0,0,1-3.343-3.343h0A3.343,3.343,0,0,1,278.065,177.009Z" transform="translate(-226.521 -151.596)" fill="#f5b955"/>
      <rect id="Rectángulo_409823" data-name="Rectángulo 409823" width="30.627" height="16.023" transform="translate(1.083 2.599)" fill="#78d2fa"/>
      <path id="Trazado_993171" data-name="Trazado 993171" d="M29.527,111.734a3.327,3.327,0,0,1-1.491.35H27.9a3.343,3.343,0,0,1-3.343-3.343h0A3.343,3.343,0,0,1,27.9,105.4h.139a3.328,3.328,0,0,1,1.491.35.816.816,0,0,0,1.174-.736V100.75a2.356,2.356,0,0,0-2.356-2.356H23.964a.816.816,0,0,1-.713-1.217,3.325,3.325,0,0,0,.443-1.663v-.139a3.343,3.343,0,0,0-3.343-3.343h0a3.343,3.343,0,0,0-3.343,3.343v.139a3.325,3.325,0,0,0,.443,1.663.816.816,0,0,1-.713,1.217H12.356A2.356,2.356,0,0,0,10,100.75v4.269a.816.816,0,0,0,1.174.736,3.328,3.328,0,0,1,1.491-.35H12.8a3.343,3.343,0,0,1,3.343,3.343h0A3.343,3.343,0,0,1,12.8,112.09h-.139a3.328,3.328,0,0,1-1.491-.35.816.816,0,0,0-1.174.736v4.264a2.356,2.356,0,0,0,2.356,2.356H28.345a2.355,2.355,0,0,0,2.356-2.356V112.47A.816.816,0,0,0,29.527,111.734Z" transform="translate(-8.917 -82.066)" fill="#a5dc69"/>
      <rect id="Rectángulo_409824" data-name="Rectángulo 409824" width="5.197" height="16.023" transform="translate(26.513 2.599)" fill="#fff"/>
      <g id="Grupo_1160101" data-name="Grupo 1160101" transform="translate(1.083 1.086)">
        <path id="Trazado_993172" data-name="Trazado 993172" d="M310.979,10h-10.33a12.13,12.13,0,0,0-6.633,1.974l-1.139.744V26.434l2.39,1.659a13.341,13.341,0,0,0,7.609,2.382h1.43a3.53,3.53,0,0,0,3.53-3.53l.031.379h3.023a2.167,2.167,0,1,0,0-4.331h2.254a2.167,2.167,0,1,0,0-4.331h.089a2.165,2.165,0,1,0,0-4.331h-2.254a2.165,2.165,0,1,0,0-4.331Z" transform="translate(-262.252 -10.003)" fill="#ffcdac"/>
        <path id="Trazado_993173" data-name="Trazado 993173" d="M14.42,333.367H24.75a12.129,12.129,0,0,0,6.633-1.974l1.139-.744V316.936l-2.39-1.659a13.34,13.34,0,0,0-7.609-2.382h-1.43a3.53,3.53,0,0,0-3.53,3.53l-.031-.379H14.508a2.167,2.167,0,1,0,0,4.331H12.254a2.167,2.167,0,1,0,0,4.331h-.089a2.165,2.165,0,1,0,0,4.331H14.42a2.165,2.165,0,0,0,0,4.331Z" transform="translate(-10 -280.102)" fill="#ffcdac"/>
      </g>
      <rect id="Rectángulo_409825" data-name="Rectángulo 409825" width="5.197" height="16.023" transform="translate(23.722 36.815)" fill="#fff"/>
      <path id="Trazado_993174" data-name="Trazado 993174" d="M235.964,51.318A1.081,1.081,0,1,0,235.2,51,1.092,1.092,0,0,0,235.964,51.318Z" transform="translate(-209.451 -43.829)"/>
      <path id="Trazado_993175" data-name="Trazado 993175" d="M52.934,17.457a3.156,3.156,0,0,0,.01-2.4,3.27,3.27,0,0,0,2.487-3.141,3.189,3.189,0,0,0-.9-2.218,3.244,3.244,0,0,0-1.692-5.267A3.246,3.246,0,0,0,49.81,0H39.6a13.176,13.176,0,0,0-6.986,2,1.081,1.081,0,0,0-.9-.487H1.083A1.083,1.083,0,0,0,0,2.6V22.953a1.9,1.9,0,0,0,2.741,1.7,2.234,2.234,0,0,1,1.007-.236h.139a2.26,2.26,0,1,1,0,4.52H3.748A2.234,2.234,0,0,1,2.741,28.7,1.9,1.9,0,0,0,0,30.409v4.264a3.444,3.444,0,0,0,2.5,3.307,3.156,3.156,0,0,0-.01,2.4A3.27,3.27,0,0,0,0,43.524a3.186,3.186,0,0,0,.841,2.152,3.245,3.245,0,0,0,1.635,5.333A3.246,3.246,0,0,0,5.5,55.434h10.33a13.175,13.175,0,0,0,6.986-2,1.081,1.081,0,0,0,.9.487H54.349a1.083,1.083,0,0,0,1.083-1.083V36.815c0-.007,0-.014,0-.021s0-.028,0-.041V32.483a1.9,1.9,0,0,0-2.741-1.7,2.234,2.234,0,0,1-1.007.236h-.139a2.26,2.26,0,1,1,0-4.52h.139a2.234,2.234,0,0,1,1.007.236,1.9,1.9,0,0,0,2.741-1.7V20.764A3.444,3.444,0,0,0,52.934,17.457Zm-5.065-.132V15.16H49.84a1.086,1.086,0,1,1,0,2.165H47.869Zm4.225-4.331H47.869V10.829h4.225a1.086,1.086,0,1,1,0,2.165Zm-.031-4.331H44.208a1.083,1.083,0,1,1,0-2.165h7.856a1.083,1.083,0,0,1,0,2.165Zm-7.737-6.5H49.81a1.083,1.083,0,0,1,0,2.165h-5.6a1.083,1.083,0,1,1,0-2.165Zm-4.728,0h1.547a3.24,3.24,0,0,0,.644,3.248A3.245,3.245,0,0,0,42.8,10.51a5.2,5.2,0,0,0-1.092,2.1,7.7,7.7,0,0,0-3.974-2.6,1.083,1.083,0,0,0-.575,2.088,5.548,5.548,0,0,1,3.658,3.206l.343.811a1.083,1.083,0,0,0,2.056-.2l.564-2.658A3.085,3.085,0,0,1,45.7,11.029v7a2.45,2.45,0,0,1-2.448,2.448h-1.43a12.2,12.2,0,0,1-6.991-2.189l-2.043-1.419V4.467l.766-.5A11.02,11.02,0,0,1,39.6,2.168ZM30.844,32.616h.139a4.382,4.382,0,0,0,1.582-.291v3.407H23.722a1.08,1.08,0,0,0-.823.38l-.27-.188a3.455,3.455,0,0,0,.237-1.253V30.4a1.9,1.9,0,0,0-2.741-1.7,2.233,2.233,0,0,1-1.007.236h-.139a2.26,2.26,0,0,1,0-4.52h.139a2.234,2.234,0,0,1,1.007.236,1.9,1.9,0,0,0,2.741-1.7V19.7h8.843a1.08,1.08,0,0,0,.823-.38l.27.188a3.425,3.425,0,0,0-.237,1.253v3.293a4.381,4.381,0,0,0-1.582-.291h-.139a4.425,4.425,0,1,0,0,8.85ZM30.626,3.681V17.539H27.714V10.216a1.083,1.083,0,0,0-2.165,0v7.323h-2.88a3.444,3.444,0,0,0-3.242-2.294h-3.95a4.43,4.43,0,0,0,.381-1.8v-.139a4.425,4.425,0,1,0-8.85,0v.139a4.431,4.431,0,0,0,.381,1.8H3.439a3.418,3.418,0,0,0-1.274.246V3.681ZM2.165,30.815a4.381,4.381,0,0,0,1.582.291h.139a4.425,4.425,0,1,0,0-8.85H3.748a4.381,4.381,0,0,0-1.582.291V18.684a1.275,1.275,0,0,1,1.274-1.274H7.82a1.91,1.91,0,0,0,1.648-.951,1.87,1.87,0,0,0,0-1.888,2.255,2.255,0,0,1-.3-1.123v-.139a2.26,2.26,0,0,1,4.52,0v.139a2.256,2.256,0,0,1-.3,1.123,1.87,1.87,0,0,0,0,1.888,1.91,1.91,0,0,0,1.648.951h4.381A1.275,1.275,0,0,1,20.7,18.684v3.857a4.381,4.381,0,0,0-1.582-.291H18.98a4.425,4.425,0,0,0,0,8.85h.139A4.382,4.382,0,0,0,20.7,30.81v3.854a14.346,14.346,0,0,0-7.1-1.868h-1.43A4.62,4.62,0,0,0,7.8,35.946H3.439a1.275,1.275,0,0,1-1.274-1.274S2.165,30.815,2.165,30.815Zm2.254,8.379a1.131,1.131,0,0,1,1.172-1.083H7.562v2.165H5.591A1.131,1.131,0,0,1,4.419,39.194ZM3.337,42.442H7.562v2.165H3.337a1.086,1.086,0,1,1,0-2.165Zm-.089,4.331H11.1a1.083,1.083,0,1,1,0,2.165H3.248a1.083,1.083,0,1,1,0-2.165Zm1.172,5.413A1.084,1.084,0,0,1,5.5,51.1h5.6a1.083,1.083,0,1,1,0,2.165H5.5A1.084,1.084,0,0,1,4.419,52.186Zm11.413,1.083H14.166a3.24,3.24,0,0,0-.644-3.248,3.243,3.243,0,0,0-.933-5.052,5.2,5.2,0,0,0,1.129-2.145,7.7,7.7,0,0,0,3.974,2.6,1.083,1.083,0,0,0,.575-2.088A5.548,5.548,0,0,1,14.61,40.13l-.343-.811a1.083,1.083,0,0,0-2.056.2l-.564,2.658a3.085,3.085,0,0,1-1.919,2.233v-7a2.45,2.45,0,0,1,2.448-2.448h1.43A12.2,12.2,0,0,1,20.6,37.15l2.043,1.419v12.4l-.766.5A11.021,11.021,0,0,1,15.833,53.268ZM24.8,51.755V37.9h3.031v7.323a1.083,1.083,0,0,0,2.165,0V37.9h2.76A3.444,3.444,0,0,0,36,40.191h3.95a4.43,4.43,0,0,0-.381,1.8v.139a4.425,4.425,0,1,0,8.85,0v-.139a4.432,4.432,0,0,0-.381-1.8h3.95a3.418,3.418,0,0,0,1.274-.246V51.755ZM53.266,24.622a4.381,4.381,0,0,0-1.582-.291h-.139a4.425,4.425,0,0,0,0,8.85h.139a4.381,4.381,0,0,0,1.582-.291v3.863a1.275,1.275,0,0,1-1.274,1.274H47.611a1.91,1.91,0,0,0-1.648.951,1.87,1.87,0,0,0,0,1.888,2.255,2.255,0,0,1,.3,1.123v.139a2.26,2.26,0,1,1-4.52,0v-.139a2.256,2.256,0,0,1,.3-1.123,1.87,1.87,0,0,0,0-1.888,1.91,1.91,0,0,0-1.648-.951H36a1.275,1.275,0,0,1-1.274-1.274V31.919a1.9,1.9,0,0,0-2.741-1.7,2.233,2.233,0,0,1-1.007.236h-.139a2.26,2.26,0,1,1,0-4.52h.139a2.234,2.234,0,0,1,1.007.236,1.9,1.9,0,0,0,2.741-1.7v-3.69a14.346,14.346,0,0,0,7.1,1.868h1.43a4.62,4.62,0,0,0,4.374-3.151h4.362a1.275,1.275,0,0,1,1.274,1.274v3.857Z" transform="translate(0 0)"/>
      <path id="Trazado_993176" data-name="Trazado 993176" d="M258.192,442.843a1.081,1.081,0,1,0,.767.317A1.09,1.09,0,0,0,258.192,442.843Z" transform="translate(-229.273 -394.896)"/>
    </g>
  </g>
</svg>
