<svg id="Icon" xmlns="http://www.w3.org/2000/svg" xmlns:xlink="http://www.w3.org/1999/xlink" width="72.557" height="87.374" viewBox="0 0 72.557 87.374">
  <defs>
    <clipPath id="clip-path">
      <rect id="Rectángulo_401212" data-name="Rectángulo 401212" width="72.557" height="87.374" fill="none"/>
    </clipPath>
  </defs>
  <g id="Grupo_1099330" data-name="Grupo 1099330" clip-path="url(#clip-path)">
    <path id="Trazado_873964" data-name="Trazado 873964" d="M72.557,36.277A36.278,36.278,0,1,1,36.278,0,36.278,36.278,0,0,1,72.557,36.277" transform="translate(0 0.001)" fill="#f3f3fa"/>
    <path id="Trazado_873965" data-name="Trazado 873965" d="M105.946,309.1c0,.615-2.1,1.169-5.491,1.567a114.247,114.247,0,0,1-12.67.621,114.225,114.225,0,0,1-12.671-.621c-3.388-.4-5.491-.952-5.491-1.567,0-1.21,8.13-2.189,18.162-2.189s18.161.98,18.161,2.189" transform="translate(-51.506 -227.047)" fill="#b6b6bd"/>
    <path id="Trazado_873966" data-name="Trazado 873966" d="M105.946,315.322v3.136c0,1.208-8.132,2.188-18.161,2.188s-18.162-.98-18.162-2.188v-3.136c0,.615,2.1,1.169,5.491,1.567a114.224,114.224,0,0,0,12.671.621,114.246,114.246,0,0,0,12.67-.621c3.388-.4,5.491-.952,5.491-1.567" transform="translate(-51.506 -233.272)" fill="#494959"/>
    <rect id="Rectángulo_401210" data-name="Rectángulo 401210" width="4.634" height="19.224" transform="translate(33.961 58.108)" fill="#494959"/>
    <path id="Trazado_873967" data-name="Trazado 873967" d="M127.864,291.575h4.446a1.059,1.059,0,0,1,1.059,1.059v3.417a1.059,1.059,0,0,1-1.059,1.059h-4.446a1.059,1.059,0,0,1-1.059-1.059v-3.417a1.059,1.059,0,0,1,1.059-1.059" transform="translate(-93.809 -215.704)" fill="#292932"/>
    <rect id="Rectángulo_401211" data-name="Rectángulo 401211" width="26.001" height="1.802" transform="translate(23.278 37.808)" fill="#292932"/>
    <path id="Trazado_873968" data-name="Trazado 873968" d="M119.491,88.706v23.17a4.891,4.891,0,0,1-4.891,4.891H102.757a4.891,4.891,0,0,1-4.891-4.891V88.706A4.885,4.885,0,0,1,101,84.141v.72a.886.886,0,0,0,.886.888h.1a.888.888,0,0,0,.888-.888V83.815h.816v1.046a.888.888,0,0,0,.888.888h.1a.888.888,0,0,0,.888-.888V83.815h.816v1.046a.888.888,0,0,0,.888.888h.1a.887.887,0,0,0,.888-.888V83.815h.818v1.046a.887.887,0,0,0,.888.888h.1a.888.888,0,0,0,.888-.888V83.815h.816v1.046a.888.888,0,0,0,.888.888h.1a.888.888,0,0,0,.888-.888V83.815h.816v1.046a.888.888,0,0,0,.888.888h.1a.886.886,0,0,0,.886-.888v-.72a4.885,4.885,0,0,1,3.136,4.565" transform="translate(-72.4 -62.005)" fill="#494959"/>
    <path id="Trazado_873969" data-name="Trazado 873969" d="M110.8,85.748h.1a.887.887,0,0,0,.887-.887V83.815h-.122a4.874,4.874,0,0,0-1.756.326v.719a.887.887,0,0,0,.887.887" transform="translate(-81.314 -62.005)" fill="#292932"/>
    <path id="Trazado_873970" data-name="Trazado 873970" d="M121.16,85.748h.1a.887.887,0,0,0,.887-.887V83.815h-1.878v1.046a.887.887,0,0,0,.887.887" transform="translate(-88.977 -62.005)" fill="#292932"/>
    <path id="Trazado_873971" data-name="Trazado 873971" d="M131.518,85.748h.1a.887.887,0,0,0,.887-.887V83.815h-1.878v1.046a.887.887,0,0,0,.887.887" transform="translate(-96.639 -62.005)" fill="#292932"/>
    <path id="Trazado_873972" data-name="Trazado 873972" d="M141.875,85.748h.1a.887.887,0,0,0,.887-.887V83.815h-1.879v1.046a.887.887,0,0,0,.887.887" transform="translate(-104.301 -62.005)" fill="#292932"/>
    <path id="Trazado_873973" data-name="Trazado 873973" d="M152.233,85.748h.1a.887.887,0,0,0,.887-.887V83.815h-1.878v1.046a.887.887,0,0,0,.887.887" transform="translate(-111.964 -62.005)" fill="#292932"/>
    <path id="Trazado_873974" data-name="Trazado 873974" d="M162.591,85.748h.1a.887.887,0,0,0,.887-.887v-.719a4.876,4.876,0,0,0-1.756-.326H161.7v1.046a.887.887,0,0,0,.887.887" transform="translate(-119.627 -62.005)" fill="#292932"/>
    <path id="Trazado_873975" data-name="Trazado 873975" d="M137.012,130.136a1.306,1.306,0,1,0-1.306,1.306,1.306,1.306,0,0,0,1.306-1.306" transform="translate(-99.427 -95.307)" fill="#292932"/>
    <path id="Trazado_873976" data-name="Trazado 873976" d="M111.376,188.432h0a.941.941,0,0,1-.941-.941v-4.3a.941.941,0,0,1,1.882,0v4.3a.941.941,0,0,1-.941.941" transform="translate(-81.699 -134.83)" fill="#292932"/>
    <path id="Trazado_873977" data-name="Trazado 873977" d="M121.524,188.432h0a.941.941,0,0,1-.941-.941v-4.3a.941.941,0,0,1,1.881,0v4.3a.941.941,0,0,1-.941.941" transform="translate(-89.206 -134.83)" fill="#292932"/>
    <path id="Trazado_873978" data-name="Trazado 873978" d="M131.671,188.432h0a.941.941,0,0,1-.941-.941v-4.3a.941.941,0,0,1,1.882,0v4.3a.941.941,0,0,1-.941.941" transform="translate(-96.713 -134.83)" fill="#292932"/>
    <path id="Trazado_873979" data-name="Trazado 873979" d="M141.818,188.432h0a.941.941,0,0,1-.941-.941v-4.3a.941.941,0,0,1,1.881,0v4.3a.941.941,0,0,1-.941.941" transform="translate(-104.219 -134.83)" fill="#292932"/>
    <path id="Trazado_873980" data-name="Trazado 873980" d="M151.965,188.432h0a.941.941,0,0,1-.941-.941v-4.3a.941.941,0,1,1,1.881,0v4.3a.941.941,0,0,1-.941.941" transform="translate(-111.726 -134.83)" fill="#292932"/>
    <path id="Trazado_873981" data-name="Trazado 873981" d="M162.113,188.432h0a.941.941,0,0,1-.941-.941v-4.3a.941.941,0,1,1,1.881,0v4.3a.941.941,0,0,1-.941.941" transform="translate(-119.233 -134.83)" fill="#292932"/>
    <path id="Trazado_873982" data-name="Trazado 873982" d="M107.259,96.338a.869.869,0,0,1-.9.843l-7.086.158-1.411,1.088V97.375a4.87,4.87,0,0,1,.16-1.245l.3-.23a.983.983,0,0,1,.578-.2l7.413-.165a.881.881,0,0,1,.943.8" transform="translate(-72.4 -70.674)" fill="#292932"/>
    <path id="Trazado_873983" data-name="Trazado 873983" d="M107.259,106.724a.871.871,0,0,1-.9.838l-7.146.107-1.342.794v-1.976l.551-.326a1,1,0,0,1,.493-.136l7.413-.111a.877.877,0,0,1,.935.81" transform="translate(-72.4 -78.353)" fill="#292932"/>
    <path id="Trazado_873984" data-name="Trazado 873984" d="M107.259,117.107a.873.873,0,0,1-.913.832l-7.2.053-1.282.576v-1.845l.646-.291a1.009,1.009,0,0,1,.405-.088l7.413-.055h.008a.876.876,0,0,1,.921.818" transform="translate(-72.4 -86.029)" fill="#292932"/>
    <path id="Trazado_873985" data-name="Trazado 873985" d="M105.233,128.319H99.092l-1.226.413v-1.762l.737-.247a1.055,1.055,0,0,1,.322-.051h7.924c.023,0-.93,1.648-1.616,1.648" transform="translate(-72.4 -93.71)" fill="#292932"/>
    <path id="Trazado_873986" data-name="Trazado 873986" d="M107.259,165.48a.879.879,0,0,1-.943.8l-7.413-.164a.982.982,0,0,1-.578-.2l-.458-.353V163.39l1.411,1.088,7.086.157a.872.872,0,0,1,.9.845" transform="translate(-72.4 -120.874)" fill="#292932"/>
    <path id="Trazado_873987" data-name="Trazado 873987" d="M107.259,156.077a.877.877,0,0,1-.935.81l-7.413-.111a1,1,0,0,1-.493-.136l-.551-.326v-1.976l1.342.794,7.146.107a.871.871,0,0,1,.9.838" transform="translate(-72.4 -114.178)" fill="#292932"/>
    <path id="Trazado_873988" data-name="Trazado 873988" d="M107.259,146.46a.876.876,0,0,1-.921.816h-.008l-7.413-.053a1.009,1.009,0,0,1-.405-.088l-.646-.291V145l1.282.576,7.2.053a.873.873,0,0,1,.913.832" transform="translate(-72.4 -107.268)" fill="#292932"/>
    <path id="Trazado_873989" data-name="Trazado 873989" d="M106.849,137.52H98.925a1,1,0,0,1-.322-.053l-.737-.247v-1.761l1.226.413h6.141c.686,0,1.639,1.648,1.616,1.648" transform="translate(-72.4 -100.211)" fill="#292932"/>
    <path id="Trazado_873990" data-name="Trazado 873990" d="M154.267,97.374v1.053l-1.411-1.088-7.086-.158a.869.869,0,0,1-.9-.843.881.881,0,0,1,.943-.8l7.413.166a.98.98,0,0,1,.578.2l.3.23a4.871,4.871,0,0,1,.16,1.245" transform="translate(-107.176 -70.674)" fill="#292932"/>
    <path id="Trazado_873991" data-name="Trazado 873991" d="M154.267,106.487v1.976l-1.342-.793-7.146-.107a.829.829,0,1,1,.031-1.648l7.413.111a1,1,0,0,1,.493.136Z" transform="translate(-107.177 -78.354)" fill="#292932"/>
    <path id="Trazado_873992" data-name="Trazado 873992" d="M154.268,116.724v1.845l-1.282-.576-7.2-.054a.83.83,0,1,1,.007-1.65h.007l7.413.055a1.009,1.009,0,0,1,.405.088Z" transform="translate(-107.177 -86.029)" fill="#292932"/>
    <path id="Trazado_873993" data-name="Trazado 873993" d="M154.694,126.722l.737.247v1.762l-1.226-.412h-6.141c-.686,0-1.639-1.648-1.616-1.648h7.924a1.057,1.057,0,0,1,.322.052" transform="translate(-108.34 -93.709)" fill="#292932"/>
    <path id="Trazado_873994" data-name="Trazado 873994" d="M154.267,163.39v2.175l-.458.354a.98.98,0,0,1-.578.2l-7.413.164a.829.829,0,1,1-.046-1.648l7.086-.157Z" transform="translate(-107.176 -120.874)" fill="#292932"/>
    <path id="Trazado_873995" data-name="Trazado 873995" d="M154.267,154.339v1.976l-.551.326a1,1,0,0,1-.493.136l-7.413.111a.829.829,0,1,1-.031-1.648l7.146-.107Z" transform="translate(-107.177 -114.178)" fill="#292932"/>
    <path id="Trazado_873996" data-name="Trazado 873996" d="M154.268,145v1.845l-.646.291a1.008,1.008,0,0,1-.405.088l-7.413.054H145.8a.829.829,0,1,1-.007-1.648l7.2-.053Z" transform="translate(-107.177 -107.268)" fill="#292932"/>
    <path id="Trazado_873997" data-name="Trazado 873997" d="M154.2,135.871l1.226-.412v1.76l-.737.247a1,1,0,0,1-.322.053h-7.924c-.023,0,.93-1.648,1.616-1.648Z" transform="translate(-108.34 -100.211)" fill="#292932"/>
    <path id="Trazado_873998" data-name="Trazado 873998" d="M105.044,158.7H93.067a8.219,8.219,0,0,1-8.209-8.209V134.331a1.2,1.2,0,0,1,2.394,0v16.157a5.822,5.822,0,0,0,5.816,5.815h11.976a5.822,5.822,0,0,0,5.815-5.815V134.331a1.2,1.2,0,0,1,2.394,0v16.157a8.218,8.218,0,0,1-8.209,8.209" transform="translate(-62.777 -98.491)" fill="#b6b6bd"/>
    <path id="Trazado_873999" data-name="Trazado 873999" d="M196.221,82.724a6.3,6.3,0,0,1-6.3,6.3V78.466a14.181,14.181,0,0,0-.145-2.036c.048,0,.1,0,.145,0a6.3,6.3,0,0,1,6.3,6.3" transform="translate(-140.396 -56.54)" fill="#ed1c24"/>
    <path id="Trazado_874000" data-name="Trazado 874000" d="M64.3,82.724a6.3,6.3,0,0,0,6.3,6.3V78.466a14.217,14.217,0,0,1,.145-2.036c-.048,0-.1,0-.145,0a6.3,6.3,0,0,0-6.3,6.3" transform="translate(-47.57 -56.54)" fill="#ed1c24"/>
    <path id="Trazado_874001" data-name="Trazado 874001" d="M112.175,56.257a1.154,1.154,0,0,1-1.154-1.154v-9.6a11.847,11.847,0,1,0-23.693,0v9.6a1.154,1.154,0,0,1-2.309,0v-9.6a14.155,14.155,0,1,1,28.311,0v9.6a1.154,1.154,0,0,1-1.154,1.154" transform="translate(-62.896 -23.194)" fill="#494959"/>
  </g>
</svg>
