<svg xmlns="http://www.w3.org/2000/svg" xmlns:xlink="http://www.w3.org/1999/xlink" width="98" height="98" viewBox="0 0 98 98">
  <defs>
    <filter id="Trazado_982548" x="0" y="0" width="98" height="98" filterUnits="userSpaceOnUse">
      <feOffset dy="3" input="SourceAlpha"/>
      <feGaussianBlur stdDeviation="3" result="blur"/>
      <feFlood flood-opacity="0.161"/>
      <feComposite operator="in" in2="blur"/>
      <feComposite in="SourceGraphic"/>
    </filter>
  </defs>
  <g id="Grupo_1160027" data-name="Grupo 1160027" transform="translate(-604 -5254)">
    <g id="Grupo_1159317" data-name="Grupo 1159317" transform="translate(0 4239)">
      <g id="Grupo_1155643" data-name="Grupo 1155643" transform="translate(105 166)">
        <g id="Grupo_1154394" data-name="Grupo 1154394" transform="translate(-113 -1247)">
          <g id="Grupo_1149898" data-name="Grupo 1149898" transform="translate(0 -2463)">
            <g id="Grupo_1149695" data-name="Grupo 1149695" transform="translate(411 4104)">
              <g id="Grupo_1149263" data-name="Grupo 1149263" transform="translate(210 461)">
                <g transform="matrix(1, 0, 0, 1, -9, -6)" filter="url(#Trazado_982548)">
                  <g id="Trazado_982548-2" data-name="Trazado 982548" transform="translate(9 6)" fill="#effcf6">
                    <path d="M 40 78.5 C 34.80187606811523 78.5 29.76003265380859 77.48227691650391 25.01452255249023 75.47509765625 C 20.43014526367188 73.53606414794922 16.31264495849609 70.75986480712891 12.77638912200928 67.22360992431641 C 9.240133285522461 63.68735504150391 6.46393346786499 59.56985473632812 4.524899959564209 54.98547744750977 C 2.517722129821777 50.23996734619141 1.5 45.19812393188477 1.5 40 C 1.5 34.80187606811523 2.517722129821777 29.76003265380859 4.524899959564209 25.01452255249023 C 6.46393346786499 20.43014526367188 9.240133285522461 16.31264495849609 12.77638912200928 12.77638912200928 C 16.31264495849609 9.240133285522461 20.43014526367188 6.46393346786499 25.01452255249023 4.524899959564209 C 29.76003265380859 2.517722129821777 34.80187606811523 1.5 40 1.5 C 45.19812393188477 1.5 50.23996734619141 2.517722129821777 54.98547744750977 4.524899959564209 C 59.56985473632812 6.46393346786499 63.68735504150391 9.240133285522461 67.22360992431641 12.77638912200928 C 70.75986480712891 16.31264495849609 73.53606414794922 20.43014526367188 75.47509765625 25.01452255249023 C 77.48227691650391 29.76003265380859 78.5 34.80187606811523 78.5 40 C 78.5 45.19812393188477 77.48227691650391 50.23996734619141 75.47509765625 54.98547744750977 C 73.53606414794922 59.56985473632812 70.75986480712891 63.68735504150391 67.22360992431641 67.22360992431641 C 63.68735504150391 70.75986480712891 59.56985473632812 73.53606414794922 54.98547744750977 75.47509765625 C 50.23996734619141 77.48227691650391 45.19812393188477 78.5 40 78.5 Z" stroke="none"/>
                    <path d="M 40 3 C 35.00370788574219 3 30.15846633911133 3.977851867675781 25.59885406494141 5.906410217285156 C 21.19326782226562 7.769813537597656 17.23602676391602 10.43806457519531 13.83704376220703 13.83705139160156 C 10.43806457519531 17.23603820800781 7.769813537597656 21.19327926635742 5.906410217285156 25.59885406494141 C 3.977851867675781 30.15846633911133 3 35.00370788574219 3 40 C 3 44.99629211425781 3.977851867675781 49.84153366088867 5.906410217285156 54.40114593505859 C 7.769813537597656 58.80672073364258 10.43806457519531 62.76396179199219 13.83704376220703 66.16294860839844 C 17.23602676391602 69.56193542480469 21.19326782226562 72.23018646240234 25.59885406494141 74.09358978271484 C 30.15846633911133 76.02214813232422 35.00370788574219 77 40 77 C 44.99629211425781 77 49.84153366088867 76.02214813232422 54.40114593505859 74.09358978271484 C 58.80672073364258 72.23018646240234 62.76396179199219 69.56193542480469 66.16294860839844 66.16294860839844 C 69.56193542480469 62.76396179199219 72.23018646240234 58.80672073364258 74.09358978271484 54.40114593505859 C 76.02214813232422 49.84153366088867 77 44.99629211425781 77 40 C 77 35.00370788574219 76.02214813232422 30.15846633911133 74.09358978271484 25.59885406494141 C 72.23018646240234 21.19327926635742 69.56193542480469 17.23603820800781 66.16294860839844 13.83705139160156 C 62.76396179199219 10.43806457519531 58.80672073364258 7.769813537597656 54.40114593505859 5.906410217285156 C 49.84153366088867 3.977851867675781 44.99629211425781 3 40 3 M 40 0 C 62.09138488769531 0 80 17.90861511230469 80 40 C 80 62.09138488769531 62.09138488769531 80 40 80 C 17.90859985351562 80 0 62.09138488769531 0 40 C 0 17.90861511230469 17.90859985351562 0 40 0 Z" stroke="none" fill="#3d7e5e"/>
                  </g>
                </g>
              </g>
            </g>
          </g>
        </g>
      </g>
    </g>
    <g id="red" transform="translate(627 5273)">
      <g id="Grupo_1159999" data-name="Grupo 1159999" transform="translate(39.215 33.365)">
        <g id="Grupo_1159995" data-name="Grupo 1159995" transform="translate(0 8.356)">
          <path id="Trazado_992984" data-name="Trazado 992984" d="M379.24,407.244v4.6h12.952v-4.6a3.76,3.76,0,0,0-3.76-3.76H383A3.76,3.76,0,0,0,379.24,407.244Z" transform="translate(-379.24 -403.484)" fill="#e69642"/>
        </g>
        <g id="Grupo_1159996" data-name="Grupo 1159996" transform="translate(6.476 8.356)">
          <path id="Trazado_992985" data-name="Trazado 992985" d="M444.586,403.484H441.87a3.76,3.76,0,0,1,3.76,3.76v4.6h2.716v-4.6A3.76,3.76,0,0,0,444.586,403.484Z" transform="translate(-441.87 -403.484)" fill="#e38523"/>
        </g>
        <g id="Grupo_1159997" data-name="Grupo 1159997" transform="translate(2.298)">
          <circle id="Elipse_12002" data-name="Elipse 12002" cx="4.178" cy="4.178" r="4.178" fill="#fed2a4"/>
        </g>
        <g id="Grupo_1159998" data-name="Grupo 1159998" transform="translate(2.788 0.49)">
          <path id="Trazado_992986" data-name="Trazado 992986" d="M411.858,327.413a4.178,4.178,0,0,1-5.652,5.652,4.178,4.178,0,1,0,5.652-5.652Z" transform="translate(-406.206 -327.413)" fill="#ffbd86"/>
        </g>
      </g>
      <g id="Grupo_1160004" data-name="Grupo 1160004" transform="translate(0.776 33.365)">
        <g id="Grupo_1160000" data-name="Grupo 1160000" transform="translate(0 8.356)">
          <path id="Trazado_992987" data-name="Trazado 992987" d="M7.5,407.244v4.6H20.452v-4.6a3.76,3.76,0,0,0-3.76-3.76H11.26a3.76,3.76,0,0,0-3.76,3.76Z" transform="translate(-7.5 -403.484)" fill="#ad7fdd"/>
        </g>
        <g id="Grupo_1160001" data-name="Grupo 1160001" transform="translate(6.476 8.356)">
          <path id="Trazado_992988" data-name="Trazado 992988" d="M72.846,403.484H70.13a3.76,3.76,0,0,1,3.76,3.76v4.6h2.716v-4.6A3.76,3.76,0,0,0,72.846,403.484Z" transform="translate(-70.13 -403.484)" fill="#9d66d6"/>
        </g>
        <g id="Grupo_1160002" data-name="Grupo 1160002" transform="translate(2.298)">
          <circle id="Elipse_12003" data-name="Elipse 12003" cx="4.178" cy="4.178" r="4.178" fill="#fed2a4"/>
        </g>
        <g id="Grupo_1160003" data-name="Grupo 1160003" transform="translate(2.788 0.49)">
          <path id="Trazado_992989" data-name="Trazado 992989" d="M40.117,327.413a4.179,4.179,0,0,1-5.652,5.652,4.178,4.178,0,1,0,5.652-5.652Z" transform="translate(-34.465 -327.413)" fill="#ffbd86"/>
        </g>
      </g>
      <g id="Grupo_1160009" data-name="Grupo 1160009" transform="translate(39.215 2.865)">
        <g id="Grupo_1160005" data-name="Grupo 1160005" transform="translate(0 8.356)">
          <path id="Trazado_992990" data-name="Trazado 992990" d="M379.24,112.276v4.6h12.952v-4.6a3.76,3.76,0,0,0-3.76-3.76H383A3.76,3.76,0,0,0,379.24,112.276Z" transform="translate(-379.24 -108.516)" fill="#62a4fb"/>
        </g>
        <g id="Grupo_1160006" data-name="Grupo 1160006" transform="translate(6.476 8.356)">
          <path id="Trazado_992991" data-name="Trazado 992991" d="M444.586,108.516H441.87a3.76,3.76,0,0,1,3.76,3.76v4.6h2.716v-4.6A3.76,3.76,0,0,0,444.586,108.516Z" transform="translate(-441.87 -108.516)" fill="#5392f9"/>
        </g>
        <g id="Grupo_1160007" data-name="Grupo 1160007" transform="translate(2.298)">
          <circle id="Elipse_12004" data-name="Elipse 12004" cx="4.178" cy="4.178" r="4.178" fill="#fed2a4"/>
        </g>
        <g id="Grupo_1160008" data-name="Grupo 1160008" transform="translate(2.788 0.49)">
          <path id="Trazado_992992" data-name="Trazado 992992" d="M411.858,32.445a4.178,4.178,0,0,1-5.652,5.652,4.178,4.178,0,1,0,5.652-5.652Z" transform="translate(-406.206 -32.445)" fill="#ffbd86"/>
        </g>
      </g>
      <g id="Grupo_1160014" data-name="Grupo 1160014" transform="translate(0.776 2.865)">
        <g id="Grupo_1160010" data-name="Grupo 1160010" transform="translate(0 8.356)">
          <path id="Trazado_992993" data-name="Trazado 992993" d="M7.5,112.276v4.6H20.452v-4.6a3.76,3.76,0,0,0-3.76-3.76H11.26a3.76,3.76,0,0,0-3.76,3.76Z" transform="translate(-7.5 -108.516)" fill="#e175a5"/>
        </g>
        <g id="Grupo_1160011" data-name="Grupo 1160011" transform="translate(6.476 8.356)">
          <path id="Trazado_992994" data-name="Trazado 992994" d="M72.846,108.516H70.13a3.76,3.76,0,0,1,3.76,3.76v4.6h2.716v-4.6A3.76,3.76,0,0,0,72.846,108.516Z" transform="translate(-70.13 -108.516)" fill="#de5791"/>
        </g>
        <g id="Grupo_1160012" data-name="Grupo 1160012" transform="translate(2.298)">
          <circle id="Elipse_12005" data-name="Elipse 12005" cx="4.178" cy="4.178" r="4.178" fill="#fed2a4"/>
        </g>
        <g id="Grupo_1160013" data-name="Grupo 1160013" transform="translate(2.788 0.49)">
          <path id="Trazado_992995" data-name="Trazado 992995" d="M40.117,32.445A4.179,4.179,0,0,1,34.465,38.1a4.178,4.178,0,1,0,5.652-5.652Z" transform="translate(-34.465 -32.445)" fill="#ffbd86"/>
        </g>
      </g>
      <g id="Grupo_1160021" data-name="Grupo 1160021" transform="translate(18.88 18.88)">
        <g id="Grupo_1160017" data-name="Grupo 1160017">
          <g id="Grupo_1160015" data-name="Grupo 1160015">
            <circle id="Elipse_12006" data-name="Elipse 12006" cx="7.591" cy="7.591" r="7.591" fill="#a2f5c3"/>
          </g>
          <g id="Grupo_1160016" data-name="Grupo 1160016" transform="translate(1.201 1.201)">
            <path id="Trazado_992996" data-name="Trazado 992996" d="M204.69,194.2A7.589,7.589,0,0,1,194.2,204.69,7.59,7.59,0,1,0,204.69,194.2Z" transform="translate(-194.204 -194.204)" fill="#88f2a9"/>
          </g>
        </g>
        <g id="Grupo_1160020" data-name="Grupo 1160020" transform="translate(3.726 4.378)">
          <g id="Grupo_1160019" data-name="Grupo 1160019">
            <g id="Grupo_1160018" data-name="Grupo 1160018">
              <path id="Trazado_992997" data-name="Trazado 992997" d="M221.593,231.355a1.671,1.671,0,0,1-1.182-.49l-1.306-1.306a1.671,1.671,0,1,1,2.363-2.363l.124.124,1.9-1.9a1.671,1.671,0,1,1,2.363,2.363l-3.083,3.083A1.671,1.671,0,0,1,221.593,231.355Z" transform="translate(-218.616 -224.93)" fill="#e6f7fe"/>
            </g>
          </g>
        </g>
      </g>
      <g id="Grupo_1160022" data-name="Grupo 1160022" transform="translate(23.755 0.776)">
        <circle id="Elipse_12007" data-name="Elipse 12007" cx="2.716" cy="2.716" r="2.716" fill="#a2f5c3"/>
      </g>
      <g id="Grupo_1160023" data-name="Grupo 1160023" transform="translate(46.735 23.755)">
        <circle id="Elipse_12008" data-name="Elipse 12008" cx="2.716" cy="2.716" r="2.716" fill="#a2f5c3"/>
      </g>
      <g id="Grupo_1160024" data-name="Grupo 1160024" transform="translate(0.776 23.755)">
        <circle id="Elipse_12009" data-name="Elipse 12009" cx="2.716" cy="2.716" r="2.716" fill="#a2f5c3"/>
      </g>
      <g id="Grupo_1160025" data-name="Grupo 1160025" transform="translate(23.755 46.735)">
        <circle id="Elipse_12010" data-name="Elipse 12010" cx="2.716" cy="2.716" r="2.716" fill="#a2f5c3"/>
      </g>
      <g id="Grupo_1160026" data-name="Grupo 1160026" transform="translate(0 0)">
        <path id="Trazado_992998" data-name="Trazado 992998" d="M52.167,20.353a.775.775,0,0,0,.776-.776v-4.6a4.542,4.542,0,0,0-3.727-4.462,4.952,4.952,0,1,0-8.478-3.476c0,.151.008.3.021.448A23.654,23.654,0,0,0,29.923,2.966a3.492,3.492,0,0,0-6.9,0A23.651,23.651,0,0,0,12.184,7.491c.013-.148.021-.3.021-.448A4.954,4.954,0,1,0,3.727,10.52,4.542,4.542,0,0,0,0,14.981v4.6a.775.775,0,0,0,.776.776H3.513a23.7,23.7,0,0,0-.547,2.667,3.492,3.492,0,0,0,0,6.9A23.684,23.684,0,0,0,3.9,33.9a4.944,4.944,0,0,0-.175,7.122A4.542,4.542,0,0,0,0,45.482v4.6a.775.775,0,0,0,.776.776H13.728a.775.775,0,0,0,.776-.776V46.994a23.8,23.8,0,0,0,8.516,2.984,3.492,3.492,0,0,0,6.9,0,23.8,23.8,0,0,0,8.516-2.984v3.085a.775.775,0,0,0,.776.776h4.279a.776.776,0,0,0,0-1.551h-3.5V45.482A2.989,2.989,0,0,1,42.975,42.5h5.431a2.989,2.989,0,0,1,2.985,2.985V49.3H47.113a.776.776,0,1,0,0,1.551h5.054a.775.775,0,0,0,.776-.776v-4.6a4.543,4.543,0,0,0-3.727-4.462,4.944,4.944,0,0,0-.175-7.121,23.686,23.686,0,0,0,.936-3.975,3.492,3.492,0,0,0,0-6.9,23.7,23.7,0,0,0-.547-2.667Zm-.776-5.371V18.8H39.99v-3.82A2.988,2.988,0,0,1,42.975,12h5.432A2.988,2.988,0,0,1,51.391,14.981ZM45.691,3.64a3.4,3.4,0,1,1-3.4,3.4,3.406,3.406,0,0,1,3.4-3.4ZM26.471,1.551a1.94,1.94,0,1,1-1.94,1.94A1.942,1.942,0,0,1,26.471,1.551ZM7.252,3.64a3.4,3.4,0,1,1-3.4,3.4,3.406,3.406,0,0,1,3.4-3.4Zm-5.7,22.831a1.94,1.94,0,1,1,1.94,1.94,1.942,1.942,0,0,1-1.94-1.94Zm5.7,7.67a3.4,3.4,0,1,1-3.4,3.4A3.406,3.406,0,0,1,7.252,34.141ZM1.551,49.3v-3.82A2.988,2.988,0,0,1,4.536,42.5H9.967a2.988,2.988,0,0,1,2.985,2.985V49.3Zm24.92,2.089a1.94,1.94,0,1,1,1.94-1.94A1.942,1.942,0,0,1,26.471,51.391ZM45.707,40.946h-.032a3.4,3.4,0,1,1,.032,0Zm5.685-14.474a1.94,1.94,0,1,1-1.94-1.94A1.942,1.942,0,0,1,51.391,26.471Zm-2.966-3.337a3.491,3.491,0,0,0,0,6.674,22.147,22.147,0,0,1-.731,3.206,4.951,4.951,0,0,0-5.528,8.005,4.544,4.544,0,0,0-3.714,4.146,22.228,22.228,0,0,1-8.643,3.26,3.491,3.491,0,0,0-6.675,0,22.229,22.229,0,0,1-8.643-3.26,4.543,4.543,0,0,0-3.715-4.146,4.951,4.951,0,0,0-5.528-8.005,22.147,22.147,0,0,1-.731-3.206,3.491,3.491,0,0,0,0-6.674,22.125,22.125,0,0,1,.6-2.781h1.57a.776.776,0,0,0,0-1.551H1.551V14.981A2.988,2.988,0,0,1,4.536,12H9.967a2.988,2.988,0,0,1,2.985,2.984V18.8H10.31a.776.776,0,0,0,0,1.551h3.417a.775.775,0,0,0,.776-.776v-4.6a4.542,4.542,0,0,0-3.52-4.419A22.132,22.132,0,0,1,23.134,4.518a3.491,3.491,0,0,0,6.674,0,22.132,22.132,0,0,1,12.151,6.044,4.543,4.543,0,0,0-3.52,4.42v4.6a.775.775,0,0,0,.776.776h8.606a22.117,22.117,0,0,1,.6,2.781Z" transform="translate(0 0)"/>
        <path id="Trazado_992999" data-name="Trazado 992999" d="M189.542,178.851a.776.776,0,0,0-.259,1.066A6.811,6.811,0,1,1,187,177.63a.776.776,0,0,0,.807-1.325,8.362,8.362,0,1,0,2.8,2.8.776.776,0,0,0-1.066-.259Z" transform="translate(-156.986 -156.985)"/>
        <path id="Trazado_993000" data-name="Trazado 993000" d="M217.952,217.43a2.43,2.43,0,0,0-1.73.717l-1.405,1.4a2.447,2.447,0,0,0-2.984,3.832l1.306,1.306a2.447,2.447,0,0,0,3.46,0l3.083-3.083a2.447,2.447,0,0,0-1.73-4.177Zm.633,3.08-3.083,3.083a.9.9,0,0,1-1.266,0l-1.306-1.306a.9.9,0,1,1,1.267-1.267l.124.124a.775.775,0,0,0,1.1,0l1.9-1.9a.9.9,0,1,1,1.267,1.267Z" transform="translate(-189.287 -194.947)"/>
        <path id="Trazado_993001" data-name="Trazado 993001" d="M249.276,92.358a.775.775,0,0,0,.776-.776V85.629a.776.776,0,1,0-1.551,0v5.954A.775.775,0,0,0,249.276,92.358Z" transform="translate(-222.804 -76.079)"/>
        <path id="Trazado_993002" data-name="Trazado 993002" d="M354.567,249.276a.776.776,0,0,0,.776.776H361.3a.776.776,0,0,0,0-1.551h-5.954A.776.776,0,0,0,354.567,249.276Z" transform="translate(-317.904 -222.804)"/>
        <path id="Trazado_993003" data-name="Trazado 993003" d="M249.276,354.567a.775.775,0,0,0-.775.776V361.3a.776.776,0,0,0,1.551,0v-5.954A.776.776,0,0,0,249.276,354.567Z" transform="translate(-222.804 -317.904)"/>
        <path id="Trazado_993004" data-name="Trazado 993004" d="M91.583,248.5H85.63a.776.776,0,1,0,0,1.551h5.954a.776.776,0,1,0,0-1.551Z" transform="translate(-76.08 -222.804)"/>
      </g>
    </g>
  </g>
</svg>
