<svg xmlns="http://www.w3.org/2000/svg" xmlns:xlink="http://www.w3.org/1999/xlink" width="108" height="108" viewBox="0 0 108 108">
  <defs>
    <filter id="Trazado_982547" x="0" y="0" width="108" height="108" filterUnits="userSpaceOnUse">
      <feOffset dy="3" input="SourceAlpha"/>
      <feGaussianBlur stdDeviation="3" result="blur"/>
      <feFlood flood-opacity="0.161"/>
      <feComposite operator="in" in2="blur"/>
      <feComposite in="SourceGraphic"/>
    </filter>
  </defs>
  <g id="Grupo_1160072" data-name="Grupo 1160072" transform="translate(-326 -7621)">
    <g id="Grupo_1159930" data-name="Grupo 1159930" transform="translate(335 7627)">
      <g id="Grupo_1149835" data-name="Grupo 1149835" transform="translate(0)">
        <g id="Grupo_1149673" data-name="Grupo 1149673">
          <g id="Grupo_1148532" data-name="Grupo 1148532">
            <g id="Grupo_1147065" data-name="Grupo 1147065">
              <g transform="matrix(1, 0, 0, 1, -9, -6)" filter="url(#Trazado_982547)">
                <g id="Trazado_982547-2" data-name="Trazado 982547" transform="translate(9 6)" fill="#fef4f5">
                  <path d="M 45 88.5 C 39.12687683105469 88.5 33.43022537231445 87.35007476806641 28.06830024719238 85.08217620849609 C 22.88852500915527 82.89131164550781 18.23629951477051 79.75458526611328 14.2408504486084 75.75914764404297 C 10.24541282653809 71.76370239257812 7.108687400817871 67.11147308349609 4.917825222015381 61.93170166015625 C 2.649924993515015 56.56977462768555 1.5 50.87312316894531 1.5 45 C 1.5 39.12687683105469 2.649924993515015 33.43022537231445 4.917825222015381 28.06830024719238 C 7.108687400817871 22.88852500915527 10.24541282653809 18.23629951477051 14.2408504486084 14.2408504486084 C 18.23629951477051 10.24541282653809 22.88852500915527 7.108687400817871 28.06830024719238 4.917825222015381 C 33.43022537231445 2.649924993515015 39.12687683105469 1.5 45 1.5 C 50.87312316894531 1.5 56.56977462768555 2.649924993515015 61.93170166015625 4.917825222015381 C 67.11147308349609 7.108687400817871 71.76370239257812 10.24541282653809 75.75914764404297 14.2408504486084 C 79.75458526611328 18.23629951477051 82.89131164550781 22.88852500915527 85.08217620849609 28.06830024719238 C 87.35007476806641 33.43022537231445 88.5 39.12687683105469 88.5 45 C 88.5 50.87312316894531 87.35007476806641 56.56977462768555 85.08217620849609 61.93170166015625 C 82.89131164550781 67.11147308349609 79.75458526611328 71.76370239257812 75.75914764404297 75.75914764404297 C 71.76370239257812 79.75458526611328 67.11147308349609 82.89131164550781 61.93170166015625 85.08217620849609 C 56.56977462768555 87.35007476806641 50.87312316894531 88.5 45 88.5 Z" stroke="none"/>
                  <path d="M 45 3 C 39.32871246337891 3 33.82865524291992 4.110054016113281 28.65262985229492 6.299339294433594 C 23.65165710449219 8.414573669433594 19.15968322753906 11.44334411621094 15.301513671875 15.301513671875 C 11.44334411621094 19.15968322753906 8.414573669433594 23.65165710449219 6.299339294433594 28.65262985229492 C 4.110054016113281 33.82865524291992 3 39.32871246337891 3 45 C 3 50.67128753662109 4.110054016113281 56.17134475708008 6.299339294433594 61.34737396240234 C 8.414573669433594 66.34834289550781 11.44334411621094 70.84031677246094 15.301513671875 74.698486328125 C 19.15968322753906 78.55665588378906 23.65165710449219 81.58542633056641 28.65262985229492 83.70066070556641 C 33.82865524291992 85.88994598388672 39.32871246337891 87 45 87 C 50.67128753662109 87 56.17134475708008 85.88994598388672 61.34737396240234 83.70066070556641 C 66.34834289550781 81.58542633056641 70.84031677246094 78.55665588378906 74.698486328125 74.698486328125 C 78.55665588378906 70.84031677246094 81.58542633056641 66.34834289550781 83.70066070556641 61.34737396240234 C 85.88994598388672 56.17134475708008 87 50.67128753662109 87 45 C 87 39.32871246337891 85.88994598388672 33.82865524291992 83.70066070556641 28.65262985229492 C 81.58542633056641 23.65165710449219 78.55665588378906 19.15968322753906 74.698486328125 15.301513671875 C 70.84031677246094 11.44334411621094 66.34834289550781 8.414573669433594 61.34737396240234 6.299339294433594 C 56.17134475708008 4.110054016113281 50.67128753662109 3 45 3 M 45 0 C 69.85281372070312 0 90 20.14718627929688 90 45 C 90 69.85281372070312 69.85281372070312 90 45 90 C 20.14718627929688 90 0 69.85281372070312 0 45 C 0 20.14718627929688 20.14718627929688 0 45 0 Z" stroke="none" fill="#ff7f8f"/>
                </g>
              </g>
            </g>
          </g>
        </g>
      </g>
    </g>
    <g id="colaboracion" transform="translate(352 7644)">
      <g id="Grupo_1160070" data-name="Grupo 1160070" transform="translate(1.88 1.88)">
        <g id="Grupo_1160045" data-name="Grupo 1160045" transform="translate(23.767 26.407)">
          <path id="Trazado_993069" data-name="Trazado 993069" d="M34.281,33.584,33.4,36.4H29.88L29,33.584,31.641,32Z" transform="translate(-29 -32)" fill="#ff826e"/>
        </g>
        <g id="Grupo_1160046" data-name="Grupo 1160046" transform="translate(22.763 30.809)">
          <path id="Trazado_993070" data-name="Trazado 993070" d="M32.384,46.683l-.053.141a2.335,2.335,0,0,0-.827-.141,2.637,2.637,0,0,0-2.641,2.641,2.44,2.44,0,0,0,.158.88H27.86L29.744,37h3.521l1.206,8.433Z" transform="translate(-27.86 -37)" fill="#ff826e"/>
        </g>
        <g id="Grupo_1160047" data-name="Grupo 1160047" transform="translate(27.235 23.142)">
          <path id="Trazado_993071" data-name="Trazado 993071" d="M35.079,44.39l-1.206-8.433.88-2.817,1.76,1.056.88-5.81.018-.1,2.518.361a7.531,7.531,0,0,1,.986.2v.062h1.76v.88a4.349,4.349,0,0,0,.37,1.76A4.4,4.4,0,0,0,47.077,34.2V37.6a7.365,7.365,0,0,0-.739.387,8.94,8.94,0,0,0-1.831,1.417,9.172,9.172,0,0,0-2.007,3,9.3,9.3,0,0,0-.7,3.539v3.213h-7.2a2.44,2.44,0,0,0,.158-.88,2.622,2.622,0,0,0-1.813-2.5l.053-.141Z" transform="translate(-32.94 -28.29)" fill="#e6e9ed"/>
        </g>
        <g id="Grupo_1160048" data-name="Grupo 1160048" transform="translate(11.443 23.142)">
          <path id="Trazado_993072" data-name="Trazado 993072" d="M20.281,45.948a9.3,9.3,0,0,0-.7-3.539,9.172,9.172,0,0,0-2.007-3,8.94,8.94,0,0,0-1.831-1.417A7.364,7.364,0,0,0,15,37.6V34.2a4.4,4.4,0,0,0,4.032-2.641,4.349,4.349,0,0,0,.37-1.76v-.88h1.76v-.062a7.531,7.531,0,0,1,.986-.2l2.518-.361.018.1.88,5.81,1.76-1.056.88,2.817-1.884,13.2H20.281Z" transform="translate(-15 -28.29)" fill="#e6e9ed"/>
        </g>
        <g id="Grupo_1160049" data-name="Grupo 1160049" transform="translate(16.725 46.653)">
          <path id="Trazado_993073" data-name="Trazado 993073" d="M40.365,57.641v3.521H21V57.641h7.042A2.645,2.645,0,0,0,30.683,55a2.645,2.645,0,0,0,2.641,2.641h7.042Z" transform="translate(-21 -55)" fill="#e6e9ed"/>
        </g>
        <g id="Grupo_1160050" data-name="Grupo 1160050" transform="translate(26.407 22.886)">
          <path id="Trazado_993074" data-name="Trazado 993074" d="M35.521,28l1.778.255-.018.1-.88,5.81-1.76-1.056L32,31.521Z" transform="translate(-32 -28)" fill="#ccd1d9"/>
        </g>
        <g id="Grupo_1160051" data-name="Grupo 1160051" transform="translate(21.108 22.886)">
          <path id="Trazado_993075" data-name="Trazado 993075" d="M31.279,31.521l-2.641,1.584-1.76,1.056L26,28.352l-.018-.1L27.758,28Z" transform="translate(-25.98 -28)" fill="#ccd1d9"/>
        </g>
        <g id="Grupo_1160052" data-name="Grupo 1160052" transform="translate(3.521 31.759)">
          <path id="Trazado_993076" data-name="Trazado 993076" d="M19.2,50.333h4.4v5.281H14.521a7.429,7.429,0,0,1-6.3-3.495,15.481,15.481,0,0,1-1.655-3.371A11.717,11.717,0,0,1,6,45.052v-.88A11.266,11.266,0,0,1,7.857,38.08l5.185,4.331,1.62-3.248a8.94,8.94,0,0,1,1.831,1.417,9.172,9.172,0,0,1,2.007,3,9.3,9.3,0,0,1,.7,3.539Z" transform="translate(-6 -38.08)" fill="#ffeaa7"/>
        </g>
        <g id="Grupo_1160053" data-name="Grupo 1160053" transform="translate(3.521 38.731)">
          <path id="Trazado_993077" data-name="Trazado 993077" d="M6,60.084V46a11.717,11.717,0,0,0,.563,3.7,15.481,15.481,0,0,0,1.655,3.371,7.429,7.429,0,0,0,6.3,3.495H19.2v3.521Z" transform="translate(-6 -46)" fill="#ffeaa7"/>
        </g>
        <g id="Grupo_1160054" data-name="Grupo 1160054" transform="translate(5.378 30.809)">
          <path id="Trazado_993078" data-name="Trazado 993078" d="M14.914,39.033l-1.62,3.248L8.11,37.951A6.437,6.437,0,0,1,8.893,37l3.855,1.1a8.215,8.215,0,0,1,1.426.546,7.365,7.365,0,0,1,.739.387Z" transform="translate(-8.11 -37)" fill="#fcd770"/>
        </g>
        <g id="Grupo_1160055" data-name="Grupo 1160055" transform="translate(36.09 38.731)">
          <path id="Trazado_993079" data-name="Trazado 993079" d="M56.2,46V60.084H43V56.563h4.683a7.429,7.429,0,0,0,6.3-3.495A15.481,15.481,0,0,0,55.64,49.7,11.717,11.717,0,0,0,56.2,46Z" transform="translate(-43 -46)" fill="#5cd6b3"/>
        </g>
        <g id="Grupo_1160056" data-name="Grupo 1160056" transform="translate(31.689 31.759)">
          <path id="Trazado_993080" data-name="Trazado 993080" d="M55.6,44.171v.88a11.717,11.717,0,0,1-.563,3.7,15.481,15.481,0,0,1-1.655,3.371,7.429,7.429,0,0,1-6.3,3.495H38V50.333h4.4V47.12a9.3,9.3,0,0,1,.7-3.539,9.172,9.172,0,0,1,2.007-3,8.94,8.94,0,0,1,1.831-1.417l1.62,3.248,5.185-4.331A11.266,11.266,0,0,1,55.6,44.171Z" transform="translate(-38 -38.08)" fill="#5cd6b3"/>
        </g>
        <g id="Grupo_1160057" data-name="Grupo 1160057" transform="translate(40.632 30.809)">
          <path id="Trazado_993081" data-name="Trazado 993081" d="M54.964,37.951,49.78,42.281l-1.62-3.248a7.364,7.364,0,0,1,.739-.387,8.215,8.215,0,0,1,1.426-.546L54.181,37a6.436,6.436,0,0,1,.783.951Z" transform="translate(-48.16 -37)" fill="#48cfad"/>
        </g>
        <g id="Grupo_1160058" data-name="Grupo 1160058" transform="translate(26.407 44.012)">
          <path id="Trazado_993082" data-name="Trazado 993082" d="M32.775,56.507a2.643,2.643,0,0,1-.625-2.746v-.009A2.6,2.6,0,0,0,34.482,52h2.8v5.281H34.641a2.634,2.634,0,0,1-1.866-.775Z" transform="translate(-32 -52)" fill="#f0d0b4"/>
        </g>
        <g id="Grupo_1160059" data-name="Grupo 1160059" transform="translate(21.126 44.012)">
          <path id="Trazado_993083" data-name="Trazado 993083" d="M31.281,53.76a.854.854,0,0,0,.15-.009v.009a2.64,2.64,0,0,0-.15.88,2.645,2.645,0,0,1-2.641,2.641H26V52h2.8A2.612,2.612,0,0,0,31.281,53.76Z" transform="translate(-26 -52)" fill="#f0d0b4"/>
        </g>
        <g id="Grupo_1160060" data-name="Grupo 1160060" transform="translate(23.767 40.491)">
          <path id="Trazado_993084" data-name="Trazado 993084" d="M32.468,48.141a2.622,2.622,0,0,1,1.813,2.5,2.44,2.44,0,0,1-.158.88,2.6,2.6,0,0,1-2.333,1.752.854.854,0,0,1-.15.009,2.612,2.612,0,0,1-2.482-1.76,2.44,2.44,0,0,1-.158-.88A2.637,2.637,0,0,1,31.641,48,2.335,2.335,0,0,1,32.468,48.141Z" transform="translate(-29 -48)" fill="#f0d0b4"/>
        </g>
        <g id="Grupo_1160061" data-name="Grupo 1160061" transform="translate(0 9.683)">
          <path id="Trazado_993085" data-name="Trazado 993085" d="M17.8,16.054l.044.563a3.377,3.377,0,0,1-.651,2.007,3.228,3.228,0,0,1-.352.414,3.428,3.428,0,0,1-2.421,1,1.939,1.939,0,0,1-1.312-.493,5.338,5.338,0,0,0-2.13,1.593L9.042,23.563a1.773,1.773,0,0,0-1.76,1.76,2.118,2.118,0,0,0,.625,1.505l1.136,1.136-.537,3.785L4.324,28.193A6.629,6.629,0,0,1,2,23.14V22.78a9.785,9.785,0,0,1,.607-3.389A9.657,9.657,0,0,1,4.35,16.415,9.813,9.813,0,0,1,11.78,13h2.447a3.643,3.643,0,0,1,2.562,1.056,4.949,4.949,0,0,1,1.012,2Z" transform="translate(-2 -13)" fill="#656d78"/>
        </g>
        <g id="Grupo_1160062" data-name="Grupo 1160062" transform="translate(36.09 10.563)">
          <path id="Trazado_993086" data-name="Trazado 993086" d="M59.725,23.26A6.638,6.638,0,0,1,57.4,28.313l-4.164,3.618h-.009l-.546-3.847,1.136-1.136a2.118,2.118,0,0,0,.625-1.505,1.773,1.773,0,0,0-1.76-1.76l-1.937-2.421a5.285,5.285,0,0,0-4.12-1.981H43.88A3.006,3.006,0,0,1,43,17.16v-1.4A1.766,1.766,0,0,1,44.76,14h3.961a11.46,11.46,0,0,1,9.155,4.577l.519.687A6.666,6.666,0,0,1,59.725,23.26Z" transform="translate(-43 -14)" fill="#656d78"/>
        </g>
        <g id="Grupo_1160063" data-name="Grupo 1160063" transform="translate(16.725 9.683)">
          <path id="Trazado_993087" data-name="Trazado 993087" d="M24.521,17.4a4.882,4.882,0,0,0,.07.88h-.951a2.634,2.634,0,0,1-1.866-.775,3.033,3.033,0,0,1-.757-1.593c-.009-.088-.018-.185-.018-.273A2.642,2.642,0,0,1,23.641,13h.88v4.4Z" transform="translate(-21 -13)" fill="#f0d0b4"/>
        </g>
        <g id="Grupo_1160064" data-name="Grupo 1160064" transform="translate(32.323 9.683)">
          <path id="Trazado_993088" data-name="Trazado 993088" d="M41.713,17.507a2.634,2.634,0,0,1-1.866.775H38.9a4.882,4.882,0,0,0,.07-.88V14.972A7.809,7.809,0,0,0,38.72,13h1.127a2.639,2.639,0,0,1,1.866,4.507Z" transform="translate(-38.72 -13)" fill="#f0d0b4"/>
        </g>
        <g id="Grupo_1160065" data-name="Grupo 1160065" transform="translate(16.725)">
          <path id="Trazado_993089" data-name="Trazado 993089" d="M29.292,8.162l-3.107,1.1a2.628,2.628,0,0,0-1.664,2.421h-.88a2.648,2.648,0,0,0-1.813.722l-.537-1.62A5.521,5.521,0,0,1,21,9.016a5.591,5.591,0,0,1,2.007-4.287l.414-.343a10.4,10.4,0,0,1,3.09-1.769,10.26,10.26,0,0,1,8.107.475l1.347.669a3.522,3.522,0,0,1,.37,7.024c-.123.009-.246.018-.37.018H33.323A4.4,4.4,0,0,1,29.292,8.162Z" transform="translate(-21 -2)" fill="#b27946"/>
        </g>
        <g id="Grupo_1160066" data-name="Grupo 1160066" transform="translate(35.21 15.844)">
          <path id="Trazado_993090" data-name="Trazado 993090" d="M53.109,32.649l.334,2.315-3.855,1.1a8.216,8.216,0,0,0-1.426.546V33.2a4.4,4.4,0,0,1-4.032-2.641,4.349,4.349,0,0,1-.37-1.76v-.88H42v-.062A19.632,19.632,0,0,1,43.76,20h2.746a5.285,5.285,0,0,1,4.12,1.981L52.563,24.4a1.773,1.773,0,0,1,1.76,1.76,2.118,2.118,0,0,1-.625,1.505L52.563,28.8Z" transform="translate(-42 -20)" fill="#f0d0b4"/>
        </g>
        <g id="Grupo_1160067" data-name="Grupo 1160067" transform="translate(22.886 19.621)">
          <path id="Trazado_993091" data-name="Trazado 993091" d="M34.223,24.29l.819,3.266-3.521,3.521L28,27.556l.819-3.266a6.155,6.155,0,0,0,5.4,0Z" transform="translate(-28 -24.29)" fill="#f0d0b4"/>
        </g>
        <g id="Grupo_1160068" data-name="Grupo 1160068" transform="translate(20.246 6.162)">
          <path id="Trazado_993092" data-name="Trazado 993092" d="M25,16.922v-4.4A2.628,2.628,0,0,1,26.664,10.1L29.771,9A4.4,4.4,0,0,0,33.8,11.641h2.641c.123,0,.246-.009.37-.018a6.2,6.2,0,0,1,.264.9,7.809,7.809,0,0,1,.246,1.972v2.429a4.882,4.882,0,0,1-.07.88,6.108,6.108,0,0,1-3.389,4.657,6.155,6.155,0,0,1-5.4,0A6.131,6.131,0,0,1,25.07,17.8a4.882,4.882,0,0,1-.07-.88Z" transform="translate(-25 -9)" fill="#f0d0b4"/>
        </g>
        <g id="Grupo_1160069" data-name="Grupo 1160069" transform="translate(5.281 15.308)">
          <path id="Trazado_993093" data-name="Trazado 993093" d="M8.88,34.891l.343-2.377.537-3.785L8.625,27.594A2.118,2.118,0,0,1,8,26.089a1.773,1.773,0,0,1,1.76-1.76L11.7,21.908a5.338,5.338,0,0,1,2.13-1.593,1.939,1.939,0,0,0,1.312.493,3.428,3.428,0,0,0,2.421-1,3.228,3.228,0,0,0,.352-.414,16.067,16.067,0,0,1,2.412,8.4v.062h-1.76v.88a4.349,4.349,0,0,1-.37,1.76,4.4,4.4,0,0,1-4.032,2.641v3.407a8.216,8.216,0,0,0-1.426-.546Z" transform="translate(-8 -19.39)" fill="#f0d0b4"/>
        </g>
      </g>
      <g id="Grupo_1160071" data-name="Grupo 1160071" transform="translate(1 1)">
        <ellipse id="Elipse_12011" data-name="Elipse 12011" cx="0.5" cy="1" rx="0.5" ry="1" transform="translate(39 20)"/>
        <path id="Trazado_993094" data-name="Trazado 993094" d="M54.068,17.182l-.517-.689a12.382,12.382,0,0,0-9.859-4.93H39.731a2.616,2.616,0,0,0-1.589.545,3.519,3.519,0,0,0-2.062-1.341,4.382,4.382,0,0,0-2.25-7.98L32.616,2.18A11.181,11.181,0,0,0,20.458,3.591l-.408.34a6.463,6.463,0,0,0-1.994,7.009l.386,1.157a3.525,3.525,0,0,0-.467.825,4.48,4.48,0,0,0-3.865-2.239H11.66A10.661,10.661,0,0,0,1,21.342V21.7a7.531,7.531,0,0,0,2.635,5.725l3.807,3.238-.235,1.643a11.7,11.7,0,0,0-2.686,7.42V55.575H52.054V39.731a11.7,11.7,0,0,0-2.686-7.419l-.226-1.584,3.8-3.3a7.538,7.538,0,0,0,1.124-10.246ZM37.09,45.012H31.809a3.505,3.505,0,0,0-1.1-2.541l5.147-3.088A6.193,6.193,0,0,0,38.851,34.1V32.689H37.09V34.1a4.424,4.424,0,0,1-2.137,3.775l-3.017,1.81-.989-6.923.487-1.559,1.928,1.157.961-6.344,1.651.236c.226.033.449.085.671.138a.852.852,0,0,0,.445.138h.88a5.286,5.286,0,0,0,4.4,5.2v2.078A10.02,10.02,0,0,0,37.09,42.68Zm-6.162,5.281a1.762,1.762,0,0,1-1.76-1.76c0-.043.008-.085.011-.129a3.511,3.511,0,0,0,2.138-1.628h1.371v3.517Zm-13.2-17.6v4.289A10.209,10.209,0,0,0,16.52,35.52,10.148,10.148,0,0,0,14.2,33.807V31.729a5.285,5.285,0,0,0,4.4-5.2h.88a.852.852,0,0,0,.445-.138c.222-.053.444-.106.67-.138l1.651-.236.961,6.344L25.14,31.2l.487,1.559L23.878,45.012H19.485V32.689ZM8.407,24.767a1.235,1.235,0,0,1-.365-.88.881.881,0,0,1,.88-.88h.423l2.2-2.749a4.415,4.415,0,0,1,1.372-1.132,2.863,2.863,0,0,0,1.381.36,4.266,4.266,0,0,0,2.579-.878,15.55,15.55,0,0,1,1.7,6.16h-.854a.88.88,0,0,0-.88.88v.88a3.467,3.467,0,0,1-.125.88h-.548a2.292,2.292,0,0,1-2.061-1.274l-1.575.788a4.037,4.037,0,0,0,3.134,2.212,3.5,3.5,0,0,1-2.347.915H10.683v1.76h1.76v1.243c-.1-.033-.2-.078-.3-.107l-3.12-.891.834-5.837Zm12.838-8.8a1.76,1.76,0,0,1,0-3.521Zm0,1.76h.232a7.055,7.055,0,0,0,3.091,4.208l-.511,2.047-3.706.529-.04.008a17.045,17.045,0,0,0-2.216-7.347,4.272,4.272,0,0,0,.342-.864,3.511,3.511,0,0,0,2.81,1.42Zm9.683-6.162H33.3a7.415,7.415,0,0,1,.266,1.968v2.433a5.281,5.281,0,0,1-10.563,0V11.59a1.74,1.74,0,0,1,1.073-1.621l2.4-.849a5.276,5.276,0,0,0,4.446,2.443Zm4.4,6.162a3.493,3.493,0,0,0,2.046-.666,3.822,3.822,0,0,0,.45.8,20.9,20.9,0,0,0-1.575,6.656l-.026-.005-3.7-.529-.511-2.047A7.058,7.058,0,0,0,35.1,17.725ZM28.288,46.773a1.76,1.76,0,1,1,1.76-1.76A1.762,1.762,0,0,1,28.288,46.773Zm.545-5.226a3.289,3.289,0,0,0-2.793.778l1.251-8.756h1.994l1.014,7.1Zm-.545-18.541a7.037,7.037,0,0,0,2.094-.318l.452,1.809-2.547,2.546L25.741,24.5l.452-1.809A7.009,7.009,0,0,0,28.288,23.006ZM24.455,25.7l2.413,2.413L24.56,29.5l-.565-3.732ZM29.4,31.809H27.174l-.481-1.538,1.594-.957,1.594.956Zm.306-3.7L32.12,25.7l.461.066L32.016,29.5ZM11.658,34.637a8.357,8.357,0,0,1,1.231.474l-.736,1.473L8.859,33.838Zm13.6,12.136A3.512,3.512,0,0,0,27.4,48.4c0,.043.011.085.011.129a1.762,1.762,0,0,1-1.76,1.76h-1.76V46.773Zm19.66-12.135,2.8-.8-3.294,2.745-.736-1.472A8.3,8.3,0,0,1,44.916,34.638Zm3.253-9.871L46.72,26.216l.834,5.838-3.121.892c-.1.029-.2.075-.3.107V31.809h1.76v-1.76H43.252a3.492,3.492,0,0,1-2.347-.915,4.037,4.037,0,0,0,3.134-2.212l-1.575-.788A2.291,2.291,0,0,1,40.4,27.407h-.548a3.467,3.467,0,0,1-.125-.88v-.88a.88.88,0,0,0-.88-.88H38A19.375,19.375,0,0,1,39.422,18.6h2.172a4.379,4.379,0,0,1,3.436,1.652l2.2,2.749h.423a.881.881,0,0,1,.88.88,1.238,1.238,0,0,1-.364.88ZM37.09,14.2a1.762,1.762,0,0,1-1.76,1.76V13.531a9.143,9.143,0,0,0-.072-1.088h.072A1.762,1.762,0,0,1,37.09,14.2ZM21.178,5.283l.408-.34a9.351,9.351,0,0,1,9.593-1.467,4.4,4.4,0,0,0-2.01,3.686h1.76A2.641,2.641,0,1,1,33.569,9.8H30.928a3.525,3.525,0,0,1-3.521-3.521h-1.76A5.263,5.263,0,0,0,25.794,7.5l-2.334.825a3.5,3.5,0,0,0-2.089,2.362h-.125a3.509,3.509,0,0,0-1.331.265l-.188-.564a4.7,4.7,0,0,1,1.452-5.1ZM4.778,26.091A5.768,5.768,0,0,1,2.76,21.7v-.363a8.9,8.9,0,0,1,8.9-8.9h2.45a2.738,2.738,0,0,1,2.735,2.735A2.55,2.55,0,0,1,14.3,17.725a.949.949,0,0,1-.928-.583.9.9,0,0,1,.125-.82.872.872,0,0,1,.709-.358h.88V14.2H14.2a2.646,2.646,0,0,0-2.518,3.454c.013.043.034.082.05.123a6.173,6.173,0,0,0-1.567,1.376l-1.7,2.128a2.646,2.646,0,0,0-2.186,2.6,2.986,2.986,0,0,0,.88,2.125l.827.827-.253,1.768Zm1.5,13.64a10.555,10.555,0,0,1,1.193-4.755l5.259,4.382L14.4,36.015a8.269,8.269,0,0,1,3.32,6.664v2.333H13.867l-2.4-4.795-1.575.788,2.4,4.795a1.752,1.752,0,0,0,1.575.973h8.258v3.521H13.919a6.51,6.51,0,0,1-5.552-3.077,11.527,11.527,0,0,1-2.086-6.605Zm0,14.084V47.146c.182.328.379.662.592,1a8.263,8.263,0,0,0,7.046,3.9h3.805v1.76Zm13.2,0v-1.76h6.162a3.5,3.5,0,0,0,2.641-1.217,3.5,3.5,0,0,0,2.641,1.217H37.09v1.76Zm30.809,0H38.851v-1.76h3.805a8.26,8.26,0,0,0,7.045-3.9c.214-.342.41-.676.592-1v6.67Zm0-13.2a11.527,11.527,0,0,1-2.086,6.605,6.51,6.51,0,0,1-5.552,3.077H34.449V46.776l8.258,0a1.752,1.752,0,0,0,1.575-.973l2.4-4.795-1.575-.788-2.4,4.795H38.851V42.68a8.269,8.269,0,0,1,3.32-6.664l1.672,3.342L49.1,34.976a10.555,10.555,0,0,1,1.193,4.755Zm1.5-14.516-2.947,2.559-.26-1.815.827-.827a2.988,2.988,0,0,0,.88-2.125,2.646,2.646,0,0,0-2.187-2.6l-1.7-2.128a6.132,6.132,0,0,0-4.811-2.312H39.261a2.109,2.109,0,0,1-.41-1.245V14.2a.881.881,0,0,1,.88-.88h3.961a10.615,10.615,0,0,1,8.45,4.225l.517.69a5.776,5.776,0,0,1-.866,7.856Z" transform="translate(-1 -1)"/>
        <circle id="Elipse_12012" data-name="Elipse 12012" cx="1" cy="1" r="1" transform="translate(14 20)"/>
        <circle id="Elipse_12013" data-name="Elipse 12013" cx="1" cy="1" r="1" transform="translate(24 12)"/>
        <circle id="Elipse_12014" data-name="Elipse 12014" cx="1" cy="1" r="1" transform="translate(29 12)"/>
        <path id="Trazado_993095" data-name="Trazado 993095" d="M29.681,18.553l-1.575.788.092.186a3.729,3.729,0,0,0,6.671,0l.092-.186-1.575-.788-.092.187a1.968,1.968,0,0,1-3.521,0Z" transform="translate(-4.246 -3.102)"/>
      </g>
    </g>
  </g>
</svg>
