<svg xmlns="http://www.w3.org/2000/svg" xmlns:xlink="http://www.w3.org/1999/xlink" width="108" height="108" viewBox="0 0 108 108">
  <defs>
    <filter id="Trazado_982547" x="0" y="0" width="108" height="108" filterUnits="userSpaceOnUse">
      <feOffset dy="3" input="SourceAlpha"/>
      <feGaussianBlur stdDeviation="3" result="blur"/>
      <feFlood flood-opacity="0.161"/>
      <feComposite operator="in" in2="blur"/>
      <feComposite in="SourceGraphic"/>
    </filter>
  </defs>
  <g id="Grupo_1160098" data-name="Grupo 1160098" transform="translate(-166 -8950)">
    <g id="Grupo_1159934" data-name="Grupo 1159934" transform="translate(0 3836)">
      <g id="Grupo_1153202" data-name="Grupo 1153202" transform="translate(-88 4601)">
        <g id="Grupo_1149598" data-name="Grupo 1149598" transform="translate(80 315)">
          <g id="Grupo_1148770" data-name="Grupo 1148770" transform="translate(-27 -2583)">
            <g id="Grupo_1146954" data-name="Grupo 1146954" transform="translate(-415 -1202)">
              <g transform="matrix(1, 0, 0, 1, 616, 3983)" filter="url(#Trazado_982547)">
                <g id="Trazado_982547-2" data-name="Trazado 982547" transform="translate(9 6)" fill="#fef6e8">
                  <path d="M 45 88.5 C 39.12687683105469 88.5 33.43022537231445 87.35007476806641 28.06830024719238 85.08217620849609 C 22.88852500915527 82.89131164550781 18.23629951477051 79.75458526611328 14.2408504486084 75.75914764404297 C 10.24541282653809 71.76370239257812 7.108687400817871 67.11147308349609 4.917825222015381 61.93170166015625 C 2.649924993515015 56.56977462768555 1.5 50.87312316894531 1.5 45 C 1.5 39.12687683105469 2.649924993515015 33.43022537231445 4.917825222015381 28.06830024719238 C 7.108687400817871 22.88852500915527 10.24541282653809 18.23629951477051 14.2408504486084 14.2408504486084 C 18.23629951477051 10.24541282653809 22.88852500915527 7.108687400817871 28.06830024719238 4.917825222015381 C 33.43022537231445 2.649924993515015 39.12687683105469 1.5 45 1.5 C 50.87312316894531 1.5 56.56977462768555 2.649924993515015 61.93170166015625 4.917825222015381 C 67.11147308349609 7.108687400817871 71.76370239257812 10.24541282653809 75.75914764404297 14.2408504486084 C 79.75458526611328 18.23629951477051 82.89131164550781 22.88852500915527 85.08217620849609 28.06830024719238 C 87.35007476806641 33.43022537231445 88.5 39.12687683105469 88.5 45 C 88.5 50.87312316894531 87.35007476806641 56.56977462768555 85.08217620849609 61.93170166015625 C 82.89131164550781 67.11147308349609 79.75458526611328 71.76370239257812 75.75914764404297 75.75914764404297 C 71.76370239257812 79.75458526611328 67.11147308349609 82.89131164550781 61.93170166015625 85.08217620849609 C 56.56977462768555 87.35007476806641 50.87312316894531 88.5 45 88.5 Z" stroke="none"/>
                  <path d="M 45 3 C 39.32871246337891 3 33.82865524291992 4.110054016113281 28.65262985229492 6.299339294433594 C 23.65165710449219 8.414573669433594 19.15968322753906 11.44334411621094 15.301513671875 15.301513671875 C 11.44334411621094 19.15968322753906 8.414573669433594 23.65165710449219 6.299339294433594 28.65262985229492 C 4.110054016113281 33.82865524291992 3 39.32871246337891 3 45 C 3 50.67128753662109 4.110054016113281 56.17134475708008 6.299339294433594 61.34737396240234 C 8.414573669433594 66.34834289550781 11.44334411621094 70.84031677246094 15.301513671875 74.698486328125 C 19.15968322753906 78.55665588378906 23.65165710449219 81.58542633056641 28.65262985229492 83.70066070556641 C 33.82865524291992 85.88994598388672 39.32871246337891 87 45 87 C 50.67128753662109 87 56.17134475708008 85.88994598388672 61.34737396240234 83.70066070556641 C 66.34834289550781 81.58542633056641 70.84031677246094 78.55665588378906 74.698486328125 74.698486328125 C 78.55665588378906 70.84031677246094 81.58542633056641 66.34834289550781 83.70066070556641 61.34737396240234 C 85.88994598388672 56.17134475708008 87 50.67128753662109 87 45 C 87 39.32871246337891 85.88994598388672 33.82865524291992 83.70066070556641 28.65262985229492 C 81.58542633056641 23.65165710449219 78.55665588378906 19.15968322753906 74.698486328125 15.301513671875 C 70.84031677246094 11.44334411621094 66.34834289550781 8.414573669433594 61.34737396240234 6.299339294433594 C 56.17134475708008 4.110054016113281 50.67128753662109 3 45 3 M 45 0 C 69.85281372070312 0 90 20.14718627929688 90 45 C 90 69.85281372070312 69.85281372070312 90 45 90 C 20.14718627929688 90 0 69.85281372070312 0 45 C 0 20.14718627929688 20.14718627929688 0 45 0 Z" stroke="none" fill="#fdaf2f"/>
                </g>
              </g>
            </g>
          </g>
        </g>
      </g>
    </g>
    <g id="aprendizaje-electronico" transform="translate(183 8964)">
      <g id="Grupo_1160096" data-name="Grupo 1160096" transform="translate(8.929 8.929)">
        <g id="Grupo_1160095" data-name="Grupo 1160095" transform="translate(0 0)">
          <path id="Trazado_993126" data-name="Trazado 993126" d="M71.765,106.788V135.6H16V106.788A2.789,2.789,0,0,1,18.788,104H68.977A2.789,2.789,0,0,1,71.765,106.788Z" transform="translate(-16 -93.776)" fill="#83d8f4"/>
          <path id="Trazado_993127" data-name="Trazado 993127" d="M71.765,376v2.788a2.789,2.789,0,0,1-2.788,2.788H18.788A2.789,2.789,0,0,1,16,378.788V376Z" transform="translate(-16 -334.176)" fill="#e0e0e2"/>
          <path id="Trazado_993128" data-name="Trazado 993128" d="M213.012,429.577H200L201.859,424h9.294Z" transform="translate(-178.623 -376.599)" fill="#57565c"/>
          <path id="Trazado_993129" data-name="Trazado 993129" d="M168,472h20.447v2.788H168Z" transform="translate(-150.341 -419.023)" fill="#e0e0e2"/>
          <path id="Trazado_993130" data-name="Trazado 993130" d="M194.588,80V91.153a24.165,24.165,0,0,1-18.588,0V80" transform="translate(-157.412 -72.565)" fill="#2d2d30"/>
          <circle id="Elipse_12017" data-name="Elipse 12017" cx="2" cy="2" r="2" transform="translate(38.071 20.07)" fill="#ffda44"/>
          <path id="Trazado_993131" data-name="Trazado 993131" d="M149.941,27.153,136,21.577,149.941,16l13.941,5.577Z" transform="translate(-122.059 -16)" fill="#3e3d42"/>
        </g>
        <path id="Trazado_993132" data-name="Trazado 993132" d="M80,248H98.588v11.153H80Z" transform="translate(-72.565 -221.047)" fill="#ffda44"/>
      </g>
      <g id="Grupo_1160097" data-name="Grupo 1160097" transform="translate(8 8)">
        <path id="Trazado_993133" data-name="Trazado 993133" d="M61.907,18.224H49.824V15.879l1.274-.51a.929.929,0,0,0,0-1.726L37.157,8.066a.932.932,0,0,0-.69,0L22.526,13.643a.929.929,0,0,0,0,1.726l4.063,1.625v1.229H11.718A3.721,3.721,0,0,0,8,21.941v31.6a3.721,3.721,0,0,0,3.718,3.718H30.875l-1.24,3.718H26.588a.929.929,0,0,0-.929.929v2.788a.929.929,0,0,0,.929.929H47.036a.929.929,0,0,0,.929-.929V61.907a.929.929,0,0,0-.929-.929H43.988l-1.24-3.718H61.907a3.721,3.721,0,0,0,3.718-3.718v-31.6A3.721,3.721,0,0,0,61.907,18.224ZM49.824,31.236a.929.929,0,1,1-.929-.929A.929.929,0,0,1,49.824,31.236ZM25.373,14.506,36.812,9.931l11.439,4.575L36.812,19.081Zm22.592,2.117v1.6h-.929V16.995Zm-2.788,1.115v9.143a23.271,23.271,0,0,1-16.73,0V17.738l8.02,3.208a.932.932,0,0,0,.69,0Zm.929,45.1v.929H27.518v-.929ZM31.6,60.977l1.24-3.718h7.954l1.24,3.718Zm32.17-7.435A1.861,1.861,0,0,1,61.907,55.4H11.718a1.861,1.861,0,0,1-1.859-1.859V51.683H63.765Zm0-3.718H9.859V21.941a1.861,1.861,0,0,1,1.859-1.859H26.588v7.435a.93.93,0,0,0,.584.863,25.18,25.18,0,0,0,19.279,0,.93.93,0,0,0,.584-.863V20.083h.929v8.365a.982.982,0,0,0,.014.156,2.788,2.788,0,1,0,1.831,0,.982.982,0,0,0,.014-.156V20.083H61.907a1.861,1.861,0,0,1,1.859,1.859Z" transform="translate(-8 -8)"/>
        <path id="Trazado_993134" data-name="Trazado 993134" d="M46.506,392H40.929a.929.929,0,0,0,0,1.859h5.577a.929.929,0,0,0,0-1.859Z" transform="translate(-36.282 -347.388)"/>
        <path id="Trazado_993135" data-name="Trazado 993135" d="M113.859,392h-.929a.929.929,0,0,0,0,1.859h.929a.929.929,0,1,0,0-1.859Z" transform="translate(-99.918 -347.388)"/>
        <path id="Trazado_993136" data-name="Trazado 993136" d="M72.929,253.012H91.518a.929.929,0,0,0,.929-.929V240.929a.929.929,0,0,0-.929-.929H72.929a.929.929,0,0,0-.929.929v11.153A.929.929,0,0,0,72.929,253.012Zm.929-11.153h16.73v9.294H73.859Z" transform="translate(-64.565 -213.047)"/>
        <path id="Trazado_993137" data-name="Trazado 993137" d="M72.929,217.859h7.435a.929.929,0,0,0,0-1.859H72.929a.929.929,0,1,0,0,1.859Z" transform="translate(-64.565 -191.835)"/>
        <path id="Trazado_993138" data-name="Trazado 993138" d="M72.929,193.859h2.788a.929.929,0,0,0,0-1.859H72.929a.929.929,0,1,0,0,1.859Z" transform="translate(-64.565 -170.623)"/>
        <path id="Trazado_993139" data-name="Trazado 993139" d="M264.929,241.859h18.588a.929.929,0,1,0,0-1.859H264.929a.929.929,0,0,0,0,1.859Z" transform="translate(-234.258 -213.047)"/>
        <path id="Trazado_993140" data-name="Trazado 993140" d="M264.929,265.859h18.588a.929.929,0,1,0,0-1.859H264.929a.929.929,0,0,0,0,1.859Z" transform="translate(-234.258 -234.258)"/>
        <path id="Trazado_993141" data-name="Trazado 993141" d="M264.929,289.859h14.755a.929.929,0,0,0,0-1.859H264.929a.929.929,0,0,0,0,1.859Z" transform="translate(-234.258 -255.47)"/>
        <path id="Trazado_993142" data-name="Trazado 993142" d="M417.859,288h-.929a.929.929,0,0,0,0,1.859h.929a.929.929,0,0,0,0-1.859Z" transform="translate(-368.599 -255.47)"/>
        <path id="Trazado_993143" data-name="Trazado 993143" d="M264.929,313.859h18.588a.929.929,0,1,0,0-1.859H264.929a.929.929,0,0,0,0,1.859Z" transform="translate(-234.258 -276.682)"/>
        <path id="Trazado_993144" data-name="Trazado 993144" d="M264.929,337.859h14.755a.929.929,0,0,0,0-1.859H264.929a.929.929,0,0,0,0,1.859Z" transform="translate(-234.258 -297.894)"/>
        <path id="Trazado_993145" data-name="Trazado 993145" d="M417.859,336h-.929a.929.929,0,0,0,0,1.859h.929a.929.929,0,0,0,0-1.859Z" transform="translate(-368.599 -297.894)"/>
      </g>
    </g>
  </g>
</svg>
