<svg xmlns="http://www.w3.org/2000/svg" xmlns:xlink="http://www.w3.org/1999/xlink" width="108" height="108" viewBox="0 0 108 108">
  <defs>
    <filter id="Trazado_982547" x="0" y="0" width="108" height="108" filterUnits="userSpaceOnUse">
      <feOffset dy="3" input="SourceAlpha"/>
      <feGaussianBlur stdDeviation="3" result="blur"/>
      <feFlood flood-opacity="0.161"/>
      <feComposite operator="in" in2="blur"/>
      <feComposite in="SourceGraphic"/>
    </filter>
  </defs>
  <g id="Grupo_1159977" data-name="Grupo 1159977" transform="translate(-721 -1607)">
    <g id="Grupo_1158918" data-name="Grupo 1158918" transform="translate(105 -2303)">
      <g id="Grupo_1153177" data-name="Grupo 1153177" transform="translate(362 3397)">
        <g id="Grupo_1149598" data-name="Grupo 1149598" transform="translate(80 315)">
          <g id="Grupo_1148770" data-name="Grupo 1148770" transform="translate(-27 -2583)">
            <g id="Grupo_1146954" data-name="Grupo 1146954" transform="translate(-415 -1202)">
              <g transform="matrix(1, 0, 0, 1, 616, 3983)" filter="url(#Trazado_982547)">
                <g id="Trazado_982547-2" data-name="Trazado 982547" transform="translate(9 6)" fill="#fef4f5">
                  <path d="M 45 88.5 C 39.12687683105469 88.5 33.43022537231445 87.35007476806641 28.06830024719238 85.08217620849609 C 22.88852500915527 82.89131164550781 18.23629951477051 79.75458526611328 14.2408504486084 75.75914764404297 C 10.24541282653809 71.76370239257812 7.108687400817871 67.11147308349609 4.917825222015381 61.93170166015625 C 2.649924993515015 56.56977462768555 1.5 50.87312316894531 1.5 45 C 1.5 39.12687683105469 2.649924993515015 33.43022537231445 4.917825222015381 28.06830024719238 C 7.108687400817871 22.88852500915527 10.24541282653809 18.23629951477051 14.2408504486084 14.2408504486084 C 18.23629951477051 10.24541282653809 22.88852500915527 7.108687400817871 28.06830024719238 4.917825222015381 C 33.43022537231445 2.649924993515015 39.12687683105469 1.5 45 1.5 C 50.87312316894531 1.5 56.56977462768555 2.649924993515015 61.93170166015625 4.917825222015381 C 67.11147308349609 7.108687400817871 71.76370239257812 10.24541282653809 75.75914764404297 14.2408504486084 C 79.75458526611328 18.23629951477051 82.89131164550781 22.88852500915527 85.08217620849609 28.06830024719238 C 87.35007476806641 33.43022537231445 88.5 39.12687683105469 88.5 45 C 88.5 50.87312316894531 87.35007476806641 56.56977462768555 85.08217620849609 61.93170166015625 C 82.89131164550781 67.11147308349609 79.75458526611328 71.76370239257812 75.75914764404297 75.75914764404297 C 71.76370239257812 79.75458526611328 67.11147308349609 82.89131164550781 61.93170166015625 85.08217620849609 C 56.56977462768555 87.35007476806641 50.87312316894531 88.5 45 88.5 Z" stroke="none"/>
                  <path d="M 45 3 C 39.32871246337891 3 33.82865524291992 4.110054016113281 28.65262985229492 6.299339294433594 C 23.65165710449219 8.414573669433594 19.15968322753906 11.44334411621094 15.301513671875 15.301513671875 C 11.44334411621094 19.15968322753906 8.414573669433594 23.65165710449219 6.299339294433594 28.65262985229492 C 4.110054016113281 33.82865524291992 3 39.32871246337891 3 45 C 3 50.67128753662109 4.110054016113281 56.17134475708008 6.299339294433594 61.34737396240234 C 8.414573669433594 66.34834289550781 11.44334411621094 70.84031677246094 15.301513671875 74.698486328125 C 19.15968322753906 78.55665588378906 23.65165710449219 81.58542633056641 28.65262985229492 83.70066070556641 C 33.82865524291992 85.88994598388672 39.32871246337891 87 45 87 C 50.67128753662109 87 56.17134475708008 85.88994598388672 61.34737396240234 83.70066070556641 C 66.34834289550781 81.58542633056641 70.84031677246094 78.55665588378906 74.698486328125 74.698486328125 C 78.55665588378906 70.84031677246094 81.58542633056641 66.34834289550781 83.70066070556641 61.34737396240234 C 85.88994598388672 56.17134475708008 87 50.67128753662109 87 45 C 87 39.32871246337891 85.88994598388672 33.82865524291992 83.70066070556641 28.65262985229492 C 81.58542633056641 23.65165710449219 78.55665588378906 19.15968322753906 74.698486328125 15.301513671875 C 70.84031677246094 11.44334411621094 66.34834289550781 8.414573669433594 61.34737396240234 6.299339294433594 C 56.17134475708008 4.110054016113281 50.67128753662109 3 45 3 M 45 0 C 69.85281372070312 0 90 20.14718627929688 90 45 C 90 69.85281372070312 69.85281372070312 90 45 90 C 20.14718627929688 90 0 69.85281372070312 0 45 C 0 20.14718627929688 20.14718627929688 0 45 0 Z" stroke="none" fill="#ff7f8f"/>
                </g>
              </g>
            </g>
          </g>
        </g>
      </g>
    </g>
    <g id="educacion_1_" data-name="educacion (1)" transform="translate(747 1626.018)">
      <g id="Grupo_1159976" data-name="Grupo 1159976" transform="translate(0.946 5.661)">
        <path id="Trazado_992927" data-name="Trazado 992927" d="M96.595,233.53a10.868,10.868,0,0,0-.065,8.049l.887,1.737H59.15s-7.124-4,0-11.127l37.936-.782Z" transform="translate(-50.891 -207.659)" fill="#f1f2f2"/>
        <path id="Trazado_992928" data-name="Trazado 992928" d="M97.419,243.315H59.153s-7.124-4,0-11.127l37.936-.782-.492,2.124a10.421,10.421,0,0,0-.54,1.726H61.333a2.439,2.439,0,1,0,0,4.877H96.07a9.368,9.368,0,0,0,.463,1.446Z" transform="translate(-50.893 -207.658)" fill="#dee1e1"/>
        <path id="Trazado_992929" data-name="Trazado 992929" d="M80.656,234.2l-34.978-.055c-4.19,0-7.789-2.673-7.789-6.864a9.547,9.547,0,0,1,.142-2.959,7.591,7.591,0,0,1,7.118-4.955H81.033a1.711,1.711,0,1,1,0,3.423H53.875l-2.652.623-2.307-.623H45.149a4.165,4.165,0,1,0,0,8.329H81.033a1.712,1.712,0,0,1,1.7,1.913c-.1.85-1.2,1.168-2.077,1.168Z" transform="translate(-34.709 -196.914)" fill="#b7e546"/>
        <path id="Trazado_992930" data-name="Trazado 992930" d="M80.379,270.383a1.711,1.711,0,0,1-1.7,1.51l-17.728,1.062L42.8,271.893a7.591,7.591,0,0,1-6.941-10.658v1.56a7.588,7.588,0,0,0,7.588,7.588Z" transform="translate(-32.356 -234.27)" fill="#abd641"/>
        <path id="Trazado_992931" data-name="Trazado 992931" d="M146.584,256.081v-4.989h-3.556l-1.263.127.076,4.647a.216.216,0,0,0,.294.2l.892-.218,1-.391a.215.215,0,0,1,.157,0l2.106.825A.216.216,0,0,0,146.584,256.081Z" transform="translate(-127.418 -225.221)" fill="#ef5227"/>
        <path id="Trazado_992932" data-name="Trazado 992932" d="M141.872,251.095v4.756l-1.108.434a.216.216,0,0,1-.294-.2v-4.989Z" transform="translate(-126.262 -225.224)" fill="#d83724"/>
        <path id="Trazado_992933" data-name="Trazado 992933" d="M133.92,173.142v2.433l-.108,1.079a.755.755,0,0,1-.755.755l-28.75-.108a.755.755,0,0,1-.755-.755l-.216-3.4,14.759-.705Z" transform="translate(-93.134 -155.052)" fill="#fdcd08"/>
        <path id="Trazado_992934" data-name="Trazado 992934" d="M437.827,197.8c-.675,1.665-1.355,3.307-2.03,4.972a1.511,1.511,0,0,0,1.387,2.085l1.249.108h3.038a1.511,1.511,0,0,0,1.387-2.086l-1.408-3.472-.886-1.608h-2.736Z" transform="translate(-389.629 -177.677)" fill="#fdcd08"/>
        <path id="Trazado_992935" data-name="Trazado 992935" d="M438.025,197.667a4.1,4.1,0,0,0,2.534-.613l-.757-1.893-1.251.374h0l-1.631-.218c-.206.508-.506,1.23-.712,1.738h0l-1.408,3.47a1.511,1.511,0,0,0,1.386,2.085h1.726a1.511,1.511,0,0,1-1.386-2.085l1.052-2.592A.436.436,0,0,1,438.025,197.667Z" transform="translate(-388.74 -175.324)" fill="#faab18"/>
        <path id="Trazado_992936" data-name="Trazado 992936" d="M452.276,160.341a2.513,2.513,0,0,0-1.681-2.378c-.254-.088-.622.069-.905.069a2.119,2.119,0,0,0-2.222,2.31,2.195,2.195,0,0,0,2.4,2.221c.283,0,.469.245.723.157a2.513,2.513,0,0,0,1.681-2.378Z" transform="translate(-400.142 -142.115)" fill="#fdcd08"/>
        <path id="Trazado_992937" data-name="Trazado 992937" d="M449.175,161.817a2.454,2.454,0,0,1-.809.136,2.514,2.514,0,0,1,0-5.028,2.454,2.454,0,0,1,.809.136,2.523,2.523,0,0,0,0,4.756Z" transform="translate(-398.722 -141.213)" fill="#faab18"/>
        <path id="Trazado_992938" data-name="Trazado 992938" d="M63.034,21.2l-7.115,2.463-1.942-.2L40.165,29.118a4.526,4.526,0,0,1-2.962,0L23.392,23.686l-1.942-.021L14.335,21.2a.905.905,0,0,1,0-1.711l23.138-8.01a3.7,3.7,0,0,1,2.422,0l23.138,8.01A.905.905,0,0,1,63.034,21.2Z" transform="translate(-13.191 -11.277)" fill="#868491"/>
        <path id="Trazado_992939" data-name="Trazado 992939" d="M119.8,82.741v.73L104.05,88.925a4.526,4.526,0,0,1-2.962,0L85.336,83.471v-.73a3.174,3.174,0,0,1,2.615-3.126,82.853,82.853,0,0,1,29.238,0,3.176,3.176,0,0,1,2.615,3.126Z" transform="translate(-77.076 -71.083)" fill="#77777f"/>
        <path id="Trazado_992940" data-name="Trazado 992940" d="M135.7,98.8v6.433H105.444l-.108-6.217a1.234,1.234,0,0,1,1.016-1.215c.308-.055.4-.324.71-.376a80.886,80.886,0,0,1,27.626.16A1.235,1.235,0,0,1,135.7,98.8Z" transform="translate(-94.919 -87.141)" fill="#868491"/>
        <path id="Trazado_992941" data-name="Trazado 992941" d="M133.92,175.575v1.187a.755.755,0,0,1-.755.755H104.091a.755.755,0,0,1-.755-.755v-3.619l.971-.705.971.705v1.893a.539.539,0,0,0,.539.539Z" transform="translate(-93.134 -155.052)" fill="#faab18"/>
        <path id="Trazado_992942" data-name="Trazado 992942" d="M105.278,106.6v7.807h-1.942v-6.433a1.234,1.234,0,0,1,1.016-1.215C104.661,106.71,104.969,106.656,105.278,106.6Z" transform="translate(-93.134 -96.321)" fill="#77777f"/>
        <path id="Trazado_992943" data-name="Trazado 992943" d="M79.292,389.838a10.15,10.15,0,0,1,0-7.769l.328-1.458H35.508s-4.966,5.4.323,10.687l44.077.331Z" transform="translate(-30.737 -340.768)" fill="#f1f2f2"/>
        <path id="Trazado_992944" data-name="Trazado 992944" d="M79.907,391.631l-44.076-.33c-5.289-5.288-.323-10.686-.323-10.686l44.324.082-.54,1.376a10.108,10.108,0,0,0-.482,1.471H38.325a2.439,2.439,0,1,0,0,4.877h40.5a10.236,10.236,0,0,0,.469,1.421Z" transform="translate(-30.737 -340.772)" fill="#dee1e1"/>
        <path id="Trazado_992945" data-name="Trazado 992945" d="M61.991,374.83l-39.882-.073c-4.19,0-7.877-2.365-7.877-6.555,0-1.33-.325-3.161.276-4.248a7.586,7.586,0,0,1,6.644-3.921H62.74a1.711,1.711,0,1,1,0,3.423h-10.3l-2.692.6-2.266-.6H21.152a4.165,4.165,0,0,0,0,8.329H62.74a1.713,1.713,0,0,1,1.684,2.021c-.146.8-1.594,1.025-2.433,1.025Z" transform="translate(-13.564 -322.41)" fill="#ef5227"/>
        <path id="Trazado_992946" data-name="Trazado 992946" d="M59.629,402.846a1.713,1.713,0,0,1-1.684,1.4H16.356a7.589,7.589,0,0,1-6.4-11.664v2.673a7.588,7.588,0,0,0,7.588,7.588Z" transform="translate(-8.768 -351.451)" fill="#d83724"/>
        <path id="Trazado_992947" data-name="Trazado 992947" d="M329.227,396.779v-5.03h-3.341l-1.482.09.079,4.724a.216.216,0,0,0,.294.2l1.108-.3.783-.306a.215.215,0,0,1,.157,0l2.106.825A.216.216,0,0,0,329.227,396.779Z" transform="translate(-290.354 -350.705)" fill="#fdcd08"/>
        <path id="Trazado_992948" data-name="Trazado 992948" d="M324.758,391.745v4.713l-1.324.518a.216.216,0,0,1-.294-.2v-5.03Z" transform="translate(-289.227 -350.701)" fill="#faab18"/>
      </g>
      <path id="Trazado_992949" data-name="Trazado 992949" d="M55.062,30.206l-1.8-4.427a3.287,3.287,0,0,0-1.668-5.3c0-.213,0-5.544,0-5.77A1.679,1.679,0,0,0,50.455,13.1L27.708,5.225a4.466,4.466,0,0,0-2.911,0L19.134,7.186a.809.809,0,1,0,.529,1.529l5.663-1.961a2.841,2.841,0,0,1,1.852,0l22.747,7.874a.081.081,0,0,1,0,.153L42.1,17.493V17.25a2.02,2.02,0,0,0-1.665-1.99,80.046,80.046,0,0,0-28.353,0,2.02,2.02,0,0,0-1.665,1.99v.242l-7.83-2.711a.081.081,0,0,1,0-.153L16.03,9.973A.809.809,0,1,0,15.5,8.444L2.051,13.1a1.7,1.7,0,0,0,0,3.211l8.36,2.894v8.007A8.394,8.394,0,0,0,6.584,42.545,8.4,8.4,0,0,0,8.4,59.139H49.986a2.52,2.52,0,0,0,.051-5.04,9.269,9.269,0,0,1-.02-6.713,2.52,2.52,0,0,0-.032-5.04h-.5a2.519,2.519,0,0,0-2.353-3.423h-.022a9.263,9.263,0,0,1-.153-6.286,2.273,2.273,0,0,0,1.67.733h4.32a2.276,2.276,0,0,0,1.889-1.008,2.3,2.3,0,0,0,.224-2.155Zm-2.634-6.553a1.639,1.639,0,1,1-1.639-1.662A1.652,1.652,0,0,1,52.428,23.654ZM49.98,16.475v4a3.287,3.287,0,0,0-1.668,5.3l-.564,1.391H42.1V19.205Zm-37.618.377a78.449,78.449,0,0,1,27.782,0,.4.4,0,0,1,.333.4v5.514H35.491a.809.809,0,0,0,0,1.618h4.985V27.17H12.029V24.383H31.716a.809.809,0,0,0,0-1.618H12.029V17.251a.4.4,0,0,1,.333-.4ZM50.888,44.866a.9.9,0,0,1-.9.9H8.4a4.974,4.974,0,1,0,0,9.947H40.346a.809.809,0,1,0,0-1.618H8.4a3.355,3.355,0,1,1,0-6.711H33.913v4.535a.809.809,0,0,0,1.1.753L37.2,51.82l2.184.855a.809.809,0,0,0,1.1-.753V47.386H48.3a10.859,10.859,0,0,0,.016,6.711H44.122a.809.809,0,1,0,0,1.618h5.864a.9.9,0,1,1,0,1.8H8.4a6.778,6.778,0,1,1,0-13.557H49.986a.9.9,0,0,1,.9.9ZM35.531,47.387h3.341v3.35L37.5,50.2a.809.809,0,0,0-.59,0l-1.375.539ZM21.683,40.541h25.45a.9.9,0,1,1,0,1.8H11.249a6.778,6.778,0,0,1,0-13.557H47.091c-.2.537-.569,1.3-.694,1.8H11.249a4.974,4.974,0,1,0,0,9.947h6.658a.809.809,0,0,0,0-1.618H11.249a3.355,3.355,0,1,1,0-6.711h2.958v4.5a.809.809,0,0,0,1.1.753l2.184-.855,2.184.855a.809.809,0,0,0,1.1-.753v-4.5H45.393a10.86,10.86,0,0,0,0,6.711H21.683a.809.809,0,0,0,0,1.618Zm-5.858-8.329h3.341v3.311l-1.375-.539a.809.809,0,0,0-.59,0l-1.375.539ZM53.5,31.458a.656.656,0,0,1-.547.294h-4.32a.656.656,0,0,1-.547-.294.678.678,0,0,1-.066-.643l1.655-4.08a3.239,3.239,0,0,0,2.237,0l1.655,4.08A.678.678,0,0,1,53.5,31.458Z" transform="translate(0 0)"/>
    </g>
  </g>
</svg>
