<svg xmlns="http://www.w3.org/2000/svg" xmlns:xlink="http://www.w3.org/1999/xlink" width="108" height="108" viewBox="0 0 108 108">
  <defs>
    <filter id="Trazado_982547" x="0" y="0" width="108" height="108" filterUnits="userSpaceOnUse">
      <feOffset dy="3" input="SourceAlpha"/>
      <feGaussianBlur stdDeviation="3" result="blur"/>
      <feFlood flood-opacity="0.161"/>
      <feComposite operator="in" in2="blur"/>
      <feComposite in="SourceGraphic"/>
    </filter>
  </defs>
  <g id="Grupo_1160123" data-name="Grupo 1160123" transform="translate(-171 -4853)">
    <g id="Grupo_1159973" data-name="Grupo 1159973" transform="translate(0 1552)">
      <g id="Grupo_1154017" data-name="Grupo 1154017">
        <g id="Grupo_1153175" data-name="Grupo 1153175" transform="translate(-83 2788)">
          <g id="Grupo_1149598" data-name="Grupo 1149598" transform="translate(80 315)">
            <g id="Grupo_1148770" data-name="Grupo 1148770" transform="translate(-27 -2583)">
              <g id="Grupo_1146954" data-name="Grupo 1146954" transform="translate(-415 -1202)">
                <g transform="matrix(1, 0, 0, 1, 616, 3983)" filter="url(#Trazado_982547)">
                  <g id="Trazado_982547-2" data-name="Trazado 982547" transform="translate(9 6)" fill="#f4f8fc">
                    <path d="M 45 88.5 C 39.12687683105469 88.5 33.43022537231445 87.35007476806641 28.06830024719238 85.08217620849609 C 22.88852500915527 82.89131164550781 18.23629951477051 79.75458526611328 14.2408504486084 75.75914764404297 C 10.24541282653809 71.76370239257812 7.108687400817871 67.11147308349609 4.917825222015381 61.93170166015625 C 2.649924993515015 56.56977462768555 1.5 50.87312316894531 1.5 45 C 1.5 39.12687683105469 2.649924993515015 33.43022537231445 4.917825222015381 28.06830024719238 C 7.108687400817871 22.88852500915527 10.24541282653809 18.23629951477051 14.2408504486084 14.2408504486084 C 18.23629951477051 10.24541282653809 22.88852500915527 7.108687400817871 28.06830024719238 4.917825222015381 C 33.43022537231445 2.649924993515015 39.12687683105469 1.5 45 1.5 C 50.87312316894531 1.5 56.56977462768555 2.649924993515015 61.93170166015625 4.917825222015381 C 67.11147308349609 7.108687400817871 71.76370239257812 10.24541282653809 75.75914764404297 14.2408504486084 C 79.75458526611328 18.23629951477051 82.89131164550781 22.88852500915527 85.08217620849609 28.06830024719238 C 87.35007476806641 33.43022537231445 88.5 39.12687683105469 88.5 45 C 88.5 50.87312316894531 87.35007476806641 56.56977462768555 85.08217620849609 61.93170166015625 C 82.89131164550781 67.11147308349609 79.75458526611328 71.76370239257812 75.75914764404297 75.75914764404297 C 71.76370239257812 79.75458526611328 67.11147308349609 82.89131164550781 61.93170166015625 85.08217620849609 C 56.56977462768555 87.35007476806641 50.87312316894531 88.5 45 88.5 Z" stroke="none"/>
                    <path d="M 45 3 C 39.32871246337891 3 33.82865524291992 4.110054016113281 28.65262985229492 6.299339294433594 C 23.65165710449219 8.414573669433594 19.15968322753906 11.44334411621094 15.301513671875 15.301513671875 C 11.44334411621094 19.15968322753906 8.414573669433594 23.65165710449219 6.299339294433594 28.65262985229492 C 4.110054016113281 33.82865524291992 3 39.32871246337891 3 45 C 3 50.67128753662109 4.110054016113281 56.17134475708008 6.299339294433594 61.34737396240234 C 8.414573669433594 66.34834289550781 11.44334411621094 70.84031677246094 15.301513671875 74.698486328125 C 19.15968322753906 78.55665588378906 23.65165710449219 81.58542633056641 28.65262985229492 83.70066070556641 C 33.82865524291992 85.88994598388672 39.32871246337891 87 45 87 C 50.67128753662109 87 56.17134475708008 85.88994598388672 61.34737396240234 83.70066070556641 C 66.34834289550781 81.58542633056641 70.84031677246094 78.55665588378906 74.698486328125 74.698486328125 C 78.55665588378906 70.84031677246094 81.58542633056641 66.34834289550781 83.70066070556641 61.34737396240234 C 85.88994598388672 56.17134475708008 87 50.67128753662109 87 45 C 87 39.32871246337891 85.88994598388672 33.82865524291992 83.70066070556641 28.65262985229492 C 81.58542633056641 23.65165710449219 78.55665588378906 19.15968322753906 74.698486328125 15.301513671875 C 70.84031677246094 11.44334411621094 66.34834289550781 8.414573669433594 61.34737396240234 6.299339294433594 C 56.17134475708008 4.110054016113281 50.67128753662109 3 45 3 M 45 0 C 69.85281372070312 0 90 20.14718627929688 90 45 C 90 69.85281372070312 69.85281372070312 90 45 90 C 20.14718627929688 90 0 69.85281372070312 0 45 C 0 20.14718627929688 20.14718627929688 0 45 0 Z" stroke="none" fill="#526a7e"/>
                  </g>
                </g>
              </g>
            </g>
          </g>
        </g>
      </g>
    </g>
    <g id="signo-de-discapacitados" transform="translate(164.5 4873)">
      <g id="Grupo_1160120" data-name="Grupo 1160120" transform="translate(34.4 0.9)">
        <path id="Trazado_993249" data-name="Trazado 993249" d="M216.8,425.3h-9.6a1.2,1.2,0,0,1-1.2-1.2v-8.4a1.2,1.2,0,0,1,1.2-1.2h9.6a1.2,1.2,0,0,1,1.2,1.2v8.4A1.2,1.2,0,0,1,216.8,425.3Z" transform="translate(-186.209 -365.681)" fill="#7a8fa5"/>
        <g id="Grupo_1160119" data-name="Grupo 1160119">
          <g id="Grupo_1160115" data-name="Grupo 1160115">
            <path id="Trazado_993250" data-name="Trazado 993250" d="M180.952,11.7V54.879a4.2,4.2,0,0,1-4.2,4.2H166.641c-19.313-4.2-25.221-16.34-25.221-30.417,0-8.1,3.175-15.675,11.529-21.16h23.8A4.2,4.2,0,0,1,180.952,11.7Z" transform="translate(-129.375 -7.5)" fill="#f9ee80"/>
            <path id="Trazado_993251" data-name="Trazado 993251" d="M78.266,59.077H45.2a4.2,4.2,0,0,1-4.2-4.2V11.7a4.2,4.2,0,0,1,4.2-4.2H64.574A32.2,32.2,0,0,0,78.266,59.077Z" transform="translate(-41 -7.5)" fill="#f9d171"/>
          </g>
          <g id="Grupo_1160116" data-name="Grupo 1160116" transform="translate(4.198 4.198)">
            <path id="Trazado_993252" data-name="Trazado 993252" d="M185.555,43.7V84.482a1.2,1.2,0,0,1-1.2,1.2H167.327C154.85,82.005,151.42,70.275,151.42,59.462c0-6.224,0-12.521,7.226-16.962h25.71A1.2,1.2,0,0,1,185.555,43.7Z" transform="translate(-142.374 -42.5)" fill="#9cda82"/>
            <path id="Trazado_993253" data-name="Trazado 993253" d="M100.954,85.681H77.2a1.2,1.2,0,0,1-1.2-1.2V43.7a1.2,1.2,0,0,1,1.2-1.2H92.272a32.206,32.206,0,0,0,8.682,43.181Z" transform="translate(-76 -42.5)" fill="#7dce5c"/>
          </g>
          <g id="Grupo_1160118" data-name="Grupo 1160118" transform="translate(10.495 8.639)">
            <g id="Grupo_1160117" data-name="Grupo 1160117" transform="translate(4.374)">
              <path id="Trazado_993254" data-name="Trazado 993254" d="M169.723,181.723a7.325,7.325,0,0,0-3.451,2.51c-1.147-1.092-1.986-2.354-.522-5.194a11.516,11.516,0,0,1,2.6-1.285,2.1,2.1,0,0,1,1.372,3.968Z" transform="translate(-164.969 -165.871)" fill="#fff8e6"/>
              <path id="Trazado_993255" data-name="Trazado 993255" d="M224.7,302.113a11.584,11.584,0,0,1-7.293,4.48,3.5,3.5,0,0,1-3.179-4.131,7.321,7.321,0,0,0,7.1-2.856,2.112,2.112,0,0,1,1.684-.846,2.1,2.1,0,0,1,1.683,3.353Z" transform="translate(-208.303 -272.463)" fill="#fff8e6"/>
              <path id="Trazado_993256" data-name="Trazado 993256" d="M235.14,103.492l-2.981-4.043a4,4,0,0,0-3.207-1.62h-5.22a.3.3,0,0,1-.3-.246l-.639-3.491h3.851a2.1,2.1,0,1,0,0-4.2h-4.62l-.274-1.5a4.8,4.8,0,1,0-4.19.424l1.743,9.517a4.5,4.5,0,0,0,4.424,3.688h5.111l2.916,3.956a2.108,2.108,0,0,0,1.69.854,2.1,2.1,0,0,0,1.689-3.345Z" transform="translate(-208.497 -79.523)" fill="#fff8e6"/>
            </g>
            <path id="Trazado_993257" data-name="Trazado 993257" d="M141.98,210.271a11.307,11.307,0,0,1-1.956.17,11.526,11.526,0,0,1-6.368-21.131,32.184,32.184,0,0,0,.522,5.194A7.325,7.325,0,0,0,138.8,206.14,32.142,32.142,0,0,0,141.98,210.271Z" transform="translate(-128.5 -176.141)" fill="#ffeab7"/>
          </g>
        </g>
      </g>
      <g id="Grupo_1160122" data-name="Grupo 1160122" transform="translate(33.5)">
        <path id="Trazado_993258" data-name="Trazado 993258" d="M81.779,0H38.6a5.1,5.1,0,0,0-5.1,5.1V48.279a5.1,5.1,0,0,0,5.1,5.1H53.291v5.937a2.1,2.1,0,0,0,2.1,2.1h9.6a2.1,2.1,0,0,0,2.1-2.1V53.377H81.779a5.1,5.1,0,0,0,5.1-5.1V5.1A5.1,5.1,0,0,0,81.779,0Zm3.3,48.279a3.3,3.3,0,0,1-3.3,3.3H61.662a.9.9,0,1,0,0,1.8h3.624v5.937a.3.3,0,0,1-.3.3h-9.6a.3.3,0,0,1-.3-.3V53.377h2.374a.9.9,0,0,0,0-1.8H38.6a3.3,3.3,0,0,1-3.3-3.3V5.1a3.3,3.3,0,0,1,3.3-3.3H81.779a3.3,3.3,0,0,1,3.3,3.3Z" transform="translate(-33.5)"/>
        <path id="Trazado_993259" data-name="Trazado 993259" d="M111.381,79.98H70.6a2.1,2.1,0,0,1-2.1-2.1V37.1A2.1,2.1,0,0,1,70.6,35h40.782a2.1,2.1,0,0,1,2.1,2.1V42.89a.9.9,0,0,1-1.8,0V37.1a.3.3,0,0,0-.3-.3H70.6a.3.3,0,0,0-.3.3V77.881a.3.3,0,0,0,.3.3h40.782a.3.3,0,0,0,.3-.3V47.088a.9.9,0,0,1,1.8,0V77.881A2.1,2.1,0,0,1,111.381,79.98Z" transform="translate(-64.302 -30.802)"/>
        <g id="Grupo_1160121" data-name="Grupo 1160121" transform="translate(10.495 8.639)">
          <path id="Trazado_993260" data-name="Trazado 993260" d="M133.423,194.469a12.392,12.392,0,0,1-9.551-4.488.9.9,0,1,1,1.383-1.15,10.616,10.616,0,0,0,16.7-.449,1.2,1.2,0,0,0-.961-1.916,1.207,1.207,0,0,0-.963.484,8.225,8.225,0,1,1-9.293-12.679,1.2,1.2,0,0,0-.392-2.333,1.186,1.186,0,0,0-.391.065,10.626,10.626,0,0,0-6.59,13.451.9.9,0,0,1-1.7.579,12.426,12.426,0,0,1,7.7-15.73,3,3,0,0,1,1.961,5.668,6.427,6.427,0,1,0,7.261,9.9,3.015,3.015,0,0,1,2.406-1.208,3,3,0,0,1,2.4,4.79A12.481,12.481,0,0,1,133.423,194.469Z" transform="translate(-121 -158.37)"/>
          <path id="Trazado_993261" data-name="Trazado 993261" d="M229.264,96.356l-2.981-4.044a4.9,4.9,0,0,0-3.931-1.986h-4.719l-.355-1.937h2.771a3,3,0,0,0,0-6h-3.87l-.035-.193a5.7,5.7,0,1,0-9.213-4.481,5.721,5.721,0,0,0,3.237,5.139l1.656,9.043a5.4,5.4,0,0,0,5.31,4.425h4.656l2.647,3.59a3.013,3.013,0,0,0,2.415,1.22,3,3,0,0,0,2.413-4.778Zm-1.7,2.745a1.187,1.187,0,0,1-.709.233,1.206,1.206,0,0,1-.967-.488l-2.916-3.956a.9.9,0,0,0-.724-.366h-5.111a3.6,3.6,0,0,1-3.54-2.95l-1.743-9.518a.9.9,0,0,0-.573-.682,3.9,3.9,0,1,1,3.4-.344.9.9,0,0,0-.411.926l.273,1.5a.9.9,0,0,0,.885.738h4.62a1.2,1.2,0,1,1,0,2.4h-3.829a1.027,1.027,0,0,0-.183.015.9.9,0,0,0-.723,1.047l.64,3.492a1.2,1.2,0,0,0,1.18.982h5.219a3.1,3.1,0,0,1,2.483,1.255l2.981,4.043A1.2,1.2,0,0,1,227.56,99.1Z" transform="translate(-196.623 -72.02)"/>
        </g>
      </g>
    </g>
  </g>
</svg>
