<svg xmlns="http://www.w3.org/2000/svg" xmlns:xlink="http://www.w3.org/1999/xlink" width="98" height="98" viewBox="0 0 98 98">
  <defs>
    <filter id="Trazado_982548" x="0" y="0" width="98" height="98" filterUnits="userSpaceOnUse">
      <feOffset dy="3" input="SourceAlpha"/>
      <feGaussianBlur stdDeviation="3" result="blur"/>
      <feFlood flood-opacity="0.161"/>
      <feComposite operator="in" in2="blur"/>
      <feComposite in="SourceGraphic"/>
    </filter>
  </defs>
  <g id="Grupo_1159994" data-name="Grupo 1159994" transform="translate(-183 -5254)">
    <g id="Grupo_1159316" data-name="Grupo 1159316" transform="translate(0 4239)">
      <g id="Grupo_1155642" data-name="Grupo 1155642" transform="translate(0 166)">
        <g id="Grupo_1154380" data-name="Grupo 1154380" transform="translate(-9 -1247)">
          <g id="Grupo_1149886" data-name="Grupo 1149886" transform="translate(0 -2463)">
            <g id="Grupo_1149694" data-name="Grupo 1149694" transform="translate(-9 4104)">
              <g id="Grupo_1149263" data-name="Grupo 1149263" transform="translate(210 461)">
                <g transform="matrix(1, 0, 0, 1, -9, -6)" filter="url(#Trazado_982548)">
                  <g id="Trazado_982548-2" data-name="Trazado 982548" transform="translate(9 6)" fill="#effcf6">
                    <path d="M 40 78.5 C 34.80187606811523 78.5 29.76003265380859 77.48227691650391 25.01452255249023 75.47509765625 C 20.43014526367188 73.53606414794922 16.31264495849609 70.75986480712891 12.77638912200928 67.22360992431641 C 9.240133285522461 63.68735504150391 6.46393346786499 59.56985473632812 4.524899959564209 54.98547744750977 C 2.517722129821777 50.23996734619141 1.5 45.19812393188477 1.5 40 C 1.5 34.80187606811523 2.517722129821777 29.76003265380859 4.524899959564209 25.01452255249023 C 6.46393346786499 20.43014526367188 9.240133285522461 16.31264495849609 12.77638912200928 12.77638912200928 C 16.31264495849609 9.240133285522461 20.43014526367188 6.46393346786499 25.01452255249023 4.524899959564209 C 29.76003265380859 2.517722129821777 34.80187606811523 1.5 40 1.5 C 45.19812393188477 1.5 50.23996734619141 2.517722129821777 54.98547744750977 4.524899959564209 C 59.56985473632812 6.46393346786499 63.68735504150391 9.240133285522461 67.22360992431641 12.77638912200928 C 70.75986480712891 16.31264495849609 73.53606414794922 20.43014526367188 75.47509765625 25.01452255249023 C 77.48227691650391 29.76003265380859 78.5 34.80187606811523 78.5 40 C 78.5 45.19812393188477 77.48227691650391 50.23996734619141 75.47509765625 54.98547744750977 C 73.53606414794922 59.56985473632812 70.75986480712891 63.68735504150391 67.22360992431641 67.22360992431641 C 63.68735504150391 70.75986480712891 59.56985473632812 73.53606414794922 54.98547744750977 75.47509765625 C 50.23996734619141 77.48227691650391 45.19812393188477 78.5 40 78.5 Z" stroke="none"/>
                    <path d="M 40 3 C 35.00370788574219 3 30.15846633911133 3.977851867675781 25.59885406494141 5.906410217285156 C 21.19326782226562 7.769813537597656 17.23602676391602 10.43806457519531 13.83704376220703 13.83705139160156 C 10.43806457519531 17.23603820800781 7.769813537597656 21.19327926635742 5.906410217285156 25.59885406494141 C 3.977851867675781 30.15846633911133 3 35.00370788574219 3 40 C 3 44.99629211425781 3.977851867675781 49.84153366088867 5.906410217285156 54.40114593505859 C 7.769813537597656 58.80672073364258 10.43806457519531 62.76396179199219 13.83704376220703 66.16294860839844 C 17.23602676391602 69.56193542480469 21.19326782226562 72.23018646240234 25.59885406494141 74.09358978271484 C 30.15846633911133 76.02214813232422 35.00370788574219 77 40 77 C 44.99629211425781 77 49.84153366088867 76.02214813232422 54.40114593505859 74.09358978271484 C 58.80672073364258 72.23018646240234 62.76396179199219 69.56193542480469 66.16294860839844 66.16294860839844 C 69.56193542480469 62.76396179199219 72.23018646240234 58.80672073364258 74.09358978271484 54.40114593505859 C 76.02214813232422 49.84153366088867 77 44.99629211425781 77 40 C 77 35.00370788574219 76.02214813232422 30.15846633911133 74.09358978271484 25.59885406494141 C 72.23018646240234 21.19327926635742 69.56193542480469 17.23603820800781 66.16294860839844 13.83705139160156 C 62.76396179199219 10.43806457519531 58.80672073364258 7.769813537597656 54.40114593505859 5.906410217285156 C 49.84153366088867 3.977851867675781 44.99629211425781 3 40 3 M 40 0 C 62.09138488769531 0 80 17.90861511230469 80 40 C 80 62.09138488769531 62.09138488769531 80 40 80 C 17.90859985351562 80 0 62.09138488769531 0 40 C 0 17.90861511230469 17.90859985351562 0 40 0 Z" stroke="none" fill="#3d7e5e"/>
                  </g>
                </g>
              </g>
            </g>
          </g>
        </g>
      </g>
    </g>
    <g id="comunidades_1_" data-name="comunidades (1)" transform="translate(206.031 5274.034)">
      <g id="Grupo_1159993" data-name="Grupo 1159993" transform="translate(7.157 12.463)">
        <path id="Trazado_992970" data-name="Trazado 992970" d="M0,0H1.619V8.114H0Z" transform="translate(24.753 20.599) rotate(-45)" fill="#00cec8"/>
        <path id="Trazado_992971" data-name="Trazado 992971" d="M0,0H1.619V8.651H0Z" transform="translate(5.916 1.759) rotate(-45)" fill="#00cec8"/>
        <path id="Trazado_992972" data-name="Trazado 992972" d="M0,0H10.326V1.619H0Z" transform="matrix(0.966, -0.26, 0.26, 0.966, 0, 17.889)" fill="#00cec8"/>
        <path id="Trazado_992973" data-name="Trazado 992973" d="M0,0H6.684V1.619H0Z" transform="translate(11.149 27.333) rotate(-63.435)" fill="#00cec8"/>
        <path id="Trazado_992974" data-name="Trazado 992974" d="M0,0H11.422V1.619H0Z" transform="translate(27.739 12.482) rotate(-2.121)" fill="#00cec8"/>
        <path id="Trazado_992975" data-name="Trazado 992975" d="M0,0H6.009V1.619H0Z" transform="translate(22.6 5.264) rotate(-61.179)" fill="#00cec8"/>
      </g>
      <circle id="Elipse_11992" data-name="Elipse 11992" cx="7.285" cy="7.285" r="7.285" transform="translate(35.799 35.798)" fill="#18efe4"/>
      <path id="Trazado_992976" data-name="Trazado 992976" d="M51.667,44a7.263,7.263,0,0,0-5.127,2.111A7.285,7.285,0,0,0,58.412,54.03,7.285,7.285,0,0,0,51.667,44Z" transform="translate(-8.583 -8.202)" fill="#99fff7"/>
      <circle id="Elipse_11993" data-name="Elipse 11993" cx="2.428" cy="2.428" r="2.428" transform="translate(40.655 38.226)" fill="#f8ae48"/>
      <path id="Trazado_992977" data-name="Trazado 992977" d="M48,57.047h8.094a4.047,4.047,0,1,0-8.094,0Z" transform="translate(-8.964 -9.917)" fill="#df9743"/>
      <circle id="Elipse_11994" data-name="Elipse 11994" cx="9.713" cy="9.713" r="9.713" transform="translate(16.373 16.372)" fill="#18efe4"/>
      <path id="Trazado_992978" data-name="Trazado 992978" d="M30.094,20a9.656,9.656,0,0,0-6.005,2.089A9.7,9.7,0,0,0,37.718,35.718,9.7,9.7,0,0,0,30.094,20Z" transform="translate(-4.008 -3.628)" fill="#99fff7"/>
      <circle id="Elipse_11995" data-name="Elipse 11995" cx="3.238" cy="3.238" r="3.238" transform="translate(22.848 19.61)" fill="#f96c4b"/>
      <path id="Trazado_992979" data-name="Trazado 992979" d="M26,37.856h9.713a4.856,4.856,0,0,0-9.713,0Z" transform="translate(-4.771 -6.105)" fill="#ce4c32"/>
      <circle id="Elipse_11996" data-name="Elipse 11996" cx="7.285" cy="7.285" r="7.285" transform="translate(1.803 1.803)" fill="#18efe4"/>
      <path id="Trazado_992980" data-name="Trazado 992980" d="M9.667,2A7.263,7.263,0,0,0,4.54,4.111,7.285,7.285,0,0,0,16.412,12.03,7.285,7.285,0,0,0,9.667,2Z" transform="translate(-0.578 -0.197)" fill="#99fff7"/>
      <circle id="Elipse_11997" data-name="Elipse 11997" cx="2.428" cy="2.428" r="2.428" transform="translate(6.66 4.231)" fill="#f8ae48"/>
      <path id="Trazado_992981" data-name="Trazado 992981" d="M6,15.047h8.094a4.047,4.047,0,1,0-8.094,0Z" transform="translate(-0.959 -1.912)" fill="#df9743"/>
      <circle id="Elipse_11998" data-name="Elipse 11998" cx="4.047" cy="4.047" r="4.047" transform="translate(30.942 5.85)" fill="#ce4c32"/>
      <circle id="Elipse_11999" data-name="Elipse 11999" cx="4.856" cy="4.856" r="4.856" transform="translate(12.326 39.036)" fill="#ce4c32"/>
      <circle id="Elipse_12000" data-name="Elipse 12000" cx="3.238" cy="3.238" r="3.238" transform="translate(1.803 28.513)" fill="#ce4c32"/>
      <circle id="Elipse_12001" data-name="Elipse 12001" cx="2.428" cy="2.428" r="2.428" transform="translate(45.512 22.848)" fill="#ce4c32"/>
      <path id="Trazado_992982" data-name="Trazado 992982" d="M36.587,26.506l8.266-.306a3.215,3.215,0,1,0-.072-1.619l-8.246.305a10.522,10.522,0,0,0-4.688-7.6l1.547-2.812a4.863,4.863,0,1,0-1.418-.78L30.427,16.51A10.449,10.449,0,0,0,19.249,18.1l-3.9-3.9a8.107,8.107,0,1,0-1.145,1.145l3.9,3.9a10.407,10.407,0,0,0-2.353,8.782L8.642,29.941a4.015,4.015,0,1,0,.446,1.81c0-.081-.019-.162-.025-.243l7.114-1.915a10.564,10.564,0,0,0,4.5,5.5l-1.714,3.421a5.678,5.678,0,1,0,1.447.728l1.709-3.421a10.462,10.462,0,0,0,10.8-1.759l3.9,3.9a8.1,8.1,0,1,0,1.145-1.145l-3.9-3.9a10.468,10.468,0,0,0,2.52-6.416ZM47.94,23.657a1.619,1.619,0,1,1-1.619,1.619A1.619,1.619,0,0,1,47.94,23.657Zm-12.951-17A3.238,3.238,0,1,1,31.752,9.9,3.238,3.238,0,0,1,34.989,6.659ZM5.041,34.179a2.428,2.428,0,1,1,2.428-2.428A2.428,2.428,0,0,1,5.041,34.179Zm16.188,9.713a4.047,4.047,0,1,1-4.047-4.047A4.047,4.047,0,0,1,21.229,43.892ZM2.613,9.088a6.475,6.475,0,1,1,11.273,4.334.791.791,0,0,0,.059-.287A4.822,4.822,0,0,0,12.523,9.7a4.882,4.882,0,0,0-1.088-.819,3.238,3.238,0,1,0-4.686,0,4.856,4.856,0,0,0-2.518,4.253.809.809,0,0,0,.057.284A6.444,6.444,0,0,1,2.613,9.088Zm6.475-.809a1.619,1.619,0,1,1,1.619-1.619A1.619,1.619,0,0,1,9.088,8.278Zm0,1.619a3.238,3.238,0,0,1,3.135,2.428H5.953A3.243,3.243,0,0,1,9.088,9.9Zm-4.33,3.99a.8.8,0,0,0,.283.057h8.094a.792.792,0,0,0,.287-.058,6.435,6.435,0,0,1-8.661,0Zm12.424,12.2a8.9,8.9,0,1,1,8.9,8.9,8.9,8.9,0,0,1-8.9-8.9Zm21.571,21.8a.8.8,0,0,0,.283.057H47.13a.792.792,0,0,0,.287-.058,6.435,6.435,0,0,1-8.661,0Zm4.33-5.609A1.619,1.619,0,1,1,44.7,40.655,1.619,1.619,0,0,1,43.083,42.273Zm0,1.619a3.238,3.238,0,0,1,3.135,2.428H39.948a3.243,3.243,0,0,1,3.136-2.428Zm0-7.285a6.464,6.464,0,0,1,4.8,10.809.791.791,0,0,0,.059-.287A4.822,4.822,0,0,0,46.519,43.7a4.882,4.882,0,0,0-1.088-.819,3.238,3.238,0,1,0-4.686,0,4.856,4.856,0,0,0-2.518,4.253.81.81,0,0,0,.057.284,6.464,6.464,0,0,1,4.8-10.806Z" transform="translate(0 0)"/>
      <path id="Trazado_992983" data-name="Trazado 992983" d="M32.543,30.6a4.047,4.047,0,1,0-3.754,0A5.672,5.672,0,0,0,25,35.945a.809.809,0,0,0,.809.809h9.713a.809.809,0,0,0,.809-.809A5.672,5.672,0,0,0,32.543,30.6Zm-1.877-5.99a2.428,2.428,0,1,1-2.428,2.428A2.428,2.428,0,0,1,30.666,24.613ZM26.7,35.135a4.047,4.047,0,0,1,7.932,0Z" transform="translate(-4.58 -4.194)"/>
    </g>
  </g>
</svg>
