<svg xmlns="http://www.w3.org/2000/svg" xmlns:xlink="http://www.w3.org/1999/xlink" width="108" height="108" viewBox="0 0 108 108">
  <defs>
    <filter id="Trazado_982547" x="0" y="0" width="108" height="108" filterUnits="userSpaceOnUse">
      <feOffset dy="3" input="SourceAlpha"/>
      <feGaussianBlur stdDeviation="3" result="blur"/>
      <feFlood flood-opacity="0.161"/>
      <feComposite operator="in" in2="blur"/>
      <feComposite in="SourceGraphic"/>
    </filter>
  </defs>
  <g id="Grupo_1160110" data-name="Grupo 1160110" transform="translate(-166 -3041)">
    <g id="Grupo_1159957" data-name="Grupo 1159957" transform="translate(0 -2073)">
      <g id="Grupo_1153202" data-name="Grupo 1153202" transform="translate(-88 4601)">
        <g id="Grupo_1149598" data-name="Grupo 1149598" transform="translate(80 315)">
          <g id="Grupo_1148770" data-name="Grupo 1148770" transform="translate(-27 -2583)">
            <g id="Grupo_1146954" data-name="Grupo 1146954" transform="translate(-415 -1202)">
              <g transform="matrix(1, 0, 0, 1, 616, 3983)" filter="url(#Trazado_982547)">
                <g id="Trazado_982547-2" data-name="Trazado 982547" transform="translate(9 6)" fill="#fef6e8">
                  <path d="M 45 88.5 C 39.12687683105469 88.5 33.43022537231445 87.35007476806641 28.06830024719238 85.08217620849609 C 22.88852500915527 82.89131164550781 18.23629951477051 79.75458526611328 14.2408504486084 75.75914764404297 C 10.24541282653809 71.76370239257812 7.108687400817871 67.11147308349609 4.917825222015381 61.93170166015625 C 2.649924993515015 56.56977462768555 1.5 50.87312316894531 1.5 45 C 1.5 39.12687683105469 2.649924993515015 33.43022537231445 4.917825222015381 28.06830024719238 C 7.108687400817871 22.88852500915527 10.24541282653809 18.23629951477051 14.2408504486084 14.2408504486084 C 18.23629951477051 10.24541282653809 22.88852500915527 7.108687400817871 28.06830024719238 4.917825222015381 C 33.43022537231445 2.649924993515015 39.12687683105469 1.5 45 1.5 C 50.87312316894531 1.5 56.56977462768555 2.649924993515015 61.93170166015625 4.917825222015381 C 67.11147308349609 7.108687400817871 71.76370239257812 10.24541282653809 75.75914764404297 14.2408504486084 C 79.75458526611328 18.23629951477051 82.89131164550781 22.88852500915527 85.08217620849609 28.06830024719238 C 87.35007476806641 33.43022537231445 88.5 39.12687683105469 88.5 45 C 88.5 50.87312316894531 87.35007476806641 56.56977462768555 85.08217620849609 61.93170166015625 C 82.89131164550781 67.11147308349609 79.75458526611328 71.76370239257812 75.75914764404297 75.75914764404297 C 71.76370239257812 79.75458526611328 67.11147308349609 82.89131164550781 61.93170166015625 85.08217620849609 C 56.56977462768555 87.35007476806641 50.87312316894531 88.5 45 88.5 Z" stroke="none"/>
                  <path d="M 45 3 C 39.32871246337891 3 33.82865524291992 4.110054016113281 28.65262985229492 6.299339294433594 C 23.65165710449219 8.414573669433594 19.15968322753906 11.44334411621094 15.301513671875 15.301513671875 C 11.44334411621094 19.15968322753906 8.414573669433594 23.65165710449219 6.299339294433594 28.65262985229492 C 4.110054016113281 33.82865524291992 3 39.32871246337891 3 45 C 3 50.67128753662109 4.110054016113281 56.17134475708008 6.299339294433594 61.34737396240234 C 8.414573669433594 66.34834289550781 11.44334411621094 70.84031677246094 15.301513671875 74.698486328125 C 19.15968322753906 78.55665588378906 23.65165710449219 81.58542633056641 28.65262985229492 83.70066070556641 C 33.82865524291992 85.88994598388672 39.32871246337891 87 45 87 C 50.67128753662109 87 56.17134475708008 85.88994598388672 61.34737396240234 83.70066070556641 C 66.34834289550781 81.58542633056641 70.84031677246094 78.55665588378906 74.698486328125 74.698486328125 C 78.55665588378906 70.84031677246094 81.58542633056641 66.34834289550781 83.70066070556641 61.34737396240234 C 85.88994598388672 56.17134475708008 87 50.67128753662109 87 45 C 87 39.32871246337891 85.88994598388672 33.82865524291992 83.70066070556641 28.65262985229492 C 81.58542633056641 23.65165710449219 78.55665588378906 19.15968322753906 74.698486328125 15.301513671875 C 70.84031677246094 11.44334411621094 66.34834289550781 8.414573669433594 61.34737396240234 6.299339294433594 C 56.17134475708008 4.110054016113281 50.67128753662109 3 45 3 M 45 0 C 69.85281372070312 0 90 20.14718627929688 90 45 C 90 69.85281372070312 69.85281372070312 90 45 90 C 20.14718627929688 90 0 69.85281372070312 0 45 C 0 20.14718627929688 20.14718627929688 0 45 0 Z" stroke="none" fill="#fdaf2f"/>
                </g>
              </g>
            </g>
          </g>
        </g>
      </g>
    </g>
    <g id="social_2_" data-name="social (2)" transform="translate(186.999 3029.223)">
      <g id="Grupo_1160109" data-name="Grupo 1160109" transform="translate(0.965 34.746)">
        <path id="Trazado_993201" data-name="Trazado 993201" d="M307.555,100.8l-3.132-12.387-9.346-.275-2.532,12.6Z" transform="translate(-255.711 -82.079)" fill="#686564"/>
        <path id="Trazado_993202" data-name="Trazado 993202" d="M114.288,137.568v1.53l-2.544.459a1.278,1.278,0,0,0-1.278,1.278l-.619,7.921.006-.075v6.489h-9.463L99.7,140.836a1.278,1.278,0,0,0-1.278-1.278l-2.473-.459v-1.53a5.114,5.114,0,0,1,5.114-5.114h8.107A5.114,5.114,0,0,1,114.288,137.568Z" transform="translate(-84.52 -120.673)" fill="#bbf39b"/>
        <path id="Trazado_993203" data-name="Trazado 993203" d="M289.983,183.8l1.369,5.476a.639.639,0,0,1-.62.794h-17.12l.666-7.071-1.013-13.337c0-2.824,3.3-5.228,6.126-5.228h7.34a5.114,5.114,0,0,1,5.114,5.114v2.042Z" transform="translate(-238.923 -148.523)" fill="#fece85"/>
        <path id="Trazado_993204" data-name="Trazado 993204" d="M390.618,211.9v11.409a1.962,1.962,0,0,1-3.925,0v-7.5a3.914,3.914,0,0,1,3.915-3.913Z" transform="translate(-337.695 -189.853)" fill="#e88f77"/>
        <path id="Trazado_993205" data-name="Trazado 993205" d="M207.925,183.88v10.77a2.218,2.218,0,1,1-4.435,0v-1.186l-.006.075v-8.381a1.278,1.278,0,0,1,1.278-1.278Z" transform="translate(-178.158 -165.455)" fill="#ffb5a5"/>
        <path id="Trazado_993206" data-name="Trazado 993206" d="M100.388,185.158v12.076a2.218,2.218,0,1,1-4.436,0V183.88H99.11A1.278,1.278,0,0,1,100.388,185.158Z" transform="translate(-84.519 -165.455)" fill="#ffb5a5"/>
        <path id="Trazado_993207" data-name="Trazado 993207" d="M153.229,103h-4.766v3.869a2.383,2.383,0,1,0,4.766,0Z" transform="translate(-130.245 -95.027)" fill="#ff9d86"/>
        <path id="Trazado_993208" data-name="Trazado 993208" d="M195.544,264.413l-.195,8.093c0,.942-.953-.078-1.9-.078a1.707,1.707,0,0,1-1.707-1.707v-6.679l3.03-.4A.767.767,0,0,1,195.544,264.413Z" transform="translate(-167.937 -234.915)" fill="#ffdcd0"/>
        <path id="Trazado_993209" data-name="Trazado 993209" d="M292.229,262.843v6.679a1.707,1.707,0,0,1-1.707,1.707c-.472,0-1.27,1.154-1.58.844a1.543,1.543,0,0,1-.511-1.131v-7.906a.767.767,0,0,1,.767-.767Z" transform="translate(-252.13 -233.716)" fill="#ffdcd0"/>
        <path id="Trazado_993210" data-name="Trazado 993210" d="M218.167,308.357v14.964h9.042l.42-1.643V308.357l-4.731-.949Z" transform="translate(-190.943 -273.023)" fill="#b3dafe"/>
        <path id="Trazado_993211" data-name="Trazado 993211" d="M208.036,226.614v1.018H205.39a.767.767,0,0,0-.767.767v8.206h-9.462V228.4a.767.767,0,0,0-.767-.767h-2.646v-1.018a5.114,5.114,0,0,1,5.114-5.114h6.061A5.114,5.114,0,0,1,208.036,226.614Z" transform="translate(-167.937 -198.214)" fill="#f7786b"/>
        <path id="Trazado_993212" data-name="Trazado 993212" d="M242.106,203.746h-4.418v2.24a2.209,2.209,0,1,0,4.417,0v-2.24Z" transform="translate(-207.942 -182.754)" fill="#ffc7b6"/>
        <path id="Trazado_993213" data-name="Trazado 993213" d="M231.444,424.884h6.337v5.76h-6.337Z" transform="translate(-202.505 -375.32)" fill="#f2fbff"/>
        <g id="Grupo_1160108" data-name="Grupo 1160108" transform="translate(0 10.65)">
          <g id="Grupo_1160106" data-name="Grupo 1160106" transform="translate(34.042 0)">
            <path id="Trazado_993214" data-name="Trazado 993214" d="M434.305,128.053l-1.446,9.924-.965,1.981.287,2.682-8.026,2.627,5.605-17.475c.287-1.01.621-2.256,1.642-2.39,0,0,.225-.022.336-.022a8.956,8.956,0,0,0,1-.1A2.6,2.6,0,0,1,434.305,128.053Z" transform="translate(-404.359 -125.078)" fill="#ffc7b6"/>
            <path id="Trazado_993215" data-name="Trazado 993215" d="M432.86,136.6l-.034.233-.645,4.43-4.759,1.557-3.268,1.07,1.4-5.043,3.672-13.252a2.6,2.6,0,0,1,2.168-1.871h.006a2.52,2.52,0,0,1,.329-.022,2.577,2.577,0,0,1,1.012.2l-3.5,12.4a.517.517,0,0,0,.683.622A5.382,5.382,0,0,1,432.86,136.6Z" transform="translate(-404.359 -123.705)" fill="#ffb5a5"/>
            <path id="Trazado_993216" data-name="Trazado 993216" d="M319.787,247.007a2.914,2.914,0,0,1-1.521,2.561l-1.433.9-.857,1.811.475.928-.067.485a5.1,5.1,0,0,1-2.541,3.735L304.5,262.7a.391.391,0,0,0-.2.337v4.283l-5.744,1.607-6.179-1.607v-8.608c0-1.929.116-3.57,1.326-5.095l.05-.063a12.009,12.009,0,0,1,2.6-2.546,8.289,8.289,0,0,1,2.787-.786l1.917-.193a14.024,14.024,0,0,0,4.259-1.121l10.8-4.757a2.406,2.406,0,0,1,3.412,1.671,2.906,2.906,0,0,1,.252,1.182Z" transform="translate(-289.614 -228.386)" fill="#ffc7b6"/>
            <path id="Trazado_993217" data-name="Trazado 993217" d="M290.792,298.819a8.543,8.543,0,0,0-1.706,5.12v11.9l-3.1-.712v-8.608a8.553,8.553,0,0,1,1.862-5.323l.05-.063a8.3,8.3,0,0,1,2.894-2.317Z" transform="translate(-284.041 -276.194)" fill="#ffb5a5"/>
            <path id="Trazado_993218" data-name="Trazado 993218" d="M275.014,425.281l3.444-.4h10.36a1.233,1.233,0,0,1,1.233,1.233v3.293a1.233,1.233,0,0,1-1.233,1.233h-10.36l-3.419-.221a1.233,1.233,0,0,1-1.233-1.233l-.024-2.675A1.233,1.233,0,0,1,275.014,425.281Z" transform="translate(-273.414 -385.97)" fill="#72706f"/>
            <path id="Trazado_993219" data-name="Trazado 993219" d="M275.983,424.884v5.76h-3.81a1.233,1.233,0,0,1-1.234-1.234v-3.293a1.233,1.233,0,0,1,1.234-1.233Z" transform="translate(-270.939 -385.97)" fill="#686564"/>
            <path id="Trazado_993220" data-name="Trazado 993220" d="M411.964,300.793a1.187,1.187,0,0,0,1.494.3l6.895-3.757.381-2.739-7.554,4-.8.384A1.187,1.187,0,0,0,411.964,300.793Z" transform="translate(-393.515 -272.517)" fill="#ffb5a5"/>
          </g>
          <g id="Grupo_1160107" data-name="Grupo 1160107">
            <path id="Trazado_993221" data-name="Trazado 993221" d="M14.993,141.591l-2.166-14.424c-.226-1.569.531-2.937,2.116-2.937.113,0,.185-.371.3-.356a2.6,2.6,0,0,1,2.168,1.87L21.078,139l-.445,1.924,1.842,3.119Z" transform="translate(-12.099 -123.852)" fill="#ffc7b6"/>
            <path id="Trazado_993222" data-name="Trazado 993222" d="M19.182,143.892l-4.394-1.438-3.632-1.189-.645-4.43L9.031,126.678a2.6,2.6,0,0,1,2.912-2.952l1.59,12.773a.9.9,0,0,0,.539.718c1.083.467,3.65,1.609,3.712,1.632Z" transform="translate(-8.805 -123.704)" fill="#ffb5a5"/>
            <path id="Trazado_993223" data-name="Trazado 993223" d="M33.832,253.392l-.051-.064a8.311,8.311,0,0,0-5.682-3.1l-1.918-.192a14.027,14.027,0,0,1-4.258-1.121l-10.8-4.758a2.406,2.406,0,0,0-3.413,1.671,2.914,2.914,0,0,0,1.269,3.743l1.433.9.856,1.811-.475.928.067.484a5.1,5.1,0,0,0,2.541,3.736l9.339,5.278c.122.069.615.519.615.659l.1,3.962,5.229,1.607,7.005-1.607v-8.608A8.553,8.553,0,0,0,33.832,253.392Z" transform="translate(-7.465 -228.385)" fill="#ffc7b6"/>
            <path id="Trazado_993224" data-name="Trazado 993224" d="M129.041,390.5v3.244l-1.88,1.607-1.221-1.607v-4.283a.387.387,0,0,0-.2-.337l1.874-.027A1.4,1.4,0,0,1,129.041,390.5Z" transform="translate(-110.462 -354.807)" fill="#ffb5a5"/>
            <path id="Trazado_993225" data-name="Trazado 993225" d="M116.3,425.281l3.444-.4H130.1a1.233,1.233,0,0,1,1.233,1.233v3.293a1.233,1.233,0,0,1-1.233,1.233h-10.36l-3.419-.221a1.233,1.233,0,0,1-1.233-1.233l-.024-2.675A1.233,1.233,0,0,1,116.3,425.281Z" transform="translate(-101.164 -385.969)" fill="#72706f"/>
            <path id="Trazado_993226" data-name="Trazado 993226" d="M117.268,424.884v5.76h-3.81a1.233,1.233,0,0,1-1.234-1.234v-3.293a1.233,1.233,0,0,1,1.234-1.233Z" transform="translate(-98.689 -385.97)" fill="#686564"/>
            <path id="Trazado_993227" data-name="Trazado 993227" d="M39.093,300.793a1.187,1.187,0,0,1-1.494.3L30.7,297.336l-.381-2.739,7.554,4,.8.384A1.187,1.187,0,0,1,39.093,300.793Z" transform="translate(-27.37 -272.517)" fill="#ffb5a5"/>
          </g>
        </g>
        <path id="Trazado_993228" data-name="Trazado 993228" d="M142.761,45.4c0,2.657-1.846,5.925-4.123,5.925s-4.123-3.269-4.123-5.925a4.123,4.123,0,1,1,8.247,0Z" transform="translate(-118.099 -41.276)" fill="#ffb5a5"/>
        <path id="Trazado_993229" data-name="Trazado 993229" d="M231.347,143.445c0,2.382-1.908,5.309-4.261,5.309s-4.261-2.927-4.261-5.309a4.261,4.261,0,1,1,8.522,0Z" transform="translate(-195 -126.489)" fill="#ffdcd0"/>
        <path id="Trazado_993230" data-name="Trazado 993230" d="M336.713,132.5v3.956a2.425,2.425,0,0,1-4.851,0v-4.006Z" transform="translate(-289.949 -120.673)" fill="#e08369"/>
        <path id="Trazado_993231" data-name="Trazado 993231" d="M323.024,86.885c-.032,2.79-2.173,6.275-4.81,6.275s-4.778-3.486-4.81-6.275c1.265.3,2.694-.645,3.672-1.366a1.939,1.939,0,0,1,2.277,0C320.33,86.24,321.759,87.185,323.024,86.885Z" transform="translate(-273.875 -79.481)" fill="#e88f77"/>
        <path id="Trazado_993232" data-name="Trazado 993232" d="M323.024,63.922v.063a4.566,4.566,0,0,1-3.672-.566,1.939,1.939,0,0,0-2.277,0,4.566,4.566,0,0,1-3.672.566v-.063a4.817,4.817,0,1,1,9.621,0Z" transform="translate(-273.875 -56.581)" fill="#72706f"/>
      </g>
      <path id="Trazado_993233" data-name="Trazado 993233" d="M65.814,62.6a3.861,3.861,0,0,0-1.65-1.807l.595-4.122a.969.969,0,1,0-1.918-.277l-.563,3.9a3.853,3.853,0,0,0-1.579.328l-4.067,1.793,4.174-14.7a1.634,1.634,0,0,1,3.189.679l-.509,3.527a.969.969,0,1,0,1.918.277l.509-3.527a3.572,3.572,0,0,0-6.972-1.485L54.953,61.225V55.777a6.053,6.053,0,0,0-1.21-3.65s-2.808-11.078-2.815-11.1a5.719,5.719,0,0,0-11.166-.157c-.019.044-2.124,7.936-2.143,8A5.192,5.192,0,0,0,29.691,47.4a6.17,6.17,0,0,0-4.062-1.528H24.9v-2.1A8.632,8.632,0,0,0,26.56,38.76a.969.969,0,0,0-.969-.953h-.016a.969.969,0,0,0-.953.985c.062,2.287-1.654,5.039-3.154,5.034s-3.154-2.594-3.154-4.956a2.932,2.932,0,0,1,3.154-3.154A3.627,3.627,0,0,1,22.93,36a.969.969,0,1,0,.777-1.776,5.548,5.548,0,0,0-2.238-.45,4.872,4.872,0,0,0-5.092,5.092,8.434,8.434,0,0,0,1.734,5v2.007h-.731a6.18,6.18,0,0,0-6.169,5.989s0,9.14-.018,9.363L9.724,56.053a.969.969,0,0,0-1.864.529l1.655,5.829L5.447,60.619a3.856,3.856,0,0,0-1.579-.328L2.151,48.386a1.634,1.634,0,0,1,3.189-.679l1.306,4.6a.969.969,0,0,0,1.864-.529L7.2,47.178A3.572,3.572,0,0,0,.233,48.663L1.981,60.788A3.861,3.861,0,0,0,.332,62.6a3.9,3.9,0,0,0,1.691,4.987l.986.537.4,2.867a6.1,6.1,0,0,0,3.025,4.446l9.043,5.111v2.976a2.263,2.263,0,0,0-1.944,2.236v3.176a2.264,2.264,0,0,0,2.261,2.261h34.56a2.264,2.264,0,0,0,2.261-2.261V85.755a2.263,2.263,0,0,0-1.944-2.236V80.543l9.043-5.111a6.1,6.1,0,0,0,3.025-4.446l.4-2.867.986-.537A3.9,3.9,0,0,0,65.814,62.6ZM34.064,89.254H32.081a2.257,2.257,0,0,0,.026-.323V85.755a2.257,2.257,0,0,0-.026-.323h1.983a2.257,2.257,0,0,0-.026.323v3.176A2.255,2.255,0,0,0,34.064,89.254ZM25.74,67.828V65.465h1.407a.4.4,0,0,1,.4.4v3.457A9.3,9.3,0,0,0,25.74,67.828ZM43.848,49.541a4.077,4.077,0,0,0,2.912.017v1.252a1.456,1.456,0,1,1-2.913,0V49.541Zm4.85-1.272a7.584,7.584,0,0,0,.82-.98,8.717,8.717,0,0,0,.7-1.184l1.04,4.1a6.385,6.385,0,0,0-2.217-.429H48.7Zm-3.374-.388c-1.711,0-3.263-2.127-3.712-4.212q.235.021.468.021a4.477,4.477,0,0,0,2.821-.928.656.656,0,0,1,.844,0,4.6,4.6,0,0,0,3.29.906C48.589,45.752,47.036,47.88,45.325,47.88Zm-4.193-.592a7.644,7.644,0,0,0,.778.938v1.55h-.341a6.19,6.19,0,0,0-2.3.442l1.125-4.2A8.727,8.727,0,0,0,41.132,47.288ZM31.781,57.506a3.871,3.871,0,0,0,2.558-.005v1a1.279,1.279,0,1,1-2.558,0v-.99Zm-1.938-1.255v1.038a6.132,6.132,0,0,0-2.56.616v-3a.333.333,0,0,1,.332-.332h1.016a6.967,6.967,0,0,0,1.212,1.679Zm-4.1,7.209a4.24,4.24,0,0,1,4.187-4.235,3.216,3.216,0,0,0,6.266,0,4.277,4.277,0,0,1,4.187,4.3H38.973a2.343,2.343,0,0,0-2.34,2.34v6.009H29.488V65.867a2.343,2.343,0,0,0-2.34-2.34H25.74V63.46ZM35.982,75.878v7.616H30.163V75.878a9.442,9.442,0,0,0-.231-2.064h6.281a9.45,9.45,0,0,0-.231,2.064ZM38.57,65.867a.4.4,0,0,1,.4-.4H40.38v2.38a9.29,9.29,0,0,0-1.81,1.507Zm3.748-2.407a6.18,6.18,0,0,0-6.041-6.171V56.234a8.447,8.447,0,0,0,1.518-2.208,4.222,4.222,0,0,1,3.775-2.311h.464a3.393,3.393,0,0,0,6.542,0h.464a4.089,4.089,0,0,1,3.942,3.542L51.12,56.526a5.079,5.079,0,0,0-2.22,4.2v5a13.045,13.045,0,0,1-2.534.511l-1.917.192a9.212,9.212,0,0,0-2.131.477V63.46Zm8.52-2.735a3.142,3.142,0,0,1,1.373-2.6l.8-.548v6.426l-2.177.959ZM45.325,38.41a3.921,3.921,0,0,1,3.767,3.3,2.751,2.751,0,0,1-2.123-.453,2.587,2.587,0,0,0-3.288,0,2.752,2.752,0,0,1-2.123.453,3.921,3.921,0,0,1,3.767-3.3ZM33.052,48.1a3.322,3.322,0,0,1,3.292,3.343c0,1.913-1.55,4.34-3.292,4.34s-3.292-2.427-3.292-4.34A3.322,3.322,0,0,1,33.052,48.1ZM22.96,45.42v1.486a1.456,1.456,0,1,1-2.913,0V45.451a3.4,3.4,0,0,0,2.913-.031Zm-5.581,2.391h.854a3.393,3.393,0,0,0,6.542,0h.854A4.233,4.233,0,0,1,28.468,48.9a5.289,5.289,0,0,0-.646,2.539,6.147,6.147,0,0,0,.122,1.191h-.329a2.273,2.273,0,0,0-2.27,2.27v4.48A6.146,6.146,0,0,0,23.8,63.46v3.433a9.218,9.218,0,0,0-2.105-.468l-1.917-.192a13.053,13.053,0,0,1-2.124-.394l0-10.934a2.273,2.273,0,0,0-2.27-2.27l-2.244,0v-.585A4.24,4.24,0,0,1,17.379,47.811ZM13.13,54.572h2.257a.332.332,0,0,1,.332.332l0,10.241-2.587-1.14ZM29.842,89.254H15.793a.323.323,0,0,1-.323-.323V85.755a.323.323,0,0,1,.323-.323h5.1a.969.969,0,0,0,0-1.938H17.414V79.977a.969.969,0,0,0-.492-.844L7.386,73.745a4.154,4.154,0,0,1-2.059-3.026l-.2-1.446,5.883,3.205a.969.969,0,1,0,.927-1.7l-8.986-4.9a1.945,1.945,0,0,1,1.716-3.488l10.369,4.57a14.972,14.972,0,0,0,4.552,1.2l1.917.192a7.609,7.609,0,0,1,6.722,7.525v7.616h-2.8a.969.969,0,1,0,0,1.938h4.418a.323.323,0,0,1,.323.323v3.176a.323.323,0,0,1-.323.323h0Zm20.833-.323a.323.323,0,0,1-.323.323H36.3a.323.323,0,0,1-.323-.323V85.755a.323.323,0,0,1,.323-.323H50.352a.323.323,0,0,1,.323.323ZM63.2,65.88l-8.986,4.9a.969.969,0,0,0,.927,1.7l5.883-3.205-.2,1.446a4.154,4.154,0,0,1-2.059,3.026l-9.536,5.389a.969.969,0,0,0-.492.844v3.517H37.92V75.878a7.636,7.636,0,0,1,6.722-7.525l1.917-.192a14.971,14.971,0,0,0,4.552-1.2l10.369-4.57A1.945,1.945,0,0,1,63.2,65.88Z"/>
    </g>
  </g>
</svg>
