<svg xmlns="http://www.w3.org/2000/svg" xmlns:xlink="http://www.w3.org/1999/xlink" width="98" height="98" viewBox="0 0 98 98">
  <defs>
    <filter id="Trazado_982548" x="0" y="0" width="98" height="98" filterUnits="userSpaceOnUse">
      <feOffset dy="3" input="SourceAlpha"/>
      <feGaussianBlur stdDeviation="3" result="blur"/>
      <feFlood flood-opacity="0.161"/>
      <feComposite operator="in" in2="blur"/>
      <feComposite in="SourceGraphic"/>
    </filter>
  </defs>
  <g id="Grupo_1160028" data-name="Grupo 1160028" transform="translate(-1023 -5254)">
    <g id="Grupo_1159318" data-name="Grupo 1159318" transform="translate(0 4238.924)">
      <g id="Grupo_1155644" data-name="Grupo 1155644" transform="translate(210 166.076)">
        <g id="Grupo_1154396" data-name="Grupo 1154396" transform="translate(-219 -1247)">
          <g id="Grupo_1149914" data-name="Grupo 1149914" transform="translate(0.5 -2463)">
            <g id="Grupo_1149696" data-name="Grupo 1149696" transform="translate(830.5 4104)">
              <g id="Grupo_1149263" data-name="Grupo 1149263" transform="translate(210 461)">
                <g transform="matrix(1, 0, 0, 1, -9, -6)" filter="url(#Trazado_982548)">
                  <g id="Trazado_982548-2" data-name="Trazado 982548" transform="translate(9 6)" fill="#effcf6">
                    <path d="M 40 78.5 C 34.80187606811523 78.5 29.76003265380859 77.48227691650391 25.01452255249023 75.47509765625 C 20.43014526367188 73.53606414794922 16.31264495849609 70.75986480712891 12.77638912200928 67.22360992431641 C 9.240133285522461 63.68735504150391 6.46393346786499 59.56985473632812 4.524899959564209 54.98547744750977 C 2.517722129821777 50.23996734619141 1.5 45.19812393188477 1.5 40 C 1.5 34.80187606811523 2.517722129821777 29.76003265380859 4.524899959564209 25.01452255249023 C 6.46393346786499 20.43014526367188 9.240133285522461 16.31264495849609 12.77638912200928 12.77638912200928 C 16.31264495849609 9.240133285522461 20.43014526367188 6.46393346786499 25.01452255249023 4.524899959564209 C 29.76003265380859 2.517722129821777 34.80187606811523 1.5 40 1.5 C 45.19812393188477 1.5 50.23996734619141 2.517722129821777 54.98547744750977 4.524899959564209 C 59.56985473632812 6.46393346786499 63.68735504150391 9.240133285522461 67.22360992431641 12.77638912200928 C 70.75986480712891 16.31264495849609 73.53606414794922 20.43014526367188 75.47509765625 25.01452255249023 C 77.48227691650391 29.76003265380859 78.5 34.80187606811523 78.5 40 C 78.5 45.19812393188477 77.48227691650391 50.23996734619141 75.47509765625 54.98547744750977 C 73.53606414794922 59.56985473632812 70.75986480712891 63.68735504150391 67.22360992431641 67.22360992431641 C 63.68735504150391 70.75986480712891 59.56985473632812 73.53606414794922 54.98547744750977 75.47509765625 C 50.23996734619141 77.48227691650391 45.19812393188477 78.5 40 78.5 Z" stroke="none"/>
                    <path d="M 40 3 C 35.00370788574219 3 30.15846633911133 3.977851867675781 25.59885406494141 5.906410217285156 C 21.19326782226562 7.769813537597656 17.23602676391602 10.43806457519531 13.83704376220703 13.83705139160156 C 10.43806457519531 17.23603820800781 7.769813537597656 21.19327926635742 5.906410217285156 25.59885406494141 C 3.977851867675781 30.15846633911133 3 35.00370788574219 3 40 C 3 44.99629211425781 3.977851867675781 49.84153366088867 5.906410217285156 54.40114593505859 C 7.769813537597656 58.80672073364258 10.43806457519531 62.76396179199219 13.83704376220703 66.16294860839844 C 17.23602676391602 69.56193542480469 21.19326782226562 72.23018646240234 25.59885406494141 74.09358978271484 C 30.15846633911133 76.02214813232422 35.00370788574219 77 40 77 C 44.99629211425781 77 49.84153366088867 76.02214813232422 54.40114593505859 74.09358978271484 C 58.80672073364258 72.23018646240234 62.76396179199219 69.56193542480469 66.16294860839844 66.16294860839844 C 69.56193542480469 62.76396179199219 72.23018646240234 58.80672073364258 74.09358978271484 54.40114593505859 C 76.02214813232422 49.84153366088867 77 44.99629211425781 77 40 C 77 35.00370788574219 76.02214813232422 30.15846633911133 74.09358978271484 25.59885406494141 C 72.23018646240234 21.19327926635742 69.56193542480469 17.23603820800781 66.16294860839844 13.83705139160156 C 62.76396179199219 10.43806457519531 58.80672073364258 7.769813537597656 54.40114593505859 5.906410217285156 C 49.84153366088867 3.977851867675781 44.99629211425781 3 40 3 M 40 0 C 62.09138488769531 0 80 17.90861511230469 80 40 C 80 62.09138488769531 62.09138488769531 80 40 80 C 17.90859985351562 80 0 62.09138488769531 0 40 C 0 17.90861511230469 17.90859985351562 0 40 0 Z" stroke="none" fill="#3d7e5e"/>
                  </g>
                </g>
              </g>
            </g>
          </g>
        </g>
      </g>
    </g>
    <g id="unido_1_" data-name="unido (1)" transform="translate(1045 5274)">
      <path id="Trazado_993005" data-name="Trazado 993005" d="M196.1,183.33,184.22,171.454a1.9,1.9,0,1,1,2.689-2.689l-3.058-3.058a1.9,1.9,0,0,1-.558-1.345,1.953,1.953,0,0,1,.024-.3,1.9,1.9,0,0,1,3.043-1.2L185.2,161.7a1.9,1.9,0,0,1-.559-1.347,1.818,1.818,0,0,1,.025-.309,1.9,1.9,0,0,1,3.223-1.034l1.333,1.333a1.9,1.9,0,1,1,2.689-2.689l7.718,7.718.022-.031a3.477,3.477,0,0,1,4.922,0l3.6,3.6a3.693,3.693,0,0,1,1.081,2.606l0,2.251a3.974,3.974,0,0,0,1.165,2.807l.8.8-9.179,9.178-1.025-1.025a3.975,3.975,0,0,0-2.551-1.156A3.689,3.689,0,0,1,196.1,183.33Zm0,0" transform="translate(-164.016 -140.57)" fill="#fecbaa"/>
      <path id="Trazado_993006" data-name="Trazado 993006" d="M353.687,352.359l10.418-10.418a.879.879,0,0,1,1.243,0l3.711,3.71a.879.879,0,0,1,0,1.243l-10.418,10.418a.879.879,0,0,1-1.243,0l-3.71-3.711A.879.879,0,0,1,353.687,352.359Zm0,0" transform="translate(-316.26 -305.748)" fill="#fdd559"/>
      <path id="Trazado_993007" data-name="Trazado 993007" d="M78.279,183.34l11.876-11.876a1.9,1.9,0,1,0-2.69-2.689l3.058-3.058a1.9,1.9,0,0,0-2.508-2.846l1.164-1.164a1.9,1.9,0,0,0,.559-1.347,1.813,1.813,0,0,0-.025-.309,1.895,1.895,0,0,0-1.573-1.568,1.9,1.9,0,0,0-1.65.534l-1.333,1.333a1.9,1.9,0,0,0,.534-1.649,1.882,1.882,0,0,0-.532-1.042,1.9,1.9,0,0,0-2.691,0l-7.718,7.718-.022-.03a3.477,3.477,0,0,0-4.922,0l-3.6,3.6a3.691,3.691,0,0,0-1.081,2.606l0,2.251a3.971,3.971,0,0,1-1.164,2.807l-.8.8,9.178,9.178,1.026-1.025a3.975,3.975,0,0,1,2.551-1.156,3.692,3.692,0,0,0,2.368-1.074Zm0,0" transform="translate(-56.515 -140.579)" fill="#fecbaa"/>
      <path id="Trazado_993008" data-name="Trazado 993008" d="M23.124,352.367,12.706,341.949a.879.879,0,0,0-1.243,0l-3.711,3.711a.879.879,0,0,0,0,1.243L18.17,357.32a.879.879,0,0,0,1.243,0l3.711-3.71A.88.88,0,0,0,23.124,352.367Zm0,0" transform="translate(-6.707 -305.755)" fill="#ff84a7"/>
      <path id="Trazado_993009" data-name="Trazado 993009" d="M169.009,80.61v16.8a1.9,1.9,0,1,1-3.8,0v4.325a1.9,1.9,0,0,1-3.786.239v1.646a1.9,1.9,0,0,1-.557,1.347,1.784,1.784,0,0,1-.237.2,1.9,1.9,0,0,1-3.01-1.548V101.73a1.9,1.9,0,1,1-3.8,0V90.815l-.037.007a3.478,3.478,0,0,1-3.478-3.483V82.249a3.694,3.694,0,0,1,1.078-2.607l1.59-1.593a3.974,3.974,0,0,0,1.161-2.808V74.105h12.981v1.45a3.978,3.978,0,0,0,.986,2.621,3.689,3.689,0,0,1,.915,2.434Zm0,0" transform="translate(-134.491 -66.311)" fill="#fedfc5"/>
      <path id="Trazado_993010" data-name="Trazado 993010" d="M161.818,168.773a1.9,1.9,0,0,0-2.691,0l3.058-3.058a1.9,1.9,0,0,0-2.508-2.846l1.164-1.164a1.9,1.9,0,0,0,.558-1.347,1.771,1.771,0,0,0-.025-.309,1.9,1.9,0,0,0-3.223-1.034l-1.333,1.333a1.9,1.9,0,1,0-2.689-2.689l-7.718,7.718-.022-.03a3.464,3.464,0,0,0-3.149-.947,5.1,5.1,0,0,0,2.679,2.027V176a3.483,3.483,0,0,0,4.159,3.416,3.486,3.486,0,0,0,2.018,1.771l9.721-9.721A1.9,1.9,0,0,0,161.818,168.773Zm0,0" transform="translate(-128.175 -140.579)" fill="#ffae85"/>
      <path id="Trazado_993011" data-name="Trazado 993011" d="M200.1,171.666V164.95a3.482,3.482,0,0,0-.465.39l-.021.03-7.718-7.718a1.9,1.9,0,0,0-2.691,0,1.9,1.9,0,0,0,0,2.691l-1.333-1.333a1.9,1.9,0,0,0-3.223,1.034,1.813,1.813,0,0,0-.025.309,1.9,1.9,0,0,0,.559,1.347l1.164,1.164a1.9,1.9,0,0,0-2.509,2.846l3.058,3.058a1.9,1.9,0,1,0-2.689,2.689l7.956,7.956a3.493,3.493,0,0,0,.654.061,3.448,3.448,0,0,0,2.035-.659,3.478,3.478,0,0,0,1.444-2.824v-.857q.161.015.324.015A3.485,3.485,0,0,0,200.1,171.666Zm0,0" transform="translate(-164.006 -140.572)" fill="#ffae85"/>
      <path id="Trazado_993012" data-name="Trazado 993012" d="M169.009,80.61v16.8a1.9,1.9,0,0,1-1.9,1.9c-.028,0-.059,0-.09,0A1.881,1.881,0,0,1,166,98.95h0a1.9,1.9,0,0,1-.789-1.544v4.325a1.9,1.9,0,0,1-3.786.239v1.646a1.9,1.9,0,0,1-.557,1.347,1.783,1.783,0,0,1-.237.2,1.9,1.9,0,0,1-3.01-1.548V101.73a1.9,1.9,0,1,1-3.8,0V90.815l-.037.007a3.478,3.478,0,0,1-3.478-3.483V82.249a3.694,3.694,0,0,1,1.078-2.607l1.59-1.593a3.981,3.981,0,0,0,1.161-2.808V74.105h12.981v1.45a3.583,3.583,0,0,0,.125.981,3.951,3.951,0,0,0,.861,1.64,3.719,3.719,0,0,1,.915,2.434Zm0,0" transform="translate(-134.491 -66.311)" fill="#fedfc5"/>
      <path id="Trazado_993013" data-name="Trazado 993013" d="M200.079,80.61V97.4a1.9,1.9,0,0,1-1.9,1.9c-.028,0-.059,0-.09,0a1.881,1.881,0,0,1-1.021-.357l.032-16.184a2.481,2.481,0,0,0-.063-.449,7.316,7.316,0,0,0-7.318-5.9h-4.7a3.96,3.96,0,0,0,.177-1.174V74.1h12.981v1.45a3.583,3.583,0,0,0,.125.981,3.95,3.95,0,0,0,.861,1.64,3.719,3.719,0,0,1,.915,2.434Zm0,0" transform="translate(-165.562 -66.311)" fill="#fecbaa"/>
      <path id="Trazado_993014" data-name="Trazado 993014" d="M185.311,14.505H170.577a.879.879,0,0,1-.879-.879V8.379a.879.879,0,0,1,.879-.879h14.734a.879.879,0,0,1,.879.879v5.247A.879.879,0,0,1,185.311,14.505Zm0,0" transform="translate(-151.852 -6.711)" fill="#83d9ff"/>
      <path id="Trazado_993015" data-name="Trazado 993015" d="M202.3,447.752l-.158.773.152-.774a.789.789,0,1,0-.3,1.548l.014,0a.8.8,0,0,0,.149.014.789.789,0,0,0,.147-1.564Zm0,0" transform="translate(-180.177 -400.648)"/>
      <path id="Trazado_993016" data-name="Trazado 993016" d="M261.658,450.26l.078.785-.081-.784a.789.789,0,0,0,.08,1.573c.027,0,.055,0,.082,0l.022,0a.789.789,0,0,0-.181-1.567Zm0,0" transform="translate(-233.504 -402.902)"/>
      <path id="Trazado_993017" data-name="Trazado 993017" d="M231.932,451.232h-.012a.784.784,0,0,0-.818.753.793.793,0,0,0,.758.823h.037a.789.789,0,0,0,.035-1.577Zm0,0" transform="translate(-206.797 -403.774)"/>
      <path id="Trazado_993018" data-name="Trazado 993018" d="M173.636,439.84l-.01,0a.784.784,0,0,0-1,.477.791.791,0,1,0,1.014-.474Zm0,0" transform="translate(-154.427 -393.537)"/>
      <path id="Trazado_993019" data-name="Trazado 993019" d="M290.947,444.828l.194.764-.2-.764a.789.789,0,0,0,.2,1.553.781.781,0,0,0,.2-.025l.021-.005a.789.789,0,0,0-.412-1.523Zm0,0" transform="translate(-259.816 -398.023)"/>
      <path id="Trazado_993020" data-name="Trazado 993020" d="M319.067,435.02l.313.724-.315-.723a.789.789,0,1,0,.63,1.447l.019-.009a.789.789,0,0,0-.647-1.439Zm0,0" transform="translate(-285.084 -389.208)"/>
      <path id="Trazado_993021" data-name="Trazado 993021" d="M147.27,80.267a.789.789,0,1,0-.368-1.486l-.009,0a.788.788,0,0,0,.378,1.481Zm0,0" transform="translate(-131.073 -70.413)"/>
      <path id="Trazado_993022" data-name="Trazado 993022" d="M63.659,164.731a.789.789,0,0,0,1.065-.332l.014-.028a.789.789,0,1,0-1.079.36Zm0,0" transform="translate(-56.586 -146.066)"/>
      <path id="Trazado_993023" data-name="Trazado 993023" d="M52.132,192.528a.788.788,0,0,0,1-.494l.01-.031a.789.789,0,1,0-1.01.525Zm0,0" transform="translate(-46.17 -170.896)"/>
      <path id="Trazado_993024" data-name="Trazado 993024" d="M79.288,139.031a.788.788,0,0,0,1.1-.174l.01-.014a.789.789,0,0,0-1.283-.917l.636.468-.638-.464a.789.789,0,0,0,.174,1.1Zm0,0" transform="translate(-70.659 -123.126)"/>
      <path id="Trazado_993025" data-name="Trazado 993025" d="M121.834,96.406a.792.792,0,1,0-.457-1.433l-.02.014a.79.79,0,0,0,.477,1.419Zm0,0" transform="translate(-108.315 -84.848)"/>
      <path id="Trazado_993026" data-name="Trazado 993026" d="M49.674,310.652a.789.789,0,1,0-.01-.035Zm0,0" transform="translate(-44.416 -277.058)"/>
      <path id="Trazado_993027" data-name="Trazado 993027" d="M99.179,116.191a.791.791,0,1,0-.551-1.352l-.013.013a.788.788,0,0,0,.564,1.339Zm0,0" transform="translate(-88.043 -102.554)"/>
      <path id="Trazado_993028" data-name="Trazado 993028" d="M44.921,280.881a.789.789,0,0,0-1.566.2l0,.032a.789.789,0,0,0,1.561-.227Zm0,0" transform="translate(-38.791 -250.725)"/>
      <path id="Trazado_993029" data-name="Trazado 993029" d="M42.356,251.736h.024a.789.789,0,0,0,.788-.766v-.034a.789.789,0,1,0-.813.8Zm0,0" transform="translate(-37.217 -223.84)"/>
      <path id="Trazado_993030" data-name="Trazado 993030" d="M44.982,221.76a.815.815,0,0,0,.14.012.79.79,0,0,0,.776-.65c0-.012,0-.023.005-.035a.789.789,0,1,0-.921.672Zm0,0" transform="translate(-39.67 -197.027)"/>
      <path id="Trazado_993031" data-name="Trazado 993031" d="M403.06,143a.789.789,0,0,0,1.3-.9l-.656.439.653-.442a.789.789,0,1,0-1.306.885Zm0,0" transform="translate(-360.54 -126.846)"/>
      <path id="Trazado_993032" data-name="Trazado 993032" d="M436.641,229.027a.788.788,0,0,0-.7.872l0,.034a.789.789,0,0,0,.78.677.806.806,0,0,0,.113-.008.794.794,0,0,0-.2-1.576Zm0,0" transform="translate(-390.093 -204.936)"/>
      <path id="Trazado_993033" data-name="Trazado 993033" d="M429.671,199.3l0,.01a.789.789,0,0,0,.756.566.777.777,0,0,0,.223-.032.789.789,0,0,0,.534-.979l0-.01a.789.789,0,1,0-1.513.445Zm0,0" transform="translate(-384.454 -177.432)"/>
      <path id="Trazado_993034" data-name="Trazado 993034" d="M418.618,170.1a.793.793,0,0,0,.712.443.788.788,0,0,0,.706-1.134l-.715.333.714-.335a.789.789,0,0,0-1.428.67Zm0,0" transform="translate(-374.516 -151.187)"/>
      <path id="Trazado_993035" data-name="Trazado 993035" d="M383.427,118.7a.794.794,0,1,0-.024-.025Zm0,0" transform="translate(-342.894 -105.009)"/>
      <path id="Trazado_993036" data-name="Trazado 993036" d="M438.128,260.385a.794.794,0,0,0-.067,1.586h.045a.789.789,0,0,0,.787-.745v-.032A.788.788,0,0,0,438.128,260.385Zm0,0" transform="translate(-391.324 -233)"/>
      <path id="Trazado_993037" data-name="Trazado 993037" d="M333.963,80.751l.019.01a.786.786,0,0,0,1.062-.324.791.791,0,0,0-.32-1.068l-.382.69.379-.692a.789.789,0,1,0-.758,1.383Zm0,0" transform="translate(-298.474 -70.933)"/>
      <path id="Trazado_993038" data-name="Trazado 993038" d="M360.19,97.76l.012.009a.789.789,0,0,0,.953-1.257l-.005,0a.789.789,0,1,0-.96,1.251Zm0,0" transform="translate(-322.034 -86.213)"/>
      <path id="Trazado_993039" data-name="Trazado 993039" d="M53.36,39.326l-3.7-3.709a1.666,1.666,0,0,0-2.358,0l-.086.086-.243-.243a3.184,3.184,0,0,1-.691-1.033.769.769,0,0,0-.056-.146,3.19,3.19,0,0,1-.184-1.071V32.16a.794.794,0,1,0,0-1.4,4.447,4.447,0,0,0-1.3-2.966l-3.592-3.6a4.262,4.262,0,0,0-5.45-.489l-.381-.383V14.3A4.479,4.479,0,0,0,34.2,11.345a3.183,3.183,0,0,1-.79-2.1V8.583h.054a1.67,1.67,0,0,0,1.668-1.668V1.668A1.67,1.67,0,0,0,33.46,0H18.726a1.67,1.67,0,0,0-1.668,1.668V6.915a1.67,1.67,0,0,0,1.668,1.668h.122v.346a3.165,3.165,0,0,1-.931,2.251l-1.59,1.593a4.45,4.45,0,0,0-1.308,3.165v5.089a4.253,4.253,0,0,0,.458,1.923,4.236,4.236,0,0,0-2.768,1.244l-3.592,3.6a4.451,4.451,0,0,0-1.308,3.165v2.253a3.164,3.164,0,0,1-.931,2.251l-.24.241,0,0-.085-.086a1.666,1.666,0,0,0-2.358,0l-3.7,3.709a1.672,1.672,0,0,0,0,2.359l1.268,1.27A.789.789,0,1,0,2.871,41.84L1.6,40.57a.091.091,0,0,1,0-.129l3.7-3.709a.088.088,0,0,1,.125,0l.644.645h0l8.79,8.805.985.987a.091.091,0,0,1,0,.129l-3.7,3.709a.089.089,0,0,1-.126,0L5.1,44.077a.789.789,0,1,0-1.117,1.115l6.919,6.93a1.666,1.666,0,0,0,2.358,0l3.7-3.709a1.672,1.672,0,0,0,0-2.359l-.04-.04.467-.468a3.169,3.169,0,0,1,2.041-.925,4.463,4.463,0,0,0,2.872-1.3l3.4-3.409a2.7,2.7,0,0,0,1.952-2.057A2.689,2.689,0,0,0,31.5,35.419V33.546a2.688,2.688,0,0,0,3.8-2.452V25.557L37.733,28a.789.789,0,1,0,1.118-1.113l-2.023-2.033a2.686,2.686,0,0,1,3.193.458l3.592,3.6a2.884,2.884,0,0,1,.848,2.05v2.253a4.732,4.732,0,0,0,1.391,3.365l.245.245-1.144,1.146L38.034,44.9l-.386-.387-.012-.012-.068-.068a4.749,4.749,0,0,0-3.054-1.384,2.892,2.892,0,0,1-1.86-.844l-2.592-2.578a.789.789,0,1,0-1.112,1.118l2.59,2.576a4.463,4.463,0,0,0,2.872,1.3,3.171,3.171,0,0,1,2.04.925l.038.038a.758.758,0,0,0,.065.066l.364.364-.04.041a1.672,1.672,0,0,0,0,2.359l3.7,3.709a1.666,1.666,0,0,0,2.359,0L53.36,41.685a1.672,1.672,0,0,0,0-2.359Zm-6.792-7.843-.015,0-.144-.029ZM21.19,42.2a2.887,2.887,0,0,1-1.857.843,4.749,4.749,0,0,0-3.055,1.384l-.465.466-.419-.42-.016-.016L7.749,36.819l.245-.245a4.732,4.732,0,0,0,1.391-3.365V30.956a2.882,2.882,0,0,1,.848-2.05l3.592-3.6a2.686,2.686,0,0,1,3.2-.456L15,26.881A.789.789,0,0,0,16.112,28l2.42-2.425v9.847a2.69,2.69,0,0,0,3.858,2.427,2.7,2.7,0,0,0,1.337,1.816Zm12.539-11.11a1.113,1.113,0,1,1-2.226,0V22.3a.789.789,0,1,0-1.578,0V35.419a1.112,1.112,0,0,1-2.209.184V22.287a.8.8,0,0,0-1.594.009V35.418a2.7,2.7,0,0,0,.016.3V37.3a1.113,1.113,0,1,1-2.225,0V22.277a.789.789,0,0,0-1.578,0V35.418a1.113,1.113,0,1,1-2.225,0V20.746a.789.789,0,1,0-1.578,0V23.46a.774.774,0,0,0-.19.091A2.7,2.7,0,0,1,16.6,21.026V15.937a2.884,2.884,0,0,1,.848-2.05l1.59-1.593a4.731,4.731,0,0,0,1.392-3.365V8.583H22.01a.789.789,0,1,0,0-1.578H18.726a.09.09,0,0,1-.09-.09V1.668a.09.09,0,0,1,.09-.09H33.459a.09.09,0,0,1,.09.09V6.915a.09.09,0,0,1-.09.09H25.714a.789.789,0,1,0,0,1.578h6.114v.661a4.763,4.763,0,0,0,1.182,3.142,2.9,2.9,0,0,1,.72,1.913ZM52.243,40.57,41.824,51.007a.084.084,0,0,1-.063.026.086.086,0,0,1-.063-.026L38,47.3a.091.091,0,0,1,0-.129l.6-.6h0l6.048-6.059,3.774-3.781a.088.088,0,0,1,.125,0l3.7,3.709a.091.091,0,0,1,0,.129Zm0,0" transform="translate(0)"/>
      <path id="Trazado_993040" data-name="Trazado 993040" d="M194.656,32.8a.841.841,0,1,0,.84.841A.842.842,0,0,0,194.656,32.8Zm0,0" transform="translate(-173.433 -29.354)"/>
      <path id="Trazado_993041" data-name="Trazado 993041" d="M456.254,374.688a.841.841,0,1,0,.84.841A.842.842,0,0,0,456.254,374.688Zm0,0" transform="translate(-407.518 -335.282)"/>
      <path id="Trazado_993042" data-name="Trazado 993042" d="M110.691,444.044a.84.84,0,1,0-.84.841A.842.842,0,0,0,110.691,444.044Zm0,0" transform="translate(-97.547 -396.591)"/>
    </g>
  </g>
</svg>
