<svg xmlns="http://www.w3.org/2000/svg" xmlns:xlink="http://www.w3.org/1999/xlink" width="108" height="108" viewBox="0 0 108 108">
  <defs>
    <filter id="Trazado_982547" x="0" y="0" width="108" height="108" filterUnits="userSpaceOnUse">
      <feOffset dy="3" input="SourceAlpha"/>
      <feGaussianBlur stdDeviation="3" result="blur"/>
      <feFlood flood-opacity="0.161"/>
      <feComposite operator="in" in2="blur"/>
      <feComposite in="SourceGraphic"/>
    </filter>
  </defs>
  <g id="Grupo_1160044" data-name="Grupo 1160044" transform="translate(-166 -6714)">
    <g id="Grupo_1159328" data-name="Grupo 1159328" transform="translate(0 1600)">
      <g id="Grupo_1153202" data-name="Grupo 1153202" transform="translate(-88 4601)">
        <g id="Grupo_1149598" data-name="Grupo 1149598" transform="translate(80 315)">
          <g id="Grupo_1148770" data-name="Grupo 1148770" transform="translate(-27 -2583)">
            <g id="Grupo_1146954" data-name="Grupo 1146954" transform="translate(-415 -1202)">
              <g transform="matrix(1, 0, 0, 1, 616, 3983)" filter="url(#Trazado_982547)">
                <g id="Trazado_982547-2" data-name="Trazado 982547" transform="translate(9 6)" fill="#fef4f5">
                  <path d="M 45 88.5 C 39.12687683105469 88.5 33.43022537231445 87.35007476806641 28.06830024719238 85.08217620849609 C 22.88852500915527 82.89131164550781 18.23629951477051 79.75458526611328 14.2408504486084 75.75914764404297 C 10.24541282653809 71.76370239257812 7.108687400817871 67.11147308349609 4.917825222015381 61.93170166015625 C 2.649924993515015 56.56977462768555 1.5 50.87312316894531 1.5 45 C 1.5 39.12687683105469 2.649924993515015 33.43022537231445 4.917825222015381 28.06830024719238 C 7.108687400817871 22.88852500915527 10.24541282653809 18.23629951477051 14.2408504486084 14.2408504486084 C 18.23629951477051 10.24541282653809 22.88852500915527 7.108687400817871 28.06830024719238 4.917825222015381 C 33.43022537231445 2.649924993515015 39.12687683105469 1.5 45 1.5 C 50.87312316894531 1.5 56.56977462768555 2.649924993515015 61.93170166015625 4.917825222015381 C 67.11147308349609 7.108687400817871 71.76370239257812 10.24541282653809 75.75914764404297 14.2408504486084 C 79.75458526611328 18.23629951477051 82.89131164550781 22.88852500915527 85.08217620849609 28.06830024719238 C 87.35007476806641 33.43022537231445 88.5 39.12687683105469 88.5 45 C 88.5 50.87312316894531 87.35007476806641 56.56977462768555 85.08217620849609 61.93170166015625 C 82.89131164550781 67.11147308349609 79.75458526611328 71.76370239257812 75.75914764404297 75.75914764404297 C 71.76370239257812 79.75458526611328 67.11147308349609 82.89131164550781 61.93170166015625 85.08217620849609 C 56.56977462768555 87.35007476806641 50.87312316894531 88.5 45 88.5 Z" stroke="none"/>
                  <path d="M 45 3 C 39.32871246337891 3 33.82865524291992 4.110054016113281 28.65262985229492 6.299339294433594 C 23.65165710449219 8.414573669433594 19.15968322753906 11.44334411621094 15.301513671875 15.301513671875 C 11.44334411621094 19.15968322753906 8.414573669433594 23.65165710449219 6.299339294433594 28.65262985229492 C 4.110054016113281 33.82865524291992 3 39.32871246337891 3 45 C 3 50.67128753662109 4.110054016113281 56.17134475708008 6.299339294433594 61.34737396240234 C 8.414573669433594 66.34834289550781 11.44334411621094 70.84031677246094 15.301513671875 74.698486328125 C 19.15968322753906 78.55665588378906 23.65165710449219 81.58542633056641 28.65262985229492 83.70066070556641 C 33.82865524291992 85.88994598388672 39.32871246337891 87 45 87 C 50.67128753662109 87 56.17134475708008 85.88994598388672 61.34737396240234 83.70066070556641 C 66.34834289550781 81.58542633056641 70.84031677246094 78.55665588378906 74.698486328125 74.698486328125 C 78.55665588378906 70.84031677246094 81.58542633056641 66.34834289550781 83.70066070556641 61.34737396240234 C 85.88994598388672 56.17134475708008 87 50.67128753662109 87 45 C 87 39.32871246337891 85.88994598388672 33.82865524291992 83.70066070556641 28.65262985229492 C 81.58542633056641 23.65165710449219 78.55665588378906 19.15968322753906 74.698486328125 15.301513671875 C 70.84031677246094 11.44334411621094 66.34834289550781 8.414573669433594 61.34737396240234 6.299339294433594 C 56.17134475708008 4.110054016113281 50.67128753662109 3 45 3 M 45 0 C 69.85281372070312 0 90 20.14718627929688 90 45 C 90 69.85281372070312 69.85281372070312 90 45 90 C 20.14718627929688 90 0 69.85281372070312 0 45 C 0 20.14718627929688 20.14718627929688 0 45 0 Z" stroke="none" fill="#ff7f8f"/>
                </g>
              </g>
            </g>
          </g>
        </g>
      </g>
    </g>
    <g id="ley_4_" data-name="ley (4)" transform="translate(190.001 6723.807)">
      <g id="Grupo_1160035" data-name="Grupo 1160035" transform="translate(13.102 48.843)">
        <g id="Grupo_1160030" data-name="Grupo 1160030" transform="translate(0 3.212)">
          <path id="Trazado_993043" data-name="Trazado 993043" d="M148.5,357.319a10.226,10.226,0,0,0,2.455,6.734h-37a1.171,1.171,0,0,1-.955-.489,11.92,11.92,0,0,1,0-12.491,1.171,1.171,0,0,1,.955-.489h37A10.227,10.227,0,0,0,148.5,357.319Z" transform="translate(-111.226 -350.585)" fill="#fb3a82"/>
          <path id="Trazado_993044" data-name="Trazado 993044" d="M122.519,350.587l-10.435,11.3a11.824,11.824,0,0,1-.854-4.568A10.687,10.687,0,0,1,113,351.076a1.169,1.169,0,0,1,.955-.489Z" transform="translate(-111.23 -350.587)" fill="#fb1466"/>
          <path id="Trazado_993045" data-name="Trazado 993045" d="M183.062,357.319a10.226,10.226,0,0,0,2.455,6.734H147.95s-2.159-2.186-2.159-6.734,2.159-6.734,2.159-6.734h37.566A10.227,10.227,0,0,0,183.062,357.319Z" transform="translate(-141.719 -350.585)" fill="#e0d3ce"/>
          <g id="Grupo_1160029" data-name="Grupo 1160029" transform="translate(4.072 0)">
            <path id="Trazado_993046" data-name="Trazado 993046" d="M153.008,350.587l-7.179,7.776c-.025-.332-.039-.68-.039-1.041,0-4.548,2.159-6.735,2.159-6.735Z" transform="translate(-145.79 -350.587)" fill="#cdbfbb"/>
            <path id="Trazado_993047" data-name="Trazado 993047" d="M428.85,357.326a10.224,10.224,0,0,0,2.455,6.734h-4.451a10.463,10.463,0,0,1,0-13.468h4.451A10.222,10.222,0,0,0,428.85,357.326Z" transform="translate(-391.579 -350.591)" fill="#cdbfbb"/>
          </g>
        </g>
        <g id="Grupo_1160034" data-name="Grupo 1160034" transform="translate(5.069)">
          <g id="Grupo_1160032" data-name="Grupo 1160032" transform="translate(0)">
            <path id="Trazado_993048" data-name="Trazado 993048" d="M195.517,325.272a1.955,1.955,0,0,1-1.954,1.954H156.214a1.955,1.955,0,0,1,0-3.91h37.348A1.955,1.955,0,0,1,195.517,325.272Z" transform="translate(-154.26 -323.317)" fill="#fb3a82"/>
            <g id="Grupo_1160031" data-name="Grupo 1160031">
              <path id="Trazado_993049" data-name="Trazado 993049" d="M163.445,323.317l-3.608,3.91h-3.622a1.955,1.955,0,0,1,0-3.91Z" transform="translate(-154.26 -323.317)" fill="#fb1466"/>
              <path id="Trazado_993050" data-name="Trazado 993050" d="M461.46,325.275a1.957,1.957,0,0,1-1.956,1.956h-3.791a1.955,1.955,0,0,0,0-3.91H459.5A1.955,1.955,0,0,1,461.46,325.275Z" transform="translate(-420.202 -323.321)" fill="#fb1466"/>
            </g>
          </g>
          <g id="Grupo_1160033" data-name="Grupo 1160033" transform="translate(0 15.983)">
            <path id="Trazado_993051" data-name="Trazado 993051" d="M193.56,462.906H156.212a1.955,1.955,0,1,1,0-3.91H193.56a1.955,1.955,0,1,1,0,3.91Z" transform="translate(-154.257 -458.996)" fill="#fb3a82"/>
            <path id="Trazado_993052" data-name="Trazado 993052" d="M461.46,460.954a1.954,1.954,0,0,1-1.956,1.954h-3.791a1.954,1.954,0,0,0,0-3.908H459.5A1.955,1.955,0,0,1,461.46,460.954Z" transform="translate(-420.202 -459)" fill="#fb1466"/>
          </g>
        </g>
      </g>
      <g id="Grupo_1160043" data-name="Grupo 1160043" transform="translate(-0.001 12.193)">
        <g id="Grupo_1160038" data-name="Grupo 1160038" transform="translate(0.884 23.346)">
          <g id="Grupo_1160036" data-name="Grupo 1160036" transform="translate(0 7.477)">
            <path id="Trazado_993053" data-name="Trazado 993053" d="M33.232,277.013l-3.156-3.156L8.595,293.688a3.4,3.4,0,1,0,4.807,4.807Z" transform="translate(-7.5 -273.857)" fill="#873f30"/>
            <path id="Trazado_993054" data-name="Trazado 993054" d="M14.557,305.863a3.4,3.4,0,0,1-4.81,0,3.369,3.369,0,0,1-.83-1.356,3.4,3.4,0,0,0,3.452-.827c.033-.033.065-.067.1-.1L32.3,282.1l2.185,2.185L14.652,305.764C14.621,305.8,14.589,305.831,14.557,305.863Z" transform="translate(-8.751 -281.125)" fill="#6c3328"/>
          </g>
          <path id="Trazado_993055" data-name="Trazado 993055" d="M197.9,210.382l-7.267,8.668,2.969,2.968,8.668-7.267Z" transform="translate(-169.063 -210.382)" fill="#873f30"/>
          <path id="Trazado_993056" data-name="Trazado 993056" d="M206.659,210.382l-2.348,2.8.7.7a1.328,1.328,0,0,1,0,1.878l-4.454,4.454,1.8,1.8,8.668-7.267Z" transform="translate(-177.82 -210.382)" fill="#6c3328"/>
          <g id="Grupo_1160037" data-name="Grupo 1160037" transform="translate(19.168 6.893)">
            <path id="Trazado_993057" data-name="Trazado 993057" d="M173.728,275.422l-2.882-2.882a2.133,2.133,0,0,1,3.017-3.017l2.882,2.882a2.133,2.133,0,1,1-3.017,3.017Z" transform="translate(-170.222 -268.899)" fill="#ba5d4f"/>
            <path id="Trazado_993058" data-name="Trazado 993058" d="M186.642,285.324a2.133,2.133,0,0,1-3.017,0l-2.184-2.184a2.133,2.133,0,0,0,3.017-3.017l2.184,2.184A2.132,2.132,0,0,1,186.642,285.324Z" transform="translate(-180.119 -278.801)" fill="#a34f41"/>
          </g>
        </g>
        <g id="Grupo_1160039" data-name="Grupo 1160039" transform="translate(23.443 3.535)">
          <path id="Trazado_993059" data-name="Trazado 993059" d="M0,0H9.05V14.208H0Z" transform="translate(10.045 0) rotate(45)" fill="#ba5d4f"/>
          <path id="Trazado_993060" data-name="Trazado 993060" d="M0,0H9.05V14.208H0Z" transform="translate(20.413 30.467) rotate(-135)" fill="#a34f41"/>
        </g>
        <g id="Grupo_1160042" data-name="Grupo 1160042" transform="translate(0 0)">
          <path id="Trazado_993061" data-name="Trazado 993061" d="M177.334,34.6l-.222-.222a2.158,2.158,0,0,1,0-3.052l10.995-10.995a2.158,2.158,0,0,1,3.052,0l.222.222a2.158,2.158,0,0,1,0,3.052L180.386,34.6A2.158,2.158,0,0,1,177.334,34.6Z" transform="translate(-155.691 -18.81)" fill="#873f30"/>
          <path id="Trazado_993062" data-name="Trazado 993062" d="M348.876,206.136l.222.222a2.158,2.158,0,0,0,3.052,0l10.995-10.995a2.158,2.158,0,0,0,0-3.052l-.222-.222a2.158,2.158,0,0,0-3.052,0l-10.995,10.995A2.158,2.158,0,0,0,348.876,206.136Z" transform="translate(-307.221 -170.34)" fill="#6c3328"/>
          <g id="Grupo_1160041" data-name="Grupo 1160041">
            <path id="Trazado_993063" data-name="Trazado 993063" d="M0,0H10.163V21.458H0Z" transform="translate(42.663 7.583) rotate(45)" fill="#fcc16d"/>
            <path id="Trazado_993064" data-name="Trazado 993064" d="M0,0H21.458V5.144H0Z" transform="translate(31.037 26.311) rotate(-45)" fill="#fca62f"/>
            <path id="Trazado_993065" data-name="Trazado 993065" d="M240,67.706l-1.76-.72a1.619,1.619,0,0,0-1.757.354L224.126,79.7a1.619,1.619,0,0,0-.354,1.757l.72,1.76a1.079,1.079,0,0,0,1.762.355l14.105-14.105A1.079,1.079,0,0,0,240,67.706Z" transform="translate(-197.306 -60.426)" fill="#873f30"/>
            <path id="Trazado_993066" data-name="Trazado 993066" d="M304.6,132.306l.72,1.76a1.619,1.619,0,0,1-.354,1.757l-12.361,12.361a1.619,1.619,0,0,1-1.757.354l-1.76-.72a1.079,1.079,0,0,1-.355-1.762l14.105-14.105A1.079,1.079,0,0,1,304.6,132.306Z" transform="translate(-254.445 -117.565)" fill="#6c3328"/>
            <g id="Grupo_1160040" data-name="Grupo 1160040">
              <path id="Trazado_993067" data-name="Trazado 993067" d="M57.473,63.942h-.657a9.137,9.137,0,0,1-.761-1.451.884.884,0,0,0-1.633.676c.109.264.231.521.36.775H20.126a2.827,2.827,0,0,0-.77.107,10.27,10.27,0,0,1-1.3-5.26c0-.385.017-.765.05-1.137H35.034a.883.883,0,0,0,0-1.767H18.851l2.076-2.249h33.85a11.029,11.029,0,0,0-.851,2.249H42.314a.883.883,0,1,0,0,1.767h11.3c-.035.359-.055.722-.056,1.087a.884.884,0,0,0,.88.887h0a.884.884,0,0,0,.883-.88,9.454,9.454,0,0,1,1.486-5.11h.659a2.838,2.838,0,1,0,0-5.676H46.429L56.548,37.841a3.041,3.041,0,0,0,0-4.3l-.222-.223a3.04,3.04,0,0,0-4.145-.145l-1.564-1.564.532-.532A2.5,2.5,0,0,0,51.7,28.36l-.72-1.76a1.958,1.958,0,0,0-1.421-1.179l-1.229-1.229a.883.883,0,1,0-1.249,1.249l.6.6L33.758,39.969l-4.095-4.095L43.587,21.951l.542.542a.883.883,0,1,0,1.249-1.249l-1.166-1.166a1.959,1.959,0,0,0-1.179-1.421h0l-1.76-.72a2.5,2.5,0,0,0-2.716.547l-.532.532-1.564-1.564a3.04,3.04,0,0,0-.145-4.145l-.222-.223a3.042,3.042,0,0,0-4.3,0L20.8,24.079a3.041,3.041,0,0,0,0,4.3l.222.222a3.04,3.04,0,0,0,4.145.145l1.564,1.564-.533.533a2.5,2.5,0,0,0-.547,2.716l.72,1.76a1.957,1.957,0,0,0,1.4,1.175l-4.43,5.284a3.018,3.018,0,0,0-3.987,3.827l-2.009,1.855a.884.884,0,0,0,1.2,1.3L20.4,47.045l2.189,2.189L6.135,67.055A2.518,2.518,0,1,1,2.577,63.5l12.9-11.913a.883.883,0,1,0-1.2-1.3L1.378,62.2a4.285,4.285,0,0,0,2.9,7.434H4.37a4.249,4.249,0,0,0,3.063-1.378l5.3-5.736a10.182,10.182,0,0,0,1.42,3.029,2.057,2.057,0,0,0,1.675.86h1.488a2.834,2.834,0,0,0,2.813,3.212H57.473a2.838,2.838,0,1,0,0-5.676ZM58.545,50.8a1.072,1.072,0,0,1-1.071,1.071H22.559l1.469-1.591a3.02,3.02,0,0,0,3.014-.552H57.473A1.072,1.072,0,0,1,58.545,50.8ZM31.891,40.6l-5.116,4.289-2.034-2.034,4.289-5.116ZM28.037,47.96a3.034,3.034,0,0,0-.184-1.667l5.284-4.43a1.958,1.958,0,0,0,1.175,1.4l1.76.72a2.5,2.5,0,0,0,2.716-.547l.533-.533,1.564,1.564a3.047,3.047,0,0,0-.352,3.491h-12.5ZM54.175,34.194a1.266,1.266,0,0,1,.9.373l.222.223a1.274,1.274,0,0,1,0,1.8L44.3,47.587a1.274,1.274,0,0,1-1.8,0l-.222-.222a1.276,1.276,0,0,1,0-1.8L53.274,34.567a1.266,1.266,0,0,1,.9-.373Zm-3.25.223-8.8,8.8L40.57,41.655l8.8-8.8ZM34.916,41.31,49.022,27.2a.186.186,0,0,1,.135-.058.215.215,0,0,1,.042,0,.188.188,0,0,1,.142.118l.72,1.76a.733.733,0,0,1-.161.8L37.539,42.188a.733.733,0,0,1-.8.161l-1.76-.72a.2.2,0,0,1-.064-.319ZM23.169,27.727a1.266,1.266,0,0,1-.9-.373l-.222-.222a1.274,1.274,0,0,1,0-1.8L33.04,14.334a1.274,1.274,0,0,1,1.8,0l.222.223a1.274,1.274,0,0,1,0,1.8L24.07,27.353a1.267,1.267,0,0,1-.9.373Zm3.25-.223,8.8-8.8,1.558,1.558-8.8,8.8Zm1.026,4.589L39.805,19.732a.733.733,0,0,1,.8-.161l1.76.72a.2.2,0,0,1,.064.319L28.323,34.716A.2.2,0,0,1,28,34.651l-.72-1.76a.734.734,0,0,1,.161-.8ZM20.935,44.566a1.25,1.25,0,0,1,2.133-.884l2.881,2.881a1.25,1.25,0,0,1-1.767,1.767L21.3,45.45a1.242,1.242,0,0,1-.366-.884ZM15.589,64.523a8.913,8.913,0,0,1-1.415-3.57l2.118-2.294c0,.044,0,.087,0,.131a12.258,12.258,0,0,0,1.37,5.851H15.824A.287.287,0,0,1,15.589,64.523Zm41.885,3.329H20.125a1.071,1.071,0,0,1,0-2.143H57.473a1.071,1.071,0,1,1,0,2.143Z" transform="translate(0.001 -12.193)"/>
              <path id="Trazado_993068" data-name="Trazado 993068" d="M203.21,417.166a.883.883,0,0,0,0,1.767h20.583a.883.883,0,0,0,0-1.767Z" transform="translate(-178.493 -369.461)"/>
            </g>
          </g>
        </g>
      </g>
    </g>
  </g>
</svg>
