<svg xmlns="http://www.w3.org/2000/svg" xmlns:xlink="http://www.w3.org/1999/xlink" width="108" height="108" viewBox="0 0 108 108">
  <defs>
    <filter id="Trazado_982547" x="0" y="0" width="108" height="108" filterUnits="userSpaceOnUse">
      <feOffset dy="3" input="SourceAlpha"/>
      <feGaussianBlur stdDeviation="3" result="blur"/>
      <feFlood flood-opacity="0.161"/>
      <feComposite operator="in" in2="blur"/>
      <feComposite in="SourceGraphic"/>
    </filter>
  </defs>
  <g id="Grupo_1159975" data-name="Grupo 1159975" transform="translate(-616 -311)">
    <g id="Grupo_1154355" data-name="Grupo 1154355" transform="translate(0 -3599)">
      <g id="Grupo_1153177" data-name="Grupo 1153177" transform="translate(362 3397)">
        <g id="Grupo_1149598" data-name="Grupo 1149598" transform="translate(80 315)">
          <g id="Grupo_1148770" data-name="Grupo 1148770" transform="translate(-27 -2583)">
            <g id="Grupo_1146954" data-name="Grupo 1146954" transform="translate(-415 -1202)">
              <g transform="matrix(1, 0, 0, 1, 616, 3983)" filter="url(#Trazado_982547)">
                <g id="Trazado_982547-2" data-name="Trazado 982547" transform="translate(9 6)" fill="#f4f8fc">
                  <path d="M 45 88.5 C 39.12687683105469 88.5 33.43022537231445 87.35007476806641 28.06830024719238 85.08217620849609 C 22.88852500915527 82.89131164550781 18.23629951477051 79.75458526611328 14.2408504486084 75.75914764404297 C 10.24541282653809 71.76370239257812 7.108687400817871 67.11147308349609 4.917825222015381 61.93170166015625 C 2.649924993515015 56.56977462768555 1.5 50.87312316894531 1.5 45 C 1.5 39.12687683105469 2.649924993515015 33.43022537231445 4.917825222015381 28.06830024719238 C 7.108687400817871 22.88852500915527 10.24541282653809 18.23629951477051 14.2408504486084 14.2408504486084 C 18.23629951477051 10.24541282653809 22.88852500915527 7.108687400817871 28.06830024719238 4.917825222015381 C 33.43022537231445 2.649924993515015 39.12687683105469 1.5 45 1.5 C 50.87312316894531 1.5 56.56977462768555 2.649924993515015 61.93170166015625 4.917825222015381 C 67.11147308349609 7.108687400817871 71.76370239257812 10.24541282653809 75.75914764404297 14.2408504486084 C 79.75458526611328 18.23629951477051 82.89131164550781 22.88852500915527 85.08217620849609 28.06830024719238 C 87.35007476806641 33.43022537231445 88.5 39.12687683105469 88.5 45 C 88.5 50.87312316894531 87.35007476806641 56.56977462768555 85.08217620849609 61.93170166015625 C 82.89131164550781 67.11147308349609 79.75458526611328 71.76370239257812 75.75914764404297 75.75914764404297 C 71.76370239257812 79.75458526611328 67.11147308349609 82.89131164550781 61.93170166015625 85.08217620849609 C 56.56977462768555 87.35007476806641 50.87312316894531 88.5 45 88.5 Z" stroke="none"/>
                  <path d="M 45 3 C 39.32871246337891 3 33.82865524291992 4.110054016113281 28.65262985229492 6.299339294433594 C 23.65165710449219 8.414573669433594 19.15968322753906 11.44334411621094 15.301513671875 15.301513671875 C 11.44334411621094 19.15968322753906 8.414573669433594 23.65165710449219 6.299339294433594 28.65262985229492 C 4.110054016113281 33.82865524291992 3 39.32871246337891 3 45 C 3 50.67128753662109 4.110054016113281 56.17134475708008 6.299339294433594 61.34737396240234 C 8.414573669433594 66.34834289550781 11.44334411621094 70.84031677246094 15.301513671875 74.698486328125 C 19.15968322753906 78.55665588378906 23.65165710449219 81.58542633056641 28.65262985229492 83.70066070556641 C 33.82865524291992 85.88994598388672 39.32871246337891 87 45 87 C 50.67128753662109 87 56.17134475708008 85.88994598388672 61.34737396240234 83.70066070556641 C 66.34834289550781 81.58542633056641 70.84031677246094 78.55665588378906 74.698486328125 74.698486328125 C 78.55665588378906 70.84031677246094 81.58542633056641 66.34834289550781 83.70066070556641 61.34737396240234 C 85.88994598388672 56.17134475708008 87 50.67128753662109 87 45 C 87 39.32871246337891 85.88994598388672 33.82865524291992 83.70066070556641 28.65262985229492 C 81.58542633056641 23.65165710449219 78.55665588378906 19.15968322753906 74.698486328125 15.301513671875 C 70.84031677246094 11.44334411621094 66.34834289550781 8.414573669433594 61.34737396240234 6.299339294433594 C 56.17134475708008 4.110054016113281 50.67128753662109 3 45 3 M 45 0 C 69.85281372070312 0 90 20.14718627929688 90 45 C 90 69.85281372070312 69.85281372070312 90 45 90 C 20.14718627929688 90 0 69.85281372070312 0 45 C 0 20.14718627929688 20.14718627929688 0 45 0 Z" stroke="none" fill="#526a7e"/>
                </g>
              </g>
            </g>
          </g>
        </g>
      </g>
    </g>
    <g id="unido" transform="translate(637.224 327)">
      <path id="Trazado_992889" data-name="Trazado 992889" d="M198.879,189.034l-14.458-14.458A2.315,2.315,0,1,1,187.7,171.3l-3.723-3.722a2.309,2.309,0,0,1-.68-1.638,2.379,2.379,0,0,1,.03-.371,2.312,2.312,0,0,1,3.7-1.456l-1.417-1.417a2.316,2.316,0,0,1-.68-1.64,2.214,2.214,0,0,1,.031-.377,2.316,2.316,0,0,1,3.924-1.258l1.622,1.622a2.315,2.315,0,1,1,3.274-3.274l9.4,9.4.027-.037a4.233,4.233,0,0,1,5.993,0l4.381,4.381a4.5,4.5,0,0,1,1.316,3.172l0,2.741a4.838,4.838,0,0,0,1.418,3.417l.977.977L206.115,193l-1.248-1.248a4.839,4.839,0,0,0-3.105-1.407A4.49,4.49,0,0,1,198.879,189.034Zm0,0" transform="translate(-159.826 -136.979)" fill="#fecbaa"/>
      <path id="Trazado_992890" data-name="Trazado 992890" d="M353.743,354.679,366.426,342a1.07,1.07,0,0,1,1.513,0l4.517,4.517a1.071,1.071,0,0,1,0,1.513L359.773,360.71a1.071,1.071,0,0,1-1.513,0l-4.517-4.517a1.07,1.07,0,0,1,0-1.513Zm0,0" transform="translate(-308.18 -297.936)" fill="#fdd559"/>
      <path id="Trazado_992891" data-name="Trazado 992891" d="M81.567,189.044l14.458-14.458a2.315,2.315,0,1,0-3.274-3.274l3.723-3.723a2.314,2.314,0,0,0-3.054-3.465l1.417-1.417a2.315,2.315,0,0,0,.68-1.639,2.208,2.208,0,0,0-.031-.377,2.306,2.306,0,0,0-1.915-1.908,2.315,2.315,0,0,0-2.008.65l-1.622,1.622a2.315,2.315,0,1,0-3.273-3.274l-9.4,9.4-.027-.037a4.233,4.233,0,0,0-5.992,0l-4.381,4.381a4.494,4.494,0,0,0-1.316,3.172l0,2.741a4.834,4.834,0,0,1-1.417,3.417l-.977.977L74.33,193.006l1.249-1.248a4.839,4.839,0,0,1,3.105-1.407,4.5,4.5,0,0,0,2.883-1.307Zm0,0" transform="translate(-55.071 -136.988)" fill="#fecbaa"/>
      <path id="Trazado_992892" data-name="Trazado 992892" d="M26.521,354.688,13.838,342a1.07,1.07,0,0,0-1.513,0l-4.517,4.517a1.071,1.071,0,0,0,0,1.513l12.683,12.683a1.07,1.07,0,0,0,1.513,0l4.517-4.517A1.071,1.071,0,0,0,26.521,354.688Zm0,0" transform="translate(-6.535 -297.944)" fill="#ff84a7"/>
      <path id="Trazado_992893" data-name="Trazado 992893" d="M173.076,82.024V102.47a2.315,2.315,0,1,1-4.63,0v5.265a2.313,2.313,0,0,1-4.609.291v2a2.314,2.314,0,0,1-.679,1.64,2.171,2.171,0,0,1-.288.245,2.316,2.316,0,0,1-3.664-1.884v-2.295a2.315,2.315,0,1,1-4.63,0V94.447l-.045.008a4.234,4.234,0,0,1-4.234-4.241v-6.2a4.5,4.5,0,0,1,1.312-3.174l1.936-1.939a4.838,4.838,0,0,0,1.413-3.419V74.105h15.8v1.765a4.843,4.843,0,0,0,1.2,3.191,4.491,4.491,0,0,1,1.114,2.963Zm0,0" transform="translate(-131.055 -64.617)" fill="#fedfc5"/>
      <path id="Trazado_992894" data-name="Trazado 992894" d="M165.856,171.31a2.317,2.317,0,0,0-3.276,0l3.723-3.723a2.314,2.314,0,0,0-3.054-3.465l1.417-1.417a2.314,2.314,0,0,0,.68-1.639,2.159,2.159,0,0,0-.031-.377,2.316,2.316,0,0,0-3.923-1.259l-1.622,1.622a2.315,2.315,0,1,0-3.274-3.274l-9.4,9.4-.027-.037a4.218,4.218,0,0,0-3.834-1.152,6.212,6.212,0,0,0,3.262,2.467v11.65a4.24,4.24,0,0,0,5.063,4.159,4.244,4.244,0,0,0,2.456,2.156l11.834-11.834a2.314,2.314,0,0,0,0-3.276Zm0,0" transform="translate(-124.9 -136.987)" fill="#ffae85"/>
      <path id="Trazado_992895" data-name="Trazado 992895" d="M203.756,174.834v-8.177a4.236,4.236,0,0,0-.566.475l-.026.037-9.4-9.4a2.317,2.317,0,0,0-3.276,0,2.317,2.317,0,0,0,0,3.276l-1.622-1.622a2.314,2.314,0,0,0-3.924,1.259,2.208,2.208,0,0,0-.031.377,2.313,2.313,0,0,0,.68,1.639l1.417,1.417a2.314,2.314,0,0,0-3.054,3.465l3.723,3.723a2.315,2.315,0,1,0-3.273,3.274l9.685,9.685a4.25,4.25,0,0,0,.8.075,4.2,4.2,0,0,0,2.478-.8,4.234,4.234,0,0,0,1.757-3.437v-1.044q.2.018.395.018A4.243,4.243,0,0,0,203.756,174.834Zm0,0" transform="translate(-159.816 -136.981)" fill="#ffae85"/>
      <path id="Trazado_992896" data-name="Trazado 992896" d="M173.076,82.024V102.47a2.316,2.316,0,0,1-2.315,2.319c-.034,0-.072,0-.109,0a2.29,2.29,0,0,1-1.243-.435l0,0a2.314,2.314,0,0,1-.96-1.879v5.265a2.313,2.313,0,0,1-4.609.291v2a2.314,2.314,0,0,1-.679,1.64,2.172,2.172,0,0,1-.288.245,2.316,2.316,0,0,1-3.664-1.884v-2.295a2.315,2.315,0,1,1-4.63,0V94.447l-.045.008a4.234,4.234,0,0,1-4.234-4.241v-6.2a4.5,4.5,0,0,1,1.312-3.174l1.936-1.939a4.847,4.847,0,0,0,1.413-3.419V74.105h15.8v1.765a4.361,4.361,0,0,0,.153,1.195,4.81,4.81,0,0,0,1.048,2,4.528,4.528,0,0,1,1.114,2.963Zm0,0" transform="translate(-131.055 -64.617)" fill="#fedfc5"/>
      <path id="Trazado_992897" data-name="Trazado 992897" d="M203.353,82.024V102.47a2.316,2.316,0,0,1-2.315,2.319c-.035,0-.072,0-.109,0a2.29,2.29,0,0,1-1.243-.435l.04-19.7a3.022,3.022,0,0,0-.077-.547,8.906,8.906,0,0,0-8.909-7.187h-5.72a4.82,4.82,0,0,0,.216-1.429V74.1h15.8V75.87a4.361,4.361,0,0,0,.153,1.195,4.81,4.81,0,0,0,1.048,2,4.528,4.528,0,0,1,1.114,2.963Zm0,0" transform="translate(-161.332 -64.617)" fill="#fecbaa"/>
      <path id="Trazado_992898" data-name="Trazado 992898" d="M188.705,16.028H170.768a1.07,1.07,0,0,1-1.07-1.07V8.57a1.07,1.07,0,0,1,1.07-1.07h17.937a1.07,1.07,0,0,1,1.07,1.07v6.388A1.07,1.07,0,0,1,188.705,16.028Zm0,0" transform="translate(-147.972 -6.539)" fill="#83d9ff"/>
      <path id="Trazado_992899" data-name="Trazado 992899" d="M202.506,447.756l-.193.941.186-.942a.96.96,0,1,0-.371,1.884l.018,0a.981.981,0,0,0,.182.017.961.961,0,0,0,.179-1.9Zm0,0" transform="translate(-175.573 -390.411)"/>
      <path id="Trazado_992900" data-name="Trazado 992900" d="M261.813,450.261l.1.955-.1-.955a.96.96,0,0,0,.1,1.915c.033,0,.067,0,.1,0l.027,0a.96.96,0,0,0-.22-1.908Zm0,0" transform="translate(-227.538 -392.608)"/>
      <path id="Trazado_992901" data-name="Trazado 992901" d="M232.112,451.232H232.1a.955.955,0,0,0-1,.917.966.966,0,0,0,.922,1h.044a.96.96,0,0,0,.043-1.919Zm0,0" transform="translate(-201.514 -393.458)"/>
      <path id="Trazado_992902" data-name="Trazado 992902" d="M173.867,439.851l-.012,0a.955.955,0,0,0-1.222.581.963.963,0,1,0,1.234-.577Zm0,0" transform="translate(-150.481 -383.482)"/>
      <path id="Trazado_992903" data-name="Trazado 992903" d="M291.076,444.834l.237.931-.24-.93a.96.96,0,1,0,.479,1.859l.026-.007a.96.96,0,0,0-.5-1.854Zm0,0" transform="translate(-253.178 -387.853)"/>
      <path id="Trazado_992904" data-name="Trazado 992904" d="M319.17,435.034l.381.881-.384-.88a.96.96,0,1,0,.767,1.761l.024-.01a.96.96,0,0,0-.787-1.751Zm0,0" transform="translate(-277.801 -379.264)"/>
      <path id="Trazado_992905" data-name="Trazado 992905" d="M147.442,80.61a.961.961,0,1,0-.449-1.808l-.012.006a.959.959,0,0,0,.46,1.8Zm0,0" transform="translate(-127.724 -68.614)"/>
      <path id="Trazado_992906" data-name="Trazado 992906" d="M63.751,165.056a.96.96,0,0,0,1.3-.4l.017-.034a.96.96,0,1,0-1.314.438Zm0,0" transform="translate(-55.141 -142.334)"/>
      <path id="Trazado_992907" data-name="Trazado 992907" d="M52.249,192.865a.959.959,0,0,0,1.217-.6l.013-.038a.961.961,0,1,0-1.23.64Zm0,0" transform="translate(-44.99 -166.53)"/>
      <path id="Trazado_992908" data-name="Trazado 992908" d="M79.358,139.342a.959.959,0,0,0,1.341-.212l.013-.017A.96.96,0,0,0,79.15,138l.774.569L79.147,138A.96.96,0,0,0,79.358,139.342Zm0,0" transform="translate(-68.853 -119.98)"/>
      <path id="Trazado_992909" data-name="Trazado 992909" d="M122.005,96.751a.964.964,0,1,0-.556-1.745l-.024.018a.961.961,0,0,0,.58,1.727Zm0,0" transform="translate(-105.547 -82.68)"/>
      <path id="Trazado_992910" data-name="Trazado 992910" d="M49.683,310.876a.96.96,0,1,0-.013-.042l.013.042Zm0,0" transform="translate(-43.281 -269.979)"/>
      <path id="Trazado_992911" data-name="Trazado 992911" d="M99.35,116.535a.963.963,0,1,0-.671-1.646l-.016.016a.959.959,0,0,0,.687,1.63Zm0,0" transform="translate(-85.793 -99.934)"/>
      <path id="Trazado_992912" data-name="Trazado 992912" d="M45.262,281.03a.96.96,0,0,0-1.906.238l.005.039a.96.96,0,0,0,1.9-.276Zm0,0" transform="translate(-37.8 -244.319)"/>
      <path id="Trazado_992913" data-name="Trazado 992913" d="M42.523,252.081h.029a.96.96,0,0,0,.959-.932v-.041a.96.96,0,1,0-.989.973Zm0,0" transform="translate(-36.266 -218.121)"/>
      <path id="Trazado_992914" data-name="Trazado 992914" d="M45.123,222.1a.992.992,0,0,0,.171.015.961.961,0,0,0,.944-.791c0-.014,0-.028.007-.042a.96.96,0,1,0-1.121.818Zm0,0" transform="translate(-38.656 -191.993)"/>
      <path id="Trazado_992915" data-name="Trazado 992915" d="M403.092,143.271a.96.96,0,0,0,1.581-1.09l-.8.534.8-.539a.96.96,0,0,0-1.59,1.078Zm0,0" transform="translate(-351.329 -123.605)"/>
      <path id="Trazado_992916" data-name="Trazado 992916" d="M436.794,229.029a.96.96,0,0,0-.847,1.062l.005.042a.961.961,0,0,0,.95.824.981.981,0,0,0,.137-.009.967.967,0,0,0-.245-1.918Zm0,0" transform="translate(-380.127 -199.7)"/>
      <path id="Trazado_992917" data-name="Trazado 992917" d="M429.678,199.517l0,.013a.96.96,0,0,0,.921.69.946.946,0,0,0,.271-.039.96.96,0,0,0,.651-1.192l0-.012a.96.96,0,0,0-1.842.542Zm0,0" transform="translate(-374.631 -172.898)"/>
      <path id="Trazado_992918" data-name="Trazado 992918" d="M418.637,170.353a.965.965,0,0,0,.866.539.96.96,0,0,0,.86-1.381l-.87.406.869-.408a.96.96,0,0,0-1.739.815Zm0,0" transform="translate(-364.947 -147.324)"/>
      <path id="Trazado_992919" data-name="Trazado 992919" d="M383.478,118.993a.967.967,0,1,0-.029-.031Zm0,0" transform="translate(-334.133 -102.326)"/>
      <path id="Trazado_992920" data-name="Trazado 992920" d="M438.3,260.385a.966.966,0,0,0-.082,1.93h.055a.96.96,0,0,0,.958-.907l0-.039A.959.959,0,0,0,438.3,260.385Zm0,0" transform="translate(-381.326 -227.047)"/>
      <path id="Trazado_992921" data-name="Trazado 992921" d="M334.052,81.073l.023.012a.957.957,0,0,0,1.293-.395.963.963,0,0,0-.39-1.3l-.465.84.462-.842a.96.96,0,1,0-.923,1.684Zm0,0" transform="translate(-290.848 -69.121)"/>
      <path id="Trazado_992922" data-name="Trazado 992922" d="M360.258,98.068l.015.012a.96.96,0,0,0,1.161-1.53l-.007,0a.96.96,0,1,0-1.169,1.523Zm0,0" transform="translate(-313.806 -84.01)"/>
      <path id="Trazado_992923" data-name="Trazado 992923" d="M64.959,47.875,60.452,43.36a2.028,2.028,0,0,0-2.871,0l-.1.1-.3-.3a3.876,3.876,0,0,1-.841-1.258.936.936,0,0,0-.069-.178,3.883,3.883,0,0,1-.224-1.3V39.151a.967.967,0,1,0-.006-1.707,5.414,5.414,0,0,0-1.587-3.611l-4.373-4.381a5.189,5.189,0,0,0-6.635-.6l-.464-.467V17.407a5.453,5.453,0,0,0-1.353-3.6,3.875,3.875,0,0,1-.962-2.558v-.8h.066a2.033,2.033,0,0,0,2.03-2.031V2.031A2.033,2.033,0,0,0,40.733,0H22.8a2.033,2.033,0,0,0-2.03,2.031V8.418a2.033,2.033,0,0,0,2.03,2.031h.148v.421a3.853,3.853,0,0,1-1.133,2.74L19.875,15.55A5.417,5.417,0,0,0,18.282,19.4v6.2a5.178,5.178,0,0,0,.558,2.341,5.156,5.156,0,0,0-3.369,1.514L11.1,33.833A5.418,5.418,0,0,0,9.5,37.685v2.743a3.852,3.852,0,0,1-1.133,2.74l-.293.293,0,0-.1-.1a2.028,2.028,0,0,0-2.871,0L.592,47.875a2.036,2.036,0,0,0,0,2.872l1.544,1.546A.96.96,0,1,0,3.5,50.936L1.952,49.39a.111.111,0,0,1,0-.158L6.46,44.717a.108.108,0,0,1,.153,0L7.4,45.5h0l10.7,10.72,1.2,1.2a.111.111,0,0,1,0,.158L14.789,62.1a.108.108,0,0,1-.153,0L6.214,53.659a.96.96,0,1,0-1.359,1.357l8.423,8.437a2.028,2.028,0,0,0,2.871,0l4.508-4.516a2.035,2.035,0,0,0,0-2.871l-.049-.049.569-.57a3.858,3.858,0,0,1,2.484-1.126,5.434,5.434,0,0,0,3.5-1.585l4.141-4.15a3.288,3.288,0,0,0,2.377-2.5,3.274,3.274,0,0,0,4.679-2.963v-2.28a3.273,3.273,0,0,0,4.63-2.985V31.113l2.954,2.968A.96.96,0,0,0,47.3,32.726l-2.463-2.475a3.271,3.271,0,0,1,3.887.558l4.373,4.38a3.51,3.51,0,0,1,1.032,2.5v2.743a5.761,5.761,0,0,0,1.694,4.1l.3.3-1.393,1.4L46.3,54.658l-.47-.471-.015-.014-.083-.083A5.782,5.782,0,0,0,42.017,52.4a3.521,3.521,0,0,1-2.265-1.028L36.6,48.238A.96.96,0,1,0,35.242,49.6L38.4,52.736a5.434,5.434,0,0,0,3.5,1.585,3.86,3.86,0,0,1,2.484,1.126l.047.047a.924.924,0,0,0,.08.08l.443.443-.049.05a2.035,2.035,0,0,0,0,2.871L49.4,63.453a2.028,2.028,0,0,0,2.872,0L64.959,50.747a2.035,2.035,0,0,0,0-2.871Zm-8.269-9.548-.018,0-.175-.036ZM25.8,51.379A3.515,3.515,0,0,1,23.536,52.4a5.782,5.782,0,0,0-3.719,1.685l-.567.568-.51-.511-.02-.02-9.287-9.3.3-.3a5.761,5.761,0,0,0,1.694-4.1V37.685a3.508,3.508,0,0,1,1.032-2.5l4.373-4.38a3.27,3.27,0,0,1,3.892-.555l-2.467,2.471a.96.96,0,0,0,1.359,1.357l2.946-2.952V43.118a3.274,3.274,0,0,0,4.7,2.954,3.291,3.291,0,0,0,1.627,2.211ZM41.062,37.854a1.355,1.355,0,1,1-2.71,0V27.143a.96.96,0,0,0-1.92,0V43.119a1.354,1.354,0,0,1-2.69.225V27.132a.97.97,0,0,0-1.94.011V43.118a3.292,3.292,0,0,0,.02.36v1.935a1.355,1.355,0,1,1-2.709,0V27.12a.96.96,0,0,0-1.921,0v16a1.355,1.355,0,1,1-2.709,0V25.256a.96.96,0,1,0-1.92,0v3.3a.943.943,0,0,0-.231.111A3.286,3.286,0,0,1,20.2,25.6V19.4a3.51,3.51,0,0,1,1.032-2.5l1.936-1.939a5.76,5.76,0,0,0,1.694-4.1v-.421H26.8a.96.96,0,0,0,0-1.92h-4a.11.11,0,0,1-.11-.11V2.031a.11.11,0,0,1,.11-.11H40.733a.11.11,0,0,1,.11.11V8.418a.11.11,0,0,1-.11.11H31.3a.96.96,0,1,0,0,1.92h7.443v.8a5.8,5.8,0,0,0,1.438,3.824,3.53,3.53,0,0,1,.877,2.329ZM63.6,49.39,50.916,62.1a.1.1,0,0,1-.077.032.1.1,0,0,1-.077-.032L46.255,57.58a.111.111,0,0,1,0-.158l.726-.727h0l7.363-7.376,4.595-4.6a.107.107,0,0,1,.153,0L63.6,49.232a.111.111,0,0,1,0,.158Zm0,0" transform="translate(0 0)"/>
      <path id="Trazado_992924" data-name="Trazado 992924" d="M194.839,32.8a1.024,1.024,0,1,0,1.023,1.024A1.025,1.025,0,0,0,194.839,32.8Zm0,0" transform="translate(-169.002 -28.604)"/>
      <path id="Trazado_992925" data-name="Trazado 992925" d="M456.436,374.688a1.024,1.024,0,1,0,1.022,1.024A1.025,1.025,0,0,0,456.436,374.688Zm0,0" transform="translate(-397.106 -326.716)"/>
      <path id="Trazado_992926" data-name="Trazado 992926" d="M111.056,444.227a1.023,1.023,0,1,0-1.022,1.024A1.025,1.025,0,0,0,111.056,444.227Zm0,0" transform="translate(-95.055 -386.458)"/>
    </g>
  </g>
</svg>
