<svg xmlns="http://www.w3.org/2000/svg" xmlns:xlink="http://www.w3.org/1999/xlink" width="108" height="108" viewBox="0 0 108 108">
  <defs>
    <filter id="Trazado_982547" x="0" y="0" width="108" height="108" filterUnits="userSpaceOnUse">
      <feOffset dy="3" input="SourceAlpha"/>
      <feGaussianBlur stdDeviation="3" result="blur"/>
      <feFlood flood-opacity="0.161"/>
      <feComposite operator="in" in2="blur"/>
      <feComposite in="SourceGraphic"/>
    </filter>
  </defs>
  <g id="Grupo_1160091" data-name="Grupo 1160091" transform="translate(-746 -7621)">
    <g id="Grupo_1159931" data-name="Grupo 1159931" transform="translate(755 7627)">
      <g id="Grupo_1149835" data-name="Grupo 1149835" transform="translate(0)">
        <g id="Grupo_1149673" data-name="Grupo 1149673">
          <g id="Grupo_1148532" data-name="Grupo 1148532">
            <g id="Grupo_1147065" data-name="Grupo 1147065">
              <g transform="matrix(1, 0, 0, 1, -9, -6)" filter="url(#Trazado_982547)">
                <g id="Trazado_982547-2" data-name="Trazado 982547" transform="translate(9 6)" fill="#fef4f5">
                  <path d="M 45 88.5 C 39.12687683105469 88.5 33.43022537231445 87.35007476806641 28.06830024719238 85.08217620849609 C 22.88852500915527 82.89131164550781 18.23629951477051 79.75458526611328 14.2408504486084 75.75914764404297 C 10.24541282653809 71.76370239257812 7.108687400817871 67.11147308349609 4.917825222015381 61.93170166015625 C 2.649924993515015 56.56977462768555 1.5 50.87312316894531 1.5 45 C 1.5 39.12687683105469 2.649924993515015 33.43022537231445 4.917825222015381 28.06830024719238 C 7.108687400817871 22.88852500915527 10.24541282653809 18.23629951477051 14.2408504486084 14.2408504486084 C 18.23629951477051 10.24541282653809 22.88852500915527 7.108687400817871 28.06830024719238 4.917825222015381 C 33.43022537231445 2.649924993515015 39.12687683105469 1.5 45 1.5 C 50.87312316894531 1.5 56.56977462768555 2.649924993515015 61.93170166015625 4.917825222015381 C 67.11147308349609 7.108687400817871 71.76370239257812 10.24541282653809 75.75914764404297 14.2408504486084 C 79.75458526611328 18.23629951477051 82.89131164550781 22.88852500915527 85.08217620849609 28.06830024719238 C 87.35007476806641 33.43022537231445 88.5 39.12687683105469 88.5 45 C 88.5 50.87312316894531 87.35007476806641 56.56977462768555 85.08217620849609 61.93170166015625 C 82.89131164550781 67.11147308349609 79.75458526611328 71.76370239257812 75.75914764404297 75.75914764404297 C 71.76370239257812 79.75458526611328 67.11147308349609 82.89131164550781 61.93170166015625 85.08217620849609 C 56.56977462768555 87.35007476806641 50.87312316894531 88.5 45 88.5 Z" stroke="none"/>
                  <path d="M 45 3 C 39.32871246337891 3 33.82865524291992 4.110054016113281 28.65262985229492 6.299339294433594 C 23.65165710449219 8.414573669433594 19.15968322753906 11.44334411621094 15.301513671875 15.301513671875 C 11.44334411621094 19.15968322753906 8.414573669433594 23.65165710449219 6.299339294433594 28.65262985229492 C 4.110054016113281 33.82865524291992 3 39.32871246337891 3 45 C 3 50.67128753662109 4.110054016113281 56.17134475708008 6.299339294433594 61.34737396240234 C 8.414573669433594 66.34834289550781 11.44334411621094 70.84031677246094 15.301513671875 74.698486328125 C 19.15968322753906 78.55665588378906 23.65165710449219 81.58542633056641 28.65262985229492 83.70066070556641 C 33.82865524291992 85.88994598388672 39.32871246337891 87 45 87 C 50.67128753662109 87 56.17134475708008 85.88994598388672 61.34737396240234 83.70066070556641 C 66.34834289550781 81.58542633056641 70.84031677246094 78.55665588378906 74.698486328125 74.698486328125 C 78.55665588378906 70.84031677246094 81.58542633056641 66.34834289550781 83.70066070556641 61.34737396240234 C 85.88994598388672 56.17134475708008 87 50.67128753662109 87 45 C 87 39.32871246337891 85.88994598388672 33.82865524291992 83.70066070556641 28.65262985229492 C 81.58542633056641 23.65165710449219 78.55665588378906 19.15968322753906 74.698486328125 15.301513671875 C 70.84031677246094 11.44334411621094 66.34834289550781 8.414573669433594 61.34737396240234 6.299339294433594 C 56.17134475708008 4.110054016113281 50.67128753662109 3 45 3 M 45 0 C 69.85281372070312 0 90 20.14718627929688 90 45 C 90 69.85281372070312 69.85281372070312 90 45 90 C 20.14718627929688 90 0 69.85281372070312 0 45 C 0 20.14718627929688 20.14718627929688 0 45 0 Z" stroke="none" fill="#ff7f8f"/>
                </g>
              </g>
            </g>
          </g>
        </g>
      </g>
    </g>
    <g id="profesor" transform="translate(770 7642)">
      <g id="Grupo_1160089" data-name="Grupo 1160089" transform="translate(1.924 1.924)">
        <g id="Grupo_1160073" data-name="Grupo 1160073" transform="translate(48.039 35.105)">
          <path id="Trazado_993096" data-name="Trazado 993096" d="M54,40h5.543V58.476H54Z" transform="translate(-54 -40)" fill="#969faa"/>
        </g>
        <g id="Grupo_1160074" data-name="Grupo 1160074" transform="translate(35.105 29.562)">
          <path id="Trazado_993097" data-name="Trazado 993097" d="M60.324,34v4.619a.927.927,0,0,1-.924.924H43.7v-.924a.927.927,0,0,0-.924-.924H40V34Z" transform="translate(-40 -34)" fill="#ccd1d9"/>
        </g>
        <g id="Grupo_1160075" data-name="Grupo 1160075" transform="translate(24.26 28.158)">
          <path id="Trazado_993098" data-name="Trazado 993098" d="M28.944,37.58a2.4,2.4,0,0,0-.684.092v-.009l1.478-5.183,1.506.194.564.083a11.149,11.149,0,0,1,3.6,1.312V37.58Z" transform="translate(-28.26 -32.48)" fill="#ff826e"/>
        </g>
        <g id="Grupo_1160076" data-name="Grupo 1160076" transform="translate(22.172 33.258)">
          <path id="Trazado_993099" data-name="Trazado 993099" d="M35.238,39.848h3.7V38H41.7a.927.927,0,0,1,.924.924v4.619H28.771a2.77,2.77,0,0,1-1.959-4.73c.092-.092.194-.176.3-.259a2.659,2.659,0,0,1,.979-.462A2.4,2.4,0,0,1,28.771,38h6.467Z" transform="translate(-26 -38)" fill="#e6e9ed"/>
        </g>
        <g id="Grupo_1160077" data-name="Grupo 1160077" transform="translate(22.172 36.029)">
          <path id="Trazado_993100" data-name="Trazado 993100" d="M26,47.467V41a2.768,2.768,0,0,0,2.771,2.771H42.629V58.553h-3.7V48.391a.927.927,0,0,0-.924-.924Z" transform="translate(-26 -41)" fill="#ecc19c"/>
        </g>
        <g id="Grupo_1160078" data-name="Grupo 1160078" transform="translate(20.324 42.496)">
          <path id="Trazado_993101" data-name="Trazado 993101" d="M38.781,48.924V59.086h-3.7V57.238a1.853,1.853,0,0,0-1.848-1.848H31.391V55.04a1.495,1.495,0,0,0-2.162-1.34l-3.381,1.691H24V48.924A.927.927,0,0,1,24.924,48H37.857A.927.927,0,0,1,38.781,48.924Z" transform="translate(-24 -48)" fill="#e6e9ed"/>
        </g>
        <g id="Grupo_1160079" data-name="Grupo 1160079" transform="translate(0 28.454)">
          <path id="Trazado_993102" data-name="Trazado 993102" d="M9.391,50.537H2V43.692A11.1,11.1,0,0,1,11.017,32.8a2.873,2.873,0,0,1,.222,1.118,2.971,2.971,0,0,1-.508,1.672L9.391,37.6h2.873a4.462,4.462,0,0,0,2.236-.591l.434,1.515,5.543-2.771,4.8,2.4c-.1.083-.2.166-.3.259a2.765,2.765,0,0,0-.813,1.959v6.467h-.924a.927.927,0,0,0-.924.924v6.467H9.391Z" transform="translate(-2 -32.8)" fill="#ff826e"/>
        </g>
        <g id="Grupo_1160080" data-name="Grupo 1160080" transform="translate(18.476 27.715)">
          <path id="Trazado_993103" data-name="Trazado 993103" d="M29.261,32.443l-1.478,5.183v.009a2.659,2.659,0,0,0-.979.462L22,35.7,25.7,32Z" transform="translate(-22 -32)" fill="#fc6e51"/>
        </g>
        <g id="Grupo_1160081" data-name="Grupo 1160081" transform="translate(12.499 27.872)">
          <path id="Trazado_993104" data-name="Trazado 993104" d="M21.507,35.708,15.964,38.48l-.434-1.515a4.505,4.505,0,0,0,2.282-3.926,2.533,2.533,0,0,1,.157-.868Z" transform="translate(-15.53 -32.17)" fill="#fc6e51"/>
        </g>
        <g id="Grupo_1160082" data-name="Grupo 1160082" transform="translate(27.807 3.695)">
          <path id="Trazado_993105" data-name="Trazado 993105" d="M37.551,19.8a3.553,3.553,0,0,0-1.432-2.864l-.416-.314a4.616,4.616,0,0,1-1.848-3.7V9.455A7.048,7.048,0,0,0,32.959,6H58.8a.927.927,0,0,1,.924.924V31.867H39.4v-.924l-1.848,1.848L35.7,30.943v1.109a11.149,11.149,0,0,0-3.6-1.312,2.195,2.195,0,0,1,1.1-1.321l.711-.351a3.236,3.236,0,0,0,1.792-2.9,3.282,3.282,0,0,0-.342-1.45,1.52,1.52,0,0,1-.157-.656,1.474,1.474,0,0,1,.656-1.229L36,22.74a3.484,3.484,0,0,0,1.552-2.892V19.8Z" transform="translate(-32.1 -6)" fill="#e6e9ed"/>
        </g>
        <g id="Grupo_1160083" data-name="Grupo 1160083" transform="translate(31.41 28.639)">
          <path id="Trazado_993106" data-name="Trazado 993106" d="M37.848,34.848,39.7,33v6.467H36V33Z" transform="translate(-36 -33)" fill="#fcd770"/>
        </g>
        <g id="Grupo_1160084" data-name="Grupo 1160084" transform="translate(18.476 0)">
          <path id="Trazado_993107" data-name="Trazado 993107" d="M29.261,30.158,25.7,29.715l-.878-4.388c.185-.1.37-.2.545-.323a9.065,9.065,0,0,0,4.028-7.529V12.162l-.092-.018a12.074,12.074,0,0,1-7.3-4.6V2.924l1.672-.554A6.96,6.96,0,0,1,25.935,2,7.145,7.145,0,0,1,32.19,5.7a7.048,7.048,0,0,1,.9,3.455v3.474a4.616,4.616,0,0,0,1.848,3.7l.416.314A3.553,3.553,0,0,1,36.781,19.5v.046a3.484,3.484,0,0,1-1.552,2.892l-.139.092a1.474,1.474,0,0,0-.656,1.229,1.52,1.52,0,0,0,.157.656,3.282,3.282,0,0,1,.342,1.45,3.236,3.236,0,0,1-1.792,2.9l-.711.351a2.195,2.195,0,0,0-1.1,1.321l-.564-.083Z" transform="translate(-22 -2)" fill="#b27946"/>
        </g>
        <g id="Grupo_1160085" data-name="Grupo 1160085" transform="translate(3.695)">
          <path id="Trazado_993108" data-name="Trazado 993108" d="M20.781,2.924V7.543a12.074,12.074,0,0,1-7.3,4.6l-.092.018-.009,5.294A9.031,9.031,0,0,0,17.4,24.994h.009a6.285,6.285,0,0,0,1.524.739v.6a3.7,3.7,0,0,1-1.081,2.614l-.037.037a2.48,2.48,0,0,0-.573.887,2.533,2.533,0,0,0-.157.868,4.516,4.516,0,0,1-4.517,4.517H9.7l1.34-2.014a2.971,2.971,0,0,0,.508-1.672,2.873,2.873,0,0,0-.222-1.118,2.989,2.989,0,0,0-1.441-1.57l-.24-.12a3.236,3.236,0,0,1-1.792-2.9,3.282,3.282,0,0,1,.342-1.45,1.472,1.472,0,0,0-.5-1.885l-.1-.065a3.57,3.57,0,0,1-.157-5.829l.416-.314A4.6,4.6,0,0,0,9.7,12.633V9.16A7.16,7.16,0,0,1,16.855,2h.083a6.423,6.423,0,0,1,2.088.342Z" transform="translate(-6 -2)" fill="#b27946"/>
        </g>
        <g id="Grupo_1160086" data-name="Grupo 1160086" transform="translate(1.848 46.191)">
          <path id="Trazado_993109" data-name="Trazado 993109" d="M9.543,55.7H24.324L27.705,54a1.495,1.495,0,0,1,2.162,1.34V55.7h1.848a1.853,1.853,0,0,1,1.848,1.848v1.848a1.853,1.853,0,0,1-1.848,1.848H7.7a3.694,3.694,0,0,1-3.7-3.7V52H9.543Z" transform="translate(-4 -52)" fill="#f0d0b4"/>
        </g>
        <g id="Grupo_1160087" data-name="Grupo 1160087" transform="translate(14.938 23.327)">
          <path id="Trazado_993110" data-name="Trazado 993110" d="M21.745,27.943a6.193,6.193,0,0,0,2.781-.693l.878,4.388-3.7,3.7L18.17,31.8a2.48,2.48,0,0,1,.573-.887l.037-.037a3.7,3.7,0,0,0,1.081-2.614v-.6a5.866,5.866,0,0,0,1.885.286Z" transform="translate(-18.17 -27.25)" fill="#f0d0b4"/>
        </g>
        <g id="Grupo_1160088" data-name="Grupo 1160088" transform="translate(11.077 5.543)">
          <path id="Trazado_993111" data-name="Trazado 993111" d="M28.78,12.619v5.312a9.065,9.065,0,0,1-4.028,7.529c-.176.12-.36.222-.545.323a6.193,6.193,0,0,1-2.781.693,5.866,5.866,0,0,1-1.885-.286,6.285,6.285,0,0,1-1.524-.739h-.009a9.031,9.031,0,0,1-4.019-7.538L14,12.619l.092-.018A12.074,12.074,0,0,0,21.39,8a12.074,12.074,0,0,0,7.3,4.6Z" transform="translate(-13.99 -8)" fill="#f0d0b4"/>
        </g>
      </g>
      <g id="Grupo_1160090" data-name="Grupo 1160090" transform="translate(1 1)">
        <path id="Trazado_993112" data-name="Trazado 993112" d="M58.277,36.105V6.543A1.85,1.85,0,0,0,56.429,4.7H31.108a8.063,8.063,0,0,0-9.331-3.28L20.4,1.874l-1.463-.489A7.685,7.685,0,0,0,16.469,1,8.084,8.084,0,0,0,8.389,9.082l0,3.474A3.707,3.707,0,0,1,6.912,15.5l-.418.315a4.494,4.494,0,0,0,.2,7.334l.1.067a.549.549,0,0,1,.186.7,4.2,4.2,0,0,0-.44,1.864,4.145,4.145,0,0,0,2.3,3.729l.238.119a2.09,2.09,0,0,1,.294.2A12.012,12.012,0,0,0,1,41.273v7.766H2.848v4.619a4.624,4.624,0,0,0,4.619,4.619H31.486a2.768,2.768,0,0,0,2.6-1.848H58.277V54.582H56.429V37.953A1.85,1.85,0,0,0,58.277,36.105Zm-16.629,0A1.85,1.85,0,0,0,39.8,34.258H37.953V32.41H56.429v3.7ZM31.486,50.886h-.991a2.42,2.42,0,0,0-3.433-1.593l-3.184,1.593h-.706V45.344H36.105v9.238H34.258v-.924A2.775,2.775,0,0,0,31.486,50.886ZM20.4,8.92a13.048,13.048,0,0,0,6.467,3.9V17.4a8.113,8.113,0,0,1-3.62,6.763,5.109,5.109,0,0,1-2.811.86h-.028a5.153,5.153,0,0,1-2.873-.872,8.079,8.079,0,0,1-3.611-6.766l.008-4.555A12.982,12.982,0,0,0,20.4,8.92Zm-.976,17.875a7.133,7.133,0,0,0,.985.072h.037a6.933,6.933,0,0,0,2.086-.337l.561,2.8L20.4,32.028l-2.379-2.379c.034-.041.063-.083.1-.122A4.565,4.565,0,0,0,19.424,26.795Zm-1.9,4.964,1.322,1.322-2.76,1.38A5.432,5.432,0,0,0,17.519,31.759Zm6.911-1.147,2.049.257L25.427,34.55c-.089.038-.167.093-.252.138l-3.214-1.607Zm7.98-.414c-.346-.144-.7-.273-1.056-.384l.6-.3a4.232,4.232,0,0,0,.456-.27Zm-3.359.992a10.1,10.1,0,0,1,3.359,1.044v2.024H27.432l.9-3.158Zm-2.184,4.916H32.41v1.848h5.543V36.105H39.8v3.7H26.867a1.848,1.848,0,1,1,0-3.7Zm7.391,0V32.792l.924.924.924-.924v3.313ZM36.105,43.5H25.019V41.135a3.657,3.657,0,0,0,1.848.514H39.8V54.582H37.953V45.344A1.85,1.85,0,0,0,36.105,43.5Zm5.543-5.543h7.391V54.582H41.648ZM56.429,6.543V30.562H37.953v-2.23L35.181,31.1l-2.259-2.259a4.17,4.17,0,0,0,.894-4.924.548.548,0,0,1,.188-.7l.139-.094a4.4,4.4,0,0,0,1.96-3.7V17.629h1.848v1.848H39.8V13.01a2.771,2.771,0,0,0-5.543,0v2.771l-.369-.277a3.712,3.712,0,0,1-1.479-2.956V9.077A8.044,8.044,0,0,0,32,6.543ZM37.953,15.781H36.105V13.01a.924.924,0,1,1,1.848,0ZM22.362,3.167a6.23,6.23,0,0,1,8.2,5.91v3.471a5.562,5.562,0,0,0,2.218,4.434l.418.314a2.654,2.654,0,0,1,1.059,2.168,2.547,2.547,0,0,1-1.136,2.125l-.139.093a2.4,2.4,0,0,0-.817,3.066,2.32,2.32,0,0,1-1.037,3.112l-.709.353A3.089,3.089,0,0,0,29.2,29.346L24.87,28.8l-.619-3.1.021-.012a9.953,9.953,0,0,0,4.443-8.3V11.33l-.831-.168a11.151,11.151,0,0,1-6.559-4.025V3.513ZM8.391,25.785a2.332,2.332,0,0,1,.246-1.038,2.4,2.4,0,0,0-.815-3.064l-.1-.067A2.646,2.646,0,0,1,7.6,17.3l.42-.315a5.564,5.564,0,0,0,2.216-4.427V9.081a6.235,6.235,0,0,1,6.324-6.233,5.684,5.684,0,0,1,1.792.29l1.123.375V7.137a11.15,11.15,0,0,1-6.559,4.025l-.83.168-.012,6.045a9.926,9.926,0,0,0,4.442,8.314,6.944,6.944,0,0,0,1.11.589,2.82,2.82,0,0,1-.847,1.978,3.387,3.387,0,0,0-1,2.41,3.594,3.594,0,0,1-3.59,3.59H11.04l.385-.577a3.933,3.933,0,0,0-1.514-5.7l-.238-.119a2.308,2.308,0,0,1-1.282-2.076ZM2.848,41.273a10.168,10.168,0,0,1,7.39-9.778s0,0,0,0a2.079,2.079,0,0,1-.35,1.157l-2.3,3.45h4.6a5.416,5.416,0,0,0,1.632-.251l.451,1.576L20.4,34.367l3.327,1.663a3.658,3.658,0,0,0-.555,1.923V43.5a1.85,1.85,0,0,0-1.848,1.848v5.543H10.238V41.648H8.391v5.543H2.848ZM32.41,55.506a.924.924,0,0,1-.924.924H7.467A2.775,2.775,0,0,1,4.7,53.658V49.039h3.7v1.848H6.543v1.848H24.314l3.574-1.788a.589.589,0,0,1,.827.511v1.277h2.771a.924.924,0,0,1,.924.924Zm22.172-.924h-3.7V37.953h3.7Z" transform="translate(-1 -1)"/>
        <circle id="Elipse_12015" data-name="Elipse 12015" cx="1" cy="1" r="1" transform="translate(15 13)"/>
        <circle id="Elipse_12016" data-name="Elipse 12016" cx="1" cy="1" r="1" transform="translate(22 13)"/>
        <path id="Trazado_993113" data-name="Trazado 993113" d="M18.2,22.574a3.913,3.913,0,0,0,7,0l.1-.195-1.653-.827-.1.2a2.066,2.066,0,0,1-3.7,0l-.1-.195-1.653.827Z" transform="translate(-2.303 -2.566)"/>
        <path id="Trazado_993114" data-name="Trazado 993114" d="M33,51h3.7v1.848H33Z" transform="translate(-3.438 -4.809)"/>
        <path id="Trazado_993115" data-name="Trazado 993115" d="M50.543,17.467a2.76,2.76,0,0,0-.708-1.848A2.77,2.77,0,0,0,47.771,11H45v9.238h2.771A2.775,2.775,0,0,0,50.543,17.467Zm-3.7-4.619h.924a.924.924,0,1,1,0,1.848h-.924Zm0,3.7h.924a.924.924,0,1,1,0,1.848h-.924Z" transform="translate(-4.352 -1.762)"/>
        <path id="Trazado_993116" data-name="Trazado 993116" d="M55.771,20.238a2.775,2.775,0,0,0,2.771-2.771v-.924H56.7v.924a.924.924,0,0,1-1.848,0v-3.7a.924.924,0,0,1,1.848,0V14.7h1.848v-.924a2.771,2.771,0,1,0-5.543,0v3.7A2.775,2.775,0,0,0,55.771,20.238Z" transform="translate(-4.961 -1.762)"/>
        <path id="Trazado_993117" data-name="Trazado 993117" d="M45,29h1.848v1.848H45Z" transform="translate(-4.352 -3.133)"/>
        <path id="Trazado_993118" data-name="Trazado 993118" d="M49,29h9.238v1.848H49Z" transform="translate(-4.656 -3.133)"/>
        <path id="Trazado_993119" data-name="Trazado 993119" d="M45,25h1.848v1.848H45Z" transform="translate(-4.352 -2.828)"/>
        <path id="Trazado_993120" data-name="Trazado 993120" d="M49,25h9.238v1.848H49Z" transform="translate(-4.656 -2.828)"/>
      </g>
    </g>
  </g>
</svg>
