<svg xmlns="http://www.w3.org/2000/svg" xmlns:xlink="http://www.w3.org/1999/xlink" width="108" height="108" viewBox="0 0 108 108">
  <defs>
    <filter id="Trazado_982547" x="0" y="0" width="108" height="108" filterUnits="userSpaceOnUse">
      <feOffset dy="3" input="SourceAlpha"/>
      <feGaussianBlur stdDeviation="3" result="blur"/>
      <feFlood flood-opacity="0.161"/>
      <feComposite operator="in" in2="blur"/>
      <feComposite in="SourceGraphic"/>
    </filter>
  </defs>
  <g id="Grupo_1160094" data-name="Grupo 1160094" transform="translate(-1166.5 -7621)">
    <g id="Grupo_1159932" data-name="Grupo 1159932" transform="translate(1175.5 7627)">
      <g id="Grupo_1149835" data-name="Grupo 1149835" transform="translate(0)">
        <g id="Grupo_1149673" data-name="Grupo 1149673">
          <g id="Grupo_1148532" data-name="Grupo 1148532">
            <g id="Grupo_1147065" data-name="Grupo 1147065">
              <g transform="matrix(1, 0, 0, 1, -9, -6)" filter="url(#Trazado_982547)">
                <g id="Trazado_982547-2" data-name="Trazado 982547" transform="translate(9 6)" fill="#fef4f5">
                  <path d="M 45 88.5 C 39.12687683105469 88.5 33.43022537231445 87.35007476806641 28.06830024719238 85.08217620849609 C 22.88852500915527 82.89131164550781 18.23629951477051 79.75458526611328 14.2408504486084 75.75914764404297 C 10.24541282653809 71.76370239257812 7.108687400817871 67.11147308349609 4.917825222015381 61.93170166015625 C 2.649924993515015 56.56977462768555 1.5 50.87312316894531 1.5 45 C 1.5 39.12687683105469 2.649924993515015 33.43022537231445 4.917825222015381 28.06830024719238 C 7.108687400817871 22.88852500915527 10.24541282653809 18.23629951477051 14.2408504486084 14.2408504486084 C 18.23629951477051 10.24541282653809 22.88852500915527 7.108687400817871 28.06830024719238 4.917825222015381 C 33.43022537231445 2.649924993515015 39.12687683105469 1.5 45 1.5 C 50.87312316894531 1.5 56.56977462768555 2.649924993515015 61.93170166015625 4.917825222015381 C 67.11147308349609 7.108687400817871 71.76370239257812 10.24541282653809 75.75914764404297 14.2408504486084 C 79.75458526611328 18.23629951477051 82.89131164550781 22.88852500915527 85.08217620849609 28.06830024719238 C 87.35007476806641 33.43022537231445 88.5 39.12687683105469 88.5 45 C 88.5 50.87312316894531 87.35007476806641 56.56977462768555 85.08217620849609 61.93170166015625 C 82.89131164550781 67.11147308349609 79.75458526611328 71.76370239257812 75.75914764404297 75.75914764404297 C 71.76370239257812 79.75458526611328 67.11147308349609 82.89131164550781 61.93170166015625 85.08217620849609 C 56.56977462768555 87.35007476806641 50.87312316894531 88.5 45 88.5 Z" stroke="none"/>
                  <path d="M 45 3 C 39.32871246337891 3 33.82865524291992 4.110054016113281 28.65262985229492 6.299339294433594 C 23.65165710449219 8.414573669433594 19.15968322753906 11.44334411621094 15.301513671875 15.301513671875 C 11.44334411621094 19.15968322753906 8.414573669433594 23.65165710449219 6.299339294433594 28.65262985229492 C 4.110054016113281 33.82865524291992 3 39.32871246337891 3 45 C 3 50.67128753662109 4.110054016113281 56.17134475708008 6.299339294433594 61.34737396240234 C 8.414573669433594 66.34834289550781 11.44334411621094 70.84031677246094 15.301513671875 74.698486328125 C 19.15968322753906 78.55665588378906 23.65165710449219 81.58542633056641 28.65262985229492 83.70066070556641 C 33.82865524291992 85.88994598388672 39.32871246337891 87 45 87 C 50.67128753662109 87 56.17134475708008 85.88994598388672 61.34737396240234 83.70066070556641 C 66.34834289550781 81.58542633056641 70.84031677246094 78.55665588378906 74.698486328125 74.698486328125 C 78.55665588378906 70.84031677246094 81.58542633056641 66.34834289550781 83.70066070556641 61.34737396240234 C 85.88994598388672 56.17134475708008 87 50.67128753662109 87 45 C 87 39.32871246337891 85.88994598388672 33.82865524291992 83.70066070556641 28.65262985229492 C 81.58542633056641 23.65165710449219 78.55665588378906 19.15968322753906 74.698486328125 15.301513671875 C 70.84031677246094 11.44334411621094 66.34834289550781 8.414573669433594 61.34737396240234 6.299339294433594 C 56.17134475708008 4.110054016113281 50.67128753662109 3 45 3 M 45 0 C 69.85281372070312 0 90 20.14718627929688 90 45 C 90 69.85281372070312 69.85281372070312 90 45 90 C 20.14718627929688 90 0 69.85281372070312 0 45 C 0 20.14718627929688 20.14718627929688 0 45 0 Z" stroke="none" fill="#ff7f8f"/>
                </g>
              </g>
            </g>
          </g>
        </g>
      </g>
    </g>
    <g id="senalando" transform="translate(1188.052 7573.184)">
      <g id="Grupo_1160092" data-name="Grupo 1160092" transform="translate(1.267 78.536)">
        <path id="Trazado_993121" data-name="Trazado 993121" d="M80,109.88V135.4c4.389,0,8.778,2.43,13.166,2.43h10.694c5.456,0,6.928-5.871,5.1-7.621,2.748-1.164,3.592-5.1,2.107-7.008,2.888-1.424,3.223-5.917,1.3-6.982l11.994-.261a3.649,3.649,0,1,0,0-7.291H97.651c2.186-4.282,5.37-3.258,6.368-7.887.636-2.949-1.929-5.6-3.529-4.54a21.059,21.059,0,0,1-6.417,3.694C86.187,102.805,87.895,109.88,80,109.88Z" transform="translate(-71.128 -96.001)" fill="#ffdcd5" fill-rule="evenodd"/>
        <path id="Trazado_993122" data-name="Trazado 993122" d="M18.873,222.33V195.551H10v28.04h8.873Z" transform="translate(-10 -182.933)" fill="#ff9346" fill-rule="evenodd"/>
      </g>
      <g id="Grupo_1160093" data-name="Grupo 1160093" transform="translate(0 76.001)">
        <path id="Trazado_993123" data-name="Trazado 993123" d="M54.5,98.66H30.232a11.464,11.464,0,0,1,1.595-1.28,7.457,7.457,0,0,0,3.57-5.072,5.569,5.569,0,0,0-2.117-5.7,2.932,2.932,0,0,0-3.351-.168c-.291.193-.581.418-.888.657A17.2,17.2,0,0,1,23.778,90,14.541,14.541,0,0,0,16.5,96.017c-1.4,1.956-2.464,3.434-5.1,3.78a1.267,1.267,0,0,0-1.263-1.184H1.268A1.268,1.268,0,0,0,0,99.881v28.041a1.268,1.268,0,0,0,1.267,1.268H10.14A1.267,1.267,0,0,0,11.4,128a31.224,31.224,0,0,1,4.981,1.1,26.192,26.192,0,0,0,6.922,1.261H34a6.863,6.863,0,0,0,6.622-4.318,5.891,5.891,0,0,0,.211-4.143,6.016,6.016,0,0,0,1.675-2.1,6.363,6.363,0,0,0,.355-4.929,6.322,6.322,0,0,0,1.943-6.169l9.723-.211A4.915,4.915,0,1,0,54.5,98.66Zm-.028,7.291-16.763.365a1.268,1.268,0,0,0,.055,2.534l4.319-.094a2.906,2.906,0,0,1,.231,2.353,3.152,3.152,0,0,1-3.065,2.519,1.267,1.267,0,0,0,0,2.535,5.814,5.814,0,0,0,1.316-.148,4.074,4.074,0,0,1-.337,2.665,3.078,3.078,0,0,1-2.809,1.851,1.267,1.267,0,1,0,0,2.535,5.641,5.641,0,0,0,1.089-.1,3.684,3.684,0,0,1-.241,2.13A4.339,4.339,0,0,1,34,127.823H23.307a23.957,23.957,0,0,1-6.245-1.169,32,32,0,0,0-5.654-1.2V119.6a1.267,1.267,0,0,0-2.535,0v7.049H2.535V101.148H8.873V108.2a1.267,1.267,0,0,0,2.535,0v-5.849c3.955-.4,5.58-2.658,7.154-4.853,1.381-1.925,2.808-3.916,6.084-5.109A19.694,19.694,0,0,0,30.6,89.1c.279-.217.52-.4.73-.544.152-.1.485.121.522.147a3.063,3.063,0,0,1,1.069,3.068,4.954,4.954,0,0,1-2.556,3.537,10.615,10.615,0,0,0-3.317,3.35h-.523a1.267,1.267,0,1,0,0,2.535H54.5a2.463,2.463,0,0,1,2.535,2.378,2.52,2.52,0,0,1-2.562,2.378Z" transform="translate(0 -84.728)"/>
        <path id="Trazado_993124" data-name="Trazado 993124" d="M388.93,80.926l-4.554-4.554a1.268,1.268,0,0,0-1.793,1.793l2.39,2.39H372.76a1.267,1.267,0,1,0,0,2.535h12.214l-2.39,2.39a1.268,1.268,0,1,0,1.792,1.793l4.554-4.554a1.268,1.268,0,0,0,0-1.793Z" transform="translate(-324.406 -76.001)"/>
        <path id="Trazado_993125" data-name="Trazado 993125" d="M71.268,296.161a1.268,1.268,0,1,0,1.267,1.268h0A1.267,1.267,0,0,0,71.268,296.161Z" transform="translate(-61.128 -268.256)"/>
      </g>
    </g>
  </g>
</svg>
