<svg xmlns="http://www.w3.org/2000/svg" xmlns:xlink="http://www.w3.org/1999/xlink" width="400" height="495" viewBox="0 0 400 495">
  <defs>
    <clipPath id="clip-path">
      <rect id="Rect치ngulo_409895" data-name="Rect치ngulo 409895" width="400" height="495" transform="translate(180 9113)" fill="#fff" stroke="#707070" stroke-width="1"/>
    </clipPath>
    <clipPath id="clip-path-2">
      <rect id="Rect치ngulo_409844" data-name="Rect치ngulo 409844" width="495" height="495" transform="translate(0 0.295)"/>
    </clipPath>
    <clipPath id="clip-path-4">
      <circle id="Elipse_12055" data-name="Elipse 12055" cx="156.847" cy="156.847" r="156.847"/>
    </clipPath>
    <clipPath id="clip-path-12">
      <path id="Trazado_997478" data-name="Trazado 997478" d="M1630.2,1231.91s-7.1,19.142,12.659,31.8,35.814,6.484,32.418,21.612-34.21,14.608-45.54,2.625c-12.341-13.054-17.654-8.7-23.881-13.829-2.374-1.954-3.592-5.1-3.351-6.981,1.629-12.7,12.855-15.534,1.277-34.079Z" transform="translate(-1602.471 -1231.91)"/>
    </clipPath>
    <clipPath id="clip-path-17">
      <path id="Trazado_997489" data-name="Trazado 997489" d="M1479.127,1231.91s7.1,19.142-12.659,31.8-35.814,6.484-32.418,21.612,34.211,14.608,45.54,2.625c12.341-13.054,17.653-8.7,23.881-13.829,2.373-1.954,3.591-5.1,3.351-6.981-1.629-12.7-12.855-15.534-1.277-34.079Z" transform="translate(-1433.594 -1231.91)"/>
    </clipPath>
  </defs>
  <g id="Enmascarar_grupo_1098663" data-name="Enmascarar grupo 1098663" transform="translate(-180 -9113)" clip-path="url(#clip-path)">
    <g id="Grupo_1162412" data-name="Grupo 1162412" transform="translate(6)">
      <g id="Grupo_1161699" data-name="Grupo 1161699" transform="translate(121 9112.705)" clip-path="url(#clip-path-2)">
        <g id="Grupo_1161662" data-name="Grupo 1161662" transform="translate(368.307 188.163)">
          <path id="Trazado_997378" data-name="Trazado 997378" d="M1731.184,531.7c6.427,3.766,10.95,10.05,15.607,15.864l-20.008-3.012c-4.334-.652-8.756-1.332-12.652-3.339s-7.244-5.611-7.755-9.963C1706.379,531.248,1715.867,522.72,1731.184,531.7Z" transform="translate(-1674.359 -488.077)" fill="#c8e094"/>
          <path id="Trazado_997379" data-name="Trazado 997379" d="M1759.667,503.02c7.341,1.266,13.785,5.557,20.189,9.362l-19.789,4.218c-4.286.913-8.665,1.832-13.018,1.325s-8.753-2.705-10.763-6.6C1736.289,511.325,1742.171,500,1759.667,503.02Z" transform="translate(-1697.511 -478.037)" fill="#c8e094"/>
          <g id="Grupo_1161659" data-name="Grupo 1161659" transform="translate(0 30.725)">
            <path id="Trazado_997380" data-name="Trazado 997380" d="M1735.244,516.037a125.17,125.17,0,0,0-64.282,7.4,123.605,123.605,0,0,0-16.608,8.062c-.931.541-1.653-.972-.723-1.512A126.8,126.8,0,0,1,1716.55,513a123.738,123.738,0,0,1,18.812,1.369c1.063.159.954,1.832-.117,1.671Z" transform="translate(-1653.198 -512.995)" fill="#69930f"/>
          </g>
          <g id="Grupo_1161660" data-name="Grupo 1161660" transform="translate(18.046 39.33)">
            <path id="Trazado_997381" data-name="Trazado 997381" d="M1723.558,542.2a395.756,395.756,0,0,0-39.825-13.29c-1.042-.287-.5-1.872.538-1.587a395.888,395.888,0,0,1,39.825,13.29c1,.394.468,1.983-.538,1.587Z" transform="translate(-1683.171 -527.287)" fill="#69930f"/>
          </g>
          <path id="Trazado_997382" data-name="Trazado 997382" d="M1708.995,469.443c6.121-4.245,13.726-5.7,20.959-7.48L1718.8,478.845c-2.416,3.656-4.894,7.381-8.354,10.072s-8.138,4.209-12.3,2.841C1698.146,491.757,1694.4,479.56,1708.995,469.443Z" transform="translate(-1670.912 -461.963)" fill="#c8e094"/>
          <g id="Grupo_1161661" data-name="Grupo 1161661" transform="translate(18.076 9.057)">
            <path id="Trazado_997383" data-name="Trazado 997383" d="M1713.475,478.5a393.892,393.892,0,0,0-28.669,30.364c-.69.814-2.092-.107-1.4-.927a398.042,398.042,0,0,1,28.966-30.7c.786-.745,1.881.522,1.1,1.264Z" transform="translate(-1683.221 -477.006)" fill="#69930f"/>
          </g>
        </g>
        <g id="Grupo_1161666" data-name="Grupo 1161666" transform="translate(295.74 39.201)">
          <path id="Trazado_997384" data-name="Trazado 997384" d="M1553.009,271.2c-5.785-4.693-13.258-6.719-20.338-9.035l9.852,17.673c2.134,3.828,4.325,7.729,7.573,10.671s7.8,4.809,12.053,3.758C1562.148,294.271,1566.8,282.39,1553.009,271.2Z" transform="translate(-1532.671 -233.498)" fill="#7cc200"/>
          <path id="Trazado_997385" data-name="Trazado 997385" d="M1575.367,230.16c-3.765-6.428-10.048-10.952-15.861-15.611l3.007,20.008c.651,4.334,1.33,8.756,3.336,12.653s5.609,7.244,9.961,7.757C1575.806,254.968,1584.338,245.48,1575.367,230.16Z" transform="translate(-1543.349 -214.549)" fill="#7cc200"/>
          <g id="Grupo_1161663" data-name="Grupo 1161663" transform="translate(20.591 9.489)">
            <path id="Trazado_997386" data-name="Trazado 997386" d="M1566.979,231.452a125.174,125.174,0,0,1,15.671,62.78,123.675,123.675,0,0,1-1.71,18.382c-.179,1.062,1.491,1.205,1.67.146a126.8,126.8,0,0,0-6.213-64.875,123.866,123.866,0,0,0-7.894-17.13c-.524-.937-2.047-.247-1.524.7Z" transform="translate(-1566.871 -230.309)" fill="#69930f"/>
          </g>
          <g id="Grupo_1161664" data-name="Grupo 1161664" transform="translate(9.62 38.591)">
            <path id="Trazado_997387" data-name="Trazado 997387" d="M1548.86,279.99A395.713,395.713,0,0,1,1575.3,312.6c.635.875,1.928-.191,1.3-1.061a395.742,395.742,0,0,0-26.44-32.613c-.719-.8-2.019.26-1.3,1.061Z" transform="translate(-1548.648 -278.645)" fill="#69930f"/>
          </g>
          <path id="Trazado_997388" data-name="Trazado 997388" d="M1620.695,270.521c1.822-7.223.515-14.854-.364-22.252l-11.884,16.375c-2.574,3.547-5.191,7.176-6.493,11.361s-1.08,9.1,1.664,12.515C1603.62,288.52,1616.354,287.736,1620.695,270.521Z" transform="translate(-1559.934 -227.967)" fill="#7cc200"/>
          <g id="Grupo_1161665" data-name="Grupo 1161665" transform="translate(35.823 33.521)">
            <path id="Trazado_997389" data-name="Trazado 997389" d="M1610.635,270.737a393.776,393.776,0,0,1-18.35,37.512c-.519.932.835,1.921,1.359.981a398.155,398.155,0,0,0,18.561-37.909c.423-.993-1.149-1.575-1.57-.585Z" transform="translate(-1592.169 -270.225)" fill="#69930f"/>
          </g>
        </g>
        <g id="Grupo_1161672" data-name="Grupo 1161672" transform="translate(331.46 147.109)">
          <path id="Trazado_997390" data-name="Trazado 997390" d="M1627.943,415.419c2.582-3.171,6.97-5.709,10.678-3.985,1.957.91,3.225,2.8,4.678,4.4s3.505,3.039,5.611,2.568c2.125-.475,3.355-2.668,4.134-4.7,1.265-3.3,2.05-6.779,3.37-10.061s3.276-6.46,6.269-8.345,7.183-2.172,9.948.034c2.344,1.869,3.251,5.055,5.418,7.126,3.1,2.959,8.076,2.947,12.1,1.476s7.486-4.135,11.305-6.075,8.414-3.133,12.352-1.447a9.658,9.658,0,0,1,5.552,10.176c-.871,5.155-5.675,8.537-9.893,11.625q-3.666,2.685-7.121,5.643a9.178,9.178,0,0,0-2.561,2.96c-1.738,3.783,1.832,7.781,2.612,11.87,1.134,5.942-4.247,11.6-10.174,12.806s-12.009-.894-17.5-3.422c-2.572-1.184-5.206-2.5-8.038-2.532a1.54,1.54,0,0,0-1.349.481,1.613,1.613,0,0,0-.059,1.275c1.11,4.57,3.616,9.238,2.154,13.708-1.052,3.216-4.06,5.519-7.314,6.446a22.064,22.064,0,0,1-10.058.031,50.007,50.007,0,0,1-29.378-17.521S1615.511,430.685,1627.943,415.419Z" transform="translate(-1602.986 -393.776)" fill="#7cc200"/>
          <g id="Grupo_1161667" data-name="Grupo 1161667" transform="translate(0 13.01)">
            <path id="Trazado_997391" data-name="Trazado 997391" d="M1692.456,415.492c-12.737,7.831-25.729,15.241-38.888,22.339-6.494,3.5-13.02,6.953-19.6,10.3a163.433,163.433,0,0,1-18.647,8.329,67.586,67.586,0,0,1-22.539,4.361c-.937,0-1.094,1.464-.149,1.461,13.732-.046,26.651-5.234,38.783-11.229,13.362-6.6,26.486-13.753,39.446-21.11q11.211-6.365,22.2-13.11c.795-.488.193-1.83-.608-1.336Z" transform="translate(-1591.998 -415.384)" fill="#69930f"/>
          </g>
          <g id="Grupo_1161668" data-name="Grupo 1161668" transform="translate(55.56 38.604)">
            <path id="Trazado_997392" data-name="Trazado 997392" d="M1706.911,459.165c-7.315.732-14.546-1.182-21.847-1.271-.939-.011-1.095,1.449-.149,1.461,7.434.09,14.774,2.006,22.227,1.261.937-.095.7-1.544-.231-1.45Z" transform="translate(-1684.279 -457.894)" fill="#69930f"/>
          </g>
          <g id="Grupo_1161669" data-name="Grupo 1161669" transform="translate(56.128 21.353)">
            <path id="Trazado_997393" data-name="Trazado 997393" d="M1694.451,429.58l-9.13,16.81c-.446.82.748,1.678,1.2.847l9.131-16.81c.444-.82-.748-1.678-1.2-.847Z" transform="translate(-1685.222 -429.241)" fill="#69930f"/>
          </g>
          <g id="Grupo_1161670" data-name="Grupo 1161670" transform="translate(26.674 52.934)">
            <path id="Trazado_997394" data-name="Trazado 997394" d="M1636.782,483.1c7.431,1.877,14.9,3.752,22.548,4.443a.735.735,0,0,0,.149-1.461c-7.53-.68-14.872-2.51-22.183-4.357-.906-.229-1.436,1.143-.515,1.375Z" transform="translate(-1636.301 -481.695)" fill="#69930f"/>
          </g>
          <g id="Grupo_1161671" data-name="Grupo 1161671" transform="translate(26.175 35.251)">
            <path id="Trazado_997395" data-name="Trazado 997395" d="M1640.209,452.8q-2.055,8.355-4.7,16.547c-.29.9,1.084,1.417,1.375.515q2.642-8.188,4.7-16.547c.227-.907-1.146-1.432-1.375-.515Z" transform="translate(-1635.472 -452.325)" fill="#69930f"/>
          </g>
        </g>
        <g id="Grupo_1161678" data-name="Grupo 1161678" transform="translate(337.66 71.29)">
          <path id="Trazado_997396" data-name="Trazado 997396" d="M1656.906,354.236c3.713-1.713,7.262-5.334,6.513-9.353-.395-2.122-1.916-3.821-3.1-5.625s-2.073-4.15-1.094-6.073c.988-1.94,3.417-2.588,5.581-2.837,3.514-.4,7.076-.3,10.583-.765s7.071-1.569,9.641-4,3.889-6.418,2.439-9.645c-1.228-2.734-4.089-4.4-5.556-7.018-2.1-3.735-.849-8.555,1.576-12.087s5.865-6.224,8.693-9.442,5.124-7.372,4.47-11.606a9.658,9.658,0,0,0-8.478-7.905c-5.21-.437-9.678,3.376-13.719,6.694q-3.511,2.885-7.235,5.5a9.184,9.184,0,0,1-3.5,1.746c-4.1.744-7.082-3.707-10.849-5.478-5.474-2.574-12.292,1.232-14.932,6.675s-2.118,11.855-1.033,17.805c.508,2.786,1.124,5.663.456,8.415a1.543,1.543,0,0,1-.8,1.188,1.614,1.614,0,0,1-1.249-.259c-4.151-2.211-8.05-5.8-12.744-5.492-3.376.22-6.355,2.562-8.061,5.484a22.053,22.053,0,0,0-2.527,9.735,50.008,50.008,0,0,0,9.674,32.81S1639.03,362.487,1656.906,354.236Z" transform="translate(-1606.107 -267.847)" fill="#c8e094"/>
          <g id="Grupo_1161673" data-name="Grupo 1161673" transform="translate(0 9.488)">
            <path id="Trazado_997397" data-name="Trazado 997397" d="M1682.562,284.8c-9.7,12.624-20.6,24.255-31.428,35.9s-21.386,23.463-31.17,36.005c-5.57,7.14-10.971,14.41-16.372,21.678-.564.759-1.706-.163-1.143-.921,9.542-12.842,19.1-25.692,29.556-37.816,10.352-12.005,21.434-23.351,32.043-35.125,6.021-6.683,11.886-13.512,17.37-20.645.578-.75,1.716.17,1.144.92Z" transform="translate(-1602.297 -283.606)" fill="#69930f"/>
          </g>
          <g id="Grupo_1161674" data-name="Grupo 1161674" transform="translate(42.616 26.387)">
            <path id="Trazado_997398" data-name="Trazado 997398" d="M1673.085,336.471a219.6,219.6,0,0,0,1.738-24.01c.016-.933,1.476-1.1,1.459-.157a223.038,223.038,0,0,1-1.746,24.385.734.734,0,0,1-1.452-.218Z" transform="translate(-1673.078 -311.674)" fill="#69930f"/>
          </g>
          <g id="Grupo_1161675" data-name="Grupo 1161675" transform="translate(43.172 45.937)">
            <path id="Trazado_997399" data-name="Trazado 997399" d="M1674.476,348.582q9.824-2.546,19.8-4.423c.93-.175,1.082,1.286.157,1.459q-9.791,1.839-19.439,4.336c-.9.235-1.438-1.134-.522-1.372Z" transform="translate(-1674.001 -344.144)" fill="#69930f"/>
          </g>
          <g id="Grupo_1161676" data-name="Grupo 1161676" transform="translate(19.568 52.873)">
            <path id="Trazado_997400" data-name="Trazado 997400" d="M1634.805,380.463a219.6,219.6,0,0,0,1.738-24.01c.016-.933,1.476-1.1,1.459-.157a223.069,223.069,0,0,1-1.746,24.385.734.734,0,0,1-1.452-.218Z" transform="translate(-1634.798 -355.666)" fill="#69930f"/>
          </g>
          <g id="Grupo_1161677" data-name="Grupo 1161677" transform="translate(20.118 72.423)">
            <path id="Trazado_997401" data-name="Trazado 997401" d="M1636.186,392.574q9.824-2.546,19.8-4.423c.93-.175,1.081,1.286.157,1.459q-9.79,1.838-19.439,4.336c-.9.235-1.438-1.134-.523-1.371Z" transform="translate(-1635.711 -388.136)" fill="#69930f"/>
          </g>
        </g>
        <g id="Grupo_1161682" data-name="Grupo 1161682" transform="translate(35.78 188.163)">
          <path id="Trazado_997402" data-name="Trazado 997402" d="M1151.655,531.7c-6.427,3.766-10.95,10.05-15.607,15.864l20.008-3.012c4.334-.652,8.756-1.332,12.652-3.339s7.244-5.611,7.755-9.963C1176.46,531.248,1166.972,522.72,1151.655,531.7Z" transform="translate(-1114.884 -488.077)" fill="#c8e094"/>
          <path id="Trazado_997403" data-name="Trazado 997403" d="M1121.086,503.02c-7.341,1.266-13.785,5.557-20.189,9.362l19.788,4.218c4.286.913,8.665,1.832,13.018,1.325s8.754-2.705,10.763-6.6C1144.465,511.325,1138.583,500,1121.086,503.02Z" transform="translate(-1085.897 -478.739)" fill="#c8e094"/>
          <g id="Grupo_1161679" data-name="Grupo 1161679" transform="translate(10.69 30.725)">
            <path id="Trazado_997404" data-name="Trazado 997404" d="M1119.512,516.037a125.17,125.17,0,0,1,64.282,7.4A123.612,123.612,0,0,1,1200.4,531.5c.931.541,1.653-.972.723-1.512A126.8,126.8,0,0,0,1138.207,513a123.738,123.738,0,0,0-18.812,1.369c-1.062.159-.948,1.832.117,1.671Z" transform="translate(-1118.653 -512.995)" fill="#69930f"/>
          </g>
          <g id="Grupo_1161680" data-name="Grupo 1161680" transform="translate(34.094 39.33)">
            <path id="Trazado_997405" data-name="Trazado 997405" d="M1158.593,542.2a395.771,395.771,0,0,1,39.826-13.29c1.042-.287.5-1.872-.538-1.587a395.849,395.849,0,0,0-39.825,13.29c-1,.394-.462,1.983.537,1.587Z" transform="translate(-1157.524 -527.287)" fill="#69930f"/>
          </g>
          <path id="Trazado_997406" data-name="Trazado 997406" d="M1179.257,469.443c-6.121-4.245-13.726-5.7-20.959-7.48l11.153,16.882c2.416,3.656,4.894,7.381,8.354,10.072s8.138,4.209,12.3,2.841C1190.107,491.757,1193.846,479.56,1179.257,469.443Z" transform="translate(-1123.738 -461.963)" fill="#c8e094"/>
          <g id="Grupo_1161681" data-name="Grupo 1161681" transform="translate(45 9.057)">
            <path id="Trazado_997407" data-name="Trazado 997407" d="M1175.9,478.5a393.917,393.917,0,0,1,28.669,30.364c.69.814,2.092-.107,1.4-.927a397.971,397.971,0,0,0-28.966-30.7c-.78-.745-1.875.522-1.1,1.264Z" transform="translate(-1175.638 -477.006)" fill="#69930f"/>
          </g>
        </g>
        <g id="Grupo_1161686" data-name="Grupo 1161686" transform="translate(140.263 39.201)">
          <path id="Trazado_997408" data-name="Trazado 997408" d="M1336.561,271.2c5.785-4.693,13.258-6.719,20.338-9.035l-9.852,17.673c-2.134,3.828-4.325,7.729-7.573,10.671s-7.8,4.809-12.053,3.758C1327.422,294.271,1322.774,282.39,1336.561,271.2Z" transform="translate(-1295.22 -233.498)" fill="#7cc200"/>
          <path id="Trazado_997409" data-name="Trazado 997409" d="M1320.995,230.16c3.765-6.428,10.048-10.952,15.861-15.611l-3.007,20.008c-.652,4.334-1.331,8.756-3.336,12.653s-5.609,7.244-9.961,7.757C1320.549,254.968,1312.018,245.48,1320.995,230.16Z" transform="translate(-1291.328 -214.549)" fill="#7cc200"/>
          <g id="Grupo_1161683" data-name="Grupo 1161683" transform="translate(23.629 9.489)">
            <path id="Trazado_997410" data-name="Trazado 997410" d="M1331.033,231.452a125.175,125.175,0,0,0-15.671,62.78,123.741,123.741,0,0,0,1.71,18.382c.179,1.062-1.491,1.205-1.669.146a126.8,126.8,0,0,1,6.213-64.875,123.894,123.894,0,0,1,7.894-17.13c.524-.937,2.054-.247,1.524.7Z" transform="translate(-1313.682 -230.309)" fill="#69930f"/>
          </g>
          <g id="Grupo_1161684" data-name="Grupo 1161684" transform="translate(23.941 38.591)">
            <path id="Trazado_997411" data-name="Trazado 997411" d="M1342.106,279.99a395.762,395.762,0,0,0-26.44,32.613c-.635.875-1.928-.191-1.3-1.061a395.692,395.692,0,0,1,26.44-32.613c.725-.8,2.025.26,1.3,1.061Z" transform="translate(-1314.2 -278.645)" fill="#69930f"/>
          </g>
          <path id="Trazado_997412" data-name="Trazado 997412" d="M1275.353,270.521c-1.822-7.223-.515-14.854.365-22.252l11.884,16.375c2.574,3.547,5.191,7.176,6.493,11.361s1.08,9.1-1.664,12.515C1292.434,288.52,1279.7,287.736,1275.353,270.521Z" transform="translate(-1274.436 -227.967)" fill="#7cc200"/>
          <g id="Grupo_1161685" data-name="Grupo 1161685" transform="translate(5.754 33.521)">
            <path id="Trazado_997413" data-name="Trazado 997413" d="M1285.635,270.737a393.8,393.8,0,0,0,18.349,37.512c.519.932-.835,1.921-1.359.981a398.126,398.126,0,0,1-18.561-37.909c-.423-.993,1.149-1.575,1.57-.585Z" transform="translate(-1283.993 -270.225)" fill="#69930f"/>
          </g>
        </g>
        <g id="Grupo_1161692" data-name="Grupo 1161692" transform="translate(49.732 147.109)">
          <path id="Trazado_997414" data-name="Trazado 997414" d="M1215.6,415.419c-2.582-3.171-6.97-5.709-10.678-3.985-1.957.91-3.225,2.8-4.678,4.4s-3.505,3.039-5.611,2.568c-2.125-.475-3.355-2.668-4.134-4.7-1.265-3.3-2.05-6.779-3.37-10.061s-3.276-6.46-6.27-8.345-7.183-2.172-9.948.034c-2.343,1.869-3.251,5.055-5.418,7.126-3.1,2.959-8.076,2.947-12.1,1.476s-7.486-4.135-11.305-6.075-8.414-3.133-12.352-1.447a9.658,9.658,0,0,0-5.552,10.176c.871,5.155,5.675,8.537,9.893,11.625q3.666,2.685,7.121,5.643a9.177,9.177,0,0,1,2.561,2.96c1.738,3.783-1.832,7.781-2.612,11.87-1.134,5.942,4.246,11.6,10.174,12.806s12.009-.894,17.5-3.422c2.572-1.184,5.206-2.5,8.038-2.532a1.54,1.54,0,0,1,1.349.481,1.613,1.613,0,0,1,.059,1.275c-1.11,4.57-3.616,9.238-2.154,13.708,1.052,3.216,4.06,5.519,7.314,6.446a22.063,22.063,0,0,0,10.058.031,50.008,50.008,0,0,0,29.378-17.521S1228.036,430.685,1215.6,415.419Z" transform="translate(-1124.07 -393.776)" fill="#7cc200"/>
          <g id="Grupo_1161687" data-name="Grupo 1161687" transform="translate(15.056 13.01)">
            <path id="Trazado_997415" data-name="Trazado 997415" d="M1150.06,415.492c12.737,7.831,25.729,15.241,38.888,22.339,6.494,3.5,13.02,6.953,19.6,10.3a163.426,163.426,0,0,0,18.648,8.329,67.586,67.586,0,0,0,22.539,4.361c.937,0,1.094,1.464.149,1.461-13.732-.046-26.651-5.234-38.783-11.229-13.362-6.6-26.486-13.753-39.446-21.11q-11.211-6.365-22.2-13.11c-.794-.488-.2-1.83.609-1.336Z" transform="translate(-1149.077 -415.384)" fill="#69930f"/>
          </g>
          <g id="Grupo_1161688" data-name="Grupo 1161688" transform="translate(37.472 38.604)">
            <path id="Trazado_997416" data-name="Trazado 997416" d="M1187.14,459.165c7.315.732,14.546-1.182,21.847-1.271.939-.011,1.094,1.449.149,1.461-7.434.09-14.774,2.006-22.228,1.261-.943-.095-.708-1.544.231-1.45Z" transform="translate(-1186.308 -457.894)" fill="#69930f"/>
          </g>
          <g id="Grupo_1161689" data-name="Grupo 1161689" transform="translate(49.843 21.353)">
            <path id="Trazado_997417" data-name="Trazado 997417" d="M1208.153,429.58l9.13,16.81c.446.82-.748,1.678-1.2.847l-9.13-16.81c-.444-.82.748-1.678,1.2-.847Z" transform="translate(-1206.856 -429.241)" fill="#69930f"/>
          </g>
          <g id="Grupo_1161690" data-name="Grupo 1161690" transform="translate(66.008 52.934)">
            <path id="Trazado_997418" data-name="Trazado 997418" d="M1257.038,483.1c-7.431,1.877-14.9,3.752-22.548,4.443a.735.735,0,0,1-.149-1.461c7.53-.68,14.872-2.51,22.183-4.357.906-.229,1.43,1.143.515,1.375Z" transform="translate(-1233.704 -481.695)" fill="#69930f"/>
          </g>
          <g id="Grupo_1161691" data-name="Grupo 1161691" transform="translate(84.18 35.251)">
            <path id="Trazado_997419" data-name="Trazado 997419" d="M1265.286,452.8q2.054,8.355,4.7,16.547c.29.9-1.084,1.417-1.375.515q-2.642-8.188-4.7-16.547c-.221-.907,1.146-1.432,1.375-.515Z" transform="translate(-1263.887 -452.325)" fill="#69930f"/>
          </g>
        </g>
        <g id="Grupo_1161698" data-name="Grupo 1161698" transform="translate(69.366 71.29)">
          <path id="Trazado_997420" data-name="Trazado 997420" d="M1196.538,354.236c-3.712-1.713-7.262-5.334-6.513-9.353.395-2.122,1.916-3.821,3.1-5.625s2.073-4.15,1.094-6.073c-.988-1.94-3.417-2.588-5.581-2.837-3.514-.4-7.076-.3-10.583-.765s-7.071-1.569-9.641-4-3.889-6.418-2.439-9.645c1.228-2.734,4.089-4.4,5.556-7.018,2.1-3.735.849-8.555-1.576-12.087s-5.865-6.224-8.693-9.442-5.124-7.372-4.47-11.606a9.658,9.658,0,0,1,8.478-7.905c5.21-.437,9.678,3.376,13.719,6.694q3.511,2.885,7.235,5.5a9.184,9.184,0,0,0,3.5,1.746c4.1.744,7.082-3.707,10.849-5.478,5.474-2.574,12.292,1.232,14.932,6.675s2.118,11.855,1.033,17.805c-.508,2.786-1.124,5.663-.456,8.415a1.543,1.543,0,0,0,.8,1.188,1.615,1.615,0,0,0,1.249-.259c4.151-2.211,8.05-5.8,12.743-5.492,3.376.22,6.355,2.562,8.061,5.484a22.051,22.051,0,0,1,2.527,9.735,50.008,50.008,0,0,1-9.674,32.81S1214.414,362.487,1196.538,354.236Z" transform="translate(-1156.681 -267.847)" fill="#c8e094"/>
          <g id="Grupo_1161693" data-name="Grupo 1161693" transform="translate(10.238 9.488)">
            <path id="Trazado_997421" data-name="Trazado 997421" d="M1173.845,284.8c9.7,12.624,20.6,24.255,31.428,35.9s21.386,23.463,31.17,36.005c5.57,7.14,10.971,14.41,16.372,21.678.564.759,1.706-.163,1.143-.921-9.542-12.842-19.1-25.692-29.556-37.816-10.352-12.005-21.434-23.351-32.043-35.125-6.021-6.683-11.886-13.512-17.37-20.645-.578-.75-1.722.17-1.144.92Z" transform="translate(-1173.686 -283.606)" fill="#69930f"/>
          </g>
          <g id="Grupo_1161694" data-name="Grupo 1161694" transform="translate(44.835 26.387)">
            <path id="Trazado_997422" data-name="Trazado 997422" d="M1234.346,336.471a219.635,219.635,0,0,1-1.738-24.01c-.016-.933-1.476-1.1-1.459-.157a222.977,222.977,0,0,0,1.746,24.385.734.734,0,0,0,1.452-.218Z" transform="translate(-1231.149 -311.674)" fill="#69930f"/>
          </g>
          <g id="Grupo_1161695" data-name="Grupo 1161695" transform="translate(26.432 45.937)">
            <path id="Trazado_997423" data-name="Trazado 997423" d="M1221.166,348.582q-9.824-2.546-19.8-4.423c-.93-.175-1.082,1.286-.157,1.459q9.791,1.839,19.439,4.336c.9.235,1.438-1.134.523-1.372Z" transform="translate(-1200.583 -344.144)" fill="#69930f"/>
          </g>
          <g id="Grupo_1161696" data-name="Grupo 1161696" transform="translate(67.889 52.873)">
            <path id="Trazado_997424" data-name="Trazado 997424" d="M1272.636,380.463a219.665,219.665,0,0,1-1.738-24.01c-.016-.933-1.476-1.1-1.459-.157a222.978,222.978,0,0,0,1.746,24.385.734.734,0,0,0,1.451-.218Z" transform="translate(-1269.439 -355.666)" fill="#69930f"/>
          </g>
          <g id="Grupo_1161697" data-name="Grupo 1161697" transform="translate(49.48 72.423)">
            <path id="Trazado_997425" data-name="Trazado 997425" d="M1259.447,392.574q-9.824-2.546-19.8-4.423c-.93-.175-1.082,1.286-.157,1.459q9.791,1.838,19.439,4.336c.908.235,1.438-1.134.523-1.371Z" transform="translate(-1238.864 -388.136)" fill="#69930f"/>
          </g>
        </g>
      </g>
      <g id="Grupo_1161705" data-name="Grupo 1161705" transform="translate(121 9112.705)" clip-path="url(#clip-path-2)">
        <g id="Grupo_1161700" data-name="Grupo 1161700" transform="translate(90.799 50.987)" clip-path="url(#clip-path-4)">
          <circle id="Elipse_12054" data-name="Elipse 12054" cx="156.847" cy="156.847" r="156.847" fill="#afd8f9"/>
        </g>
        <g id="Grupo_1161701" data-name="Grupo 1161701" transform="translate(90.799 50.987)" clip-path="url(#clip-path-4)">
          <path id="Trazado_997426" data-name="Trazado 997426" d="M1162.614,467.516c-.407,3.2,3.711,5.424,6.811,4.518s5.231-3.667,7.2-6.228a216.866,216.866,0,0,1,36.616-37.263c5.339-4.258,11.085-8.36,17.744-9.875,14.094-3.207,30.133,5.573,42.7-1.561,13.233-7.51,12.692-26.812,7.973-41.278s-11.87-30.094-6.059-44.156c4.18-10.117,14.491-17.213,16.916-27.888,2.5-10.989-4.3-22.012-12.421-29.82s-17.961-14.014-24.431-23.241c0,0-65.18,49.634-82.081,128.1S1162.614,467.516,1162.614,467.516Z" transform="translate(-1180.073 -240.73)" fill="#8bc3e8"/>
        </g>
        <g id="Grupo_1161702" data-name="Grupo 1161702" transform="translate(90.799 50.987)" clip-path="url(#clip-path-4)">
          <path id="Trazado_997427" data-name="Trazado 997427" d="M1448.06,684.314c16.294-12.248,11.795-39.948,5.7-59.4s-21.458-36.179-40.926-42.222-42.512-.387-55.722,15.138c-7.048,8.284-12.161,19.592-22.565,22.763-10.9,3.323-22.215-4.062-33.606-3.824-17.148.358-29.272,17.775-32.659,34.589C1268.28,651.359,1333.767,770.223,1448.06,684.314Z" transform="translate(-1222.521 -371.884)" fill="#8bc3e8"/>
        </g>
        <g id="Grupo_1161703" data-name="Grupo 1161703" transform="translate(90.799 50.987)" clip-path="url(#clip-path-4)">
          <path id="Trazado_997428" data-name="Trazado 997428" d="M1555.268,267.429c3.072,23.563-19.628,41.434-31.1,62.245-10.25,18.6-10.844,43.648,2.928,59.814,6.477,7.6,15.727,13.018,20.13,21.982,4.225,8.6,3.136,18.71,3.758,28.274,1.508,23.187,15.258,46.173,36.767,54.966s49.757.132,59.617-20.908c0,0-7.483-136.919-42.491-171.324S1555.268,267.429,1555.268,267.429Z" transform="translate(-1321.337 -247.378)" fill="#8bc3e8"/>
        </g>
        <g id="Grupo_1161704" data-name="Grupo 1161704" transform="translate(90.799 50.987)" clip-path="url(#clip-path-4)">
          <path id="Trazado_997429" data-name="Trazado 997429" d="M1471.553,174.666c-5.359,14.01,1.539,29.893,11.166,41.4a45.166,45.166,0,0,0,10.013,9.287,29.812,29.812,0,0,0,44.7-16.754Z" transform="translate(-1302.664 -210.465)" fill="#8bc3e8"/>
        </g>
      </g>
      <g id="Grupo_1161706" data-name="Grupo 1161706" transform="translate(121 9112.705)" clip-path="url(#clip-path-2)">
        <path id="Trazado_997430" data-name="Trazado 997430" d="M1472.39,286.551c-5.719-13.906-21.442-17.525-32.916-9.8-8.3,5.591-13.1,17.1-13.1,17.1s-4.793-11.505-13.1-17.1c-11.474-7.724-27.2-4.1-32.916,9.8-13.684,33.271,46.014,64.1,46.014,64.1S1486.075,319.822,1472.39,286.551Z" transform="translate(-1175.512 -198.513)" fill="#3c57a4"/>
      </g>
      <g id="Grupo_1161735" data-name="Grupo 1161735" transform="translate(121 9112.705)" clip-path="url(#clip-path-2)">
        <g id="Grupo_1161707" data-name="Grupo 1161707" transform="translate(96.028 559.497)">
          <path id="Trazado_997431" data-name="Trazado 997431" d="M1224.865,1078.72s20.958,104.833,21.064,115.258-12.016,32.982-25.809,43.549c0,0-4.811,2.908-4.687,4.025s16.654,16.948,32.378-8.442,23.6-7.561,19.811-28.537,16.2-54.983.136-89.158S1224.865,1078.72,1224.865,1078.72Z" transform="translate(-1206.721 -1078.72)" fill="#995345"/>
          <path id="Trazado_997432" data-name="Trazado 997432" d="M1261.633,1285.15s.225,5.007-5.256,9.69A92.165,92.165,0,0,0,1239.819,1313c-3.428,5.048-7.751,9.737-12.19,10.227-9.967,1.1-15.214-2.272-15.214-2.272s-8.423,3.489-10.973,8.756,5.117,15.9,23.129,14.146,18.485-20.593,24.2-26.558,8.252-5.084,8.252-5.084l-3.431,25.657s4.962,1.888,8.21-.21c0,0,8.388-33.278,7.846-40.292S1261.633,1285.15,1261.633,1285.15Z" transform="translate(-1200.965 -1160.864)" fill="#5ea992"/>
        </g>
        <g id="Grupo_1161708" data-name="Grupo 1161708" transform="translate(169.824 559.78)">
          <path id="Trazado_997433" data-name="Trazado 997433" d="M1378.776,1079.19s-23.121,104.377-23.444,114.8,11.331,33.224,24.9,44.073c0,0,4.749,3.007,4.6,4.121s-17,16.6-32.2-9.11-23.443-8.048-19.217-28.941-15.057-55.306,1.708-89.142S1378.776,1079.19,1378.776,1079.19Z" transform="translate(-1325.374 -1079.19)" fill="#995345"/>
          <path id="Trazado_997434" data-name="Trazado 997434" d="M1331.846,1284.11s-.328,5,5.054,9.8a92.19,92.19,0,0,1,16.18,18.5c3.323,5.118,7.547,9.9,11.976,10.477,9.942,1.305,15.258-1.957,15.258-1.957s8.35,3.662,10.79,8.981-5.444,15.792-23.416,13.665-18.055-20.97-23.65-27.053-8.145-5.254-8.145-5.254l2.9,25.723s-5,1.785-8.2-.38c0,0-7.7-33.444-7.012-40.445S1331.846,1284.11,1331.846,1284.11Z" transform="translate(-1323.533 -1160.733)" fill="#5ea992"/>
        </g>
        <path id="Trazado_997435" data-name="Trazado 997435" d="M1323.19,763.3s14.373,14.409,14.929,81.237-6.55,120.836,9.278,140.1c0,0-31.919,18.506-77.16,13.6s-73.945-22.706-73.945-22.706,8.309-4.11,7.554-56.607,16.472-160.134,48.27-166.177C1252.115,752.739,1303.171,763.659,1323.19,763.3Z" transform="translate(-1103.077 -389.507)" fill="#c8e094"/>
        <path id="Trazado_997436" data-name="Trazado 997436" d="M1347.469,499.438c8.336,7.1,21.858,7.082,30.18-.032,2.294-1.961,4.319-4.794,3.794-7.766a18.038,18.038,0,0,0,8.55,3.343,9.618,9.618,0,0,0,8.287-3.284c1.9-2.441,2-6.306-.187-8.49a5.545,5.545,0,0,1-6.115,4.477,5.226,5.226,0,0,1-3.611-7.5,9.165,9.165,0,0,1,2.164-2.632c4.826-4.138,12.147-4.506,16.722-8.92a12.817,12.817,0,0,0,.233-17.515c-3.5-3.559-9.205-5.119-11.115-9.728-1.877-4.531.907-9.493,1.927-14.29,1.675-7.875-1.771-16.319-7.717-21.746s-14.055-8.072-22.093-8.532a58.141,58.141,0,0,0-12.015.648,75.132,75.132,0,0,0-18.211,5.322l-4.354,1.857Z" transform="translate(-1157.839 -247.846)"/>
        <path id="Trazado_997437" data-name="Trazado 997437" d="M1302.223,499.438c-8.336,7.1-21.858,7.082-30.18-.032-2.294-1.961-4.319-4.794-3.794-7.766a18.036,18.036,0,0,1-8.55,3.343,9.618,9.618,0,0,1-8.287-3.284c-1.9-2.441-2-6.306.187-8.49a5.545,5.545,0,0,0,6.115,4.477,5.226,5.226,0,0,0,3.611-7.5,9.165,9.165,0,0,0-2.164-2.632c-4.826-4.138-12.147-4.506-16.722-8.92a12.817,12.817,0,0,1-.233-17.515c3.5-3.559,9.205-5.119,11.115-9.728,1.877-4.531-.907-9.493-1.927-14.29-1.675-7.875,1.771-16.319,7.717-21.746s14.055-8.072,22.093-8.532a58.142,58.142,0,0,1,12.015.648,75.137,75.137,0,0,1,18.211,5.322l4.354,1.857Z" transform="translate(-1120.016 -247.846)"/>
        <g id="Grupo_1161712" data-name="Grupo 1161712" transform="translate(357.119 229.458)">
          <path id="Trazado_997438" data-name="Trazado 997438" d="M1656.449,578.106a49.926,49.926,0,0,0,12-6.437s14.756-5.638,18.707-7.985.812-7.717-3.123-5.985-16.1,5.656-16.1,5.656,17.046-13.25,17.358-16.986c.348-4.157-3.117-5.142-6.687-3.6s-17.99,8.644-17.99,8.644,9.468-9.837,12.936-14.746-.585-8.654-5.687-3.967-19.616,16.671-19.616,16.671.76-6.333-3.081-9.485-6.763.494-6.275,2.327a13.475,13.475,0,0,1-1.874,11.736,13.38,13.38,0,0,0,2.223,17.8c1.421,1.305,2.612,2.426,3.6,3.374A13.316,13.316,0,0,0,1656.449,578.106Z" transform="translate(-1634.615 -530.552)" fill="#995345"/>
          <g id="Grupo_1161709" data-name="Grupo 1161709" transform="translate(19.905 17.051)">
            <path id="Trazado_997439" data-name="Trazado 997439" d="M1668.75,558.984a29.72,29.72,0,0,1,8.164,7.952c2.385,3.206,4.543,6.9,4.337,11.033-.048.966-1.563,1.03-1.515.052.193-3.879-1.862-7.259-4.1-10.264a27.771,27.771,0,0,0-7.593-7.43c-.827-.505-.134-1.851.7-1.343Z" transform="translate(-1667.675 -558.872)"/>
          </g>
          <g id="Grupo_1161710" data-name="Grupo 1161710" transform="translate(29.64 14.176)">
            <path id="Trazado_997440" data-name="Trazado 997440" d="M1702.163,555.522q-8.292,6.3-17.151,11.789c-.829.514-1.651-.76-.821-1.274q8.851-5.485,17.151-11.789c.779-.591,1.592.688.821,1.274Z" transform="translate(-1683.845 -554.096)"/>
          </g>
          <g id="Grupo_1161711" data-name="Grupo 1161711" transform="translate(12.107 18.915)">
            <path id="Trazado_997441" data-name="Trazado 997441" d="M1657,562.866l-.775,2.852-.229-.73c2.888,2.06,5.123,4.789,5.457,8.431.326,3.545-1.115,6.94-3.09,9.8-.547.794-1.9.1-1.343-.7,1.774-2.571,3.134-5.526,2.943-8.719-.2-3.381-2.344-5.806-4.988-7.692a.738.738,0,0,1-.229-.73l.775-2.852c.255-.939,1.736-.607,1.478.338Z" transform="translate(-1654.724 -561.968)"/>
          </g>
        </g>
        <path id="Trazado_997442" data-name="Trazado 997442" d="M1614.613,585.96s8.121,4.323,9.993,11.855l-34.829,26.548a81.58,81.58,0,0,0-14.559-13.929Z" transform="translate(-1253.861 -323.142)" fill="#995345"/>
        <path id="Trazado_997443" data-name="Trazado 997443" d="M1362.366,577.184l-28.955-13.722v-16.24l-19.136-.756-.629,15.862-28.074,9.064s10.826,34.494,39.153,36.257S1362.366,577.184,1362.366,577.184Z" transform="translate(-1138.604 -307.426)" fill="#995345"/>
        <path id="Trazado_997444" data-name="Trazado 997444" d="M1332.65,555.623l.364-9.157,19.135.756v7.141C1342.5,574.367,1335.727,559.307,1332.65,555.623Z" transform="translate(-1157.337 -307.426)" fill="#873629"/>
        <path id="Trazado_997445" data-name="Trazado 997445" d="M1352.854,693.436l-7.554-29.423s15.459-10.438,7.018-39.695l11.236-29.234-17.637-8.2s-16.732,32.7-26.8,28.838-29.554-33.846-29.554-33.846l-17.4,4.65s-11.834,40.942,2.266,67.631a33.659,33.659,0,0,1,1.259,24.943s-5.287-1.716-1.888,5.837c0,0,14.509,11.645,43.244,15.485,20.41,2.727,38.145-4.484,38.145-4.484S1356.437,693.247,1352.854,693.436Z" transform="translate(-1131.417 -321.517)" fill="#e34f73"/>
        <path id="Trazado_997446" data-name="Trazado 997446" d="M1253.5,633.912l15.2-52.2s-14.645-2.265-25.807,6.8c-9.3,7.555-35.736,73.349-25.455,100.42,3.958,10.422,17.682,22.178,19.16,20.74C1271.186,675.994,1253.5,633.912,1253.5,633.912Z" transform="translate(-1110.564 -321.351)" fill="#e34f73"/>
        <path id="Trazado_997447" data-name="Trazado 997447" d="M1360.016,438.408s13.47,59.169-29.081,59.169-29.207-64.708-29.207-64.708,7.05-19.387,25.808-19.387S1358.252,423.678,1360.016,438.408Z" transform="translate(-1144.244 -254.508)" fill="#995345"/>
        <g id="Grupo_1161713" data-name="Grupo 1161713" transform="translate(190.669 197.143)">
          <path id="Trazado_997448" data-name="Trazado 997448" d="M1362.638,477.611a136.909,136.909,0,0,0,1.036,14.666c.233,1.852.748,3.972-.293,5.678-.926,1.516-2.681,2.134-4.292,2.63-.934.287-1.333-1.175-.4-1.461,1.771-.545,3.675-1.238,3.8-3.386a34.53,34.53,0,0,0-.58-5.609q-.683-6.238-.783-12.517a.758.758,0,0,1,1.516,0Z" transform="translate(-1358.156 -476.879)"/>
        </g>
        <ellipse id="Elipse_12060" data-name="Elipse 12060" cx="3.456" cy="1.574" rx="3.456" ry="1.574" transform="translate(199.286 210.783) rotate(-85.636)"/>
        <ellipse id="Elipse_12061" data-name="Elipse 12061" cx="3.456" cy="1.574" rx="3.456" ry="1.574" transform="translate(176.187 210.396) rotate(-85.636)"/>
        <path id="Trazado_997449" data-name="Trazado 997449" d="M1371.391,467.147s8.016-.821,13.844,2.036c0,0-1.171-5.274-5.805-6.377-4.594-1.094-6.049.475-6.049.475a2.991,2.991,0,0,1,2.18-1.428S1369.994,460.59,1371.391,467.147Z" transform="translate(-1172.664 -273.718)"/>
        <path id="Trazado_997450" data-name="Trazado 997450" d="M1339.1,465.141s-7.831-1.9-13.992.143c0,0,1.874-5.066,6.615-5.532,4.7-.462,5.929,1.29,5.929,1.29a2.992,2.992,0,0,0-1.967-1.711S1341.372,458.832,1339.1,465.141Z" transform="translate(-1154.337 -272.749)"/>
        <ellipse id="Elipse_12062" data-name="Elipse 12062" cx="5.854" cy="5.854" rx="5.854" ry="5.854" transform="translate(167.646 211.736)" fill="#873629"/>
        <path id="Trazado_997451" data-name="Trazado 997451" d="M1290.18,454.434a14.889,14.889,0,0,0,7.441-2.278,52.2,52.2,0,0,0,25.184-32.3l-6.3-1.4c1.621,5,4.246,10.043,8.827,12.622,4.351,2.45,9.629,2.249,14.616,2.5s10.481,1.324,13.472,5.322c3.861,5.161,1.975,13.106,5.978,18.157a9.769,9.769,0,0,0,12.945,1.743s3.256-41.974-30.769-47.356-42.334,3.493-42.334,3.493Z" transform="translate(-1140.438 -253.009)"/>
        <path id="Trazado_997452" data-name="Trazado 997452" d="M1295.119,488.445s-7.9-19.285-18.849-13.146.506,41.033,22.3,28.677Z" transform="translate(-1133.227 -278.627)" fill="#995345"/>
        <g id="Grupo_1161716" data-name="Grupo 1161716" transform="translate(146.478 205.315)">
          <g id="Grupo_1161714" data-name="Grupo 1161714">
            <path id="Trazado_997453" data-name="Trazado 997453" d="M1285.916,490.529a15.438,15.438,0,0,1,8.717,12.2c.11.968-1.407.96-1.515,0a13.934,13.934,0,0,0-7.967-10.889c-.885-.408-.114-1.715.765-1.309Z" transform="translate(-1284.759 -490.452)"/>
          </g>
          <g id="Grupo_1161715" data-name="Grupo 1161715" transform="translate(2.847 6.154)">
            <path id="Trazado_997454" data-name="Trazado 997454" d="M1294.131,502.147a4.085,4.085,0,0,0-.7.17c-.057.019-.112.042-.169.062-.164.06.1-.054-.039.018-.107.054-.215.1-.319.164s-.206.123-.3.19c-.05.034-.1.069-.147.1-.141.1.083-.075-.035.03a5.767,5.767,0,0,0-.538.524c-.04.045-.077.093-.116.138s-.025.031.026-.035l-.053.072q-.106.146-.2.3c-.063.1-.122.207-.176.314-.027.054-.053.107-.078.162l-.037.082c.033-.08.04-.094.02-.043a5.33,5.33,0,0,0-.206.686c-.012.058-.02.118-.033.176s-.007.039.006-.053c0,.03-.007.06-.01.089-.013.13-.019.26-.019.39a.757.757,0,1,1-1.515,0,5.214,5.214,0,0,1,4.242-5,.778.778,0,0,1,.932.529.764.764,0,0,1-.531.932Z" transform="translate(-1289.488 -500.674)"/>
          </g>
        </g>
        <path id="Trazado_997455" data-name="Trazado 997455" d="M1388.118,488.445s7.9-19.285,18.849-13.146-.506,41.033-22.3,28.677Z" transform="translate(-1178.035 -278.627)" fill="#995345"/>
        <g id="Grupo_1161719" data-name="Grupo 1161719" transform="translate(215.616 205.315)">
          <g id="Grupo_1161717" data-name="Grupo 1161717">
            <path id="Trazado_997456" data-name="Trazado 997456" d="M1409.079,491.837a13.933,13.933,0,0,0-7.967,10.889c-.109.958-1.625.969-1.515,0a15.439,15.439,0,0,1,8.717-12.2c.88-.4,1.65.9.765,1.309Z" transform="translate(-1399.591 -490.451)"/>
          </g>
          <g id="Grupo_1161718" data-name="Grupo 1161718" transform="translate(1.828 6.154)">
            <path id="Trazado_997457" data-name="Trazado 997457" d="M1403.586,500.686a5.214,5.214,0,0,1,4.242,5,.757.757,0,0,1-1.515,0c0-.12-.005-.24-.016-.36-.008-.081-.025-.166,0-.036-.01-.059-.02-.118-.031-.176a5.183,5.183,0,0,0-.2-.688c-.058-.164.053.1-.016-.04-.026-.054-.051-.109-.077-.163-.054-.107-.112-.213-.174-.315s-.128-.2-.2-.3c-.039-.054-.109-.139-.027-.039-.045-.054-.089-.108-.135-.161a4.7,4.7,0,0,0-.515-.5l-.07-.057.035.027c-.049-.036-.1-.071-.146-.105-.1-.068-.2-.132-.3-.192s-.21-.115-.318-.166l-.081-.037.043.018c-.056-.021-.111-.043-.168-.063a4.035,4.035,0,0,0-.727-.179.76.76,0,0,1-.529-.932.784.784,0,0,1,.931-.529Z" transform="translate(-1402.627 -500.672)"/>
          </g>
        </g>
        <ellipse id="Elipse_12063" data-name="Elipse 12063" cx="5.854" cy="5.854" rx="5.854" ry="5.854" transform="translate(199.183 211.736)" fill="#873629"/>
        <g id="Grupo_1161720" data-name="Grupo 1161720" transform="translate(148.287 358.53)">
          <path id="Trazado_997458" data-name="Trazado 997458" d="M1324.554,759.5a107.922,107.922,0,0,1-36.425-13.152.758.758,0,0,1,.765-1.308,106.745,106.745,0,0,0,36.063,13c.964.16.555,1.621-.4,1.461Z" transform="translate(-1287.763 -744.93)"/>
        </g>
        <g id="Grupo_1161721" data-name="Grupo 1161721" transform="translate(138.315 310.837)">
          <path id="Trazado_997459" data-name="Trazado 997459" d="M1277.492,666.451q-1.655,19.552-4.819,38.934c-.157.961-1.616.549-1.46-.406q3.128-19.173,4.764-38.545c.082-.964,1.6-.958,1.515.017Z" transform="translate(-1271.201 -665.715)"/>
        </g>
        <g id="Grupo_1161722" data-name="Grupo 1161722" transform="translate(160.623 300.925)">
          <path id="Trazado_997460" data-name="Trazado 997460" d="M1369.578,649.972c1.533,11.808,4.93,25.35-2.951,35.749-3.462,4.567-8.382,6.627-13.966,7.3-6.836.819-13.965.347-20.8-.318a143.822,143.822,0,0,1-23.078-4.181.758.758,0,0,1,.4-1.461,136.01,136.01,0,0,0,39.221,4.752c5.862-.191,11.81-1.194,15.945-5.708,3.442-3.757,5.213-8.932,5.669-13.944.677-7.445-1.008-14.839-1.962-22.184-.129-.964,1.388-.955,1.514,0Z" transform="translate(-1308.251 -649.253)"/>
        </g>
        <g id="Grupo_1161724" data-name="Grupo 1161724" transform="translate(157.3 195.284)">
          <g id="Grupo_1161723" data-name="Grupo 1161723">
            <path id="Trazado_997461" data-name="Trazado 997461" d="M1330.83,481.819l-24.019-5.612-3.458-.808,1.04-.792c-.226,5.168,1.408,11.1,5.057,14.847,5.344,5.493,18.277,6.925,20.589-2.207a15.36,15.36,0,0,0,.218-6c-.2-1.033,1.386-1.476,1.584-.436,1.032,5.443-.748,11.86-6.391,13.878a17.489,17.489,0,0,1-15.06-2.281,18.163,18.163,0,0,1-6.676-10.213,25.1,25.1,0,0,1-.962-7.586.833.833,0,0,1,1.04-.792l24.018,5.612,3.458.808C1332.3,480.476,1331.859,482.06,1330.83,481.819Z" transform="translate(-1302.732 -473.791)" fill="#5ea992"/>
          </g>
        </g>
        <g id="Grupo_1161726" data-name="Grupo 1161726" transform="translate(196.517 196.271)">
          <g id="Grupo_1161725" data-name="Grupo 1161725">
            <path id="Trazado_997462" data-name="Trazado 997462" d="M1368.712,481.875l24.018-5.612,3.458-.808a.833.833,0,0,1,1.04.792c.258,5.9-1.791,12.706-6.264,16.7-6.306,5.636-19.751,6.418-22.513-3.276a16.063,16.063,0,0,1-.312-7.226c.2-1.037,1.781-.6,1.584.437a15.811,15.811,0,0,0,0,4.957c.548,3.294,2.426,6.054,5.722,7.058a15.887,15.887,0,0,0,13.972-2.777,17.337,17.337,0,0,0,5.47-9.528,23.326,23.326,0,0,0,.7-6.348l1.04.792-24.019,5.612-3.458.808C1368.122,483.7,1367.683,482.116,1368.712,481.875Z" transform="translate(-1367.869 -475.43)" fill="#5ea992"/>
          </g>
        </g>
        <g id="Grupo_1161728" data-name="Grupo 1161728" transform="translate(184.742 206.335)">
          <g id="Grupo_1161727" data-name="Grupo 1161727">
            <path id="Trazado_997463" data-name="Trazado 997463" d="M1360.671,495.021c-.069-.042-.14-.079-.21-.116s-.161-.082-.243-.121c-.052-.025-.372-.166-.24-.111a11.859,11.859,0,0,0-2.349-.694,13.956,13.956,0,0,0-8.088,1.042.85.85,0,0,1-1.123-.294.826.826,0,0,1,.294-1.124,16,16,0,0,1,9.088-1.255,10.7,10.7,0,0,1,3.7,1.255.821.821,0,0,1-.828,1.418Z" transform="translate(-1348.312 -492.146)" fill="#5ea992"/>
          </g>
        </g>
        <g id="Grupo_1161729" data-name="Grupo 1161729" transform="translate(162.111 390.093)">
          <path id="Trazado_997464" data-name="Trazado 997464" d="M1326.466,798.081q-2.354,38.184-5.039,76.346-2.677,38.03-5.686,76.036-1.7,21.435-3.5,42.863c-.081.964-1.6.973-1.515,0q3.206-38.122,6.08-76.271,2.863-38.017,5.395-76.057,1.428-21.455,2.75-42.917c.058-.969,1.576-.976,1.516,0Z" transform="translate(-1310.723 -797.352)"/>
        </g>
        <g id="Grupo_1161730" data-name="Grupo 1161730" transform="translate(112.802 381.536)">
          <path id="Trazado_997465" data-name="Trazado 997465" d="M1258.174,784.052c-8.752,22.56-14.6,46.132-18.533,69.984-3.975,24.108-6.037,48.489-7.417,72.869-.777,13.708-1.334,27.427-1.881,41.146-.039.972-1.554.977-1.515,0,.978-24.508,1.987-49.03,4.222-73.462,2.213-24.2,5.624-48.337,11.442-71.947a318.3,318.3,0,0,1,12.222-38.992c.353-.9,1.816-.509,1.461.4Z" transform="translate(-1228.826 -783.14)"/>
        </g>
        <g id="Grupo_1161731" data-name="Grupo 1161731" transform="translate(211.427 385.101)">
          <path id="Trazado_997466" data-name="Trazado 997466" d="M1394.125,789.6c6.326,23.474,9.635,47.654,11,71.9,1.373,24.346.836,48.758-.384,73.1-.69,13.782-1.6,27.552-2.526,41.32-.065.968-1.58.975-1.515,0,1.633-24.357,3.234-48.729,3.627-73.144.39-24.238-.407-48.554-3.656-72.6A317.978,317.978,0,0,0,1392.663,790a.759.759,0,0,1,1.462-.4Z" transform="translate(-1392.633 -789.061)"/>
        </g>
        <ellipse id="Elipse_12064" data-name="Elipse 12064" cx="3.746" cy="3.746" rx="3.746" ry="3.746" transform="translate(151.428 224.231)" fill="#fff"/>
        <ellipse id="Elipse_12065" data-name="Elipse 12065" cx="3.746" cy="3.746" rx="3.746" ry="3.746" transform="translate(214.459 224.57)" fill="#fff"/>
        <path id="Trazado_997467" data-name="Trazado 997467" d="M1347.407,523.981s1.668-4.564-2.675-6.7-9.194.576-9.194.576-2.23,5.215,1.893,8.709S1347.407,523.981,1347.407,523.981Z" transform="translate(-1158.247 -295.484)" fill="#853361"/>
        <g id="Grupo_1161732" data-name="Grupo 1161732" transform="translate(174.771 219.036)">
          <path id="Trazado_997468" data-name="Trazado 997468" d="M1350.655,524.049a19.57,19.57,0,0,1-18.8-9.672.758.758,0,0,1,1.308-.765,18.09,18.09,0,0,0,17.492,8.921c.969-.106.957,1.41,0,1.515Z" transform="translate(-1331.75 -513.242)"/>
        </g>
        <g id="Grupo_1161733" data-name="Grupo 1161733" transform="translate(191.157 152.106)">
          <path id="Trazado_997469" data-name="Trazado 997469" d="M1359.691,404.229l18.4-1.447c5.756-.453,11.594-1.117,17.353-.363a24.152,24.152,0,0,1,12.494,5.13,16.34,16.34,0,0,1,5.8,12.161c.2,5.492-1.533,10.9-2.917,16.152-.712,2.7-1.845,5.614-1.732,8.437.11,2.749,1.856,4.887,3.961,6.488,3.675,2.794,8.5,4.125,11.232,8.069a10.283,10.283,0,0,1-.01,11.9c-3.224,4.221-8.814,5.121-13.76,5.576-5.482.506-13,1.092-15.347,7.126-.349.9-1.815.508-1.461-.4,3.881-9.984,16.716-6.638,24.615-9.8,4.539-1.819,7.448-6.053,5.941-10.988s-6.576-6.667-10.542-9.179c-3.853-2.44-6.654-5.872-6.03-10.656a62.5,62.5,0,0,1,1.871-7.723c.683-2.588,1.406-5.171,1.943-7.794,1.045-5.115,1.307-10.689-1.771-15.19-2.579-3.771-6.889-6.116-11.24-7.2-6.141-1.536-12.592-.833-18.819-.343l-19.973,1.571c-.97.076-.964-1.44,0-1.515Z" transform="translate(-1358.966 -402.076)"/>
        </g>
        <g id="Grupo_1161734" data-name="Grupo 1161734" transform="translate(115.748 146.853)">
          <path id="Trazado_997470" data-name="Trazado 997470" d="M1300.333,404.621c-4.6-3.314-9.317-6.74-14.779-8.474a29.328,29.328,0,0,0-15.025-.577c-9.642,2.087-19.619,8.826-22.5,18.7-1.638,5.608.178,10.758,2.411,15.907,1.992,4.594,4.083,9.557,2.963,14.658a10.762,10.762,0,0,1-3.1,5.659c-1.727,1.574-3.958,2.2-6.147,2.851-4.489,1.33-8.8,4.717-8.938,9.807-.156,5.641,5.55,8.535,10.266,9.685,5.359,1.307,11.132,1.239,15.823,4.511.794.554.038,1.868-.765,1.308-4.569-3.186-10.241-3.086-15.462-4.358-4.178-1.018-8.727-3.119-10.588-7.262-1.852-4.124-.166-8.814,2.979-11.8a14.29,14.29,0,0,1,5.872-3.23c2.718-.826,5.447-1.526,7.128-4.019,3.412-5.062,1.116-11.35-1.056-16.394-2.186-5.075-4.312-10.132-3.308-15.767,1.822-10.229,11.326-17.788,20.742-20.831a32.085,32.085,0,0,1,17.075-.866c6.437,1.508,11.9,5.384,17.177,9.187.783.565.03,1.88-.765,1.308Z" transform="translate(-1233.719 -393.352)"/>
        </g>
        <path id="Trazado_997471" data-name="Trazado 997471" d="M1167.48,695.506s21.557,68.776,49.356,57.519c8.452-3.422-24.323-67.068-24.323-67.068Z" transform="translate(-1091.612 -362.933)" fill="#995345"/>
        <path id="Trazado_997472" data-name="Trazado 997472" d="M1396.454,588.565s28.523,9.778,50.9,23.2c24.806,14.879,85.928-25.661,85.928-25.661l16.508,23.813s-71.248,39.216-91.277,37.557-58.348-17.969-58.348-17.969l-5.637-41.853Z" transform="translate(-1181.959 -323.198)" fill="#e34f73"/>
      </g>
      <g id="Grupo_1161777" data-name="Grupo 1161777" transform="translate(121 9112.705)" clip-path="url(#clip-path-2)">
        <path id="Trazado_997473" data-name="Trazado 997473" d="M1531.64,551.783l18.614-7.632,2.668-16.257h21.872l2.854,15.667,17.87,8.811s-8.687,20.6-33.009,20.475S1531.64,551.783,1531.64,551.783Z" transform="translate(-1236.52 -300.036)" fill="#ffb7a9"/>
        <path id="Trazado_997474" data-name="Trazado 997474" d="M1580.676,545.691c3.682-.736,6.325-4.586,9.028-8.258l-1.738-9.539h-21.872l-1.358,8.274C1568.6,542.438,1573.71,547.781,1580.676,545.691Z" transform="translate(-1249.69 -300.036)" fill="#ed978c"/>
        <path id="Trazado_997475" data-name="Trazado 997475" d="M1524.639,450.845s-7.936-31.932-3.921-34.724,17.231,3.068,17.231,3.068l-6.608,32.671Z" transform="translate(-1231.723 -255.259)"/>
        <g id="Grupo_1161742" data-name="Grupo 1161742" transform="translate(337.766 651.729)">
          <path id="Trazado_997476" data-name="Trazado 997476" d="M1604.064,1289.68s-2.867,7.942,2.965,12.286,11.351.483,18.862,9.307c13.041,15.319,46.2,17.495,48.558.122S1604.064,1289.68,1604.064,1289.68Z" transform="translate(-1602.825 -1254.898)"/>
          <g id="Grupo_1161741" data-name="Grupo 1161741">
            <g id="Grupo_1161736" data-name="Grupo 1161736" clip-path="url(#clip-path-12)">
              <path id="Trazado_997477" data-name="Trazado 997477" d="M1630.2,1231.91s-7.1,19.142,12.659,31.8,35.814,6.484,32.418,21.612-34.21,14.608-45.54,2.625c-12.341-13.054-17.654-8.7-23.881-13.829-2.374-1.954-3.592-5.1-3.351-6.981,1.629-12.7,12.855-15.534,1.277-34.079Z" transform="translate(-1602.471 -1231.91)" fill="#b66c4f"/>
            </g>
            <g id="Grupo_1161737" data-name="Grupo 1161737" clip-path="url(#clip-path-12)">
              <path id="Trazado_997479" data-name="Trazado 997479" d="M1632.7,1225.034q.532,7.53,1.625,15c.673,4.581,1.638,8.946,4.04,12.961a52.486,52.486,0,0,0,8.238,9.973c2.752,2.746,6.063,5.619,10.224,5.29,4.2-.332,7.73-3.428,9.494-7.12.36-.754-.765-1.418-1.127-.659-1.558,3.261-4.618,6.157-8.366,6.474-4.118.347-7.263-2.839-9.923-5.533a48.494,48.494,0,0,1-7.523-9.272,31.837,31.837,0,0,1-3.686-11.71c-.773-5.111-1.326-10.252-1.69-15.408-.054-.837-1.361-.843-1.307,0Z" transform="translate(-1614.499 -1228.923)"/>
            </g>
            <g id="Grupo_1161738" data-name="Grupo 1161738" clip-path="url(#clip-path-12)">
              <path id="Trazado_997481" data-name="Trazado 997481" d="M1666.668,1282.414a5.51,5.51,0,0,0-4.413.913,14.6,14.6,0,0,0-3.224,3.38.657.657,0,0,0,.234.894.669.669,0,0,0,.893-.234c1.424-1.864,3.488-4.378,6.163-3.693a.654.654,0,0,0,.347-1.26Z" transform="translate(-1624.939 -1251.949)"/>
            </g>
            <g id="Grupo_1161739" data-name="Grupo 1161739" clip-path="url(#clip-path-12)">
              <path id="Trazado_997483" data-name="Trazado 997483" d="M1658.057,1272.711a4.415,4.415,0,0,0-4.917-.31c-1.678.874-2.747,2.575-3.715,4.131-.446.715.684,1.371,1.127.659a10.17,10.17,0,0,1,2.957-3.5,3.19,3.19,0,0,1,3.624-.059.67.67,0,0,0,.923,0,.654.654,0,0,0,0-.922Z" transform="translate(-1621.115 -1247.785)"/>
            </g>
            <g id="Grupo_1161740" data-name="Grupo 1161740" clip-path="url(#clip-path-12)">
              <path id="Trazado_997485" data-name="Trazado 997485" d="M1649.455,1261.531c-.96-.233-1.833-.746-2.815-.9a5.457,5.457,0,0,0-2.462.176,5.679,5.679,0,0,0-3.593,3.256.657.657,0,0,0,.456.8.67.67,0,0,0,.8-.456,4.323,4.323,0,0,1,2.892-2.405,3.943,3.943,0,0,1,1.88-.054c.857.2,1.636.631,2.491.838.817.2,1.166-1.06.348-1.259Z" transform="translate(-1617.624 -1243.313)"/>
            </g>
          </g>
        </g>
        <g id="Grupo_1161749" data-name="Grupo 1161749" transform="translate(236.088 651.729)">
          <path id="Trazado_997487" data-name="Trazado 997487" d="M1506.654,1289.68s2.867,7.942-2.965,12.286-11.351.483-18.862,9.307c-13.041,15.319-46.2,17.495-48.558.122S1506.654,1289.68,1506.654,1289.68Z" transform="translate(-1434.636 -1254.898)"/>
          <g id="Grupo_1161748" data-name="Grupo 1161748">
            <g id="Grupo_1161743" data-name="Grupo 1161743" clip-path="url(#clip-path-17)">
              <path id="Trazado_997488" data-name="Trazado 997488" d="M1479.127,1231.91s7.1,19.142-12.659,31.8-35.814,6.484-32.418,21.612,34.211,14.608,45.54,2.625c12.341-13.054,17.653-8.7,23.881-13.829,2.373-1.954,3.591-5.1,3.351-6.981-1.629-12.7-12.855-15.534-1.277-34.079Z" transform="translate(-1433.594 -1231.91)" fill="#b66c4f"/>
            </g>
            <g id="Grupo_1161744" data-name="Grupo 1161744" clip-path="url(#clip-path-17)">
              <path id="Trazado_997490" data-name="Trazado 997490" d="M1501.466,1225.035c-.323,4.567-.792,9.123-1.434,13.656-.59,4.172-1.242,8.339-3.2,12.124a41.758,41.758,0,0,1-7.184,9.5c-2.609,2.723-5.671,6.282-9.686,6.642-4.26.381-7.949-2.841-9.683-6.472-.362-.758-1.488-.1-1.127.659a12.412,12.412,0,0,0,8.209,6.934c4.015.861,7.457-1.266,10.284-3.912a57.906,57.906,0,0,0,8.521-9.687,30.45,30.45,0,0,0,4.689-12.529c.9-5.6,1.517-11.255,1.917-16.914.061-.837-1.246-.837-1.306,0Z" transform="translate(-1447.715 -1228.925)"/>
            </g>
            <g id="Grupo_1161745" data-name="Grupo 1161745" clip-path="url(#clip-path-17)">
              <path id="Trazado_997492" data-name="Trazado 997492" d="M1486,1283.672c2.676-.686,4.738,1.828,6.163,3.693a.675.675,0,0,0,.894.234.657.657,0,0,0,.234-.894,14.612,14.612,0,0,0-3.224-3.38,5.51,5.51,0,0,0-4.413-.913.653.653,0,0,0,.347,1.259Z" transform="translate(-1454.125 -1251.949)"/>
            </g>
            <g id="Grupo_1161746" data-name="Grupo 1161746" clip-path="url(#clip-path-17)">
              <path id="Trazado_997494" data-name="Trazado 997494" d="M1494.714,1273.641a3.19,3.19,0,0,1,3.624.059,10.145,10.145,0,0,1,2.957,3.5c.443.712,1.573.057,1.127-.659-.97-1.558-2.037-3.253-3.715-4.131a4.414,4.414,0,0,0-4.917.31.658.658,0,0,0,0,.923.67.67,0,0,0,.924,0Z" transform="translate(-1457.472 -1247.788)"/>
            </g>
            <g id="Grupo_1161747" data-name="Grupo 1161747" clip-path="url(#clip-path-17)">
              <path id="Trazado_997496" data-name="Trazado 997496" d="M1502.441,1262.79c.837-.2,1.6-.623,2.437-.826a3.956,3.956,0,0,1,1.934.04,4.322,4.322,0,0,1,2.892,2.406.674.674,0,0,0,.8.456.657.657,0,0,0,.456-.8,5.674,5.674,0,0,0-3.593-3.256,5.481,5.481,0,0,0-2.462-.176c-.982.152-1.855.667-2.815.9-.821.2-.471,1.458.347,1.26Z" transform="translate(-1460.665 -1243.313)"/>
            </g>
          </g>
        </g>
        <path id="Trazado_997498" data-name="Trazado 997498" d="M1597.362,795.247c-1.117-35.739-20.057-59.566-20.057-59.566l-35.441,21.9-35.441-21.9s-18.94,23.826-20.057,59.566,0,242.109,0,242.109c30.279,11.168,48.149,0,48.149,0,11.169-38.47.837-220.641.837-220.641h13.024s-10.331,182.171.838,220.641c0,0,17.87,11.168,48.149,0C1597.362,1037.357,1598.482,830.986,1597.362,795.247Z" transform="translate(-1218.307 -382.719)" fill="#b6bfff"/>
        <path id="Trazado_997499" data-name="Trazado 997499" d="M1562.193,396.5c-16.877,1.924-29.433,16.7-29.241,33.68.239,21.168,5.094,50.98,30.546,50.98,24.206,0,32.654-26.123,35.568-46.323,3.037-21.05-13.979-40.038-35.192-38.494C1563.318,396.381,1562.753,396.434,1562.193,396.5Z" transform="translate(-1237.041 -247.653)" fill="#ffb7a9"/>
        <ellipse id="Elipse_12066" data-name="Elipse 12066" cx="7.399" cy="7.399" rx="7.399" ry="7.399" transform="translate(338.958 200.747)" fill="#ed978c"/>
        <ellipse id="Elipse_12067" data-name="Elipse 12067" cx="7.399" cy="7.399" rx="7.399" ry="7.399" transform="translate(300.954 200.747)" fill="#ed978c"/>
        <path id="Trazado_997500" data-name="Trazado 997500" d="M1390.87,755.406s22.473-97.4,38.871-120.273,32.718.387,32.718.387-48.072,120.953-48.03,121.6Z" transform="translate(-1180.505 -338.703)" fill="#ffb7a9"/>
        <path id="Trazado_997501" data-name="Trazado 997501" d="M1416.42,619.874s13.736-28.214,32.363-49.032a54.7,54.7,0,0,1,36.335-17.985l6.027-.491s5.274,12.409,22.647,12.906,30.776-16.381,30.776-16.381l2.637.477a54.939,54.939,0,0,1,32.947,19.537c10.243,12.665,22.778,31.627,27.456,52.954,0,0-29.723,20.848-47.622,12.409,0,0,1.707,23.578,1.459,33.754,0,0,5.3-.31,1.954,6.763,0,0-45.574,24.229-100.176-.713,0,0-2.234-6.825,3.723-6.205a191.268,191.268,0,0,1,2.311-31.272S1440.6,639.264,1416.42,619.874Z" transform="translate(-1190.672 -308.391)" fill="#d23f47"/>
        <path id="Trazado_997502" data-name="Trazado 997502" d="M1525.989,474.921s-6.332-17.785-16.5-12.694-1.277,37.154,18.969,26.894Z" transform="translate(-1226.023 -273.541)" fill="#ffb7a9"/>
        <g id="Grupo_1161752" data-name="Grupo 1161752" transform="translate(286.188 196.671)">
          <g id="Grupo_1161750" data-name="Grupo 1161750">
            <path id="Trazado_997503" data-name="Trazado 997503" d="M1517.151,477.364a12.61,12.61,0,0,1,6.721,10.206c.059.877,1.431.883,1.373,0a14,14,0,0,0-7.4-11.392c-.783-.406-1.482.778-.693,1.185Z" transform="translate(-1516.804 -476.095)"/>
          </g>
          <g id="Grupo_1161751" data-name="Grupo 1161751" transform="translate(2.122 5.843)">
            <path id="Trazado_997504" data-name="Trazado 997504" d="M1524.532,485.8a4.743,4.743,0,0,0-4.2,4.4.691.691,0,0,0,.686.686.7.7,0,0,0,.686-.686c0-.052.006-.1.011-.157,0-.035.007-.069.011-.1-.012.087-.014.1-.006.053.022-.111.04-.222.069-.332s.056-.2.09-.3c.018-.049.036-.1.054-.147.063-.164-.064.13.013-.028a4.756,4.756,0,0,1,.319-.57c.029-.043.059-.087.09-.129.1-.143-.053.056.037-.048.068-.079.135-.16.208-.236s.147-.149.225-.22c.038-.035.078-.07.119-.1s.117-.093.025-.023a4.136,4.136,0,0,1,.573-.365c.046-.024.093-.048.14-.07s.185-.077.027-.015c.1-.038.194-.075.294-.107s.2-.058.3-.081c.06-.013.119-.025.179-.035.184-.031-.093.008.051-.007a.686.686,0,1,0,0-1.372Z" transform="translate(-1520.329 -485.799)"/>
          </g>
        </g>
        <g id="Grupo_1161753" data-name="Grupo 1161753" transform="translate(315.293 191.047)">
          <path id="Trazado_997505" data-name="Trazado 997505" d="M1570.567,467.211a140.721,140.721,0,0,0-4.8,14.557c-.543,1.915-1.12,3.979.119,5.752a7.677,7.677,0,0,0,4.349,2.656.687.687,0,0,0,.365-1.323c-1.5-.427-3.338-1.161-3.933-2.752a5.49,5.49,0,0,1,.252-3.361c.28-1.013.574-2.022.867-3.031a126.183,126.183,0,0,1,4.106-12.133c.333-.818-.992-1.173-1.323-.364Z" transform="translate(-1565.145 -466.754)"/>
        </g>
        <g id="Grupo_1161754" data-name="Grupo 1161754" transform="translate(322.112 211.188)">
          <path id="Trazado_997506" data-name="Trazado 997506" d="M1577.127,508.916a15.623,15.623,0,0,0,15.181-7.682.687.687,0,0,0-1.186-.693,14.29,14.29,0,0,1-14,7c-.879-.107-.867,1.266,0,1.373Z" transform="translate(-1576.473 -500.207)"/>
        </g>
        <path id="Trazado_997507" data-name="Trazado 997507" d="M1584.689,465.188l29.654-.931s1.712,17.567-14.2,18.6S1584.689,465.188,1584.689,465.188Z" transform="translate(-1257.629 -274.713)"/>
        <path id="Trazado_997508" data-name="Trazado 997508" d="M1553.526,465.188l-29.653-.931s-1.712,17.567,14.2,18.6S1553.526,465.188,1553.526,465.188Z" transform="translate(-1233.408 -274.713)"/>
        <g id="Grupo_1161755" data-name="Grupo 1161755" transform="translate(314.999 193.349)">
          <path id="Trazado_997509" data-name="Trazado 997509" d="M1565.664,474.436a15.107,15.107,0,0,1,17.4.57c.708.53,1.392-.662.693-1.186a16.436,16.436,0,0,0-18.787-.57c-.734.482-.047,1.671.693,1.185Z" transform="translate(-1564.657 -470.578)"/>
        </g>
        <path id="Trazado_997510" data-name="Trazado 997510" d="M1555.751,447.941s-7.9-.81-13.646,2.007c0,0,1.154-5.2,5.722-6.286,4.529-1.078,5.962.468,5.962.468a2.951,2.951,0,0,0-2.149-1.408S1557.124,441.477,1555.751,447.941Z" transform="translate(-1240.684 -266.106)"/>
        <path id="Trazado_997511" data-name="Trazado 997511" d="M1595.244,447.484s7.935.355,13.205,3.981c0,0-.381-5.311-4.741-7.055-4.322-1.729-5.966-.409-5.966-.409a2.949,2.949,0,0,1,2.332-1.078S1594.829,440.889,1595.244,447.484Z" transform="translate(-1261.821 -266.106)"/>
        <path id="Trazado_997512" data-name="Trazado 997512" d="M1587.094,432.268s-9.457-6.825-10.822-36.732c0,0-44.116,30.9-71.013.5,0,0,22.865-20.972,47.435-25.315S1582.725,384,1582.725,384s32.54-11.612,14.843,41.909Z" transform="translate(-1226.023 -237.217)"/>
        <path id="Trazado_997513" data-name="Trazado 997513" d="M1629.539,474.921s6.331-17.785,16.5-12.694,1.277,37.154-18.969,26.894Z" transform="translate(-1274.495 -273.541)" fill="#ffb7a9"/>
        <g id="Grupo_1161758" data-name="Grupo 1161758" transform="translate(360.382 196.671)">
          <g id="Grupo_1161756" data-name="Grupo 1161756">
            <path id="Trazado_997514" data-name="Trazado 997514" d="M1647.437,476.179a14,14,0,0,0-7.4,11.392c-.058.882,1.314.878,1.373,0a12.611,12.611,0,0,1,6.721-10.206c.788-.408.09-1.592-.693-1.185Z" transform="translate(-1640.035 -476.095)"/>
          </g>
          <g id="Grupo_1161757" data-name="Grupo 1161757" transform="translate(1.428 5.844)">
            <path id="Trazado_997515" data-name="Trazado 997515" d="M1643.1,487.176c.16.017-.12-.024.025,0,.06.011.12.021.18.034.111.023.22.052.328.087s.2.069.294.107c-.163-.063,0,0,.027.015.047.022.094.046.14.07a4.533,4.533,0,0,1,.551.349l-.036-.027.061.05c.047.039.093.079.139.12.078.07.153.144.224.22s.141.156.208.236c.1.119-.061-.09.021.027.03.043.061.085.091.128a4.8,4.8,0,0,1,.333.591c.064.129-.041-.119.013.028.018.049.037.1.054.147.034.1.064.2.09.3s.045.2.065.306c.028.142-.012-.134.006.051.006.061.01.122.013.183a.686.686,0,1,0,1.373,0,4.743,4.743,0,0,0-4.2-4.4.689.689,0,0,0-.686.686.706.706,0,0,0,.688.685Z" transform="translate(-1642.407 -485.802)"/>
          </g>
        </g>
        <g id="Grupo_1161759" data-name="Grupo 1161759" transform="translate(316.787 380.788)">
          <path id="Trazado_997516" data-name="Trazado 997516" d="M1579.333,782.561q.262,14.063.523,28.127c.021,1.128.051,2.257.063,3.385.017,1.587-1.462,1.461-2.682,1.652l-3.319.519c-.671.1-1.762.345-2.187-.214-.265-.348-.2-1.41-.248-1.857q-.808-6.928-1.4-13.879-.682-7.98-1.081-15.98c-.045-.879-1.417-.884-1.373,0q.41,8.128,1.1,16.237.343,3.989.757,7.973a59.975,59.975,0,0,0,.879,7.7c.523,2.172,2.449,1.568,4.171,1.3l3.83-.6a2.552,2.552,0,0,0,2.914-3.376q-.042-2.214-.082-4.427-.075-4.037-.151-8.073-.172-9.245-.344-18.491a.687.687,0,0,0-1.373,0Z" transform="translate(-1567.628 -781.898)"/>
        </g>
        <g id="Grupo_1161760" data-name="Grupo 1161760" transform="translate(269.268 376.31)">
          <path id="Trazado_997517" data-name="Trazado 997517" d="M1517.486,775.119a80.378,80.378,0,0,1-2.512,27.9,78.215,78.215,0,0,1-5.022,13.476,40.429,40.429,0,0,1-7.341,10.972,20.8,20.8,0,0,1-13.249,6.505c-.877.057-.883,1.43,0,1.373,9.3-.6,16.119-7.663,20.363-15.407a78.694,78.694,0,0,0,8.8-27.848,80.909,80.909,0,0,0,.333-16.969c-.072-.875-1.444-.883-1.372,0Z" transform="translate(-1488.703 -774.46)"/>
        </g>
        <g id="Grupo_1161761" data-name="Grupo 1161761" transform="translate(274.201 435.122)">
          <path id="Trazado_997518" data-name="Trazado 997518" d="M1497.163,872.806c-.466,20.6-.287,41.2.266,61.794s1.476,41.189,2.48,61.771c.562,11.515,1.112,23.031,1.751,34.541.049.878,1.421.884,1.373,0q-1.7-30.678-2.991-61.382c-.878-20.584-1.551-41.181-1.73-61.784q-.151-17.471.223-34.94a.687.687,0,0,0-1.373,0Z" transform="translate(-1496.896 -872.143)"/>
        </g>
        <g id="Grupo_1161762" data-name="Grupo 1161762" transform="translate(347.144 376.31)">
          <path id="Trazado_997519" data-name="Trazado 997519" d="M1618.338,775.119a81.539,81.539,0,0,0,2.945,29.626,78.659,78.659,0,0,0,5.364,13.627,37.929,37.929,0,0,0,8.062,11.114,21.811,21.811,0,0,0,13.125,5.856c.882.057.878-1.316,0-1.373-9.3-.6-15.8-8.163-19.8-15.9a78.228,78.228,0,0,1-8.129-27.158,80.957,80.957,0,0,1-.194-15.8c.072-.88-1.3-.875-1.373,0Z" transform="translate(-1618.047 -774.46)"/>
        </g>
        <g id="Grupo_1161763" data-name="Grupo 1161763" transform="translate(366.519 435.122)">
          <path id="Trazado_997520" data-name="Trazado 997520" d="M1654.727,872.806c.466,20.6.287,41.2-.266,61.794s-1.476,41.189-2.481,61.771c-.562,11.515-1.112,23.031-1.751,34.541-.049.882,1.324.88,1.373,0q1.7-30.678,2.991-61.382c.878-20.584,1.551-41.181,1.73-61.784q.151-17.471-.223-34.94a.687.687,0,0,0-1.373,0Z" transform="translate(-1650.228 -872.143)"/>
        </g>
        <g id="Grupo_1161764" data-name="Grupo 1161764" transform="translate(275.95 279.576)">
          <path id="Trazado_997521" data-name="Trazado 997521" d="M1509.584,614.281a312.593,312.593,0,0,0-9.417,62.287q-.437,8.961-.355,17.935a.687.687,0,0,0,1.373,0A310.888,310.888,0,0,1,1507,631.893q1.708-8.678,3.911-17.248a.687.687,0,0,0-1.323-.365Z" transform="translate(-1499.801 -613.792)"/>
        </g>
        <g id="Grupo_1161765" data-name="Grupo 1161765" transform="translate(360.45 279.576)">
          <path id="Trazado_997522" data-name="Trazado 997522" d="M1640.173,614.645a310.841,310.841,0,0,1,9.38,62.175q.424,8.834.343,17.682a.687.687,0,0,0,1.373,0,312.592,312.592,0,0,0-5.813-62.726q-1.726-8.8-3.959-17.5a.687.687,0,0,0-1.324.365Z" transform="translate(-1640.148 -613.793)"/>
        </g>
        <g id="Grupo_1161766" data-name="Grupo 1161766" transform="translate(286.029 360.038)">
          <path id="Trazado_997523" data-name="Trazado 997523" d="M1517.016,748.8a120.2,120.2,0,0,0,59.084,4.325c.868-.155.5-1.477-.365-1.323a118.75,118.75,0,0,1-58.354-4.325c-.841-.282-1.2,1.044-.365,1.323Z" transform="translate(-1516.541 -747.434)"/>
        </g>
        <g id="Grupo_1161767" data-name="Grupo 1161767" transform="translate(350.618 361.675)">
          <path id="Trazado_997524" data-name="Trazado 997524" d="M1624.506,753.163a10.8,10.8,0,0,0,4.653-1.726.687.687,0,1,0-.693-1.185,10.141,10.141,0,0,1-.964.577,8.065,8.065,0,0,1-.93.422,9.85,9.85,0,0,1-1.072.338c-.169.043-.34.082-.512.116q-.147.029-.295.054c-.026,0-.277.042-.188.03a.705.705,0,0,0-.687.686c.013.332.3.738.687.687Z" transform="translate(-1623.818 -750.154)"/>
        </g>
        <g id="Grupo_1161768" data-name="Grupo 1161768" transform="translate(309.29 430.75)">
          <path id="Trazado_997525" data-name="Trazado 997525" d="M1555.666,867.425a70.695,70.695,0,0,0,15.21,1.444c4.216.016,8.66-.2,12.244-2.68.722-.5.036-1.689-.693-1.186-3.534,2.441-7.905,2.521-12.047,2.49a67.835,67.835,0,0,1-14.349-1.392c-.859-.193-1.226,1.131-.365,1.324Z" transform="translate(-1555.175 -864.881)"/>
        </g>
        <g id="Grupo_1161769" data-name="Grupo 1161769" transform="translate(316.366 433.306)">
          <path id="Trazado_997526" data-name="Trazado 997526" d="M1566.929,869.787q.866,16.609,1.732,33.218c.046.879,1.419.884,1.373,0q-.866-16.609-1.733-33.218c-.047-.879-1.42-.884-1.372,0Z" transform="translate(-1566.928 -869.126)"/>
        </g>
        <g id="Grupo_1161770" data-name="Grupo 1161770" transform="translate(326.837 433.183)">
          <path id="Trazado_997527" data-name="Trazado 997527" d="M1587.059,869.419c-1.408,8.065-1.337,16.384-1.677,24.543q-.531,12.717-1.061,25.433c-.037.883,1.336.881,1.373,0q.52-12.457,1.04-24.914c.343-8.2.235-16.593,1.65-24.7.152-.864-1.173-1.235-1.323-.365Z" transform="translate(-1584.32 -868.923)"/>
        </g>
        <g id="Grupo_1161771" data-name="Grupo 1161771" transform="translate(350.145 143.171)">
          <path id="Trazado_997528" data-name="Trazado 997528" d="M1624.205,395.748c2.836-2.862,6.014-5.628,9.99-6.7a10.38,10.38,0,0,1,10.953,3.255c5.223,6.175,3.465,15.953.056,22.567a29.581,29.581,0,0,1-7.968,9.653c-.693.548.285,1.513.971.971a30.527,30.527,0,0,0,11.477-21.5c.306-4.274-.493-8.767-3.191-12.2a11.537,11.537,0,0,0-10.627-4.461c-5.085.627-9.144,3.935-12.63,7.453a.687.687,0,0,0,.97.971Z" transform="translate(-1623.033 -387.235)"/>
        </g>
        <g id="Grupo_1161772" data-name="Grupo 1161772" transform="translate(190.579 398.26)">
          <path id="Trazado_997529" data-name="Trazado 997529" d="M1371.934,1336.776s5.6,12.854,5.406,16.762c-.387,7.6-17.626,6.236-19.185.779s9.6-18.516,9.6-18.516Z" transform="translate(-1358.006 -1019.782)" fill="#d4d6ed"/>
          <path id="Trazado_997530" data-name="Trazado 997530" d="M1392.661,833.276a13.047,13.047,0,0,1,6.063-.093s2.582-6.546,6.691-5.75,15.529,5.847,14.847,12.084-9.835,14.808-9.835,14.808-28.171,7.018-27.976-8.621l.229-1.322A13.733,13.733,0,0,1,1392.661,833.276Z" transform="translate(-1367.732 -817.463)" fill="#ffb7a9"/>
          <path id="Trazado_997531" data-name="Trazado 997531" d="M1378.109,1109.093h0a4.158,4.158,0,0,1-3.783-4.5l22.719-261.97a.417.417,0,0,1,.451-.379l7.455.647a.416.416,0,0,1,.379.45l-22.719,261.97A4.15,4.15,0,0,1,1378.109,1109.093Z" transform="translate(-1364.493 -823.382)" fill="#b6bfff"/>
          <path id="Trazado_997532" data-name="Trazado 997532" d="M1407.339,880.72h0a7.254,7.254,0,0,1-6.6-7.854l4.8-55.319a7.254,7.254,0,0,1,7.854-6.6h0a7.254,7.254,0,0,1,6.6,7.854l-4.8,55.319A7.254,7.254,0,0,1,1407.339,880.72Z" transform="translate(-1374.999 -810.918)"/>
          <path id="Trazado_997533" data-name="Trazado 997533" d="M1371.74,1299.307h0a7.255,7.255,0,0,1-6.6-7.854l4.8-55.319a7.254,7.254,0,0,1,7.854-6.6h0a7.254,7.254,0,0,1,6.6,7.854l-4.8,55.319A7.254,7.254,0,0,1,1371.74,1299.307Z" transform="translate(-1360.833 -977.484)" fill="#853361"/>
          <path id="Trazado_997534" data-name="Trazado 997534" d="M1390.463,838.119s5.071.385,5.127,7.507l-3.207,5.467s6.035.987,8.454,4.513-.6,7.681-9.316,5.751-10.482-7.683-11.017-10.524S1381.914,840.737,1390.463,838.119Z" transform="translate(-1366.925 -821.742)" fill="#ffb7a9"/>
          <path id="Trazado_997535" data-name="Trazado 997535" d="M1436.239,847.622s-4.932-7.492-8.719-9.691-8.319-6.294-6.523-8.335,7.188-.9,12.46,4.088S1443.957,842.831,1436.239,847.622Z" transform="translate(-1382.91 -817.968)" fill="#ffb7a9"/>
          <path id="Trazado_997536" data-name="Trazado 997536" d="M1431.191,857.543s-5.68-8.628-10.04-11.16-9.58-7.248-7.512-9.6,8.278-1.04,14.349,4.707S1440.083,852.026,1431.191,857.543Z" transform="translate(-1379.958 -820.77)" fill="#ffb7a9"/>
          <path id="Trazado_997537" data-name="Trazado 997537" d="M1422.348,887.125l.267-3.216s-8.32-12.193-5.421-15.4,12.2,6.942,13.86,12.51S1428.814,891.565,1422.348,887.125Z" transform="translate(-1381.314 -833.593)" fill="#ffb7a9"/>
          <path id="Trazado_997538" data-name="Trazado 997538" d="M1424.708,871.132s-5.232-9.809-9.654-12.954-9.548-8.718-7.1-11.031,8.974-.294,14.912,6.466S1434.781,866.1,1424.708,871.132Z" transform="translate(-1377.629 -824.969)" fill="#ffb7a9"/>
        </g>
        <g id="Grupo_1161773" data-name="Grupo 1161773" transform="translate(212.12 416.198)">
          <path id="Trazado_997539" data-name="Trazado 997539" d="M1394.065,841.964c3.52,2.592,6.78,6.832,5.168,11.434-.278.795.983,1.136,1.259.347a9.465,9.465,0,0,0-.733-7.435,16.493,16.493,0,0,0-5.035-5.474c-.677-.5-1.328.634-.659,1.128Z" transform="translate(-1393.784 -840.712)"/>
        </g>
        <g id="Grupo_1161774" data-name="Grupo 1161774" transform="translate(225.841 431.371)">
          <path id="Trazado_997540" data-name="Trazado 997540" d="M1417.047,867.181c2.838.5,5.035,2.445,6.988,4.438q1.628,1.66,3.114,3.451a10.292,10.292,0,0,1,2.453,3.88c.2.816,1.455.471,1.259-.347a10.774,10.774,0,0,0-2.485-4.088q-1.62-1.986-3.417-3.818c-2.1-2.14-4.518-4.241-7.564-4.773-.822-.145-1.178,1.113-.347,1.258Z" transform="translate(-1416.573 -865.912)"/>
        </g>
        <g id="Grupo_1161775" data-name="Grupo 1161775" transform="translate(222.864 417.913)">
          <path id="Trazado_997541" data-name="Trazado 997541" d="M1411.961,844.758a54.725,54.725,0,0,1,10.6,6.6,33.517,33.517,0,0,1,7.649,9.566.653.653,0,0,0,1.127-.659c-2.182-3.7-4.478-7.107-7.853-9.831a56.027,56.027,0,0,0-10.86-6.8c-.749-.364-1.411.762-.659,1.127Z" transform="translate(-1411.629 -843.559)"/>
        </g>
        <g id="Grupo_1161776" data-name="Grupo 1161776" transform="translate(226.248 411.335)">
          <path id="Trazado_997542" data-name="Trazado 997542" d="M1417.581,833.838a73.617,73.617,0,0,1,10.258,6.466q2.446,1.8,4.824,3.7a10.243,10.243,0,0,1,3.546,4.207c.287.782,1.549.444,1.259-.347a10.219,10.219,0,0,0-3.187-4.213c-1.594-1.353-3.284-2.608-4.958-3.86a76.279,76.279,0,0,0-11.082-7.079c-.75-.38-1.412.746-.66,1.127Z" transform="translate(-1417.249 -832.634)"/>
        </g>
        <path id="Trazado_997543" data-name="Trazado 997543" d="M1702.659,671.463s-21.557,66.631-49.356,55.725c-8.451-3.316,24.323-64.975,24.323-64.975Z" transform="translate(-1284.379 -353.485)" fill="#ffb7a9"/>
      </g>
      <g id="Grupo_1161793" data-name="Grupo 1161793" transform="translate(121 9112.705)" clip-path="url(#clip-path-2)">
        <g id="Grupo_1161780" data-name="Grupo 1161780" transform="translate(399.493 292.48)">
          <path id="Trazado_997544" data-name="Trazado 997544" d="M1732.441,639.527c-4.342,3.341-11.44,8.392-11.44,8.392s.711-7.635-4.007-11.3-8.112.81-7.467,3a16.206,16.206,0,0,1-1.877,14.164,16.086,16.086,0,0,0,3.24,21.319c1.749,1.523,3.217,2.833,4.434,3.939a16.007,16.007,0,0,0,16.442,3.155,60,60,0,0,0,14.221-8.12s7.644-6.161,7.871-6.255c-2.9-6.906-8.142-21.886-14.066-27.85A5.572,5.572,0,0,0,1732.441,639.527Z" transform="translate(-1704.996 -635.225)" fill="#ffb7a9"/>
          <g id="Grupo_1161778" data-name="Grupo 1161778" transform="translate(23.509 10.344)">
            <path id="Trazado_997545" data-name="Trazado 997545" d="M1744.517,654.172c4.044,2.321,7.224,5.844,10.009,9.528,2.514,3.325,4.7,7.067,4.6,11.364-.028,1.174,1.79,1.046,1.818-.117.112-4.592-2.217-8.706-4.907-12.265-2.989-3.953-6.395-7.663-10.729-10.152-1.019-.583-1.808,1.06-.791,1.642Z" transform="translate(-1744.043 -652.406)"/>
          </g>
          <g id="Grupo_1161779" data-name="Grupo 1161779" transform="translate(14.285 12.812)">
            <path id="Trazado_997546" data-name="Trazado 997546" d="M1729.582,657.2q-.42,1.726-.84,3.452a.885.885,0,0,0,.3.866c3.293,2.217,5.942,5.107,6.25,9.233.283,3.78-1.249,7.325-3.274,10.428-.638.978,1.009,1.761,1.642.79,2.25-3.449,3.849-7.495,3.419-11.68-.456-4.445-3.257-7.733-6.852-10.154q.151.433.3.866.42-1.726.84-3.452c.278-1.142-1.51-1.485-1.787-.348Z" transform="translate(-1728.722 -656.504)"/>
          </g>
        </g>
        <g id="Grupo_1161783" data-name="Grupo 1161783" transform="translate(58.158 299.207)">
          <path id="Trazado_997547" data-name="Trazado 997547" d="M1159.484,650.7c4.342,3.342,11.439,8.392,11.439,8.392s-.711-7.636,4.007-11.3,8.112.81,7.467,3a16.2,16.2,0,0,0,1.877,14.164,16.086,16.086,0,0,1-3.24,21.319c-1.749,1.523-3.217,2.833-4.434,3.939a16.007,16.007,0,0,1-16.441,3.155,60,60,0,0,1-14.221-8.12s-7.645-6.161-7.871-6.256c2.9-6.906,8.142-21.886,14.066-27.85A5.574,5.574,0,0,1,1159.484,650.7Z" transform="translate(-1138.065 -646.399)" fill="#995345"/>
          <g id="Grupo_1161781" data-name="Grupo 1161781" transform="translate(8.456 10.344)">
            <path id="Trazado_997548" data-name="Trazado 997548" d="M1168.541,665.346c-4.043,2.321-7.224,5.844-10.009,9.528-2.514,3.325-4.7,7.067-4.6,11.364.028,1.174-1.79,1.046-1.818-.117-.112-4.592,2.217-8.706,4.907-12.265,2.989-3.953,6.395-7.663,10.729-10.152,1.019-.583,1.8,1.061.791,1.642Z" transform="translate(-1152.11 -663.581)"/>
          </g>
          <g id="Grupo_1161782" data-name="Grupo 1161782" transform="translate(26.151 12.812)">
            <path id="Trazado_997549" data-name="Trazado 997549" d="M1189.068,668.379q.42,1.726.84,3.452a.886.886,0,0,1-.3.866c-3.293,2.217-5.941,5.107-6.25,9.233-.283,3.78,1.249,7.325,3.273,10.428.638.978-1.008,1.761-1.642.79-2.25-3.449-3.848-7.495-3.419-11.68.456-4.445,3.257-7.733,6.852-10.154l-.3.866-.84-3.452c-.278-1.142,1.516-1.485,1.787-.348Z" transform="translate(-1181.5 -667.679)"/>
          </g>
        </g>
        <rect id="Rect치ngulo_409849" data-name="Rect치ngulo 409849" width="358.934" height="142.728" transform="translate(72.448 307.965)" fill="#5ea992"/>
        <g id="Grupo_1161784" data-name="Grupo 1161784" transform="translate(99.036 345.969)">
          <path id="Trazado_997550" data-name="Trazado 997550" d="M1235.685,733.3a34.213,34.213,0,0,1,3.066,5.921,43.059,43.059,0,0,1,1.974,6.424,13.017,13.017,0,0,1,.545,2.645c.085.869.154,1.748.21,2.644q-.167,3.948-.293,7.935a49.089,49.089,0,0,1-.882,7.853c0,.056-.016.083-.042.083s-.042.029-.042.085a41.815,41.815,0,0,1-4.577,9.4,100.939,100.939,0,0,1-6.086,8.4q-5.542.167-11.169.21t-10.916.042l-.085.083a133.822,133.822,0,0,1-1.175-13.729q-.254-7.093-.252-14.4t.125-14.736q.127-7.432-.042-14.737a.684.684,0,0,0,.127-.167.686.686,0,0,1,.125-.17,30.717,30.717,0,0,1,4.912-.8q2.562-.208,5.165-.167t5.165.125q2.562.084,5,0a13.593,13.593,0,0,1,5.165,2.646A17.528,17.528,0,0,1,1235.685,733.3Zm-7.731,30.481a15.2,15.2,0,0,0,2.059-4.785,12.733,12.733,0,0,0-.042-5.711q-.251-1.259-.587-2.644a12.559,12.559,0,0,0-.967-2.646,9.053,9.053,0,0,0-1.554-2.226,5.943,5.943,0,0,0-2.351-1.469q-1.427-.167-3.106-.21a13.2,13.2,0,0,0-3.19.3h-.252v.335q.167,2.268.167,4.87t-.085,5.417q-.084,2.817-.083,5.711t.167,5.752a3.381,3.381,0,0,0,2.561.754q1.637-.08,3.148-.252a.994.994,0,0,0,.757-.125,4.9,4.9,0,0,1,.754-.378,6.218,6.218,0,0,0,1.472-1.217A12.97,12.97,0,0,0,1227.954,763.78Z" transform="translate(-1205.961 -724.881)" fill="#fff"/>
          <path id="Trazado_997551" data-name="Trazado 997551" d="M1286.5,725.755h2.014v.335q0,7.224-.21,14.529t-.335,14.652q-.127,7.351-.042,14.653t.5,14.444a4.529,4.529,0,0,1-2.813.8q-2.143.127-4.62.042t-4.744-.21a10.573,10.573,0,0,0-3.105.125q.586-7.555.5-15.2t-.293-15.156q-.211-7.516-.252-14.863a127.773,127.773,0,0,1,.715-14.4v-.167a6.661,6.661,0,0,1,1.636.042q1.215.124,1.806.125,1.51.084,3.483.21T1286.5,725.755Z" transform="translate(-1232.677 -724.559)" fill="#fff"/>
          <path id="Trazado_997552" data-name="Trazado 997552" d="M1342.251,728.058q-1.43,7.471-3.066,14.609t-3.4,14.192q-1.762,7.053-3.611,14.149t-3.863,14.4a20.129,20.129,0,0,0-2.1.17,27.667,27.667,0,0,1-3.19.167q-1.849,0-3.738-.127a13.94,13.94,0,0,1-3.233-.545,279.077,279.077,0,0,1-6.214-27.921q-2.438-14.314-3.61-28.845v-.082a3.654,3.654,0,0,1,2.183-.839,28.479,28.479,0,0,1,3.611-.3q1.929-.04,3.695.042a14.643,14.643,0,0,1,2.433.252,35.153,35.153,0,0,1,.42,5.457q.084,3.781.42,9.07t1.134,11.673a114.245,114.245,0,0,0,2.476,13.182q1.594-6.8,2.6-12.47t1.764-10.454q.757-4.786,1.427-8.817t1.6-7.558a.148.148,0,0,1,.167-.167,14.376,14.376,0,0,0,2.941.378q1.51.043,3.063.042t3.108.042A20.322,20.322,0,0,1,1342.251,728.058Z" transform="translate(-1245.859 -725.265)" fill="#fff"/>
          <path id="Trazado_997553" data-name="Trazado 997553" d="M1406.436,773.943v.167q.167,2.689.085,5.584a23.832,23.832,0,0,1-.757,5.417q-8.563-.084-17.425.21a147.643,147.643,0,0,1-17-.378q0-7.3-.167-14.486t-.252-14.316q-.084-7.137,0-14.274t.5-14.359q3.275-.167,7.1-.295t7.683-.21q3.862-.084,7.473-.167t6.383-.085q2.77,0,4.45.085a6.492,6.492,0,0,1,1.679.167,28.363,28.363,0,0,1,.21,5.961q-.211,3.025-.21,5.961v.085a32.233,32.233,0,0,1-5.417.715q-2.729.124-5.5.083t-5.541-.042q-2.774,0-5.542.252h-.252l-.085.085a33.5,33.5,0,0,1-.21,5,13.092,13.092,0,0,0,.295,4.827l.082.085q2.522.167,5.122.167t5.207.085v.083a27.98,27.98,0,0,1,.252,5.711q-.167,2.854-.085,5.961a12.353,12.353,0,0,1-2.853.378q-1.6.043-3.066.042t-2.646.083a3.093,3.093,0,0,0-1.594.42,25.921,25.921,0,0,0-.295,5.459q.127,3.025.295,5.039l.082.083q5.542,0,10.918.295T1406.436,773.943Z" transform="translate(-1271.583 -725.136)" fill="#fff"/>
          <path id="Trazado_997554" data-name="Trazado 997554" d="M1477.6,784.044h.085q-2.94,0-6.551.21a59.3,59.3,0,0,1-7.388-.042h-.085q-.841-1.929-2.1-4.617t-2.771-5.626q-1.514-2.937-3.275-5.794a48.867,48.867,0,0,0-3.528-5.037l-.167-.252a37.665,37.665,0,0,0-.252,4.744q0,2.813.127,5.794t.293,5.667q.167,2.689.252,4.283a12.277,12.277,0,0,1-3.735.757q-2.311.167-4.577.21t-4.073-.042a13.343,13.343,0,0,0-2.226,0c.111,0,.2-.768.252-2.309s.085-3.57.085-6.089v-8.69q0-4.913-.043-10.161t-.168-10.414q-.127-5.164-.21-9.487t-.21-7.391q-.127-3.064-.3-4.157,4.7-.67,10.329-1.26a55.3,55.3,0,0,1,11.756.085,17.485,17.485,0,0,1,8.9,2.856,18.776,18.776,0,0,1,6.129,6.464,18.029,18.029,0,0,1,2.308,8.525,16.5,16.5,0,0,1-2.476,9.027,15.124,15.124,0,0,1-4.24,5.037,12,12,0,0,1-6.676,2.269h-.42v.083q1.762,3.107,3.863,6.174t4.115,6.171q2.013,3.108,3.863,6.339A43.326,43.326,0,0,1,1477.6,784.044Zm-28.3-46.687c.056.728.1,1.552.125,2.476s.042,1.862.042,2.814.013,1.875.042,2.771a15.381,15.381,0,0,0,.21,2.269h.085q1.929.167,4.2.25a21.165,21.165,0,0,0,4.283-.25,3.831,3.831,0,0,0,2.478-1.639,6.225,6.225,0,0,0,1.049-2.856,7.381,7.381,0,0,0-.337-3.106,5.039,5.039,0,0,0-1.679-2.478,6.286,6.286,0,0,0-4.7-1.552A17.616,17.616,0,0,0,1449.307,737.356Z" transform="translate(-1297.915 -724.067)" fill="#fff"/>
          <path id="Trazado_997555" data-name="Trazado 997555" d="M1544.219,745.508h-.085a47.511,47.511,0,0,1-6.3.63,20.016,20.016,0,0,1-6.3-.712,3.94,3.94,0,0,0-.924-3.78,6.456,6.456,0,0,0-3.443-1.931,6.269,6.269,0,0,0-3.905.42,3.8,3.8,0,0,0-2.224,3.193,3.185,3.185,0,0,0-.127,1.132q.044.549.127,1.134a4.152,4.152,0,0,0,2.184,2.686,12.246,12.246,0,0,0,3.273.924,19.89,19.89,0,0,1,8.272,2.856,20.249,20.249,0,0,1,6.256,5.961,14.049,14.049,0,0,1,2.266,4.157,17,17,0,0,1,.882,4.575,19.513,19.513,0,0,1-.335,4.744,19.988,19.988,0,0,1-1.469,4.577,14.115,14.115,0,0,1-2.688,4.45,14.7,14.7,0,0,1-3.82,3.023,17.19,17.19,0,0,1-4.62,1.721,20.5,20.5,0,0,1-5.08.462,24.881,24.881,0,0,1-7.348-1.3,22.1,22.1,0,0,1-6.506-3.4,16.277,16.277,0,0,1-4.535-5.332,13.2,13.2,0,0,1-1.429-7.18v-.5a32.176,32.176,0,0,1,6.466-.21q3.527.208,6.382.125a4.95,4.95,0,0,0,2.141,4.03,7.062,7.062,0,0,0,4.2,1.3,5.854,5.854,0,0,0,3.863-1.469q1.637-1.427,1.134-4.367a5.256,5.256,0,0,0-1.512-3.233,10.076,10.076,0,0,0-2.981-1.972,17.114,17.114,0,0,0-3.738-1.134q-2.017-.378-3.778-.715a11.309,11.309,0,0,1-3.108-1.092,14.015,14.015,0,0,1-2.6-1.764,17.088,17.088,0,0,1-5-8.145,17.776,17.776,0,0,1-.125-8.648,18.942,18.942,0,0,1,3.82-7.643,17.363,17.363,0,0,1,6.843-5.122,16.9,16.9,0,0,1,4.452-1.134,29.043,29.043,0,0,1,4.911-.167,26.057,26.057,0,0,1,4.87.715,24.749,24.749,0,0,1,4.409,1.512,14.509,14.509,0,0,1,6.214,6.214Q1545.39,739.212,1544.219,745.508Z" transform="translate(-1325.479 -725.083)" fill="#fff"/>
          <path id="Trazado_997556" data-name="Trazado 997556" d="M1591.1,725.755h2.014v.335q0,7.224-.21,14.529t-.335,14.652q-.127,7.351-.043,14.653t.5,14.444a4.529,4.529,0,0,1-2.813.8q-2.143.127-4.62.042t-4.744-.21a10.575,10.575,0,0,0-3.106.125q.586-7.555.5-15.2t-.293-15.156q-.211-7.516-.252-14.863a127.83,127.83,0,0,1,.715-14.4v-.167a6.661,6.661,0,0,1,1.636.042q1.216.124,1.806.125,1.511.084,3.483.21C1586.658,725.8,1588.573,725.811,1591.1,725.755Z" transform="translate(-1353.884 -724.559)" fill="#fff"/>
          <path id="Trazado_997557" data-name="Trazado 997557" d="M1645.364,726.587q.167,2.77.125,6.381a52.847,52.847,0,0,1-.46,6.634,16.828,16.828,0,0,0-3.947-.252q-2.351.087-6.3.252h-.252a.18.18,0,0,1-.04.127.167.167,0,0,0-.043.125,9.812,9.812,0,0,0-.127,1.3q-.041.88-.04,2.771t.04,4.955q.044,3.068.127,7.893t.167,11.588q.084,6.762.252,15.913v.167a23.174,23.174,0,0,1-3.318.295q-1.805.043-3.61.042h-3.568a19.736,19.736,0,0,0-3.275.252,23.1,23.1,0,0,1,0-3.023q.084-2.686.125-8.02t-.083-13.644q-.127-8.316-.63-20.07l-.085-.085a6.962,6.962,0,0,0-2.519-.63q-1.51-.124-3.023-.167c-1.007-.027-1.931-.042-2.771-.042a6.267,6.267,0,0,1-1.764-.167,6.2,6.2,0,0,1-.293-1.679q-.128-1.343-.17-3.233t-.042-4.072q0-2.184.17-4.2c0-.056-.016-.085-.042-.085s-.042-.026-.042-.085q8.563-.08,17.677-.125A160.35,160.35,0,0,1,1645.364,726.587Z" transform="translate(-1366.675 -724.718)" fill="#fff"/>
          <path id="Trazado_997558" data-name="Trazado 997558" d="M1708.777,727.172v.085a138.283,138.283,0,0,1-5.541,14.779q-3.192,7.22-6.634,14.4t-6.719,14.359q-3.276,7.181-5.794,14.568a6.106,6.106,0,0,0-1.007-.085h-1.092q-1.765,0-3.863.127t-4.03.125h-1.009a6.4,6.4,0,0,1-1.007-.082h-.167q2.18-6.8,5.122-14.234t5.877-14.821v-.167a60.722,60.722,0,0,0-2.351-7.348q-1.427-3.654-2.981-7.263t-2.981-7.223a52.168,52.168,0,0,1-2.266-7.136,26.216,26.216,0,0,0,3.526-.252,27.393,27.393,0,0,1,3.695-.252,16.426,16.426,0,0,1,2.016.125,6.69,6.69,0,0,1,1.932.547q.419,1.849,1.217,4.367t1.679,5.122q.881,2.6,1.849,4.955t1.721,3.945a28.81,28.81,0,0,0,1.721-3.905q.881-2.391,1.762-4.995t1.721-5.122q.841-2.522,1.6-4.2a25.5,25.5,0,0,1,4.073-.462q2.559-.124,4.744-.125c.672,0,1.286.013,1.847.042A12.72,12.72,0,0,1,1708.777,727.172Z" transform="translate(-1391.375 -725.136)" fill="#fff"/>
        </g>
        <g id="Grupo_1161788" data-name="Grupo 1161788" transform="translate(53.033 299.754)">
          <path id="Trazado_997559" data-name="Trazado 997559" d="M1134.757,688.552a11.789,11.789,0,0,1,6.56,1.607c5,2.831,15.314,9.088,14.5,12.158-2,7.518-23.631-3.775-24.732-8.51C1130.494,691.28,1131.728,688.756,1134.757,688.552Z" transform="translate(-1130.104 -663.711)" fill="#995345"/>
          <path id="Trazado_997560" data-name="Trazado 997560" d="M1154.407,647.331a11.788,11.788,0,0,1,6.56,1.607c5,2.831,15.314,9.088,14.5,12.158-2,7.518-23.631-3.775-24.732-8.51C1150.144,650.059,1151.378,647.535,1154.407,647.331Z" transform="translate(-1137.924 -647.308)" fill="#995345"/>
          <path id="Trazado_997561" data-name="Trazado 997561" d="M1133.784,672.082a13.059,13.059,0,0,1,7.268,1.78c5.544,3.137,16.966,10.069,16.06,13.47-2.218,8.328-26.181-4.182-27.4-9.429C1129.057,675.1,1130.43,672.308,1133.784,672.082Z" transform="translate(-1129.553 -657.156)" fill="#995345"/>
          <path id="Trazado_997562" data-name="Trazado 997562" d="M1144.159,657.223a13.061,13.061,0,0,1,7,2.647c5.124,3.785,15.621,12.05,14.311,15.316-3.21,8-25.482-7.323-26.057-12.678C1139.108,659.652,1140.8,657.041,1144.159,657.223Z" transform="translate(-1133.462 -651.25)" fill="#995345"/>
          <g id="Grupo_1161785" data-name="Grupo 1161785" transform="translate(12.157 4.317)">
            <path id="Trazado_997563" data-name="Trazado 997563" d="M1150.037,656.377a37.849,37.849,0,0,0,16.237,10.666c2.635.857,6.757,1.961,8.572-.929,1.673-2.663.094-5.7-2.122-7.431-1.1-.856-2.66.683-1.549,1.548a5.178,5.178,0,0,1,2.123,2.832,2.129,2.129,0,0,1-1.51,2.662,8.885,8.885,0,0,1-4.083-.533,29.682,29.682,0,0,1-3.985-1.478,36.509,36.509,0,0,1-12.135-8.887c-.948-1.049-2.489.5-1.549,1.549Z" transform="translate(-1149.744 -654.479)"/>
          </g>
          <g id="Grupo_1161786" data-name="Grupo 1161786" transform="translate(6.795 13.447)">
            <path id="Trazado_997564" data-name="Trazado 997564" d="M1141.3,671.751c3.005,2.314,6.085,4.534,9.3,6.548,2.947,1.845,6.217,4.038,9.7,4.649,2.7.473,6.481-.169,6.949-3.426.482-3.357-2.986-6.174-4.956-8.437-.927-1.065-2.471.49-1.548,1.549.943,1.083,1.9,2.154,2.83,3.251.8.947,2.043,2.47,1.386,3.812-.583,1.193-2.431,1.3-3.568,1.2a11.872,11.872,0,0,1-4.156-1.331,89.64,89.64,0,0,1-14.836-9.708c-1.117-.86-2.207,1.042-1.105,1.89Z" transform="translate(-1140.839 -669.643)"/>
          </g>
          <g id="Grupo_1161787" data-name="Grupo 1161787" transform="translate(1.682 22.444)">
            <path id="Trazado_997565" data-name="Trazado 997565" d="M1132.812,686.688c5.081,3.81,10.46,7.776,16.885,8.834,2.406.4,6,.862,7.83-1.182,1.963-2.191.624-5.124-.709-7.224-.753-1.187-2.649-.089-1.891,1.106,1.079,1.7,2.6,4.771-.469,5.311a16.1,16.1,0,0,1-7.556-.969c-4.827-1.611-8.96-4.747-12.985-7.766-1.13-.847-2.219,1.054-1.105,1.891Z" transform="translate(-1132.346 -684.585)"/>
          </g>
        </g>
        <g id="Grupo_1161792" data-name="Grupo 1161792" transform="translate(415.527 293.026)">
          <path id="Trazado_997566" data-name="Trazado 997566" d="M1772.993,677.377a11.788,11.788,0,0,0-6.56,1.607c-5,2.831-15.314,9.088-14.5,12.158,2,7.518,23.632-3.775,24.732-8.51C1777.262,680.1,1776.021,677.581,1772.993,677.377Z" transform="translate(-1739.691 -652.536)" fill="#ffb7a9"/>
          <path id="Trazado_997567" data-name="Trazado 997567" d="M1753.343,636.156a11.788,11.788,0,0,0-6.56,1.607c-5,2.831-15.314,9.088-14.5,12.158,2,7.518,23.632-3.775,24.732-8.51C1757.606,638.884,1756.371,636.36,1753.343,636.156Z" transform="translate(-1731.871 -636.133)" fill="#ffb7a9"/>
          <path id="Trazado_997568" data-name="Trazado 997568" d="M1772.2,660.907a13.057,13.057,0,0,0-7.268,1.78c-5.545,3.137-16.966,10.069-16.06,13.47,2.217,8.329,26.181-4.182,27.4-9.429C1776.918,663.93,1775.552,661.134,1772.2,660.907Z" transform="translate(-1738.468 -645.981)" fill="#ffb7a9"/>
          <path id="Trazado_997569" data-name="Trazado 997569" d="M1762.742,646.049a13.061,13.061,0,0,0-7,2.647c-5.124,3.785-15.622,12.05-14.311,15.316,3.21,8,25.482-7.322,26.057-12.678C1767.8,648.477,1766.1,645.867,1762.742,646.049Z" transform="translate(-1735.484 -640.075)" fill="#ffb7a9"/>
          <g id="Grupo_1161789" data-name="Grupo 1161789" transform="translate(0 4.318)">
            <path id="Trazado_997570" data-name="Trazado 997570" d="M1755.585,643.653a36.523,36.523,0,0,1-12.135,8.887,30.089,30.089,0,0,1-3.772,1.414,10.232,10.232,0,0,1-4.067.644,2.133,2.133,0,0,1-1.737-2.71,5.181,5.181,0,0,1,2.123-2.832c1.111-.865-.449-2.405-1.548-1.549-2.178,1.7-3.744,4.638-2.2,7.294,1.763,3.035,5.959,1.947,8.651,1.066a37.939,37.939,0,0,0,16.237-10.666c.943-1.046-.6-2.6-1.549-1.55Z" transform="translate(-1731.627 -643.304)"/>
          </g>
          <g id="Grupo_1161790" data-name="Grupo 1161790" transform="translate(4.706 13.447)">
            <path id="Trazado_997571" data-name="Trazado 997571" d="M1764.337,658.685a89.663,89.663,0,0,1-14.836,9.708,11.893,11.893,0,0,1-4.156,1.331c-1.1.091-2.779,0-3.455-1.033-.837-1.279.34-2.868,1.142-3.826.966-1.153,1.974-2.272,2.962-3.407.922-1.058-.621-2.614-1.549-1.549-1.954,2.245-5.327,4.986-4.976,8.292.356,3.352,4.227,4.063,6.969,3.572,3.423-.613,6.613-2.723,9.515-4.53,3.284-2.045,6.425-4.307,9.49-6.666,1.1-.848.014-2.751-1.106-1.892Z" transform="translate(-1739.444 -658.467)"/>
          </g>
          <g id="Grupo_1161791" data-name="Grupo 1161791" transform="translate(10.101 22.443)">
            <path id="Trazado_997572" data-name="Trazado 997572" d="M1773.009,673.622c-4.025,3.019-8.158,6.156-12.985,7.766a16.934,16.934,0,0,1-7.34.995c-3.266-.42-1.841-3.513-.685-5.336.757-1.193-1.137-2.294-1.891-1.105-1.3,2.056-2.634,4.9-.815,7.1,1.8,2.179,5.481,1.711,7.936,1.306,6.425-1.058,11.8-5.023,16.885-8.834,1.116-.836.026-2.738-1.106-1.891Z" transform="translate(-1748.404 -673.409)"/>
          </g>
        </g>
      </g>
      <g id="Grupo_1161794" data-name="Grupo 1161794" transform="translate(121 9112.705)" clip-path="url(#clip-path-2)">
        <path id="Trazado_997573" data-name="Trazado 997573" d="M1795.049,731.916h0a16.962,16.962,0,0,0,12.621,12.621h0a16.962,16.962,0,0,0-12.621,12.621h0a16.961,16.961,0,0,0-12.621-12.621h0a16.966,16.966,0,0,0,12.621-12.621Z" transform="translate(-1362.315 -627.221)" fill="#b6bfff"/>
      </g>
      <g id="Grupo_1161795" data-name="Grupo 1161795" transform="translate(121 9112.705)" clip-path="url(#clip-path-2)">
        <path id="Trazado_997574" data-name="Trazado 997574" d="M1445.459,172.625h0a16.962,16.962,0,0,0,12.621,12.621h0a16.962,16.962,0,0,0-12.621,12.621h0a16.961,16.961,0,0,0-12.621-12.621h0a16.957,16.957,0,0,0,12.621-12.621Z" transform="translate(-1197.205 -158.666)" fill="#b6bfff"/>
      </g>
      <g id="Grupo_1161796" data-name="Grupo 1161796" transform="translate(121 9112.705)" clip-path="url(#clip-path-2)">
        <circle id="Elipse_12068" data-name="Elipse 12068" cx="3.119" cy="3.119" r="3.119" transform="translate(424.824 265.457)" fill="#b6bfff"/>
      </g>
      <g id="Grupo_1161797" data-name="Grupo 1161797" transform="translate(121 9112.705)" clip-path="url(#clip-path-2)">
        <path id="Trazado_997575" data-name="Trazado 997575" d="M1121.209,760.936h0a16.961,16.961,0,0,0,12.621,12.621h0a16.961,16.961,0,0,0-12.621,12.621h0a16.962,16.962,0,0,0-12.621-12.621h0a16.958,16.958,0,0,0,12.621-12.621Z" transform="translate(-1038.178 -729.769)" fill="#b6bfff"/>
      </g>
      <g id="Grupo_1161798" data-name="Grupo 1161798" transform="translate(121 9112.705)" clip-path="url(#clip-path-2)">
        <circle id="Elipse_12069" data-name="Elipse 12069" cx="3.119" cy="3.119" r="3.119" transform="translate(117.536 56.576)" fill="#b6bfff"/>
      </g>
    </g>
  </g>
</svg>
