<svg xmlns="http://www.w3.org/2000/svg" xmlns:xlink="http://www.w3.org/1999/xlink" width="1346" height="596" viewBox="0 0 1346 596">
  <defs>
    <filter id="Rectángulo_407911" x="0" y="0" width="1346" height="596" filterUnits="userSpaceOnUse">
      <feOffset dy="3" input="SourceAlpha"/>
      <feGaussianBlur stdDeviation="3" result="blur"/>
      <feFlood flood-opacity="0.161"/>
      <feComposite operator="in" in2="blur"/>
      <feComposite in="SourceGraphic"/>
    </filter>
    <clipPath id="clip-path">
      <rect id="Rectángulo_407904" data-name="Rectángulo 407904" width="208.37" height="200.799" fill="#ff7f8f"/>
    </clipPath>
    <clipPath id="clip-path-2">
      <rect id="Rectángulo_407905" data-name="Rectángulo 407905" width="138.534" height="174.083" fill="#fdaf2f"/>
    </clipPath>
    <clipPath id="clip-path-3">
      <rect id="Rectángulo_407906" data-name="Rectángulo 407906" width="439.732" height="451.305" fill="#fdaf2f"/>
    </clipPath>
    <clipPath id="clip-path-4">
      <rect id="Rectángulo_407907" data-name="Rectángulo 407907" width="711.116" height="415.722" fill="none"/>
    </clipPath>
    <clipPath id="clip-path-5">
      <rect id="Rectángulo_407908" data-name="Rectángulo 407908" width="177.822" height="412.273" fill="none"/>
    </clipPath>
  </defs>
  <g id="Grupo_1158919" data-name="Grupo 1158919" transform="translate(-127 -2998)">
    <g transform="matrix(1, 0, 0, 1, 127, 2998)" filter="url(#Rectángulo_407911)">
      <rect id="Rectángulo_407911-2" data-name="Rectángulo 407911" width="1328" height="578" transform="translate(9 6)" fill="#feeed4"/>
    </g>
    <g id="Grupo_1153170" data-name="Grupo 1153170">
      <g id="Grupo_1153157" data-name="Grupo 1153157" transform="translate(1255.63 3381.252)" opacity="0.89">
        <g id="Grupo_1153156" data-name="Grupo 1153156">
          <g id="Grupo_1153155" data-name="Grupo 1153155" clip-path="url(#clip-path)">
            <path id="Trazado_987688" data-name="Trazado 987688" d="M572.14,122.57v200.8H363.77c17.236-43.151,39.858-80.917,75.654-107.54a7.036,7.036,0,0,1,.739-.462,3.46,3.46,0,0,1,.677-.492,1059.352,1059.352,0,0,0,102.769-69.683c2.185-1.662,4.371-3.324,6.494-4.986.185-.154.369-.277.585-.462q10.85-8.495,21.453-17.174" transform="translate(-363.77 -122.57)" fill="#ff7f8f"/>
          </g>
        </g>
      </g>
      <g id="Grupo_1153160" data-name="Grupo 1153160" transform="translate(1325.466 3407.968)" opacity="0.88">
        <g id="Grupo_1153159" data-name="Grupo 1153159">
          <g id="Grupo_1153158" data-name="Grupo 1153158" clip-path="url(#clip-path-2)">
            <path id="Trazado_987689" data-name="Trazado 987689" d="M444.914,131.25v10.926c-7.11,3.509-14.066,7.264-19.914,12.158q10.065-11.5,19.914-23.084" transform="translate(-306.38 -131.25)" fill="#fdaf2f"/>
            <path id="Trazado_987690" data-name="Trazado 987690" d="M454.51,146.954a37.743,37.743,0,0,1,2.61-4.743q-25.475,28.675-52.08,56.242a1.119,1.119,0,0,1,.083.354c28.036-5.722,40.468-27.03,49.387-51.853" transform="translate(-347.854 -108.475)" fill="#fdaf2f"/>
            <path id="Trazado_987691" data-name="Trazado 987691" d="M524.994,149.06V268.327H396.063c4.371-.492,7.725-.985,8.31-1.57-2.493.123-14.25-2.924-17.913-5.786,12.742-10.526,38.873-32.81,39.581-33.087,3.878-1.631,12.588,11.727,17.021,10.649-1.57-1.57-9.11-18.929-9.11-18.929s20.837-19.421,30.994-29.393c22.684,12.835,20.9-13.358,17.544-17.451,2.862-2.955,5.756-5.848,8.649-8.8a2.734,2.734,0,0,0,.462-.062c15.081-.4,25.792-6.617,33.395-14.835" transform="translate(-386.46 -94.243)" fill="#fdaf2f"/>
          </g>
        </g>
      </g>
      <path id="Trazado_987692" data-name="Trazado 987692" d="M223.76,0A600.917,600.917,0,0,0,68.3,130.778c-21.976,24.5-44.906,47.337-68.3,69.344V0Z" transform="translate(136 3004)" fill="#ff7f8f"/>
      <path id="Trazado_987693" data-name="Trazado 987693" d="M137.588,0c-.769,7.2-1.57,14.374-2.493,21.391-6.31,28.224-40.474,31.394-61.1,48.63Q104.148,35.58,133.187,0Z" transform="translate(289.761 3004)" fill="#dd2753"/>
      <path id="Trazado_987694" data-name="Trazado 987694" d="M103.51,30.954a37.738,37.738,0,0,1,2.61-4.743Q80.645,54.886,54.04,82.453a1.237,1.237,0,0,1,.083.354c28.036-5.722,40.468-27.03,49.387-51.853" transform="translate(248.287 3058.463)" fill="#dd2753"/>
      <path id="Trazado_987695" data-name="Trazado 987695" d="M582.329,0c-17.144,14.466-33.795,29.424-50.169,44.721-23.084,21.576-45.491,43.859-67.5,66.451a52.75,52.75,0,0,0-5.879,3.047c-20.683,13.45-32.933,29.947-52.447,42.351a100.941,100.941,0,0,1-16.59,8.556c3.97,4,7.972,7.941,13.389,10.5-2.893,3.109-5.848,6.186-8.741,9.3-6.033,1.231-23.422-9.357-11.788,12.588-4.124,4.371-8.218,8.741-12.342,13.081-9.7-.739-20.345-4.217-32.41-11.665q6.787,6.74,13.6,13.573c4.771,13.358-8.556,8.587-12.835,12.865,2.4,2.432,6.156,6.186,8.772,9.48-31.025,8.833-47.46,49-52.631,54.2a103.709,103.709,0,0,0-14.866,2.647c-8.556,2.308-26.193,5.663-25.854,21.176-12.588,11.419-41.859,28.716-45.429,43.767-.462-1.97-.985-4.217-1.6-6.71.492,4.217.923,7.633,1.262,10.034a13.555,13.555,0,0,1,.339-3.324c1.847,8.033,2.278,11.419.462,7.141-6.956,1.908-13.327,4.463-18.252,9.387,5.509,5.509,14.1,21.7,13.82,22.376-3.478,10.4-7.6,20.591-11.911,30.717-14.158,3.386-33.61,1.631-44.259,7.356-6.433,6.433-12.619,21.668-16.651,34.749.185,6.525,11.173,12.127,20.591,18.313-1.939.985-20.191,9.972-27.454,13.419-5.509,2.678-86.765,33.087-111.172,68.174-2.185,1.97-4.34,3.97-6.494,5.971-2.524-1.323-5.048-2.647-7.295-3.6V299.967c5.171-4.74,10.465-9.387,15.82-13.973A106.037,106.037,0,0,0,0,287.533v-6.125c9.049-6.679,19.821-14.62,23.33-17.236a37.067,37.067,0,0,0-2.678,7.356c-1.108,1.077,1.847,2.862,6.156,5.54,2.924-2.339,5.756-4.771,8.71-7.079,14.374-5.078,31.948-6.31,53.247-3.2-9.049-9.049-22.407-13.82-20.252-15.943.646-2.708,19.544-20.221,27.824-26.808,6.987-2.124,29.086-2.955,30.717-4.586-2.493.123-14.25-2.924-17.913-5.786,12.742-10.526,38.873-32.81,39.581-33.087,3.878-1.631,12.588,11.727,17.021,10.649-1.57-1.57-9.11-18.929-9.11-18.929s20.837-19.421,30.994-29.393c22.684,12.835,20.9-13.358,17.544-17.451,2.862-2.955,5.756-5.848,8.649-8.8a2.732,2.732,0,0,0,.462-.062c45.337-1.17,51.031-55.094,51.954-56.632,3.17-3.478,6.248-7.079,9.418-10.619C292.088,35.549,328.837,29.116,338.5,0Z" transform="translate(136 3004)" fill="#ff7f8f"/>
      <path id="Trazado_987696" data-name="Trazado 987696" d="M147.457,171.48q-29.547,25.208-59.495,50.261H48.75c12.1-16.774,27.024-30.471,48.384-37.334,14.343-5.017,32.256-8.741,50.323-12.927" transform="translate(237.295 3360.31)" fill="#2ca5ff"/>
      <path id="Trazado_987697" data-name="Trazado 987697" d="M101.368,178.673q21.376-18.86,42.668-37.885c-16.423,9.7-31.65,21.53-42.668,37.885" transform="translate(346.628 3296.536)" fill="#2ca5ff"/>
      <path id="Trazado_987698" data-name="Trazado 987698" d="M486.762,0q-18.836,19.667-37.15,39.55c-19.544,32.194-41.982,61.065-69.775,83.471a396.9,396.9,0,0,0,32.379-46.045c-30.009,32.5-59.741,65.527-91.412,99.014,1.17-.708,2.247-1.57,3.416-2.308-7.756,7.849-15.543,15.728-23.669,23.607-10.711,14.312-24.13,26.716-38.227,38.412.277-.339.554-.646.8-.985l-2.308,2.216c-7.879,6.494-15.943,12.8-23.853,19.083-7.51,6.648-19.206,16.743-31.948,27.762-2.647,3.139-20.652,25.546-38.5,39.489a6.5,6.5,0,0,1,1.077-2.062c-2.77,2.4-5.6,4.832-8.433,7.295a40.653,40.653,0,0,1-12.065,5.448c-4.309,3.817-7.356,6.556-8.526,7.725C99.938,374.851,60.6,403.845,22.376,432.192A296.911,296.911,0,0,1,0,458.015V578.051H144.751c12.742-19.267,28.532-35.211,52.139-42.782,14.374-5.017,32.256-8.772,50.354-12.927q51.616-44,102.185-88.55c11.019-16.374,26.223-28.193,42.659-37.888C524.712,277.376,654.166,154.077,788.453,19.76c2.739-2.739,8.864-10.311,15.574-19.76ZM185.5,362.325c-1.477,1.754-2.955,3.478-4.4,5.2-.708,2.8-2,4.986-4.586,5.54,1.477-1.878,3.078-3.693,4.586-5.54a20.167,20.167,0,0,0,.616-3.54c1.046-10.188-1.6-23.73,12.65-11.942,2,1.631,4.247,3.724,6.925,6.371a58.773,58.773,0,0,0-15.789,3.909" transform="translate(136 3004)" fill="#97c2e6"/>
      <g id="Grupo_1153163" data-name="Grupo 1153163" transform="translate(136 3004)" opacity="0.85">
        <g id="Grupo_1153162" data-name="Grupo 1153162">
          <g id="Grupo_1153161" data-name="Grupo 1153161" clip-path="url(#clip-path-3)">
            <path id="Trazado_987699" data-name="Trazado 987699" d="M439.732,0c-2.647.893-5.386,1.693-8.218,2.432-9.48,3.016-19.175,5.325-28.778,7.448-.092.185-.216.369-.308.523-27.27,6.094-53.862,10.742-72.76,26.162A62.641,62.641,0,0,0,317.326,50.6c-24.715,73.468-33.764,153.677-88.95,194.736-.185.123-.339.215-.492.308a4.4,4.4,0,0,1-.462.339,712.219,712.219,0,0,0-69.559,47.153c-1.477,1.139-2.955,2.247-4.4,3.386-.123.092-.246.185-.4.308C95.721,341.611,45.737,394.18,0,451.305V143.951C54.6,104.924,102.154,57.186,143.182,0Z" fill="#fdaf2f"/>
          </g>
        </g>
      </g>
      <path id="Trazado_987700" data-name="Trazado 987700" d="M839.111,0c-26.039,79.132-41.428,161.587-120.252,192.027-8.68,3.847-17.421,7.079-26.1,10.126a5.016,5.016,0,0,0-.339.523c-24.623,8.741-48.507,16.128-66.943,31.979a83.187,83.187,0,0,0-12.558,13.789c-30.809,67.4-48.753,138.719-102.185,181.562-.185.123-.369.246-.585.4-.092.092-.215.185-.308.277-23.453,15.913-45.891,32.871-67.59,50.661A1127.111,1127.111,0,0,0,339.36,578.051H2.12a578.607,578.607,0,0,1,161.341-111.7c3.724-1.693,7.356-3.509,11.08-5.263a807.776,807.776,0,0,0,142.32-86.149c1.354-1.016,2.709-2.062,4.063-3.078q7.248-5.586,14.343-11.3c2.862-2.339,5.694-4.678,8.526-7.048,1.693-1.385,3.355-2.77,5.017-4.186a833.591,833.591,0,0,0,123.7-130.655c8.957-12.158,18.252-23.853,27.793-35.272.092.031.154.062.246.092,23.576-28.316,48.63-54.6,74.33-79.993h-.216C610.242,68.359,647.022,34.9,682.725,0Z" transform="translate(140.405 3004)" fill="#70e8ad"/>
      <g id="Grupo_1153166" data-name="Grupo 1153166" transform="translate(136 3166.329)" opacity="0.65">
        <g id="Grupo_1153165" data-name="Grupo 1153165">
          <g id="Grupo_1153164" data-name="Grupo 1153164" clip-path="url(#clip-path-4)">
            <path id="Trazado_987701" data-name="Trazado 987701" d="M654.222,197.184c-2.97-2.97-8.913-8.913-13.549-4.278-30.779,24.817-57.254,63.185-83.05,65.18-7.6,1.668-21.151-2.638-35.057,11.268q6.962-6.958,13.906-13.906c-2.976-2.973-8.923-8.92-8.923-8.92-21.5,15.568-47.657,35.749-69.153,51.308l-8.913-8.913-9.261,9.261c-30.1-11.579,23.829-59.559,44.016-85.7l-11.893-11.9-9.271,9.27-5.946-5.946c21.4-21.406,40.067-40.071,60.209-60.209-2.967-2.967-5.956-5.956-10.585-1.327,18.535-18.535,44.684-38.71,57.251-63.194,1.656-7.6-11.9-11.9-28.759-.979l-37.067,37.067-5.949-5.946c9.271-9.27,26.134-20.2,32.434-32.431,1.653-7.618-18.2.339-16.54-7.261,4.638-4.641,9.274-9.277,10.939-16.894C505.146,66.659,489.6,88.158,472.718,99.087c-7.6,1.659-15.22,3.309-21.157-2.632-20.175,26.119-47.627,35.725-76.4,34.752-7.919-1-21.222,13.41-33.238,26.546C249.423,221.469,172.51,309.7,78.405,362.511c-7.612,1.659-22.813,4.986-30.437,6.642C31.493,379.236,15.365,392.068,0,406.327v62.136H461.791c8.353-10.588,16.451-21.28,24.312-31.757,4.629-4.629,3.306-15.214-7.267-16.528q6.944-6.944,13.9-13.9c9.258-9.261-4.309-13.564,4.952-22.825,59.261-89,148.245-148.245,213.427-231.279-21.493,15.574-41.348,23.518-56.894,45.007" transform="translate(0 -52.741)" fill="#ff7f8f"/>
          </g>
        </g>
      </g>
      <g id="Grupo_1153169" data-name="Grupo 1153169" transform="translate(136 3103.516)" opacity="0.81">
        <g id="Grupo_1153168" data-name="Grupo 1153168">
          <g id="Grupo_1153167" data-name="Grupo 1153167" clip-path="url(#clip-path-5)">
            <path id="Trazado_987702" data-name="Trazado 987702" d="M160.079,32.333c-55.358,45.648-99.008,99.4-150.368,149.8C8.224,185.339,4.826,190.3,0,196.53V444.6c2.145-.963,4.291-1.939,6.417-2.961Q21.288,425.19,34.838,407.7c-1.776-1.259-3.293-2.539-2.8-4.118,3.226-5.389,10.674-9.834,17.319-15.525.677-1.151,1.351-2.305,2.025-3.426a9.819,9.819,0,0,0-2.222-4.26,75.075,75.075,0,0,1,8.6-6.528c22.394-38.316,43.835-78.534,67.99-121.2,3.3-10.852,6.608-21.708,11.711-30.218,8.556-11.594,24.183-21.619,34.543-30.883-16.079-13.275.886-44.256-18.639-54.447,6.9-6.174,17.276-15.435,13.663-20.12C156.2,102.945,147.029,83.5,157.084,58.7c5.109-8.516,20.825-13.61,20.739-18.529-.157-7.762-17.587-.08-17.744-7.842" transform="translate(0 -32.333)" fill="#57bfff"/>
          </g>
        </g>
      </g>
    </g>
  </g>
</svg>
