<svg xmlns="http://www.w3.org/2000/svg" xmlns:xlink="http://www.w3.org/1999/xlink" width="108" height="108" viewBox="0 0 108 108">
  <defs>
    <filter id="Trazado_982547" x="0" y="0" width="108" height="108" filterUnits="userSpaceOnUse">
      <feOffset dy="3" input="SourceAlpha"/>
      <feGaussianBlur stdDeviation="3" result="blur"/>
      <feFlood flood-opacity="0.161"/>
      <feComposite operator="in" in2="blur"/>
      <feComposite in="SourceGraphic"/>
    </filter>
  </defs>
  <g id="Grupo_1160100" data-name="Grupo 1160100" transform="translate(-166 -10273)">
    <g id="Grupo_1159936" data-name="Grupo 1159936" transform="translate(0 5159)">
      <g id="Grupo_1153202" data-name="Grupo 1153202" transform="translate(-88 4601)">
        <g id="Grupo_1149598" data-name="Grupo 1149598" transform="translate(80 315)">
          <g id="Grupo_1148770" data-name="Grupo 1148770" transform="translate(-27 -2583)">
            <g id="Grupo_1146954" data-name="Grupo 1146954" transform="translate(-415 -1202)">
              <g transform="matrix(1, 0, 0, 1, 616, 3983)" filter="url(#Trazado_982547)">
                <g id="Trazado_982547-2" data-name="Trazado 982547" transform="translate(9 6)" fill="#fef4f5">
                  <path d="M 45 88.5 C 39.12687683105469 88.5 33.43022537231445 87.35007476806641 28.06830024719238 85.08217620849609 C 22.88852500915527 82.89131164550781 18.23629951477051 79.75458526611328 14.2408504486084 75.75914764404297 C 10.24541282653809 71.76370239257812 7.108687400817871 67.11147308349609 4.917825222015381 61.93170166015625 C 2.649924993515015 56.56977462768555 1.5 50.87312316894531 1.5 45 C 1.5 39.12687683105469 2.649924993515015 33.43022537231445 4.917825222015381 28.06830024719238 C 7.108687400817871 22.88852500915527 10.24541282653809 18.23629951477051 14.2408504486084 14.2408504486084 C 18.23629951477051 10.24541282653809 22.88852500915527 7.108687400817871 28.06830024719238 4.917825222015381 C 33.43022537231445 2.649924993515015 39.12687683105469 1.5 45 1.5 C 50.87312316894531 1.5 56.56977462768555 2.649924993515015 61.93170166015625 4.917825222015381 C 67.11147308349609 7.108687400817871 71.76370239257812 10.24541282653809 75.75914764404297 14.2408504486084 C 79.75458526611328 18.23629951477051 82.89131164550781 22.88852500915527 85.08217620849609 28.06830024719238 C 87.35007476806641 33.43022537231445 88.5 39.12687683105469 88.5 45 C 88.5 50.87312316894531 87.35007476806641 56.56977462768555 85.08217620849609 61.93170166015625 C 82.89131164550781 67.11147308349609 79.75458526611328 71.76370239257812 75.75914764404297 75.75914764404297 C 71.76370239257812 79.75458526611328 67.11147308349609 82.89131164550781 61.93170166015625 85.08217620849609 C 56.56977462768555 87.35007476806641 50.87312316894531 88.5 45 88.5 Z" stroke="none"/>
                  <path d="M 45 3 C 39.32871246337891 3 33.82865524291992 4.110054016113281 28.65262985229492 6.299339294433594 C 23.65165710449219 8.414573669433594 19.15968322753906 11.44334411621094 15.301513671875 15.301513671875 C 11.44334411621094 19.15968322753906 8.414573669433594 23.65165710449219 6.299339294433594 28.65262985229492 C 4.110054016113281 33.82865524291992 3 39.32871246337891 3 45 C 3 50.67128753662109 4.110054016113281 56.17134475708008 6.299339294433594 61.34737396240234 C 8.414573669433594 66.34834289550781 11.44334411621094 70.84031677246094 15.301513671875 74.698486328125 C 19.15968322753906 78.55665588378906 23.65165710449219 81.58542633056641 28.65262985229492 83.70066070556641 C 33.82865524291992 85.88994598388672 39.32871246337891 87 45 87 C 50.67128753662109 87 56.17134475708008 85.88994598388672 61.34737396240234 83.70066070556641 C 66.34834289550781 81.58542633056641 70.84031677246094 78.55665588378906 74.698486328125 74.698486328125 C 78.55665588378906 70.84031677246094 81.58542633056641 66.34834289550781 83.70066070556641 61.34737396240234 C 85.88994598388672 56.17134475708008 87 50.67128753662109 87 45 C 87 39.32871246337891 85.88994598388672 33.82865524291992 83.70066070556641 28.65262985229492 C 81.58542633056641 23.65165710449219 78.55665588378906 19.15968322753906 74.698486328125 15.301513671875 C 70.84031677246094 11.44334411621094 66.34834289550781 8.414573669433594 61.34737396240234 6.299339294433594 C 56.17134475708008 4.110054016113281 50.67128753662109 3 45 3 M 45 0 C 69.85281372070312 0 90 20.14718627929688 90 45 C 90 69.85281372070312 69.85281372070312 90 45 90 C 20.14718627929688 90 0 69.85281372070312 0 45 C 0 20.14718627929688 20.14718627929688 0 45 0 Z" stroke="none" fill="#ff7f8f"/>
                </g>
              </g>
            </g>
          </g>
        </g>
      </g>
    </g>
    <g id="inclusion_1_" data-name="inclusion (1)" transform="translate(162.079 10261.9)">
      <g id="Grupo_1160099" data-name="Grupo 1160099" transform="translate(26.868 31.047)">
        <path id="Trazado_993146" data-name="Trazado 993146" d="M42.29,204.86h21.5v5.26a5.276,5.276,0,0,1-5.26,5.26H47.55a5.273,5.273,0,0,1-5.26-5.26Z" transform="translate(-41.023 -182.171)" fill="#fdcb0f" fill-rule="evenodd"/>
        <path id="Trazado_993147" data-name="Trazado 993147" d="M67.12,204.86H85.258v5.26A5.276,5.276,0,0,1,80,215.38H72.377a5.273,5.273,0,0,1-5.256-5.26v-5.26Z" transform="translate(-62.495 -182.171)" fill="#fde01b" fill-rule="evenodd"/>
        <path id="Trazado_993148" data-name="Trazado 993148" d="M315.81,204.86h21.5v5.26a5.276,5.276,0,0,1-5.26,5.26H321.07a5.273,5.273,0,0,1-5.26-5.26Z" transform="translate(-277.55 -182.171)" fill="#fdcb0f" fill-rule="evenodd"/>
        <path id="Trazado_993149" data-name="Trazado 993149" d="M340.64,204.86h18.138v5.26a5.276,5.276,0,0,1-5.26,5.26H345.9a5.273,5.273,0,0,1-5.26-5.26v-5.26Z" transform="translate(-299.022 -182.171)" fill="#fde01b" fill-rule="evenodd"/>
        <path id="Trazado_993150" data-name="Trazado 993150" d="M80.5,112.708v1.967a1.309,1.309,0,0,0,1.308,1.3h45.538a1.311,1.311,0,0,0,1.308-1.3v-1.967a1.312,1.312,0,0,0-1.308-1.308H81.808A1.31,1.31,0,0,0,80.5,112.708Z" transform="translate(-74.065 -101.351)" fill="#fde01b" fill-rule="evenodd"/>
        <path id="Trazado_993151" data-name="Trazado 993151" d="M80.5,128.976v.982a.655.655,0,0,0,.656.652H128a.655.655,0,0,0,.656-.652v-.982a.658.658,0,0,0-.656-.656H81.156A.659.659,0,0,0,80.5,128.976Z" transform="translate(-74.065 -115.983)" fill="#fdcb0f" fill-rule="evenodd"/>
        <path id="Trazado_993152" data-name="Trazado 993152" d="M235.47,77.92H241.7v36.042H235.47Z" transform="translate(-208.076 -72.399)" fill="#fdcb0f" fill-rule="evenodd"/>
        <path id="Trazado_993153" data-name="Trazado 993153" d="M258.52,77.92h3.117v36.042H258.52Z" transform="translate(-228.008 -72.399)" fill="#fde01b" fill-rule="evenodd"/>
        <path id="Trazado_993154" data-name="Trazado 993154" d="M296.874,289.283H290.1c-4.957,0-7.713,4.056-7.713,9.017v8.492h16.73V294.9l9.627-10.006a2.549,2.549,0,0,0-3.6-3.6Z" transform="translate(-248.65 -247.597)" fill="#97d729" fill-rule="evenodd"/>
        <path id="Trazado_993155" data-name="Trazado 993155" d="M295.6,318.795h14.944V306.9l9.627-10.006a1.459,1.459,0,1,0-1.822-1.724l-8.269,7.993h-6.766c-4.961,0-7.713,4.056-7.713,9.013Z" transform="translate(-260.073 -259.6)" fill="#a2e62e" fill-rule="evenodd"/>
        <path id="Trazado_993156" data-name="Trazado 993156" d="M320.614,273.68a5.394,5.394,0,1,0,5.394,5.394A5.394,5.394,0,0,0,320.614,273.68Z" transform="translate(-277.04 -241.683)" fill="#ffb09e" fill-rule="evenodd"/>
        <path id="Trazado_993157" data-name="Trazado 993157" d="M320.614,273.68a3.2,3.2,0,1,0,2.067.41A5.394,5.394,0,0,0,320.614,273.68Z" transform="translate(-277.04 -241.683)" fill="#ffcebf" fill-rule="evenodd"/>
        <path id="Trazado_993158" data-name="Trazado 993158" d="M45.58,289.283h6.766c4.961,0,7.713,4.056,7.713,9.017v8.492H43.334V294.9l-9.627-10.006a2.549,2.549,0,0,1,3.6-3.6Z" transform="translate(-32.938 -247.597)" fill="#0ab69f" fill-rule="evenodd"/>
        <path id="Trazado_993159" data-name="Trazado 993159" d="M58.264,318.795H43.32V306.9L33.693,296.9a2.449,2.449,0,0,1-.69-2.38,2.44,2.44,0,0,1,2.512.656l8.269,7.993H50.55c4.957,0,7.713,4.056,7.713,9.013Z" transform="translate(-32.924 -259.6)" fill="#0ed2b3" fill-rule="evenodd"/>
        <path id="Trazado_993160" data-name="Trazado 993160" d="M126.294,273.68a5.394,5.394,0,1,1-5.394,5.394A5.391,5.391,0,0,1,126.294,273.68Z" transform="translate(-109.001 -241.683)" fill="#ffb09e" fill-rule="evenodd"/>
        <path id="Trazado_993161" data-name="Trazado 993161" d="M138.322,273.68a5.4,5.4,0,0,1,3.948,9.067,5.394,5.394,0,0,1-6.015-8.657A5.39,5.39,0,0,1,138.322,273.68Z" transform="translate(-121.03 -241.683)" fill="#ffcebf" fill-rule="evenodd"/>
        <path id="Trazado_993162" data-name="Trazado 993162" d="M183.191,378.292h20.028V367.117A5.632,5.632,0,0,0,197.6,361.5h-8.8a5.632,5.632,0,0,0-5.617,5.617v11.176Z" transform="translate(-162.867 -317.625)" fill="#0593fc" fill-rule="evenodd"/>
        <path id="Trazado_993163" data-name="Trazado 993163" d="M213.82,378.292h15.888V367.117a5.632,5.632,0,0,0-5.617-5.617h-4.654a5.632,5.632,0,0,0-5.617,5.617Z" transform="translate(-189.354 -317.625)" fill="#26a6fe" fill-rule="evenodd"/>
        <path id="Trazado_993164" data-name="Trazado 993164" d="M220.523,286.5a5.745,5.745,0,1,1-5.743,5.747A5.743,5.743,0,0,1,220.523,286.5Z" transform="translate(-190.184 -252.769)" fill="#ffb09e" fill-rule="evenodd"/>
        <path id="Trazado_993165" data-name="Trazado 993165" d="M237.186,286.5a5.747,5.747,0,0,1,3.837,10.022,5.9,5.9,0,0,1-1.227.13,5.742,5.742,0,0,1-3.837-10.018,5.644,5.644,0,0,1,1.227-.134Z" transform="translate(-206.848 -252.769)" fill="#ffcebf" fill-rule="evenodd"/>
        <path id="Trazado_993166" data-name="Trazado 993166" d="M196.189,37.1a9.749,9.749,0,1,1-9.749,9.75,9.751,9.751,0,0,1,9.749-9.75Z" transform="translate(-165.677 -37.1)" fill="#66f" fill-rule="evenodd"/>
        <path id="Trazado_993167" data-name="Trazado 993167" d="M213.415,37.1A9.752,9.752,0,0,1,219.5,54.467a9.753,9.753,0,0,1-9.481-16.761,9.775,9.775,0,0,1,3.393-.606Z" transform="translate(-182.903 -37.1)" fill="#99f" fill-rule="evenodd"/>
      </g>
      <path id="Trazado_993168" data-name="Trazado 993168" d="M62.433,41.564a.947.947,0,1,1,1.872.284,7.008,7.008,0,0,1-11.08,4.581.948.948,0,0,1-1.542-.548l-.3-1.637a.943.943,0,0,1,1.242-1.058v0l1.568.56a.946.946,0,0,1,.483,1.4A5.118,5.118,0,0,0,62.433,41.564Zm-.9-6.4a.944.944,0,0,1,1.538.548l.3,1.637a.942.942,0,0,1-1.242,1.058v0l-1.565-.56a.949.949,0,0,1-.487-1.4,5.114,5.114,0,0,0-7.752,3.573.946.946,0,0,1-1.872-.28,7.01,7.01,0,0,1,11.081-4.584ZM57.38,30.1A10.7,10.7,0,0,1,68.056,40.149H80.148A2.255,2.255,0,0,1,82.4,42.4V44.37a2.254,2.254,0,0,1-2.251,2.251h-.817l6.643,6.169h.648a.95.95,0,0,1,.947.947V59a6.171,6.171,0,0,1-1.591,4.137,3.873,3.873,0,0,1,.418.138A3.485,3.485,0,0,1,87.642,69l-9.358,9.726V90.241a.949.949,0,0,1-.947.947h-9.17v.525a.95.95,0,0,1-.947.947H47.193a.947.947,0,0,1-.947-.947v-.525H37.263a.947.947,0,0,1-.947-.947V78.725L26.958,69A3.482,3.482,0,0,1,28.2,63.271a3.437,3.437,0,0,1,.544-.173A6.164,6.164,0,0,1,27.187,59v-5.26a.95.95,0,0,1,.947-.947h.648l6.641-6.169a2.847,2.847,0,0,1-2.4-.66,2.247,2.247,0,0,1-.663-1.591V42.4a2.258,2.258,0,0,1,2.255-2.255H46.7A10.7,10.7,0,0,1,57.38,30.1ZM68,42.042a10.416,10.416,0,0,1-.675,2.683h12.82a.361.361,0,0,0,.36-.357V42.4a.364.364,0,0,0-.36-.36Zm-1.653,4.578A10.734,10.734,0,0,1,61.444,50.7V65.344a6.692,6.692,0,0,1,1.779,8.108,7.811,7.811,0,0,1,2.169-1.185,6.336,6.336,0,0,1,.9-8.622A6.232,6.232,0,0,1,64.18,59v-5.26a.95.95,0,0,1,.947-.947h.648l6.641-6.169Zm-6.8,4.654a10.926,10.926,0,0,1-4.344,0V64.137a6.714,6.714,0,0,1,4.344.115ZM53.316,50.7A10.753,10.753,0,0,1,48.4,46.621H42.34l6.643,6.169h.648a.95.95,0,0,1,.947.947V59a6.212,6.212,0,0,1-2.19,4.719,6.345,6.345,0,0,1,.821,8.557,7.854,7.854,0,0,1,1.883.97,6.691,6.691,0,0,1,2.223-8.162Zm-5.889-5.97a10.772,10.772,0,0,1-.675-2.683H34.611a.364.364,0,0,0-.36.36v1.967a.362.362,0,0,0,.36.357ZM63.6,34.571a8.8,8.8,0,1,0,0,12.452A8.806,8.806,0,0,0,63.6,34.571ZM51,90.767V83.088a.947.947,0,0,1,1.893,0v7.679h8.634V83.088a.947.947,0,1,1,1.893,0v7.679h2.856V80.534a4.686,4.686,0,0,0-4.67-4.67h-.372a6.676,6.676,0,0,1-8.05,0H52.81a4.686,4.686,0,0,0-4.67,4.67V90.767Zm9.6-23.636A4.8,4.8,0,1,0,62,70.524,4.8,4.8,0,0,0,60.6,67.131Zm4.068,7.6a6.583,6.583,0,0,1,3.5,5.8v8.76h8.223V78.349a.955.955,0,0,1,.314-.706l9.577-9.957a1.6,1.6,0,0,0-.594-2.664h0a1.525,1.525,0,0,0-1.672.395l-8.269,7.993a.935.935,0,0,1-.652.265v0H74.011a6.355,6.355,0,0,1-6.973.108,6.181,6.181,0,0,0-1.76.587,6.628,6.628,0,0,0-.61.36ZM46.246,89.294v-8.76a6.584,6.584,0,0,1,3.6-5.855,5.5,5.5,0,0,0-.541-.318,6.124,6.124,0,0,0-1.749-.575,6.349,6.349,0,0,1-6.969-.108H39.511v0a.939.939,0,0,1-.656-.265l-8.269-7.993a1.523,1.523,0,0,0-1.672-.395,1.6,1.6,0,0,0-.594,2.664L37.9,77.643a.947.947,0,0,1,.311.706V89.294ZM44.161,62.1a6.285,6.285,0,0,1,2.535.529A4.309,4.309,0,0,0,48.685,59V54.683h-19.6V59a4.329,4.329,0,0,0,4.313,4.313h7.036a6.308,6.308,0,0,1,3.73-1.212ZM38,69.964a6.34,6.34,0,0,1,.7-4.762H33.395c-.111,0-.219,0-.326-.008Zm9.3-4.673a4.45,4.45,0,1,0,1.3,3.149A4.45,4.45,0,0,0,47.3,65.292Zm23.138-1.3a4.447,4.447,0,1,0,2.8.993,4.445,4.445,0,0,0-2.8-.993ZM68,62.584a6.348,6.348,0,0,1,6.169.725h7.2A4.329,4.329,0,0,0,85.678,59V54.683h-19.6V59A4.293,4.293,0,0,0,68,62.584ZM75.9,65.2a6.365,6.365,0,0,1,.7,4.762L81.526,65.2c-.054,0-.107,0-.161,0H75.9ZM39.564,46.621H38.2l-6.641,6.169H46.2Zm36.993,0H75.192l-6.641,6.169H83.2Z" transform="translate(0)"/>
    </g>
  </g>
</svg>
