<svg xmlns="http://www.w3.org/2000/svg" xmlns:xlink="http://www.w3.org/1999/xlink" width="108" height="108" viewBox="0 0 108 108">
  <defs>
    <filter id="Trazado_982547" x="0" y="0" width="108" height="108" filterUnits="userSpaceOnUse">
      <feOffset dy="3" input="SourceAlpha"/>
      <feGaussianBlur stdDeviation="3" result="blur"/>
      <feFlood flood-opacity="0.161"/>
      <feComposite operator="in" in2="blur"/>
      <feComposite in="SourceGraphic"/>
    </filter>
  </defs>
  <g id="Grupo_1160114" data-name="Grupo 1160114" transform="translate(-196 -1977)">
    <g id="Grupo_1159963" data-name="Grupo 1159963" transform="translate(205 1983)">
      <g id="Grupo_1153177" data-name="Grupo 1153177" transform="translate(0)">
        <g id="Grupo_1149598" data-name="Grupo 1149598">
          <g id="Grupo_1148770" data-name="Grupo 1148770">
            <g id="Grupo_1146954" data-name="Grupo 1146954">
              <g transform="matrix(1, 0, 0, 1, -9, -6)" filter="url(#Trazado_982547)">
                <g id="Trazado_982547-2" data-name="Trazado 982547" transform="translate(9 6)" fill="#fef4f5">
                  <path d="M 45 88.5 C 39.12687683105469 88.5 33.43022537231445 87.35007476806641 28.06830024719238 85.08217620849609 C 22.88852500915527 82.89131164550781 18.23629951477051 79.75458526611328 14.2408504486084 75.75914764404297 C 10.24541282653809 71.76370239257812 7.108687400817871 67.11147308349609 4.917825222015381 61.93170166015625 C 2.649924993515015 56.56977462768555 1.5 50.87312316894531 1.5 45 C 1.5 39.12687683105469 2.649924993515015 33.43022537231445 4.917825222015381 28.06830024719238 C 7.108687400817871 22.88852500915527 10.24541282653809 18.23629951477051 14.2408504486084 14.2408504486084 C 18.23629951477051 10.24541282653809 22.88852500915527 7.108687400817871 28.06830024719238 4.917825222015381 C 33.43022537231445 2.649924993515015 39.12687683105469 1.5 45 1.5 C 50.87312316894531 1.5 56.56977462768555 2.649924993515015 61.93170166015625 4.917825222015381 C 67.11147308349609 7.108687400817871 71.76370239257812 10.24541282653809 75.75914764404297 14.2408504486084 C 79.75458526611328 18.23629951477051 82.89131164550781 22.88852500915527 85.08217620849609 28.06830024719238 C 87.35007476806641 33.43022537231445 88.5 39.12687683105469 88.5 45 C 88.5 50.87312316894531 87.35007476806641 56.56977462768555 85.08217620849609 61.93170166015625 C 82.89131164550781 67.11147308349609 79.75458526611328 71.76370239257812 75.75914764404297 75.75914764404297 C 71.76370239257812 79.75458526611328 67.11147308349609 82.89131164550781 61.93170166015625 85.08217620849609 C 56.56977462768555 87.35007476806641 50.87312316894531 88.5 45 88.5 Z" stroke="none"/>
                  <path d="M 45 3 C 39.32871246337891 3 33.82865524291992 4.110054016113281 28.65262985229492 6.299339294433594 C 23.65165710449219 8.414573669433594 19.15968322753906 11.44334411621094 15.301513671875 15.301513671875 C 11.44334411621094 19.15968322753906 8.414573669433594 23.65165710449219 6.299339294433594 28.65262985229492 C 4.110054016113281 33.82865524291992 3 39.32871246337891 3 45 C 3 50.67128753662109 4.110054016113281 56.17134475708008 6.299339294433594 61.34737396240234 C 8.414573669433594 66.34834289550781 11.44334411621094 70.84031677246094 15.301513671875 74.698486328125 C 19.15968322753906 78.55665588378906 23.65165710449219 81.58542633056641 28.65262985229492 83.70066070556641 C 33.82865524291992 85.88994598388672 39.32871246337891 87 45 87 C 50.67128753662109 87 56.17134475708008 85.88994598388672 61.34737396240234 83.70066070556641 C 66.34834289550781 81.58542633056641 70.84031677246094 78.55665588378906 74.698486328125 74.698486328125 C 78.55665588378906 70.84031677246094 81.58542633056641 66.34834289550781 83.70066070556641 61.34737396240234 C 85.88994598388672 56.17134475708008 87 50.67128753662109 87 45 C 87 39.32871246337891 85.88994598388672 33.82865524291992 83.70066070556641 28.65262985229492 C 81.58542633056641 23.65165710449219 78.55665588378906 19.15968322753906 74.698486328125 15.301513671875 C 70.84031677246094 11.44334411621094 66.34834289550781 8.414573669433594 61.34737396240234 6.299339294433594 C 56.17134475708008 4.110054016113281 50.67128753662109 3 45 3 M 45 0 C 69.85281372070312 0 90 20.14718627929688 90 45 C 90 69.85281372070312 69.85281372070312 90 45 90 C 20.14718627929688 90 0 69.85281372070312 0 45 C 0 20.14718627929688 20.14718627929688 0 45 0 Z" stroke="none" fill="#ff7f8f"/>
                </g>
              </g>
            </g>
          </g>
        </g>
      </g>
    </g>
    <g id="XMLID_1020_" transform="translate(222 2000)">
      <g id="XMLID_1910_" transform="translate(0.813 0.813)">
        <circle id="XMLID_1515_" cx="26.846" cy="26.846" r="26.846" transform="translate(0 0)" fill="#80b6ff"/>
        <g id="Grupo_1160113" data-name="Grupo 1160113" transform="translate(0.271 6.215)">
          <path id="XMLID_1106_" d="M20.34,103.621H15.733A26.56,26.56,0,0,0,10,120.144a26.9,26.9,0,0,0,.256,3.7h.087a9.609,9.609,0,0,0,9.173-6.748,9.609,9.609,0,0,1,3.454-4.861l.17-.126a4.7,4.7,0,0,0-2.8-8.485Z" transform="translate(-10 -99.414)" fill="#89df8f"/>
          <path id="XMLID_1674_" d="M326.255,72.958a8.135,8.135,0,0,0,3.728,6.838l2.821,1.818a5.231,5.231,0,0,1,.28,8.6,5.279,5.279,0,0,0-2.137,4.242,3.892,3.892,0,0,0,3.892,3.892h7.207a26.684,26.684,0,0,0-6.624-33.527H334.39A8.135,8.135,0,0,0,326.255,72.958Z" transform="translate(-291.963 -64.823)" fill="#89df8f"/>
        </g>
      </g>
      <path id="XMLID_1821_" d="M100.893,345.586h0A8.891,8.891,0,0,0,92,354.477v5.469h17.783v-5.469a8.891,8.891,0,0,0-8.891-8.891Z" transform="translate(-82.025 -308.113)" fill="#c5d3de"/>
      <path id="XMLID_1820_" d="M142.86,266.579h0a3.787,3.787,0,0,0-3.787,3.787v.9a3.787,3.787,0,0,0,3.787,3.787h0a3.787,3.787,0,0,0,3.787-3.787v-.9A3.787,3.787,0,0,0,142.86,266.579Z" transform="translate(-123.992 -237.673)" fill="#f2b394"/>
      <path id="XMLID_1824_" d="M264.893,345.586h0a8.891,8.891,0,0,1,8.891,8.891v5.469H256v-5.469A8.891,8.891,0,0,1,264.893,345.586Z" transform="translate(-228.243 -308.113)" fill="#ffcd69"/>
      <path id="XMLID_1823_" d="M306.862,266.579h0a3.787,3.787,0,0,1,3.787,3.787v.9a3.787,3.787,0,0,1-3.787,3.787h0a3.787,3.787,0,0,1-3.787-3.787v-.9A3.787,3.787,0,0,1,306.862,266.579Z" transform="translate(-270.212 -237.673)" fill="#f2b394"/>
      <path id="XMLID_1807_" d="M18.892,420h0A8.891,8.891,0,0,0,10,428.891H27.783A8.891,8.891,0,0,0,18.892,420Z" transform="translate(-8.916 -374.459)" fill="#ffcd69"/>
      <path id="XMLID_1806_" d="M60.86,340.993h0a3.787,3.787,0,0,0-3.787,3.787v.9a3.787,3.787,0,0,0,3.787,3.787h0a3.787,3.787,0,0,0,3.787-3.787v-.9A3.787,3.787,0,0,0,60.86,340.993Z" transform="translate(-50.884 -304.019)" fill="#f5c6af"/>
      <path id="XMLID_1812_" d="M182.892,420h0A8.891,8.891,0,0,0,174,428.891h17.783A8.891,8.891,0,0,0,182.892,420Z" transform="translate(-155.133 -374.459)" fill="#ff7d97"/>
      <path id="XMLID_1811_" d="M224.86,340.993h0a3.787,3.787,0,0,0-3.787,3.787v.9a3.787,3.787,0,0,0,3.787,3.787h0a3.787,3.787,0,0,0,3.787-3.787v-.9A3.787,3.787,0,0,0,224.86,340.993Z" transform="translate(-197.101 -304.019)" fill="#f2b394"/>
      <path id="XMLID_1816_" d="M346.892,420h0A8.891,8.891,0,0,0,338,428.891h17.783A8.891,8.891,0,0,0,346.892,420Z" transform="translate(-301.35 -374.459)" fill="#c5d3de"/>
      <path id="XMLID_1815_" d="M388.86,340.993h0a3.787,3.787,0,0,0-3.787,3.787v.9a3.787,3.787,0,0,0,3.787,3.787h0a3.787,3.787,0,0,0,3.787-3.787v-.9A3.787,3.787,0,0,0,388.86,340.993Z" transform="translate(-343.318 -304.019)" fill="#f5c6af"/>
      <path id="XMLID_1906_" d="M198.421,137.465a4.245,4.245,0,0,0,4.356.925,4.846,4.846,0,0,0,3.216-4.564v-2.069a3.756,3.756,0,0,0-7.049-1.807l-1.317,2.4A4.245,4.245,0,0,0,198.421,137.465Z" transform="translate(-175.732 -114.121)" fill="#89df8f"/>
      <g id="XMLID_4_" transform="translate(0 0)">
        <path id="XMLID_768_" d="M49.344,45.211a27.808,27.808,0,0,0,5.1-25.128,1.084,1.084,0,0,0-2.084.6,25.662,25.662,0,0,1-2.035,19.151,4.879,4.879,0,0,0-4.781-3.942h0a4.864,4.864,0,0,0-3.835,1.873c-.137-.081-.276-.16-.417-.234a2.8,2.8,0,0,1-.137-.866,4.212,4.212,0,0,1,1.7-3.371,6.315,6.315,0,0,0-.338-10.384l-2.821-1.818a7.051,7.051,0,0,1,3.82-12.978h.66a25.982,25.982,0,0,1,3.994,4.2,1.084,1.084,0,1,0,1.728-1.31A28.011,28.011,0,0,0,40.316,3,27.764,27.764,0,0,0,0,27.759,27.688,27.688,0,0,0,6.174,45.211,9.991,9.991,0,0,0,0,54.433a1.084,1.084,0,0,0,1.084,1.084H54.433a1.085,1.085,0,0,0,1.084-1.085,9.991,9.991,0,0,0-6.173-9.221ZM12.679,40.762v.9a2.7,2.7,0,0,1-5.406,0v-.9a2.706,2.706,0,0,1,2.7-2.7h0A2.706,2.706,0,0,1,12.679,40.762Zm2.169.9v-.9a4.869,4.869,0,0,0-.109-1.024,7.811,7.811,0,0,1,8.258,0,4.868,4.868,0,0,0-.109,1.024v.9a4.855,4.855,0,0,0,1.4,3.415,10.032,10.032,0,0,0-5.421,4.832,10.032,10.032,0,0,0-5.421-4.832,4.855,4.855,0,0,0,1.4-3.415ZM21.57,33.6a2.7,2.7,0,0,1-5.406,0v-.9a2.706,2.706,0,0,1,2.7-2.7h0a2.706,2.706,0,0,1,2.7,2.7Zm8.891,7.165v.9a2.7,2.7,0,0,1-5.406,0v-.9a2.706,2.706,0,0,1,2.7-2.7h0A2.706,2.706,0,0,1,30.462,40.762Zm2.169.9v-.9a4.874,4.874,0,0,0-.109-1.024,7.813,7.813,0,0,1,8.258,0,4.869,4.869,0,0,0-.11,1.025v.9a4.855,4.855,0,0,0,1.4,3.415,10.032,10.032,0,0,0-5.421,4.832,10.032,10.032,0,0,0-5.421-4.832,4.855,4.855,0,0,0,1.4-3.415ZM39.353,33.6a2.7,2.7,0,0,1-5.406,0v-.9a2.706,2.706,0,0,1,2.7-2.7h0a2.706,2.706,0,0,1,2.7,2.7v.9Zm6.188,4.462h0a2.706,2.706,0,0,1,2.7,2.7v.9a2.7,2.7,0,0,1-5.406,0v-.9A2.706,2.706,0,0,1,45.541,38.059ZM27.759,2.169A25.44,25.44,0,0,1,41.52,6.163a9.219,9.219,0,0,0-3,16.75l2.821,1.818a4.147,4.147,0,0,1,.222,6.818c-.051.038-.1.078-.148.117a4.879,4.879,0,0,0-4.762-3.845h0a4.877,4.877,0,0,0-4.871,4.872v.9a4.855,4.855,0,0,0,1.4,3.412,9.844,9.844,0,0,0-1.584.754,4.864,4.864,0,0,0-3.834-1.872h0a4.864,4.864,0,0,0-3.834,1.872,9.858,9.858,0,0,0-1.584-.754,4.855,4.855,0,0,0,1.4-3.412v-.9a4.877,4.877,0,0,0-4.872-4.872h0A4.877,4.877,0,0,0,14,32.693v.9a4.854,4.854,0,0,0,1.4,3.412,9.849,9.849,0,0,0-1.584.754A4.864,4.864,0,0,0,9.976,35.89h0a4.879,4.879,0,0,0-4.782,3.943,25.492,25.492,0,0,1-2.59-7.36A10.611,10.611,0,0,0,7.764,30.46a10.622,10.622,0,0,0,3.872-5.43A8.471,8.471,0,0,1,14.7,20.717l.169-.126a5.789,5.789,0,0,0-3.445-10.44H9.206A25.52,25.52,0,0,1,27.759,2.169ZM7.364,12.32h4.06a3.62,3.62,0,0,1,2.154,6.529l-.169.126a10.624,10.624,0,0,0-3.844,5.409A8.482,8.482,0,0,1,2.3,30.325q-.128-1.273-.13-2.567a25.457,25.457,0,0,1,5.2-15.438ZM2.244,53.348a7.819,7.819,0,0,1,7.732-6.723h0a7.819,7.819,0,0,1,7.732,6.723Zm17.783,0a7.819,7.819,0,0,1,7.732-6.723h0a7.819,7.819,0,0,1,7.732,6.723Zm17.783,0a7.819,7.819,0,0,1,7.732-6.723h0a7.819,7.819,0,0,1,7.732,6.723Z" transform="translate(0 0)"/>
        <path id="XMLID_1169_" d="M188.768,129.334a5.306,5.306,0,0,0,5.469,1.161,5.943,5.943,0,0,0,3.936-5.585V122.84a4.84,4.84,0,0,0-9.084-2.328l-1.317,2.4A5.335,5.335,0,0,0,188.768,129.334Zm.905-5.378,1.317-2.4A2.672,2.672,0,0,1,196,122.84v2.069a3.77,3.77,0,0,1-2.5,3.543,3.161,3.161,0,0,1-3.834-4.5Z" transform="translate(-166.827 -105.205)"/>
        <path id="XMLID_1178_" d="M467.2,138.219a1.085,1.085,0,1,0-.767-.318A1.092,1.092,0,0,0,467.2,138.219Z" transform="translate(-415.578 -121.298)"/>
      </g>
    </g>
  </g>
</svg>
