<svg xmlns="http://www.w3.org/2000/svg" xmlns:xlink="http://www.w3.org/1999/xlink" width="108" height="108" viewBox="0 0 108 108">
  <defs>
    <filter id="Trazado_982547" x="0" y="0" width="108" height="108" filterUnits="userSpaceOnUse">
      <feOffset dy="3" input="SourceAlpha"/>
      <feGaussianBlur stdDeviation="3" result="blur"/>
      <feFlood flood-opacity="0.161"/>
      <feComposite operator="in" in2="blur"/>
      <feComposite in="SourceGraphic"/>
    </filter>
  </defs>
  <g id="Grupo_1160105" data-name="Grupo 1160105" transform="translate(-166 -1742)">
    <g id="Grupo_1159948" data-name="Grupo 1159948" transform="translate(0 -3372)">
      <g id="Grupo_1153202" data-name="Grupo 1153202" transform="translate(-88 4601)">
        <g id="Grupo_1149598" data-name="Grupo 1149598" transform="translate(80 315)">
          <g id="Grupo_1148770" data-name="Grupo 1148770" transform="translate(-27 -2583)">
            <g id="Grupo_1146954" data-name="Grupo 1146954" transform="translate(-415 -1202)">
              <g transform="matrix(1, 0, 0, 1, 616, 3983)" filter="url(#Trazado_982547)">
                <g id="Trazado_982547-2" data-name="Trazado 982547" transform="translate(9 6)" fill="#f4f8fc">
                  <path d="M 45 88.5 C 39.12687683105469 88.5 33.43022537231445 87.35007476806641 28.06830024719238 85.08217620849609 C 22.88852500915527 82.89131164550781 18.23629951477051 79.75458526611328 14.2408504486084 75.75914764404297 C 10.24541282653809 71.76370239257812 7.108687400817871 67.11147308349609 4.917825222015381 61.93170166015625 C 2.649924993515015 56.56977462768555 1.5 50.87312316894531 1.5 45 C 1.5 39.12687683105469 2.649924993515015 33.43022537231445 4.917825222015381 28.06830024719238 C 7.108687400817871 22.88852500915527 10.24541282653809 18.23629951477051 14.2408504486084 14.2408504486084 C 18.23629951477051 10.24541282653809 22.88852500915527 7.108687400817871 28.06830024719238 4.917825222015381 C 33.43022537231445 2.649924993515015 39.12687683105469 1.5 45 1.5 C 50.87312316894531 1.5 56.56977462768555 2.649924993515015 61.93170166015625 4.917825222015381 C 67.11147308349609 7.108687400817871 71.76370239257812 10.24541282653809 75.75914764404297 14.2408504486084 C 79.75458526611328 18.23629951477051 82.89131164550781 22.88852500915527 85.08217620849609 28.06830024719238 C 87.35007476806641 33.43022537231445 88.5 39.12687683105469 88.5 45 C 88.5 50.87312316894531 87.35007476806641 56.56977462768555 85.08217620849609 61.93170166015625 C 82.89131164550781 67.11147308349609 79.75458526611328 71.76370239257812 75.75914764404297 75.75914764404297 C 71.76370239257812 79.75458526611328 67.11147308349609 82.89131164550781 61.93170166015625 85.08217620849609 C 56.56977462768555 87.35007476806641 50.87312316894531 88.5 45 88.5 Z" stroke="none"/>
                  <path d="M 45 3 C 39.32871246337891 3 33.82865524291992 4.110054016113281 28.65262985229492 6.299339294433594 C 23.65165710449219 8.414573669433594 19.15968322753906 11.44334411621094 15.301513671875 15.301513671875 C 11.44334411621094 19.15968322753906 8.414573669433594 23.65165710449219 6.299339294433594 28.65262985229492 C 4.110054016113281 33.82865524291992 3 39.32871246337891 3 45 C 3 50.67128753662109 4.110054016113281 56.17134475708008 6.299339294433594 61.34737396240234 C 8.414573669433594 66.34834289550781 11.44334411621094 70.84031677246094 15.301513671875 74.698486328125 C 19.15968322753906 78.55665588378906 23.65165710449219 81.58542633056641 28.65262985229492 83.70066070556641 C 33.82865524291992 85.88994598388672 39.32871246337891 87 45 87 C 50.67128753662109 87 56.17134475708008 85.88994598388672 61.34737396240234 83.70066070556641 C 66.34834289550781 81.58542633056641 70.84031677246094 78.55665588378906 74.698486328125 74.698486328125 C 78.55665588378906 70.84031677246094 81.58542633056641 66.34834289550781 83.70066070556641 61.34737396240234 C 85.88994598388672 56.17134475708008 87 50.67128753662109 87 45 C 87 39.32871246337891 85.88994598388672 33.82865524291992 83.70066070556641 28.65262985229492 C 81.58542633056641 23.65165710449219 78.55665588378906 19.15968322753906 74.698486328125 15.301513671875 C 70.84031677246094 11.44334411621094 66.34834289550781 8.414573669433594 61.34737396240234 6.299339294433594 C 56.17134475708008 4.110054016113281 50.67128753662109 3 45 3 M 45 0 C 69.85281372070312 0 90 20.14718627929688 90 45 C 90 69.85281372070312 69.85281372070312 90 45 90 C 20.14718627929688 90 0 69.85281372070312 0 45 C 0 20.14718627929688 20.14718627929688 0 45 0 Z" stroke="none" fill="#526a7e"/>
                </g>
              </g>
            </g>
          </g>
        </g>
      </g>
    </g>
    <g id="equipo_1_" data-name="equipo (1)" transform="translate(183.5 1683.784)">
      <g id="Grupo_1160104" data-name="Grupo 1160104" transform="translate(1.071 85.878)">
        <path id="Trazado_993177" data-name="Trazado 993177" d="M107.865,175.2h1.843a4.5,4.5,0,0,1,4.482,4.486l1.18,5.9-1.18,5.234H96.86V179.689a4.5,4.5,0,0,1,4.482-4.486Z" transform="translate(-84.121 -163.385)" fill="#a5cdff" fill-rule="evenodd"/>
        <path id="Trazado_993178" data-name="Trazado 993178" d="M229.367,175.2h1.891a4.5,4.5,0,0,1,4.482,4.486l1.661,6.276-1.661,17.787H218.41V179.689a4.5,4.5,0,0,1,4.482-4.486Z" transform="translate(-188.341 -163.385)" fill="#ff6978" fill-rule="evenodd"/>
        <path id="Trazado_993179" data-name="Trazado 993179" d="M350.917,175.2h1.891a4.5,4.5,0,0,1,4.482,4.486v16.534H339.96V179.689a4.5,4.5,0,0,1,4.482-4.486Z" transform="translate(-292.561 -163.385)" fill="#ccf49f" fill-rule="evenodd"/>
        <path id="Trazado_993180" data-name="Trazado 993180" d="M410.29,179.689v16.534h3.46V179.689a4.5,4.5,0,0,0-4.482-4.486h-3.46A4.5,4.5,0,0,1,410.29,179.689Z" transform="translate(-349.02 -163.385)" fill="#b3e59f" fill-rule="evenodd"/>
        <path id="Trazado_993181" data-name="Trazado 993181" d="M288.741,179.689v16.534h3.46V179.689a4.5,4.5,0,0,0-4.482-4.486h-3.46A4.5,4.5,0,0,1,288.741,179.689Z" transform="translate(-244.801 -163.385)" fill="#eb616f" fill-rule="evenodd"/>
        <path id="Trazado_993182" data-name="Trazado 993182" d="M167.191,179.689v16.534h3.46V179.689a4.5,4.5,0,0,0-4.482-4.486h-3.46A4.5,4.5,0,0,1,167.191,179.689Z" transform="translate(-140.582 -163.385)" fill="#8abfff" fill-rule="evenodd"/>
        <path id="Trazado_993183" data-name="Trazado 993183" d="M114.243,232.547a5.521,5.521,0,0,1,1.847,10.722,16.1,16.1,0,0,0,4.729-1.483l14.048-6.268a5.515,5.515,0,0,1,7.283,2.789c1.241,2.781-.319,5.5-2.789,7.279l-15.6,11.292c-3.977,2.878-7.392,2.441-10.989,2.114l-22.3-2.041c-3.165-.291-6.042-2.781-8.071-4.866V238.912c.958-4.623,9.752-6.236,12.739-6.365Z" transform="translate(-71.725 -212.553)" fill="#ffcbbe"/>
        <path id="Trazado_993184" data-name="Trazado 993184" d="M141.459,264.863a5.485,5.485,0,0,1,.691,1.152c1.241,2.781-.319,5.5-2.789,7.279l-15.6,11.292c-3.977,2.878-7.392,2.441-10.989,2.114l-22.3-2.041c-3.165-.291-6.042-2.781-8.071-4.866v-2.336c1.908,1.778,4.333,3.524,6.952,3.767l22.3,2.041c3.6.328,7.012.764,10.989-2.114l15.6-11.292A7.068,7.068,0,0,0,141.459,264.863Z" transform="translate(-71.726 -240.262)" fill="#f7beaf"/>
        <g id="Grupo_1160103" data-name="Grupo 1160103" transform="translate(0 0)">
          <path id="Trazado_993185" data-name="Trazado 993185" d="M16.881,244.963H12.023a4.567,4.567,0,0,0-4.51,4.6V262.73a4.564,4.564,0,0,0,4.51,4.591h4.858A4.567,4.567,0,0,0,21.4,262.73V249.558A4.571,4.571,0,0,0,16.881,244.963Z" transform="translate(-7.513 -223.199)" fill="#477b9e" fill-rule="evenodd"/>
          <path id="Trazado_993186" data-name="Trazado 993186" d="M206.5,241.125a1.073,1.073,0,0,0,0,2.146h15.075a5.519,5.519,0,0,0-.113-10.439c-.1-.036-.206-.065-.311-.093a5.367,5.367,0,0,0-1.423-.19h-3.464a5.536,5.536,0,0,1,5.521,5.521,4.424,4.424,0,0,1-.287,1.754c-.424.986-.647,1.3-2.114,1.3Z" transform="translate(-177.209 -212.555)" fill="#f7beaf" fill-rule="evenodd"/>
          <path id="Trazado_993187" data-name="Trazado 993187" d="M376.9,100.07a4.753,4.753,0,0,1-9.506,0V94.977a2.667,2.667,0,0,1,2.659-2.659h4.187a2.667,2.667,0,0,1,2.659,2.659Z" transform="translate(-316.086 -92.318)" fill="#c68b87" fill-rule="evenodd"/>
          <path id="Trazado_993188" data-name="Trazado 993188" d="M133.8,100.07a4.753,4.753,0,0,1-9.506,0V94.977a2.667,2.667,0,0,1,2.659-2.659H133.1a.637.637,0,0,1,.707.707Z" transform="translate(-107.648 -92.318)" fill="#ffcbbe" fill-rule="evenodd"/>
          <path id="Trazado_993189" data-name="Trazado 993189" d="M367.4,94.977V98.1l3.249-1.592a1.64,1.64,0,0,1,1.305-.085L376.9,98.1V94.977a2.667,2.667,0,0,0-2.659-2.659h-4.187A2.667,2.667,0,0,0,367.4,94.977Z" transform="translate(-316.086 -92.318)" fill="#477b9e" fill-rule="evenodd"/>
          <path id="Trazado_993190" data-name="Trazado 993190" d="M124.3,94.977v1.536H133.8V93.025a.637.637,0,0,0-.707-.707h-6.139a2.667,2.667,0,0,0-2.659,2.659Z" transform="translate(-107.648 -92.318)" fill="#ffe5a0" fill-rule="evenodd"/>
          <path id="Trazado_993191" data-name="Trazado 993191" d="M255.355,100.07a4.753,4.753,0,0,1-9.506,0V94.977a2.667,2.667,0,0,1,2.659-2.659H252.7a2.667,2.667,0,0,1,2.659,2.659Z" transform="translate(-211.868 -92.318)" fill="#ffcbbe" fill-rule="evenodd"/>
          <path id="Trazado_993192" data-name="Trazado 993192" d="M245.849,94.976v1.851a3.619,3.619,0,0,0,3.1-.287c.5-.287.582-.339,1.079.093a5.691,5.691,0,0,0,5.323.889V94.976a2.667,2.667,0,0,0-2.659-2.659h-4.187A2.667,2.667,0,0,0,245.849,94.976Z" transform="translate(-211.868 -92.317)" fill="#c68b87" fill-rule="evenodd"/>
          <path id="Trazado_993193" data-name="Trazado 993193" d="M148.526,125.3a4.757,4.757,0,0,1-2.3,4.066,4.6,4.6,0,0,1-.719.36,4.75,4.75,0,0,0,6.483-4.425v-3.557h-3.46V125.3Z" transform="translate(-125.829 -117.547)" fill="#f7beaf" fill-rule="evenodd"/>
          <path id="Trazado_993194" data-name="Trazado 993194" d="M162.429,93.025v3.488h3.46V93.025a.637.637,0,0,0-.707-.707h-3.464A.638.638,0,0,1,162.429,93.025Z" transform="translate(-139.732 -92.318)" fill="#f2ce7e" fill-rule="evenodd"/>
          <path id="Trazado_993195" data-name="Trazado 993195" d="M270.075,131.375a4.757,4.757,0,0,1-2.3,4.066,4.6,4.6,0,0,1-.719.36,4.75,4.75,0,0,0,6.483-4.425v-2.546a6.313,6.313,0,0,1-3.46.113v2.433Z" transform="translate(-230.048 -123.623)" fill="#f7beaf" fill-rule="evenodd"/>
          <path id="Trazado_993196" data-name="Trazado 993196" d="M269.6,92.318a2.667,2.667,0,0,1,2.659,2.659v2.659a6.313,6.313,0,0,0,3.46-.113V94.977a2.667,2.667,0,0,0-2.659-2.659Z" transform="translate(-232.236 -92.318)" fill="#bd7d79" fill-rule="evenodd"/>
          <path id="Trazado_993197" data-name="Trazado 993197" d="M391.625,127.8a4.757,4.757,0,0,1-2.3,4.066,4.6,4.6,0,0,1-.719.36,4.75,4.75,0,0,0,6.483-4.425v-1.968l-3.46-1.172Z" transform="translate(-334.267 -120.049)" fill="#bd7d79" fill-rule="evenodd"/>
          <path id="Trazado_993198" data-name="Trazado 993198" d="M391.153,92.318a2.667,2.667,0,0,1,2.659,2.659v1.952l3.46,1.172V94.977a2.667,2.667,0,0,0-2.659-2.659Z" transform="translate(-336.455 -92.318)" fill="#365e7d" fill-rule="evenodd"/>
          <path id="Trazado_993199" data-name="Trazado 993199" d="M53.469,262.731a4.567,4.567,0,0,1-4.514,4.591h3.46a4.509,4.509,0,0,0,3.876-2.247,4.6,4.6,0,0,0,.639-2.344V249.559a4.616,4.616,0,0,0-1.144-3.047,4.465,4.465,0,0,0-3.371-1.548h-3.46a4.571,4.571,0,0,1,4.514,4.6Z" transform="translate(-43.046 -223.2)" fill="#365e7d" fill-rule="evenodd"/>
        </g>
      </g>
      <path id="Trazado_993200" data-name="Trazado 993200" d="M14.877,107.3a17.616,17.616,0,0,1,2.085-.921v-2.469a1.069,1.069,0,1,1,2.138,0v1.79a26.687,26.687,0,0,1,5.339-.889c.465-.012.942,0,1.411,0v-.9a1.069,1.069,0,1,1,2.138,0v.9h2.081v-2.623a3.422,3.422,0,0,0-3.411-3.415H25.207a5.785,5.785,0,0,1-5.468,0H18.292a3.429,3.429,0,0,0-3.415,3.415V107.3Zm17.33-2.494h2.085v-.9a1.069,1.069,0,1,1,2.138,0v.9H43.18v-.9a1.069,1.069,0,1,1,2.138,0v1.128a6.706,6.706,0,0,1,2.085.994v-3.847a3.429,3.429,0,0,0-3.415-3.415H42.537a5.776,5.776,0,0,1-5.464,0H35.622a3.429,3.429,0,0,0-3.415,3.415V104.8Zm17.334,3.775a6.54,6.54,0,0,1-.02,5.662c.679-.339,1.407-.639,2.1-.946v-9.389a1.069,1.069,0,1,1,2.138,0v8.431l6.749-3.011v-5.42a1.069,1.069,0,1,1,2.138,0v4.466l1.132-.505a6.864,6.864,0,0,1,.954-.339v-5.347a3.429,3.429,0,0,0-3.415-3.415H59.872a5.785,5.785,0,0,1-5.468,0H52.953a3.422,3.422,0,0,0-3.411,3.415Zm17.33-1.273a6.6,6.6,0,0,1,5.6,3.888,5.842,5.842,0,0,1,.117,4.591,9.137,9.137,0,0,1-3.253,3.989l-5.775,4.179a1.068,1.068,0,0,1-1.253-1.73l5.775-4.179a7.013,7.013,0,0,0,2.51-3.019,3.78,3.78,0,0,0-.069-2.962,4.453,4.453,0,0,0-5.872-2.247l-14.012,6.252a20.014,20.014,0,0,1-2.4,1.059,9.22,9.22,0,0,1-2.8.534H29.778a1.069,1.069,0,0,1,0-2.138H45.249a4.454,4.454,0,0,0-1.665-8.58H24.508a22.512,22.512,0,0,0-5.137.9,16.726,16.726,0,0,0-4.05,1.661,5.687,5.687,0,0,1,.7,2.736v4.082a1.069,1.069,0,1,1-2.138,0v-4.082a3.492,3.492,0,0,0-3.443-3.524H5.581a3.492,3.492,0,0,0-3.443,3.524v13.171A3.553,3.553,0,0,0,3.156,127.9a3.39,3.39,0,0,0,2.425,1.031h4.858a3.4,3.4,0,0,0,2.429-1.031,3.559,3.559,0,0,0,1.014-2.494v-4.086a1.069,1.069,0,0,1,2.138,0v4.086a5.646,5.646,0,0,1-.368,2.013,12.63,12.63,0,0,0,1.738,1.043,7.347,7.347,0,0,0,2.522.748l22.681,2.077c3.253.3,6.373.59,9.886-1.952l5.775-4.179a1.068,1.068,0,1,1,1.253,1.73l-5.775,4.179c-4.159,3.011-7.667,2.684-11.332,2.344l-22.677-2.077a9.3,9.3,0,0,1-3.257-.95,13.847,13.847,0,0,1-1.932-1.14,5.534,5.534,0,0,1-4.094,1.827H5.581A5.519,5.519,0,0,1,1.637,129.4,5.675,5.675,0,0,1,0,125.408V112.237a5.641,5.641,0,0,1,5.581-5.662h4.858a5.482,5.482,0,0,1,2.3.505v-4.9a5.566,5.566,0,0,1,4.781-5.5,5.79,5.79,0,0,1-.869-3.051V88.537a3.74,3.74,0,0,1,3.73-3.73h6.846A1.069,1.069,0,0,1,28.3,85.878V93.63a5.754,5.754,0,0,1-.869,3.051,5.533,5.533,0,0,1,3.152,1.576,5.786,5.786,0,0,1,.562.655,5.406,5.406,0,0,1,.562-.655,5.536,5.536,0,0,1,3.148-1.576,5.79,5.79,0,0,1-.869-3.051V88.537a3.74,3.74,0,0,1,3.73-3.73H41.9a3.74,3.74,0,0,1,3.73,3.73V93.63a5.79,5.79,0,0,1-.869,3.051,5.535,5.535,0,0,1,3.148,1.576,5.406,5.406,0,0,1,.562.655,5.771,5.771,0,0,1,.562-.655,5.535,5.535,0,0,1,3.152-1.576,5.753,5.753,0,0,1-.869-3.051V88.537a3.74,3.74,0,0,1,3.726-3.73h4.187a3.74,3.74,0,0,1,3.73,3.73V93.63a5.79,5.79,0,0,1-.869,3.051,5.566,5.566,0,0,1,4.781,5.5Zm-6.05-14.881L56.339,90.91l-2.886,1.415V93.63a3.684,3.684,0,0,0,7.368,0v-1.2Zm-7.368-2.474,2.284-1.12a1.073,1.073,0,0,1,.873-.085l4.211,1.427V88.537a1.6,1.6,0,0,0-1.592-1.592H55.042a1.6,1.6,0,0,0-1.588,1.592ZM18.789,89h7.368V86.945H20.382a1.6,1.6,0,0,0-1.592,1.592Zm7.368,2.138H18.789v2.49a3.684,3.684,0,0,0,7.368,0V91.14ZM43.487,92.4a6.313,6.313,0,0,1-4.878-1.334,4.792,4.792,0,0,1-2.486.614V93.63a3.682,3.682,0,0,0,7.364,0V92.4Zm-7.364-2.853a2.666,2.666,0,0,0,1.912-.655,1.064,1.064,0,0,1,1.5.105,4.164,4.164,0,0,0,3.949,1.257V88.537A1.594,1.594,0,0,0,41.9,86.945H37.712a1.594,1.594,0,0,0-1.588,1.592v1.007Z"/>
    </g>
  </g>
</svg>
