<svg xmlns="http://www.w3.org/2000/svg" xmlns:xlink="http://www.w3.org/1999/xlink" width="108" height="108" viewBox="0 0 108 108">
  <defs>
    <filter id="Trazado_982547" x="0" y="0" width="108" height="108" filterUnits="userSpaceOnUse">
      <feOffset dy="3" input="SourceAlpha"/>
      <feGaussianBlur stdDeviation="3" result="blur"/>
      <feFlood flood-opacity="0.161"/>
      <feComposite operator="in" in2="blur"/>
      <feComposite in="SourceGraphic"/>
    </filter>
  </defs>
  <g id="Grupo_1159992" data-name="Grupo 1159992" transform="translate(-166 -3761)">
    <g id="Grupo_1158922" data-name="Grupo 1158922" transform="translate(0 -1353)">
      <g id="Grupo_1153202" data-name="Grupo 1153202" transform="translate(-88 4601)">
        <g id="Grupo_1149598" data-name="Grupo 1149598" transform="translate(80 315)">
          <g id="Grupo_1148770" data-name="Grupo 1148770" transform="translate(-27 -2583)">
            <g id="Grupo_1146954" data-name="Grupo 1146954" transform="translate(-415 -1202)">
              <g transform="matrix(1, 0, 0, 1, 616, 3983)" filter="url(#Trazado_982547)">
                <g id="Trazado_982547-2" data-name="Trazado 982547" transform="translate(9 6)" fill="#fef6e8">
                  <path d="M 45 88.5 C 39.12687683105469 88.5 33.43022537231445 87.35007476806641 28.06830024719238 85.08217620849609 C 22.88852500915527 82.89131164550781 18.23629951477051 79.75458526611328 14.2408504486084 75.75914764404297 C 10.24541282653809 71.76370239257812 7.108687400817871 67.11147308349609 4.917825222015381 61.93170166015625 C 2.649924993515015 56.56977462768555 1.5 50.87312316894531 1.5 45 C 1.5 39.12687683105469 2.649924993515015 33.43022537231445 4.917825222015381 28.06830024719238 C 7.108687400817871 22.88852500915527 10.24541282653809 18.23629951477051 14.2408504486084 14.2408504486084 C 18.23629951477051 10.24541282653809 22.88852500915527 7.108687400817871 28.06830024719238 4.917825222015381 C 33.43022537231445 2.649924993515015 39.12687683105469 1.5 45 1.5 C 50.87312316894531 1.5 56.56977462768555 2.649924993515015 61.93170166015625 4.917825222015381 C 67.11147308349609 7.108687400817871 71.76370239257812 10.24541282653809 75.75914764404297 14.2408504486084 C 79.75458526611328 18.23629951477051 82.89131164550781 22.88852500915527 85.08217620849609 28.06830024719238 C 87.35007476806641 33.43022537231445 88.5 39.12687683105469 88.5 45 C 88.5 50.87312316894531 87.35007476806641 56.56977462768555 85.08217620849609 61.93170166015625 C 82.89131164550781 67.11147308349609 79.75458526611328 71.76370239257812 75.75914764404297 75.75914764404297 C 71.76370239257812 79.75458526611328 67.11147308349609 82.89131164550781 61.93170166015625 85.08217620849609 C 56.56977462768555 87.35007476806641 50.87312316894531 88.5 45 88.5 Z" stroke="none"/>
                  <path d="M 45 3 C 39.32871246337891 3 33.82865524291992 4.110054016113281 28.65262985229492 6.299339294433594 C 23.65165710449219 8.414573669433594 19.15968322753906 11.44334411621094 15.301513671875 15.301513671875 C 11.44334411621094 19.15968322753906 8.414573669433594 23.65165710449219 6.299339294433594 28.65262985229492 C 4.110054016113281 33.82865524291992 3 39.32871246337891 3 45 C 3 50.67128753662109 4.110054016113281 56.17134475708008 6.299339294433594 61.34737396240234 C 8.414573669433594 66.34834289550781 11.44334411621094 70.84031677246094 15.301513671875 74.698486328125 C 19.15968322753906 78.55665588378906 23.65165710449219 81.58542633056641 28.65262985229492 83.70066070556641 C 33.82865524291992 85.88994598388672 39.32871246337891 87 45 87 C 50.67128753662109 87 56.17134475708008 85.88994598388672 61.34737396240234 83.70066070556641 C 66.34834289550781 81.58542633056641 70.84031677246094 78.55665588378906 74.698486328125 74.698486328125 C 78.55665588378906 70.84031677246094 81.58542633056641 66.34834289550781 83.70066070556641 61.34737396240234 C 85.88994598388672 56.17134475708008 87 50.67128753662109 87 45 C 87 39.32871246337891 85.88994598388672 33.82865524291992 83.70066070556641 28.65262985229492 C 81.58542633056641 23.65165710449219 78.55665588378906 19.15968322753906 74.698486328125 15.301513671875 C 70.84031677246094 11.44334411621094 66.34834289550781 8.414573669433594 61.34737396240234 6.299339294433594 C 56.17134475708008 4.110054016113281 50.67128753662109 3 45 3 M 45 0 C 69.85281372070312 0 90 20.14718627929688 90 45 C 90 69.85281372070312 69.85281372070312 90 45 90 C 20.14718627929688 90 0 69.85281372070312 0 45 C 0 20.14718627929688 20.14718627929688 0 45 0 Z" stroke="none" fill="#fdaf2f"/>
                </g>
              </g>
            </g>
          </g>
        </g>
      </g>
    </g>
    <g id="rompecabezas_3_" data-name="rompecabezas (3)" transform="translate(187.25 3779.317)">
      <path id="Trazado_992950" data-name="Trazado 992950" d="M217.474,442.422H204.257v5.3a2.63,2.63,0,0,0,2.63,2.63h7.957a2.63,2.63,0,0,0,2.63-2.63Z" transform="translate(-178.115 -385.945)" fill="#d8ecfe"/>
      <path id="Trazado_992951" data-name="Trazado 992951" d="M210.713,450.349h-3.83a2.63,2.63,0,0,1-2.63-2.63v-5.3h3.83v5.3A2.63,2.63,0,0,0,210.713,450.349Z" transform="translate(-178.113 -385.941)" fill="#b3dafe"/>
      <path id="Trazado_992952" data-name="Trazado 992952" d="M196.212,415.224H180.351a1.983,1.983,0,1,1,0-3.965h15.861a1.983,1.983,0,1,1,0,3.965Z" transform="translate(-155.531 -358.76)" fill="#eaf6ff"/>
      <path id="Trazado_992953" data-name="Trazado 992953" d="M184.177,415.223h-3.83a1.982,1.982,0,1,1,0-3.965h3.83a1.982,1.982,0,1,0,0,3.965Z" transform="translate(-155.528 -358.759)" fill="#d8ecfe"/>
      <path id="Trazado_992954" data-name="Trazado 992954" d="M123.844,234.872a3.3,3.3,0,0,1-3.3,3.3v9.615h-6.609v-1.935a3.284,3.284,0,0,0-1.868-2.971,19.828,19.828,0,0,1-11.35-17.925v-.023h6.609v.022a3.3,3.3,0,1,0,6.609,0v-.022h6.609v6.63A3.3,3.3,0,0,1,123.844,234.872Z" transform="translate(-87.79 -196.224)" fill="#aee69c"/>
      <path id="Trazado_992955" data-name="Trazado 992955" d="M116.484,245.857v1.935h-2.553v-1.935a3.284,3.284,0,0,0-1.868-2.971,19.828,19.828,0,0,1-11.35-17.925v-.023h2.553v.023a19.828,19.828,0,0,0,11.35,17.925A3.284,3.284,0,0,1,116.484,245.857Z" transform="translate(-87.79 -196.224)" fill="#89daa4"/>
      <path id="Trazado_992956" data-name="Trazado 992956" d="M275.85,202.5v.022a19.826,19.826,0,0,1-11.342,17.923,3.289,3.289,0,0,0-1.875,2.974v2.872h-6.609V215.74a3.3,3.3,0,0,0,0-6.609V202.5h6.609a3.3,3.3,0,0,1,6.609,0Z" transform="translate(-223.274 -173.787)" fill="#8ac9fe"/>
      <path id="Trazado_992957" data-name="Trazado 992957" d="M253.274,89.6h-6.609a3.3,3.3,0,0,0-6.609,0h-6.609V83.015a3.3,3.3,0,0,1,0-6.609V69.8A19.826,19.826,0,0,1,253.274,89.6Z" transform="translate(-200.698 -60.888)" fill="#ffe177"/>
      <path id="Trazado_992958" data-name="Trazado 992958" d="M117.236,79.71a3.3,3.3,0,0,0,3.3,3.3V89.6h-6.609v.022a3.3,3.3,0,1,1-6.609,0V89.6h-6.609A19.788,19.788,0,0,1,120.54,69.8v6.609a3.3,3.3,0,0,0-3.3,3.3Z" transform="translate(-87.79 -60.888)" fill="#fe646f"/>
      <path id="Trazado_992959" data-name="Trazado 992959" d="M120.54,69.8v.162A19.784,19.784,0,0,0,103.267,89.6h-2.553A19.788,19.788,0,0,1,120.54,69.8Z" transform="translate(-87.79 -60.888)" fill="#fd4755"/>
      <g id="Grupo_1159991" data-name="Grupo 1159991" transform="translate(0.077)">
        <path id="Trazado_992960" data-name="Trazado 992960" d="M131.666,72.189a.957.957,0,1,0-1.63,1A18.8,18.8,0,0,1,132.8,82.1h-4.78a4.262,4.262,0,0,0-8.3,0h-4.807V76.47a.957.957,0,0,0-.957-.957,2.347,2.347,0,0,1,0-4.693.957.957,0,0,0,.957-.957V64.234a18.694,18.694,0,0,1,12.669,5.792.957.957,0,0,0,1.383-1.325,20.609,20.609,0,0,0-15-6.406h-.026a20.786,20.786,0,0,0-13.693,5.138.957.957,0,0,0,1.262,1.44A18.858,18.858,0,0,1,113,64.235v4.778a4.262,4.262,0,0,0,0,8.306V82.1h-5.651a.957.957,0,0,0-.957.957v.022a2.347,2.347,0,0,1-4.695,0v-.022a.957.957,0,0,0-.957-.957H95.118a18.7,18.7,0,0,1,3.7-10.306.957.957,0,0,0-1.535-1.145,20.642,20.642,0,0,0-4.108,12.408c-.191,7.9,4.848,15.473,11.9,18.814a2.334,2.334,0,0,1,1.32,2.105v1.908c-1.965,0-3.305,1.053-3.305,2.94s1.3,2.942,3.305,2.94v4.357a3.709,3.709,0,0,0,3.587,3.587h7.958a3.709,3.709,0,0,0,3.587-3.587v-4.357c2.242,0,3.306-1.19,3.305-2.94,0-1.825-1.148-2.94-3.305-2.94v-1.908a2.341,2.341,0,0,1,1.328-2.109,21.131,21.131,0,0,0,11.889-18.81,20.734,20.734,0,0,0-3.079-10.867ZM105.9,100.14A18.973,18.973,0,0,1,95.119,84.014H99.89a4.263,4.263,0,0,0,8.317,0H113v5.673a.957.957,0,0,0,.957.957,2.347,2.347,0,0,1,0,4.693A.957.957,0,0,0,113,96.3v9.589H108.31v-1.908A4.257,4.257,0,0,0,105.9,100.14Zm12.045,17.653h-7.958a1.755,1.755,0,0,1-1.672-2.043h11.3C119.615,116.772,119.291,117.793,117.94,117.793Zm3.951-7.944h-5.918a.957.957,0,0,0-.957.957s0,0,0,.006,0,0,0,.006a.957.957,0,0,0,.957.957h3.639v2.059h-11.3v-2.059H111.8a.957.957,0,0,0,.957-.957s0,0,0-.006,0,0,0-.006a.957.957,0,0,0-.957-.957h-5.77a1.032,1.032,0,1,1,0-2.05h15.86A1.026,1.026,0,1,1,121.891,109.849Zm.144-9.713a4.265,4.265,0,0,0-2.423,3.84v1.908h-4.694v-8.74a4.262,4.262,0,0,0,0-8.306V84.014h5.651a.957.957,0,0,0,.957-.951,2.347,2.347,0,0,1,4.695,0,.957.957,0,0,0,.957.951H132.8A18.972,18.972,0,0,1,122.035,100.136Z" transform="translate(-81.289 -54.343)"/>
        <g id="Grupo_1159990" data-name="Grupo 1159990" transform="translate(0)">
          <g id="Grupo_1159978" data-name="Grupo 1159978" transform="translate(31.715)">
            <path id="Trazado_992961" data-name="Trazado 992961" d="M249.481,5.88a.957.957,0,0,1-.957-.957V.957a.957.957,0,0,1,1.915,0V4.923A.957.957,0,0,1,249.481,5.88Z" transform="translate(-248.524)"/>
          </g>
          <g id="Grupo_1159979" data-name="Grupo 1159979" transform="translate(45.59 4.249)">
            <path id="Trazado_992962" data-name="Trazado 992962" d="M357.692,38.5a.956.956,0,0,1-.35-1.308l1.983-3.434a.957.957,0,1,1,1.658.957L359,38.154A1.031,1.031,0,0,1,357.692,38.5Z" transform="translate(-357.213 -33.284)"/>
          </g>
          <g id="Grupo_1159982" data-name="Grupo 1159982" transform="translate(4.258 15.857)">
            <g id="Grupo_1159980" data-name="Grupo 1159980" transform="translate(51.49)">
              <path id="Trazado_992963" data-name="Trazado 992963" d="M436.912,127.641a.957.957,0,0,1,.35-1.308l3.434-1.983a.957.957,0,0,1,.957,1.658l-3.434,1.983A1,1,0,0,1,436.912,127.641Z" transform="translate(-436.784 -124.222)"/>
            </g>
            <g id="Grupo_1159981" data-name="Grupo 1159981" transform="translate(0 29.733)">
              <path id="Trazado_992964" data-name="Trazado 992964" d="M33.549,360.557a.972.972,0,0,1,.35-1.308l3.434-1.983a.957.957,0,1,1,.957,1.658l-3.434,1.983A.9.9,0,0,1,33.549,360.557Z" transform="translate(-33.429 -357.138)"/>
            </g>
          </g>
          <g id="Grupo_1159983" data-name="Grupo 1159983" transform="translate(15.858 4.249)">
            <path id="Trazado_992965" data-name="Trazado 992965" d="M126.41,38.155l-1.983-3.434a.957.957,0,0,1,1.658-.957l1.983,3.434a.972.972,0,0,1-.35,1.308A1,1,0,0,1,126.41,38.155Z" transform="translate(-124.299 -33.284)"/>
          </g>
          <g id="Grupo_1159986" data-name="Grupo 1159986" transform="translate(4.249 15.858)">
            <g id="Grupo_1159984" data-name="Grupo 1159984">
              <path id="Trazado_992966" data-name="Trazado 992966" d="M37.275,127.992l-3.434-1.983a.957.957,0,1,1,.957-1.658l3.434,1.983a.912.912,0,0,1,.35,1.308A.976.976,0,0,1,37.275,127.992Z" transform="translate(-33.362 -124.222)"/>
            </g>
            <g id="Grupo_1159985" data-name="Grupo 1159985" transform="translate(51.499 29.733)">
              <path id="Trazado_992967" data-name="Trazado 992967" d="M440.7,360.908l-3.434-1.983a.957.957,0,0,1,.957-1.658l3.434,1.983a.942.942,0,0,1,.35,1.308A.882.882,0,0,1,440.7,360.908Z" transform="translate(-436.784 -357.139)"/>
            </g>
          </g>
          <g id="Grupo_1159989" data-name="Grupo 1159989" transform="translate(0 31.715)">
            <g id="Grupo_1159987" data-name="Grupo 1159987">
              <path id="Trazado_992968" data-name="Trazado 992968" d="M5,250.362H1.034a.957.957,0,0,1,0-1.915H5a.957.957,0,1,1,0,1.915Z" transform="translate(-0.077 -248.447)"/>
            </g>
            <g id="Grupo_1159988" data-name="Grupo 1159988" transform="translate(59.466)">
              <path id="Trazado_992969" data-name="Trazado 992969" d="M470.831,250.362h-3.965a.957.957,0,0,1,0-1.915h3.965a.957.957,0,1,1,0,1.915Z" transform="translate(-465.908 -248.447)"/>
            </g>
          </g>
        </g>
      </g>
    </g>
  </g>
</svg>
